<svg id="Layer_1" data-name="Layer 1" xmlns="http://www.w3.org/2000/svg" xmlns:xlink="http://www.w3.org/1999/xlink" viewBox="0 0 1009.05 871.15"><defs><style>.cls-1{fill:none;}.cls-2{clip-path:url(#clip-path);}.cls-3{fill:#2d2d2c;}.cls-4{clip-path:url(#clip-path-2);}.cls-5{opacity:0.2;}.cls-6{clip-path:url(#clip-path-3);}.cls-7{fill:#7f8080;}.cls-8{clip-path:url(#clip-path-4);}.cls-9{fill:#2b2c2b;}.cls-10{opacity:0.23;}.cls-11{clip-path:url(#clip-path-6);}.cls-12{clip-path:url(#clip-path-7);}.cls-13{clip-path:url(#clip-path-8);}.cls-14{clip-path:url(#clip-path-9);}</style><clipPath id="clip-path"><rect class="cls-1" x="-8.09" y="-782.28" width="2100" height="2100"/></clipPath><clipPath id="clip-path-2"><rect class="cls-1" x="-1.09" y="-771.28" width="2100" height="2100"/></clipPath><clipPath id="clip-path-3"><rect class="cls-1" x="383.86" y="658.35" width="48.7" height="68.54"/></clipPath><clipPath id="clip-path-4"><rect class="cls-1" x="541.97" y="660.74" width="48.28" height="63.27"/></clipPath><clipPath id="clip-path-6"><rect class="cls-1" x="141.38" y="258.98" width="90.53" height="50.4"/></clipPath><clipPath id="clip-path-7"><rect class="cls-1" x="270.34" y="253.16" width="187.96" height="56.17"/></clipPath><clipPath id="clip-path-8"><rect class="cls-1" x="506.14" y="257.66" width="177.39" height="51.11"/></clipPath><clipPath id="clip-path-9"><rect class="cls-1" x="734.24" y="256.04" width="107.07" height="57.77"/></clipPath></defs><title>batch-op-vertical</title><g class="cls-2"><path class="cls-3" d="M483.53,404.44q.16-5,.28-10.08c0-1.14,0-2.28.07-3.41a2.82,2.82,0,0,1,5.63,0c-.07,3.5-.13,7-.24,10.5-.09,3.15-.12,6.29-.14,9.44a14.46,14.46,0,0,0,.07,1.74l.13,3c.06,1.44.19,2.88.3,4.32.2,2.84.38,5.68.47,8.53,0,1,.06,2,.09,2.93a2.68,2.68,0,0,1-4.57,1.89,2.8,2.8,0,0,1-.78-1.89c-.23-3.18-.5-6.34-.75-9.51s-.44-6.19-.56-9.3q-.06-1.74-.06-3.49c0-1.57,0-3.14.09-4.7"/><path class="cls-3" d="M474.69,419.8a3.57,3.57,0,0,1,2.51-1,3.73,3.73,0,0,1,2.51,1c.54.46,1.06.93,1.57,1.41a19.4,19.4,0,0,1,2.14,2.52c.52.68,1,1.38,1.49,2.08.69,1,1.39,2,2.11,2.91.48.59,1,1.18,1.44,1.75l.71.84c.59-.62,1.16-1.28,1.74-1.89s1.45-1.48,2.17-2.23c1.8-1.89,3.59-3.79,5.32-5.75a3.59,3.59,0,0,1,6.12,2.53,3.86,3.86,0,0,1-1,2.54q-2.43,3.07-5.08,6c-.7.76-1.43,1.5-2.17,2.23a32.44,32.44,0,0,1-4.09,3.63,8.13,8.13,0,0,1-1.58.72,10.72,10.72,0,0,1-1.32.2,5.7,5.7,0,0,1-1.31-.13,6.41,6.41,0,0,1-1.22-.47,3.93,3.93,0,0,1-1.06-.74,10.16,10.16,0,0,1-1.29-1.27c-.82-.93-1.61-1.88-2.38-2.85-1.56-2-2.9-4.07-4.4-6.08a23.2,23.2,0,0,0-2.89-2.9,3.13,3.13,0,0,1-1-2.42,3.74,3.74,0,0,1,1-2.62m13.08,12.69h0"/></g><g class="cls-4"><g class="cls-5"><g class="cls-6"><path class="cls-7" d="M421.57,658.52a19.32,19.32,0,0,0-2.22.33,30.88,30.88,0,0,0-5.57,1.88c-1.35.59-2.69,1.21-4,1.79a10,10,0,0,0-3.14,2.14,12.34,12.34,0,0,0-2.08,2.93,41.42,41.42,0,0,0-3.56,9.86l-.9,3.75c-.3,1.25-.54,2.61-.79,3.92-.51,2.12-1.16,4.21-1.72,6.32-.63,2.36-1.07,4.75-1.53,7.15a38.39,38.39,0,0,1-2.28,7.77,49.7,49.7,0,0,1-5.15,8.21,12.61,12.61,0,0,1-1.15,1.11c-.53.45-1.13.79-1.65,1.24a5.81,5.81,0,0,0-1.69,2.44,4.93,4.93,0,0,0,1.43,5.19,5.74,5.74,0,0,0,1.14.92l1.36.67a8,8,0,0,0,1.22.36,15.57,15.57,0,0,0,3.37.4,40.81,40.81,0,0,0,7-.89c1.63-.29,3.28-.46,4.93-.6,2.52-.13,5,0,7.55,0s5.11.27,7.67.27a47.63,47.63,0,0,0,5-.32,12.42,12.42,0,0,0,4-.75c2.39-1.09,3.13-3.75,3.39-6.13a16.5,16.5,0,0,0-.08-3c0-.53-.09-1.06-.13-1.59-.06-1.32,0-2.65-.07-4s-.08-3,0-4.45.09-2.9.1-4.35-.06-3.09-.09-4.64,0-2.94-.11-4.41-.14-3-.11-4.54c.07-3,.27-6,.5-9a82.87,82.87,0,0,0,.5-8.86c0-.79-.07-1.57-.1-2.36a7.2,7.2,0,0,0-.43-2.87h0a2.92,2.92,0,0,0,.08-1.39,4.85,4.85,0,0,0-.4-1.2,4.18,4.18,0,0,0-.85-1.21,6.34,6.34,0,0,0-1.48-1.12,6.65,6.65,0,0,0-1.78-.72,12.19,12.19,0,0,0-3-.4h-.08a28.8,28.8,0,0,0-2.93.17m6.26,9.27v0h0m-36.66,50.19.23.2-.23-.2"/></g></g><g class="cls-5"><g class="cls-8"><path class="cls-7" d="M550,660.72a16.8,16.8,0,0,0-1.87.14,5.45,5.45,0,0,0-2.52,1.18,3.85,3.85,0,0,0-1.09,1.24l-.07.1a2.44,2.44,0,0,0-.89.86,7.11,7.11,0,0,0-.66,1.37,6,6,0,0,0-.21,2v2.08c0,1.23-.06,2.45,0,3.68.13,2.57.48,5.12.78,7.67.07,1.53,0,3.06.06,4.6,0,1.74-.11,3.5-.23,5.23-.25,3.51-.78,7-1.22,10.46a33,33,0,0,0-.15,5.16c0,1.73,0,3.47.07,5.21.07,1.93.16,3.86.38,5.78a8.94,8.94,0,0,0,.72,2.85,5.47,5.47,0,0,0,2.84,2.43,11.38,11.38,0,0,0,3.4.93,18.12,18.12,0,0,0,3.5.25,17.35,17.35,0,0,0,3.39-.5l1.48-.38a33,33,0,0,1,5-.88,20.76,20.76,0,0,1,4.18.36c.83.16,1.66.32,2.5.43s1.84.16,2.75.21c1.63.09,3.26,0,4.88.21a13.22,13.22,0,0,0,2.48.37,18.25,18.25,0,0,1,2.09.08,14.22,14.22,0,0,0,2,.22,13.88,13.88,0,0,0,2.13-.23,8.59,8.59,0,0,0,1.86-.43,4.18,4.18,0,0,0,2.45-3.2,5.8,5.8,0,0,0,.09-2.39,4.49,4.49,0,0,0-1.68-2.51c-.6-.51-1.35-.79-2-1.25-.35-.26-.69-.52-1-.78a9,9,0,0,1-.87-1,26.58,26.58,0,0,1-2.11-4.59l.12.34c-.61-1.74-1.27-3.45-1.92-5.18a51.24,51.24,0,0,1-1.29-5.34,34.51,34.51,0,0,0-2.07-6.61c-.37-.86-.7-1.74-1.09-2.59s-.84-1.69-1.18-2.57c-.71-1.81-1.57-3.55-2.27-5.36q-.54-1.66-.93-3.36a22.17,22.17,0,0,0-1.78-5.22c-.16-.31-.35-.61-.53-.91a15.69,15.69,0,0,0-1.08-1.51,11.28,11.28,0,0,0-1.41-1.3,17.9,17.9,0,0,0-2.4-1.68,47.55,47.55,0,0,0-5.31-2.41,23.77,23.77,0,0,0-6.5-2.89,12.41,12.41,0,0,0-2.55-.36H550m35.39,57.62v.06h0v-.06"/></g></g><path class="cls-3" d="M376.37,575.39a4.38,4.38,0,0,0-1.23,3q-1,15.84-2.26,31.67c-.74,9.47-1.58,18.94-2.18,28.42q-.59,9.29-1.17,18.59c-.25,4-.32,8.07-.46,12.1-.14,4.19-.32,8.38-.4,12.58-.1,5-.17,10.07-.29,15.1s-.21,9.8-.4,14.7-.3,9.76-.72,14.61a4.15,4.15,0,0,0,1.26,3,4.29,4.29,0,0,0,6.07,0h0l.67-.87a4.26,4.26,0,0,0,.59-2.17c.17-1.3.3-2.61.4-3.92V722a6.42,6.42,0,0,1,0-.78,2.55,2.55,0,0,1,.07-.73c.07-.24,0-.23,0-.35v-.09a2,2,0,0,1,.07-.53c.15-2.55.23-5.1.32-7.64.17-5,.24-10,.31-15s.13-10,.19-15c0-4.15.21-8.29.33-12.44s.17-8.21.41-12.31l1.1-18.5c.57-9.51,1.4-19,2.13-28.52q1.21-15.81,2.25-31.64a24.68,24.68,0,0,1-6.35-3.79,4.1,4.1,0,0,0-.76.6"/><path class="cls-3" d="M370.86,571.91c-.31.43-.55.9-.84,1.34l-.7,1.07-1,1.55c-.78,1.21-1.58,2.41-2.34,3.64l-2.64,4.27c-.84,1.35-1.64,2.73-2.37,4.14a19.74,19.74,0,0,0-1.24,2.39,4.3,4.3,0,0,0,0,3,3,3,0,0,0,2,2,2.92,2.92,0,0,0,2.79-.73,18,18,0,0,0,1.88-2c.49-.62,1-1.27,1.45-1.91l1.65-2.18,2.8-3.72c1.73-2.31,3.48-4.61,5.21-6.92l.21-.27.59.8a36.24,36.24,0,0,0,4.77,5.41c1.89,1.71,3.79,3.42,5.75,5a3.94,3.94,0,0,0,2.63,1.09,3.73,3.73,0,0,0,1.88-6.94h0c-1.17-.9-2.34-1.81-3.49-2.74a26.5,26.5,0,0,1-3.43-.68,25,25,0,0,1-11-6.43l-2.54-3.29a10.3,10.3,0,0,0-1.88,2.07m6.37,6.24-.22.28.22-.28m15.56,4.49.32.25-.32-.25"/><path class="cls-3" d="M608.89,720.27l-.68.11c-2.87.31-5.78.37-8.67.46l-10.36.3q-9.13.26-18.26.46c-13.59.27-27.19.38-40.79.45l-37.6.2c-12.93.09-25.87.15-38.8.38-6.76.12-13.52.23-20.29.4-2.91.08-5.81.13-8.72.25-3.47.15-7,.23-10.42.44l-9.29.57c-2.64.16-5.27.4-7.91.6-5.58.43-11.12,1.12-16.67,1.82a2.5,2.5,0,0,0-1.64.68,2.31,2.31,0,0,0,0,3.27h0a2.22,2.22,0,0,0,1.64.68c3.48-.45,7-.94,10.46-1.25,3.22-.29,6.45-.57,9.68-.81q9.66-.71,19.34-1.07c12.69-.47,25.39-.61,38.09-.66q19.68-.08,39.34,0l41.12.19q18.73.09,37.45-.12l18.16-.23H607.5a26.33,26.33,0,0,1,.62-3L610,720a6.8,6.8,0,0,0-1.09.15"/><path class="cls-3" d="M597,712.72a3,3,0,0,0-1.08,4.1h0a3.32,3.32,0,0,0,1.79,1.38l.55.23-.52-.21c1.13.47,2.26,1,3.37,1.46a24.74,24.74,0,0,1,3.09,1.54l-.07.26a9.15,9.15,0,0,1-.61,1,27.49,27.49,0,0,1-4.12,3.93l-2,1.59c-.8.61-1.64,1.2-2.45,1.82-.66.5-1.35,1-2,1.51a13,13,0,0,0-1.56,1.45,25.66,25.66,0,0,0-1.85,2.3,3.47,3.47,0,0,0,3,5.22,3.32,3.32,0,0,0,2.45-1,45.49,45.49,0,0,1,6.14-5.9,53.2,53.2,0,0,0,6.33-5.86l.09-.11a26,26,0,0,1,.62-3l2-4.83a5.81,5.81,0,0,0-2.32-3.18,12.4,12.4,0,0,0-1.83-1c-2.18-1.1-4.47-2-6.72-3a1.94,1.94,0,0,0-.73-.13,3.34,3.34,0,0,0-1.58.43m7.08,8.2.15.18h0l-.15-.19m.15.31h0v0m0,.09h0a3.38,3.38,0,0,1-.06.39,1,1,0,0,1,0-.37m.2.08a2.56,2.56,0,0,1,.17.41l-.17-.41"/><path class="cls-3" d="M597.74,718.27l-.2-.09.2.09"/><path class="cls-3" d="M370.91,574.14a2.61,2.61,0,1,0,2.61-2.61h0a2.63,2.63,0,0,0-2.61,2.61"/><path class="cls-3" d="M372.58,569.18a4.41,4.41,0,0,0-1.09,1.53c-.14.31-.27.62-.4.94a6.37,6.37,0,0,1-.67,1.06l-.8,1v0c-.49.62-1,1.23-1.43,1.89s-.78,1.27-1.16,1.91a2.69,2.69,0,0,0,4.64,2.71h0c.35-.6.7-1.19,1.08-1.77a9.77,9.77,0,0,1,1-.94h.3a3.84,3.84,0,0,0,1.86-.53l.19-.1c.45.46.9.92,1.36,1.37a55.7,55.7,0,0,0,5.08,4.34l-.22-.17c1.84,1.42,3.64,2.88,5.49,4.29a17.48,17.48,0,0,0,1.61,1.29,4.27,4.27,0,0,0,3.42.56,3.27,3.27,0,0,0,2.38-3.12c.11-2.35-1.94-3.83-3.64-5.11-2-1.53-3.89-3.1-5.81-4.68-1.08-.89-2.11-1.82-3.14-2.77-.46-.42-.91-.86-1.37-1.27a30.21,30.21,0,0,0-2.41-1.84c-.44-.32-.88-.62-1.34-.9a5.22,5.22,0,0,0-2.18-.66H375a3.93,3.93,0,0,0-2.42,1.06m-3.16,4.8-.2.26.2-.26"/><path class="cls-3" d="M596.83,712.13a4.28,4.28,0,0,0-3,5.25v0l.43,1a4.35,4.35,0,0,0,1.54,1.54c1.12.85,2.24,1.69,3.39,2.49s2.47,1.61,3.69,2.43c2.23,1.51,4.63,3.38,7.48,3.15a4.67,4.67,0,0,0,3.9-2.24,4.59,4.59,0,0,0-.7-5.47,7.32,7.32,0,0,0-2.79-1.71c-1.61-.71-3.19-1.47-4.77-2.26a37.14,37.14,0,0,1-5.87-3.79,3.49,3.49,0,0,0-2.08-.59,4.68,4.68,0,0,0-1.22.16"/><path class="cls-3" d="M608.4,721.65l-3.94,2.41c-1.29.8-2.48,1.76-3.71,2.66l-3.81,2.76c-1.43,1-2.8,2.14-4.19,3.22a2.58,2.58,0,0,0,3.12,4,45.94,45.94,0,0,0,3.81-2.59c1.27-.93,2.55-1.84,3.8-2.79s2.38-1.83,3.61-2.69,2.64-1.67,4-2.49a2.66,2.66,0,0,0,1-3.6,2.7,2.7,0,0,0-2.31-1.31,2.46,2.46,0,0,0-1.29.36"/><path class="cls-3" d="M405.85,725.43c-3.71,0-7.41.14-11.11.23-1.93,0-3.86.17-5.79.26-.82,0-1.64.13-2.45.19s-1.83.12-2.74.21l-5.41.54q-3,.3-5.91.68l-1.4.2a1.56,1.56,0,0,0-1,.75,1.64,1.64,0,0,0,.59,2.24,1.79,1.79,0,0,0,1.26.16l.62-.09,2.83-.35c1-.12,2-.2,3-.29,1.8-.17,3.61-.32,5.41-.48.91-.08,1.83-.12,2.74-.17s1.64-.13,2.45-.16c1.93-.06,3.86-.16,5.79-.19,7.74-.1,15.48-.17,23.23-.25a1.75,1.75,0,0,0,0-3.5H405.84"/><path class="cls-3" d="M421.89,723.25c-2.47.11-4.92.3-7.38.5-2.23.18-4.47.36-6.7.66h-.74l-.46.06h-.27l-.78.11h.32l-.68.09h0c-2.57.34-5.13.75-7.69,1.11l-4.22.53h-.11c-1.69.19-3.37.34-5.07.44s-3.17.15-4.73.37c-.77.1-1.53.2-2.29.33l-2.5.46-4.71.89a1.38,1.38,0,0,0-.62.36,1.51,1.51,0,0,0-.41,1,.22.22,0,0,0,0,0,1.42,1.42,0,0,0,1.41,1.43h0c2-.25,4.07-.52,6.12-.75,1.49-.17,3-.32,4.46-.47,3.6-.37,7.19-.73,10.78-1.13,3.31-.37,6.6-.82,9.91-1.2,1.89-.21,3.77-.4,5.67-.57,1.71-.15,3.43-.24,5.14-.36l5.53-.39a1.89,1.89,0,0,0,1.27-.53,1.8,1.8,0,0,0-1.2-3.07h-.07m-15.61,1.36h0m-1.22.16h0m-.29,0h0m.38,0h0m.76-.1h0m.46-.06h0m0,0h0m.08,0h0m.64-.08h0m.32,0h0m.14,0h0m.46-.06h0"/><path class="cls-3" d="M376.21,721.87V722a6.13,6.13,0,0,1,0-.73c0-.25,0-.49.07-.73a1.91,1.91,0,0,0,0-.35.69.69,0,0,1,0-.09,2,2,0,0,1,.08-.56,3.19,3.19,0,0,0-.24,2.34"/><path class="cls-9" d="M394.11,406.59a8.59,8.59,0,0,0-2.47.45l-.26.09,3-.2,1.67-.11a8.36,8.36,0,0,0-1.83-.23Z"/><path class="cls-9" d="M762.67,514.11v.43l.19-.49-.2.06"/><path class="cls-9" d="M871.71,618.22l1.84-.41a1.61,1.61,0,0,0-.63-.13,1.66,1.66,0,0,0-1.21.54"/><path class="cls-9" d="M364.19,664.93a.55.55,0,0,0,0-.11v.11"/><path class="cls-9" d="M409.34,658a5.81,5.81,0,0,1-1.56.65h2.41c1.25,0,2.49.11,3.73.19.92,0,1.84.13,2.77.2s1.59.15,2.38.23a6.67,6.67,0,0,1,1,.13l.78.1c.43,0,.87.13,1.3.2a.45.45,0,0,0,.49-.41h0a.45.45,0,0,0-.41-.48c-.46-.08-.93-.16-1.4-.22l-1.14-.14-1.46-.16-1.36-.13-2.14-.15-2.7-.18c-.76,0-1.51-.07-2.27-.08l-.42.26"/><path class="cls-9" d="M424.82,655.92a83.07,83.07,0,0,0-8.37.51,33.94,33.94,0,0,0-3.6.54c-.81.17-1.6.41-2.4.64l-.89.29-.21.13a5.84,5.84,0,0,1-1.57.65h-.09a12.62,12.62,0,0,0-4.1,3.85,17.46,17.46,0,0,0-1.35,2.43,14.22,14.22,0,0,0-.83,2.15,84.23,84.23,0,0,0-1.91,8.21c-.82,4.32-1.63,8.64-2.55,12.94h0v.14c-.45,2-.91,4.09-1.33,6.13s-.81,4-1.24,6l-.45,1.67c-.14.54-.36,1.06-.55,1.58a25.22,25.22,0,0,1-1.33,2.94,19.89,19.89,0,0,1-1.25,2,17.92,17.92,0,0,1-1.49,1.85q-1.9,2-3.9,3.82a1.82,1.82,0,0,0,2.36,2.77c1.14-1.07,2.29-2.14,3.37-3.27a31.62,31.62,0,0,0,2.4-2.72,24.88,24.88,0,0,0,2.24-3.76,35,35,0,0,0,1.59-3.66c.23-.58.36-1.22.54-1.82s.36-1.47.53-2.2c.64-2.63,1.21-5.28,1.87-7.91s1.24-5,1.82-7.48c.73-3.17,1.38-6.36,2-9.54l-.08.36a39.45,39.45,0,0,1,2.55-8.58,14.22,14.22,0,0,1,1.49-2.19,10.68,10.68,0,0,1,1.43-1.23,11.19,11.19,0,0,1,1.6-.74,29.25,29.25,0,0,1,3.92-.87c.9-.14,1.8-.21,2.71-.28l2.92-.2a69.52,69.52,0,0,1,7.75.13c2.68.23,5.34.56,8,.87s5.23.64,7.84.86,5.47.39,8.22.54l7.86.45c2.62.15,5.49.42,8.24.68s5.26.5,7.89.67c1.42.09,2.83.17,4.25.17s2.8,0,4.2-.09c5.36-.2,10.73-.43,16.09-.44h14.19a12.84,12.84,0,0,1,2.72,0c5,0,10.07.1,15.1.11,2.72,0,5.43-.06,8.15-.1s5.41,0,8.11.07c.68,0,1.36,0,2,.11s1.48.17,2.22.3a51.28,51.28,0,0,1,8.86,3.2,19.66,19.66,0,0,1,3.28,2.19,14.55,14.55,0,0,1,1.66,1.93,37.66,37.66,0,0,1,3.22,7.48c.8,2.52,1.5,5.06,2.12,7.64.31,1.31.6,2.63,1,3.93s.73,2.5,1.13,3.74a52.06,52.06,0,0,0,3.16,7.77c.62,1.2,1.3,2.35,2,3.52.29.5.57,1,.87,1.5a12.54,12.54,0,0,0,1.14,1.67,8,8,0,0,0,.76.74,13.49,13.49,0,0,1,1,1,3.09,3.09,0,0,0,2,1,2.93,2.93,0,0,0,3.16-2.68,3.09,3.09,0,0,0-.69-2.14c-.52-.71-1.11-1.37-1.63-2.08-.57-1-1.06-2-1.61-3s-1.21-2.23-1.74-3.39c-1-2.27-2-4.57-2.78-6.91s-1.37-4.93-2-7.4c-.75-2.88-1.72-5.7-2.74-8.5-.44-1.23-1-2.42-1.53-3.61-.29-.63-.6-1.26-.94-1.87a21.33,21.33,0,0,0-1.49-2.31,14.11,14.11,0,0,0-2.06-2.17,24.73,24.73,0,0,0-7.67-4.32,41.65,41.65,0,0,0-8.18-2.43,51,51,0,0,0-7.83-.42c-2.77,0-5.54,0-8.31,0s-5.35,0-8,0q-7.92-.12-15.84-.21c-5.39,0-10.77-.22-16.16-.11-2.67.06-5.34.17-8,.25s-5.54.24-8.3.26-5.38-.19-8.07-.39-5.38-.48-8.08-.68c-5.34-.4-10.7-.6-16-.86s-10.62-.91-15.93-1.42q-2.11-.2-4.23-.33c-1.32-.08-2.64-.08-4-.08Z"/><path class="cls-9" d="M457.76,523a24.85,24.85,0,0,0-7.41,5.17,22.5,22.5,0,0,0-4.8,7.7,25.62,25.62,0,0,0-1.79,9.28,24.08,24.08,0,0,0,.45,4.61,17.91,17.91,0,0,0,1.59,4.57,9.63,9.63,0,0,0,1,1.64,8.22,8.22,0,0,0,.78.9,6,6,0,0,0,.94.71,7.74,7.74,0,0,0,2,.82,17.53,17.53,0,0,0,7,.32c.72-.11,1.44-.24,2.14-.41a20.43,20.43,0,0,0,2.48-.85,74.13,74.13,0,0,0,8-4c1.54-.84,3-1.76,4.5-2.73a2.21,2.21,0,0,0,1-1.25,2.09,2.09,0,0,0-3.07-2.36c-1.42.9-2.88,1.75-4.38,2.51l-2.44,1.1c-1.26.64-2.5,1.31-3.79,1.89-.82.33-1.65.65-2.49.92a17.24,17.24,0,0,1-2.78.63,19,19,0,0,1-2,.11,13.74,13.74,0,0,1-1.63-.12,10.63,10.63,0,0,1-1.87-.45,5.35,5.35,0,0,1-.47-.27l-.3-.32a15,15,0,0,1-1.19-2.18,18.32,18.32,0,0,1-1-3.87,23.16,23.16,0,0,1,0-5.28,26.4,26.4,0,0,1,1.54-5.68,21.58,21.58,0,0,1,2.34-4.12,22.83,22.83,0,0,1,3.45-3.39,22.11,22.11,0,0,1,4.23-2.53,18.26,18.26,0,0,1,3.91-1.13,14.76,14.76,0,0,1,2.9,0,8.41,8.41,0,0,1,1.55.39,31.53,31.53,0,0,1,5.07,3.29,1.7,1.7,0,0,0,1.37.18,1.79,1.79,0,0,0,1.07-.82,1.82,1.82,0,0,0,.18-1.37,1.92,1.92,0,0,0-.82-1.06c-1.12-.82-2.23-1.71-3.42-2.43a18.63,18.63,0,0,0-1.85-1,9,9,0,0,0-2.49-.72,14.21,14.21,0,0,0-2.08-.15,18.49,18.49,0,0,0-7.41,1.7m-9.48,18.45v0"/><path class="cls-9" d="M478,538.42l-1.59.7a22.7,22.7,0,0,0-2.12,1,18.07,18.07,0,0,0-2.49,1.75,14.57,14.57,0,0,0-2.12,2.22,12.63,12.63,0,0,0-1.84,2.65,12.31,12.31,0,0,0-.56,1.46,8.92,8.92,0,0,0-.28,1.52,5.6,5.6,0,0,0,0,1.08,8.81,8.81,0,0,0,.32,1.78,7.86,7.86,0,0,0,1.57,2.77,5.87,5.87,0,0,0,2.54,1.78,7.18,7.18,0,0,0,5.61-.3,11.32,11.32,0,0,0,4.25-4.07,17.68,17.68,0,0,0,1.29-2.67,19.33,19.33,0,0,0,.91-3,14.9,14.9,0,0,0,.4-3.35,15.19,15.19,0,0,0-.49-3.29,2.2,2.2,0,0,0-2.12-1.61h0a2.67,2.67,0,0,0-1.23-.74,2.44,2.44,0,0,0-.65-.09,3.42,3.42,0,0,0-1.4.36m1.27,5.24V544a19.51,19.51,0,0,1-1.06,3.69,17.46,17.46,0,0,1-1.52,2.77,11,11,0,0,1-1.19,1.17,8.38,8.38,0,0,1-.8.5l-.33.09h-.61l-.5-.14-.26-.27a7.23,7.23,0,0,1-.39-.67,5.64,5.64,0,0,1-.15-.57,7.14,7.14,0,0,1,0-.76c.06-.24.13-.47.21-.7a7.39,7.39,0,0,1,.55-.91,18.75,18.75,0,0,1,2.43-2.61,15,15,0,0,1,2.75-1.56l.9-.39"/><path class="cls-9" d="M491.19,536.16q-1.27,6.29-2.52,12.58-1.12,5.7-1.8,11.45a2.38,2.38,0,0,0,4.67.63c1.66-7.73,3.17-15.5,4.72-23.26a2.78,2.78,0,0,0-.27-2,2.65,2.65,0,0,0-1.57-1.21,2.51,2.51,0,0,0-.66-.09,2.59,2.59,0,0,0-2.58,1.93"/><path class="cls-9" d="M489.69,531.72c.13,1.91.25,3.82.44,5.73.1,1,.23,2.07.37,3.11,0,.42.11.84.17,1.27s.19,1.06.31,1.58c.06.29.12.57.2.84a10.75,10.75,0,0,0,.46,1.07l.25.32a3.4,3.4,0,0,0,.75.86,3.71,3.71,0,0,0,2.35,1,5.71,5.71,0,0,0,3.35-1.14,12,12,0,0,0,2.21-2.14c.8-.91,1.5-1.91,2.21-2.89s1.21-1.71,1.8-2.58V539a102.64,102.64,0,0,1,.39,11.27c0,2.85,0,5.7.2,8.55a2.15,2.15,0,1,0,4.31,0h0c0-1.91.07-3.81.09-5.71v-4.8a84.5,84.5,0,0,0-.37-9.68,18.72,18.72,0,0,0-.62-3,4.54,4.54,0,0,0-1.38-2.37l-.48-.37a3.69,3.69,0,0,0-.84-.32,4.07,4.07,0,0,0-2,.09,3.67,3.67,0,0,0-1.65.93,9.68,9.68,0,0,0-.91,1.1l-1.89,2.37c-1,1.21-1.93,2.46-3,3.58-.34-3-.57-6-.77-8.93a3.13,3.13,0,0,0-.87-2.11,3,3,0,0,0-5.11,2.11m16.26,5.13-.23.18a1.73,1.73,0,0,1,.23-.18"/><path class="cls-9" d="M516.48,533.88a2.84,2.84,0,0,0-.8,1.93c-.27,4.29-.53,8.58-.75,12.88-.19,3.62-.34,7.24-.58,10.85a2.54,2.54,0,0,0,4.34,1.8,2.78,2.78,0,0,0,.75-1.8c.46-3.6.73-7.23.94-10.85q.36-6.44.76-12.87a2.73,2.73,0,0,0-4.66-1.93"/><path class="cls-9" d="M519.23,532.36l-1.07.14a1.67,1.67,0,0,0-1.09.45,1.54,1.54,0,0,0,0,2.18h0a1.47,1.47,0,0,0,1.09.45l1.87-.24-.41,0a11.59,11.59,0,0,1,2.38-.08,6.71,6.71,0,0,1,1,.28,3.74,3.74,0,0,1,1.53,1.15,5.61,5.61,0,0,1,.43.76,7.6,7.6,0,0,1,.34,1.22,8.07,8.07,0,0,1,0,1.43,6.55,6.55,0,0,1-.22.77,5.92,5.92,0,0,1-.38.64,6.4,6.4,0,0,1-.52.51,2.5,2.5,0,0,0-.49.43,2,2,0,0,0-.54,1.31,1.89,1.89,0,0,0,.91,1.59h.07a8.4,8.4,0,0,1,.59.62,16.87,16.87,0,0,1,1.65,3.07c.25.62.5,1.24.74,1.86a10.18,10.18,0,0,1,.56,2,7,7,0,0,1,0,1.13,9.5,9.5,0,0,1-.46,1.68,10.36,10.36,0,0,1-1,1.64,11.48,11.48,0,0,1-1.52,1.5c-.43.31-.86.61-1.32.89a16.2,16.2,0,0,1-1.62.83,1.82,1.82,0,0,0-.86,1.12,1.9,1.9,0,0,0,.19,1.45,1.88,1.88,0,0,0,1.12.86,1.94,1.94,0,0,0,1.45-.19c.45-.23.9-.46,1.34-.72a14.6,14.6,0,0,0,1.22-.85,14.76,14.76,0,0,0,2.3-2.13,11.47,11.47,0,0,0,1.67-2.61,11.08,11.08,0,0,0,.94-3.53,6.24,6.24,0,0,0,0-1.53,15,15,0,0,0-.31-1.67,12.3,12.3,0,0,0-.49-1.43c-.23-.6-.45-1.2-.69-1.79a23.83,23.83,0,0,0-1.42-3,9.25,9.25,0,0,0-.75-1.07c.08-.13.16-.26.23-.39a7,7,0,0,0,.74-2.52,10.64,10.64,0,0,0-.12-2.61,8.34,8.34,0,0,0-.75-2.29,6.1,6.1,0,0,0-1.36-1.8,6.37,6.37,0,0,0-1.91-1.25,8.42,8.42,0,0,0-1.14-.41,7.6,7.6,0,0,0-1.33-.2h-.66a14.71,14.71,0,0,0-2,.17m5.18,4.17,0,.07,0-.07m0,9.08.09.07-.09-.07"/><path class="cls-9" d="M537,533.08a3.6,3.6,0,0,0-1,2.38c-.41,4-.85,7.94-1.08,11.91s-.37,7.72-.37,11.59a3.14,3.14,0,0,0,5.36,2.22,3.26,3.26,0,0,0,.92-2.22c.48-7.85,1.08-15.69,1.88-23.5a3.23,3.23,0,0,0-1-2.37,3.36,3.36,0,0,0-4.75,0"/><path class="cls-9" d="M567,530.14a2.27,2.27,0,0,0-.64,1.54c-.27,3.89-.72,7.76-1.18,11.63q-.13,1-.26,1.91l.07-.55c-.16,1.21-.36,2.41-.63,3.6a25.42,25.42,0,0,1-.78,3.1,6.78,6.78,0,0,1-.5.85,5.7,5.7,0,0,1-.47.48l-.39-.12-.34-.19a7.11,7.11,0,0,1-.7-.75,32.44,32.44,0,0,1-3.69-6.42c-.33-.78-.65-1.58-1-2.34a17.76,17.76,0,0,0-1-2l-.2-.28.35-2.75a2.1,2.1,0,0,0-.64-1.56,2.21,2.21,0,0,0-3.12,0l-.34.45a2.19,2.19,0,0,0-.3,1.11L551,540.1a3.66,3.66,0,0,0-1,1.57,13.23,13.23,0,0,0-.57,2.19c-.17,1-.25,2-.36,3l-.27,2.43c0,.47,0,1-.07,1.43q0,1.22-.11,2.44a18,18,0,0,0,.29,4.56,2.13,2.13,0,0,0,2.06,1.57,2.17,2.17,0,0,0,2.06-1.57c.1-.35.22-.7.31-1.06a12.28,12.28,0,0,0,.23-1.55c.07-.51.11-1,.18-1.54l.3-2.49.48-4v-.29c.25.58.5,1.16.77,1.74.55,1.18,1.16,2.33,1.81,3.46a11.9,11.9,0,0,0,1,1.47,14.36,14.36,0,0,0,1.25,1.59,5.63,5.63,0,0,0,3.3,1.52,4.27,4.27,0,0,0,3.22-1.48,8.05,8.05,0,0,0,1.82-3.2,14,14,0,0,0,.41-1.55c.12-.55.32-1.3.47-2,.3-1.33.48-2.68.7-4,.66-4.19,1.22-8.39,1.53-12.62a2.18,2.18,0,0,0-3.72-1.54m-1.75,12.69,0,.4a1.1,1.1,0,0,1,0-.4m-7.83,2.18v0m5.37,7.66h0Zm-.48,0h0m.2.08h0Z"/><path class="cls-9" d="M578.19,531.63c-.39,1.55-.77,3.09-1.16,4.64-.26,1-.45,2.12-.66,3.19-.45,2.31-.81,4.63-1.18,7-.21,1.35-.36,2.72-.53,4.08a23.11,23.11,0,0,0-.29,3.16,7.47,7.47,0,0,0,1.23,4.59,9,9,0,0,0,4,3,9.48,9.48,0,0,0,2.39.58,10.11,10.11,0,0,0,2.55-.09,14,14,0,0,0,3.14-.94c1-.39,2-.8,2.93-1.27a2.56,2.56,0,0,0,1.18-2.9,2.59,2.59,0,0,0-1.18-1.54,2.45,2.45,0,0,0-2-.26,23.54,23.54,0,0,1-4.6,1.49,10.31,10.31,0,0,1-1.23,0,9.78,9.78,0,0,1-1-.28,8.21,8.21,0,0,1-1-.58c-.18-.17-.36-.34-.53-.52h0a1.86,1.86,0,0,0-.1-.37,14.81,14.81,0,0,1,.06-2.78q.09-.83.2-1.66l.3-2.48c.33-2.15.65-4.29,1.06-6.41.21-1.09.39-2.18.66-3.25.4-1.61.79-3.23,1.2-4.84a2.86,2.86,0,0,0-2-3.48,2.76,2.76,0,0,0-.73-.1,2.84,2.84,0,0,0-2.75,2.07m2.23,23.54h0m0,0h0l.12.15-.12-.15"/><path class="cls-9" d="M573.21,551.31a3.25,3.25,0,1,0,3.25-3.25h0a3.28,3.28,0,0,0-3.25,3.25"/><path class="cls-9" d="M596.84,532.08c-4.86.83-9.73,1.59-14.6,2.37a1.11,1.11,0,0,0-.69.53,1.16,1.16,0,0,0,.41,1.58,1.26,1.26,0,0,0,.89.11c4.86-.78,9.73-1.57,14.58-2.43a1.12,1.12,0,0,0,.78-1.37,1.14,1.14,0,0,0-.52-.67,1.08,1.08,0,0,0-.55-.14h-.31"/><path class="cls-9" d="M594.36,542.72q-9,3-18.11,5.91a2,2,0,0,0,1.08,3.9q9.06-2.92,18.09-6a2,2,0,0,0,1.39-2.45,2.06,2.06,0,0,0-1.92-1.48,1.68,1.68,0,0,0-.53.09"/><path class="cls-9" d="M481.12,571.72q.17,7.61.41,15.22c.14,4.41.45,8.84.16,13.25a2.83,2.83,0,0,0,4.26,2.44,2.74,2.74,0,0,0,1.3-1.69,46.28,46.28,0,0,0,.73-7.41q0-3.27,0-6.53-.24-7.64-.4-15.28a3.21,3.21,0,1,0-6.41,0h0"/><path class="cls-9" d="M505.68,564.72c-3.22.18-6.4.59-9.59,1-1.24.17-2.45.38-3.68.61s-2.54.41-3.78.74c-2.55.68-5.14,1.28-7.64,2.14-3.82,1.32-7.63,2.64-11.41,4a3.07,3.07,0,0,0-1.73,1.34,2.9,2.9,0,0,0,1,4l0,0a2.81,2.81,0,0,0,2.24.29c3.43-1.26,6.87-2.47,10.33-3.67.82-.29,1.64-.63,2.49-.86l4.59-1.25c.89-.24,1.76-.5,2.67-.69l4.53-.91c2.13-.43,4.31-.7,6.46-1,1.16-.14,2.32-.26,3.49-.37a2.84,2.84,0,0,0,1.91-.79,2.71,2.71,0,0,0-1.78-4.62h-.13"/><path class="cls-9" d="M510.53,567.81a3.24,3.24,0,0,0-1.41,1.83l-.52,1.43-.18.08-.26.2a3.43,3.43,0,0,0-.75.64,12.49,12.49,0,0,0-2.32,4.39c-.59,1.52-1,3.11-1.46,4.66a61.11,61.11,0,0,0-1.74,9.92,11.39,11.39,0,0,0,0,4.79,3,3,0,0,0,5.8,0c1.14-3.92,2-7.91,3.19-11.84.5-1.72,1-3.45,1.56-5.14l.48-1.4c.3.35.59.7.88,1.06a55.26,55.26,0,0,1,5.69,10.8c1,2.64,2.11,5.28,2.93,8a2.74,2.74,0,0,0,5.29-1.46h0a63.36,63.36,0,0,0-3.19-8.45c-.51-1.17-1.09-2.32-1.65-3.48a49.83,49.83,0,0,0-4.33-7.41,26.06,26.06,0,0,0-3-3.54,8.52,8.52,0,0,0-.81-.69l.34-.94a3,3,0,0,0-.31-2.36,3.09,3.09,0,0,0-1.83-1.41,3.05,3.05,0,0,0-.81-.11,3.1,3.1,0,0,0-1.55.42"/><path class="cls-9" d="M521.8,583.72c-6.19.18-12.37.47-18.55.81a3,3,0,0,0-2.93,2.93,2.94,2.94,0,0,0,2.93,2.93c6.18-.34,12.36-.66,18.55-.88a2.9,2.9,0,0,0,.08-5.79h-.08"/><path class="cls-9" d="M546.86,567.85c-1.39.16-2.77.34-4.16.52s-2.57.37-3.85.66a16.68,16.68,0,0,0-3.93,1.51,8.11,8.11,0,0,0-1.66,1.29,5.5,5.5,0,0,0-1.38,2.45,4.91,4.91,0,0,0-.13,1.77,3.22,3.22,0,0,0,.28,1.38,5,5,0,0,0,.6,1.27,14.59,14.59,0,0,0,2.8,3.11,31.73,31.73,0,0,1,3.17,3.47,27.17,27.17,0,0,1,2.94,4.59,15.54,15.54,0,0,1,.67,2.51,16.89,16.89,0,0,1,.13,2.44,1.1,1.1,0,0,1-.1.34l0,.09c-.15.16-.3.3-.46.45a12,12,0,0,1-1.53.85,14.32,14.32,0,0,1-2.22.65h-.31a3.56,3.56,0,0,0-2.36,1,3.34,3.34,0,0,0,2.36,5.7,12.83,12.83,0,0,0,4.27-.84,14.36,14.36,0,0,0,4.09-2.39,11.68,11.68,0,0,0,1.64-1.84,4.16,4.16,0,0,0,.45-.88,7.66,7.66,0,0,0,.48-1.25,8.38,8.38,0,0,0,.3-2.35c0-.75-.07-1.53-.11-2.28a17.12,17.12,0,0,0-1-4.79,25.52,25.52,0,0,0-2.35-4.47,36.08,36.08,0,0,0-3.15-4.26c-.54-.64-1.11-1.27-1.69-1.87l-.35-.36a27.11,27.11,0,0,1,3.25-.7l3.39-.42,1-.13a3.68,3.68,0,0,0-.74-7.21h-.23m-4.4,26.8-.11.27.11-.27m-3.71,2.44-.47.06.47-.06"/><path class="cls-9" d="M555.68,568.47v17.89a49.27,49.27,0,0,1-.34,5.29,6,6,0,0,1-.15.93,2.45,2.45,0,0,0,.23,1.75,2.26,2.26,0,0,0,4.13-.54,30.62,30.62,0,0,0,.88-6.77v-5.2q-.06-6.67-.07-13.34a2.33,2.33,0,1,0-4.66,0v0"/><path class="cls-9" d="M566.28,567.13c-.59,1.2-1.2,2.39-1.8,3.58-.26.51-.6,1-.89,1.48s-.52.91-.82,1.34c-1.4,2-2.81,4-4.29,6a11.34,11.34,0,0,0-1.68,2.84,5.19,5.19,0,0,0-.35,2.28,4.52,4.52,0,0,0,1.17,2.67c.62.69,1.29,1.33,1.93,2l1.21,1.28A32.5,32.5,0,0,0,563.1,593c.61.54,1.22,1.07,1.87,1.57a23.77,23.77,0,0,0,4,2.45,3.06,3.06,0,0,0,2.26.3,2.94,2.94,0,0,0,.7-5.37,28.56,28.56,0,0,1-3-1.88c-1.12-.9-2.19-1.87-3.22-2.87-.51-.49-1-1-1.53-1.47l-1-1c-.33-.31-.68-.6-1-.9a32.44,32.44,0,0,1,2.26-3.26q1.22-1.71,2.4-3.44c.77-1.13,1.45-2.3,2.16-3.46.26-.44.48-.91.71-1.36l1.23-2.45a2.78,2.78,0,0,0,.27-2,2.62,2.62,0,0,0-2.57-1.94,2.51,2.51,0,0,0-2.3,1.31m-4.41,16.41h0"/><path class="cls-9" d="M590.17,566c-2.09.91-4.18,1.8-6.25,2.75-.94.43-1.86.89-2.78,1.35a20.74,20.74,0,0,0-2.43,1.48,8.58,8.58,0,0,0-1.31,1.12l-.78,1c-.19.38-.36.77-.51,1.16a8.42,8.42,0,0,0-.15,1.74,6.23,6.23,0,0,0,.78,2.54l.29.39a10.1,10.1,0,0,0,.86,1.06c.48.54,1,1,1.52,1.54,1,.92,1.94,1.87,2.9,2.82a38.11,38.11,0,0,1,3.18,3.7,15.66,15.66,0,0,1,1.29,2.08c.08.23.14.46.2.7a1.44,1.44,0,0,1,0,.51,2.54,2.54,0,0,1-.18.63,10.18,10.18,0,0,1-.54.87,9.25,9.25,0,0,1-.75.74,9.36,9.36,0,0,1-1.22.66,3.37,3.37,0,0,0,2.6,6.16,12,12,0,0,0,2.32-1l1.12-.86a5.7,5.7,0,0,0,.93-1,9.92,9.92,0,0,0,2.37-5.75,11.64,11.64,0,0,0-.29-2.77,10.93,10.93,0,0,0-1.07-2.6,20.43,20.43,0,0,0-2.09-3c-1-1.26-2-2.45-3-3.64-.54-.62-1.16-1.18-1.74-1.77s-1.38-1.35-2-2a42.6,42.6,0,0,1,4.71-2.42c1.79-.83,3.62-1.59,5.43-2.38a3.16,3.16,0,0,0,1.53-2,3.32,3.32,0,0,0-2.32-4.08l-.88-.12a3.38,3.38,0,0,0-1.68.45m-7.79,9.31v0"/><path class="cls-9" d="M604.6,534.72a3,3,0,0,0-.82,2c-.34,3.31-.7,6.62-1.11,9.92-.63,3.9-1.32,7.78-1.84,11.7a2.68,2.68,0,0,0,5.26.71c.72-3.54,1.38-7.09,2-10.66.62-3.86.94-7.77,1.34-11.66a2.69,2.69,0,0,0-.82-2,2.8,2.8,0,0,0-4,0l0,0"/><path class="cls-9" d="M610.38,533.5a21.52,21.52,0,0,0-6.82,2.78,2.64,2.64,0,0,0,2.58,4.61l.08,0c1-.51,1.9-1,2.89-1.5a12.92,12.92,0,0,1,2.25-.67,9.79,9.79,0,0,1,1.37,0,9.35,9.35,0,0,1,1,.29,6.32,6.32,0,0,1,.56.33,9,9,0,0,1,.7.7,8.19,8.19,0,0,1,.53.9,11.92,11.92,0,0,1,.53,1.83,15.06,15.06,0,0,1,0,2.81,20.33,20.33,0,0,1-1.08,3.94,21.27,21.27,0,0,1-2.2,3.83,34.35,34.35,0,0,1-5,4.85l-.27.19a2.79,2.79,0,0,0-4.64,1.25,9,9,0,0,0-.24,1.57,3.3,3.3,0,0,0,.68,1.94l.44.57.8.61a3.57,3.57,0,0,0,2.08.45,6.22,6.22,0,0,0,3.26-1.17,33.16,33.16,0,0,0,3.06-2.46,29.88,29.88,0,0,0,4.92-5.43,22.54,22.54,0,0,0,3.09-6.79,21.62,21.62,0,0,0,.59-3.61,14.81,14.81,0,0,0-.24-4.13,9.84,9.84,0,0,0-3.42-5.88,8.85,8.85,0,0,0-3.1-1.59,8.26,8.26,0,0,0-2.39-.33,13.21,13.21,0,0,0-1.92.15"/><path class="cls-9" d="M432.33,666.17a1,1,0,0,0-.29.7c-.09,1-.16,2.07-.21,3.11a18.4,18.4,0,0,0,.19,3.09,1,1,0,0,0,.27.66.92.92,0,0,0,1.57-.66,20.51,20.51,0,0,1-.09-3q.11-1.59.24-3.18a1,1,0,0,0-1.69-.7"/><path class="cls-9" d="M431.86,685.93q-.07,2.32-.07,4.64a1,1,0,0,0,2,0q.09-2.32.16-4.64a1,1,0,0,0-2,0"/><path class="cls-9" d="M431.57,706.08c0,2.49-.08,5-.07,7.47a1,1,0,1,0,1.93,0q.12-3.74.17-7.47a1,1,0,0,0-2,0"/><path class="cls-9" d="M541,669.46q0,2.45.08,4.9a1.17,1.17,0,1,0,2.35,0v-4.9a1.22,1.22,0,0,0-2.44,0"/><path class="cls-9" d="M540.83,687.07c0,.74-.1,1.48-.14,2.23s0,1.49,0,2.23a1.22,1.22,0,0,0,1.21,1.2,1.2,1.2,0,0,0,.85-.35,1.23,1.23,0,0,0,.35-.85c.13-1.49.23-3,.33-4.46a1.31,1.31,0,0,0-1.31-1.31,1.34,1.34,0,0,0-1.31,1.31"/><path class="cls-9" d="M540.85,707.82v6.26a1.52,1.52,0,0,0,3,0v-6.26a1.54,1.54,0,0,0-3.08,0"/><g class="cls-4"><g class="cls-10"><g class="cls-11"><path class="cls-7" d="M222.39,261.66c-1.41,1.32-2.87,2.63-4.34,3.88-2,1.45-4.08,2.74-6.09,4.17-1.15.81-2.3,1.62-3.48,2.39s-2.25,1.4-3.33,2.17-2.36,1.75-3.59,2.56a43.18,43.18,0,0,1-3.89,2.11c-2.35,1.2-4.78,2.28-7.21,3.33-4.23,1.64-8.65,2.63-13,4A122.59,122.59,0,0,1,164.37,290c-2.14.19-4.28.12-6.41.33-1,.1-2,.16-3,.26-1.21.11-2.4.33-3.59.53a28.6,28.6,0,0,1-3.18,0,4.07,4.07,0,0,0-4,4,4,4,0,0,0,.23,1.34,6.93,6.93,0,0,0-1.81,1.87,6.6,6.6,0,0,0-1.18,4,6.76,6.76,0,0,0,2,4.41,16.33,16.33,0,0,0,1.68,1.36,6.81,6.81,0,0,0,2,1,12.11,12.11,0,0,0,2.78.33,55.09,55.09,0,0,0,7.46-.86l-1.19.16c2.44-.33,4.88-.67,7.33-.83s5-.28,7.5-.33c4.77-.11,9.55-.36,14.3-.83,1.21-.12,2.41-.26,3.62-.33,1.41-.08,2.81-.07,4.22-.08,2.55,0,5.08.21,7.62.3,1.12,0,2.24.1,3.36.14,1.29,0,2.57-.06,3.86-.12,2.38-.11,4.76-.33,7.14-.4a48.69,48.69,0,0,0,5.93-.43c1.12-.17,2.22-.44,3.32-.68a4.81,4.81,0,0,0,5.26-3.49,14.25,14.25,0,0,0,.13-3.65,32.52,32.52,0,0,1,.09-3.39c.38-2.34.92-4.63,1.17-7,.2-1.88.47-3.77.51-5.67s-.32-3.9-.47-5.84a29.64,29.64,0,0,1,0-5.09q.13-.69.3-1.38a23.74,23.74,0,0,0,.56-3.43,12.4,12.4,0,0,0-.22-3.1,4.68,4.68,0,0,0-4.43-4.09H227c-1.9,0-3.28,1.48-4.57,2.69m-72.89,38.22.27.34a3.58,3.58,0,0,1-.27-.34"/></g></g><g class="cls-10"><g class="cls-12"><path class="cls-7" d="M274,254.05c-1.66,1.3-2,3.36-2.24,5.32a13.74,13.74,0,0,0-.1,2,20.88,20.88,0,0,0,.11,2.62c.07,1,.32,2.07.49,3.11a45.53,45.53,0,0,1,.18,4.72c0,2.15,0,4.29-.15,6.44-.09,1.85-.27,3.68-.44,5.53s-.09,3.71-.23,5.56c-.32,1.9-.78,3.76-1,5.68-.15,1.36-.16,2.73-.19,4.09a8.84,8.84,0,0,0,.19,3.13,7,7,0,0,0,2,3.2l1.09.84,1.82.76a10.47,10.47,0,0,0,2.57.38c.58.08,1.16.11,1.75.15l.49.18-.42-.18h0a25.24,25.24,0,0,0,8,1.67,65.71,65.71,0,0,0,8-.31c5.52-.44,11-1.11,16.51-1.85a179.16,179.16,0,0,1,19.77-.93c3.32,0,6.62.15,9.93.24,3,.08,6,0,9,.32,1,.17,1.92.36,2.88.54a54.38,54.38,0,0,0,5.66.68c2.73.22,5.5.19,8.24.25h7.69c2.6,0,5.17,0,7.77-.22,5.1-.35,10.18-.89,15.27-1.38q3.72-.36,7.43-.77c2.57-.28,5.17-.31,7.75-.45a79.67,79.67,0,0,1,14.2.24l-.78-.11c1.6.21,3.21.36,4.81.54,1.36.23,2.72.52,4.08.71,1.91.26,3.8.48,5.72.56a31.33,31.33,0,0,0,6.46-.64l1.35-.17a5.55,5.55,0,0,0,1.94-.74,7.65,7.65,0,0,0,1.29-1,7.84,7.84,0,0,0,1.58-2.79,13.12,13.12,0,0,0,.52-2.48,19.87,19.87,0,0,1,.6-2.48c.44-1.38,1-2.72,1.38-4.14a30.81,30.81,0,0,0,.77-5.94c0-.84,0-1.69.08-2.53.06-1.09.24-2.17.31-3.26a40.62,40.62,0,0,0,0-4.55c0-2,0-4-.11-6,0-1.28-.14-2.56-.08-3.84,0-.81.2-1.62.18-2.43a4.14,4.14,0,0,0-7.38-2.66,23.44,23.44,0,0,0-1.43,2,11.38,11.38,0,0,1-1.29,1.27c-.88.6-1.84,1.07-2.76,1.59-1.68,1-3.35,1.93-5,2.88-1.49.84-3.07,1.51-4.6,2.29a18.57,18.57,0,0,0-2.25,1.3,18.7,18.7,0,0,1-2.8,1.63c-1.54.55-3.11,1-4.65,1.52-2.31.8-4.54,1.79-6.78,2.76-2.84,1.22-5.65,2.49-8.49,3.72-2.5,1-5.06,1.76-7.64,2.53a70.74,70.74,0,0,1-8.65,2.09c-.82.09-1.65.15-2.48.2a18.2,18.2,0,0,1-2.75,0,46.7,46.7,0,0,0-5-.36c-1.87,0-3.73-.07-5.6-.17s-4-.27-6-.41c-1.81-.13-3.61-.22-5.42-.42-2.12-.35-4.18-.93-6.28-1.39a78.47,78.47,0,0,0-8.8-1c-2-.31-4.1-.65-6.15-.95-2.48-.36-5-.62-7.44-.93-3-.45-6-1.06-8.92-1.66a56.31,56.31,0,0,1-8.52-2.23c-1.77-.8-3.49-1.71-5.22-2.57-2.13-1.06-4.28-2.14-6.37-3.29-1.88-1-3.74-2.07-5.55-3.22-2-1.28-4-2.65-5.91-4a30.92,30.92,0,0,0-3.3-2.06c-1.12-.6-2.29-1.11-3.35-1.82a39.15,39.15,0,0,0-5.11-3.44c-2.12-1-4.52-1.83-6.87-1.28l-.24.07a3.32,3.32,0,0,0-.89-2.25,3.06,3.06,0,0,0-2.15-.89,3.31,3.31,0,0,0-2.15.89M420.65,286l-1.08.14,1.08-.14m-141.22,21.4.34.14h0l-.31-.13"/></g></g><g class="cls-10"><g class="cls-13"><path class="cls-7" d="M512.94,257.72a6,6,0,0,0-3.24,2.41,11.64,11.64,0,0,0-1.35,2.47,12,12,0,0,0-.76,2.25,40.2,40.2,0,0,0-1,5.86c-.11,1.59,0,3.19-.07,4.78,0,1.75-.26,3.49-.37,5.23s0,3.36,0,5,.18,3.53.25,5.3.13,3.33.09,5c0,.78-.07,1.56-.12,2.33a8.52,8.52,0,0,0,0,2A5.39,5.39,0,0,0,509,304a8.44,8.44,0,0,0,3.54,1c.46.06.94.08,1.41.1h2.73c1.75-.06,3.49-.08,5.23-.1s3.73-.08,5.6-.05,3.55.28,5.32.38,3.8.07,5.72,0,3.63,0,5.45,0c2.14,0,4.26,0,6.4-.12s4.15-.37,6.21-.58c3.68-.27,7.36-.44,11-.66,1.68-.1,3.35-.19,5-.26a4,4,0,0,0,1,3.58,4.24,4.24,0,0,0,2.78,1.3,11.66,11.66,0,0,0,2.22,0c1-.06,2-.17,3-.3.73-.1,1.47-.2,2.2-.28q2.12-.25,4.25-.46l3.32-.27c2.18-.11,4.37-.21,6.55-.33,3.51-.19,7-.46,10.56-.44,3.9,0,7.8.17,11.71.15,1.74,0,3.48-.06,5.22-.08,2,0,4,0,6.09.06,2.93.07,5.85.14,8.78.1s5.74-.07,8.62.1c2.66.16,5.32.42,8,.43,2.93,0,5.83-.21,8.75-.47,2.16-.16,4.32-.23,6.48-.37.83-.05,1.68-.08,2.51-.18l1.19-.15a9.57,9.57,0,0,0,2.34-.8,4.05,4.05,0,0,0,2.42-3.63,3.62,3.62,0,0,1,.08-.92c.07-.82.09-1.64.14-2.46a22.23,22.23,0,0,0,.06-2.49,17.29,17.29,0,0,0-.24-2.38,39.41,39.41,0,0,0,.79-4.15c.08-.61.16-1.22.22-1.83,0-.26,0-.53.07-.79a3.11,3.11,0,0,0,0-.44,4.61,4.61,0,0,0-.46-2,2.24,2.24,0,0,0-.34-.58c.29-1.24.54-2.48.73-3.74.24-1.55.36-3.12.61-4.68l.19-1-.07.37.07-.37.08-.45-.08.45c.22-1.16.45-2.32.6-3.5.13-1,.23-2,.33-3a6.16,6.16,0,0,0-.23-3.52,3.4,3.4,0,0,0-3.86-1.62,7.08,7.08,0,0,0-2.86,1.71,69.2,69.2,0,0,1-5.32,4.51c-1,.68-1.91,1.37-2.83,2.12s-1.77,1.58-2.71,2.3a22.5,22.5,0,0,1-3.85,2.16c-2,.67-4,1.42-6,2.23s-3.66,1.51-5.51,2.24c-1.3.47-2.6.92-3.93,1.29-1.79.49-3.59.9-5.41,1.27-3.22.67-6.37,1.57-9.55,2.39s-6.37,1.31-9.57,1.86l-2.1.36-1.35-.08c-1.86-.12-3.73-.26-5.59-.4s-3.49-.26-5.22-.49c-1.3-.18-2.59-.4-3.88-.57l-4-.49c-2.24-.3-4.47-.73-6.7-1.13-1.68-.35-3.35-.76-5-1.14s-3.66-.7-5.5-1c-1.6-.31-3.19-.64-4.79-1-1.76-.35-3.53-.66-5.28-1.06-3.5-.8-7-1.54-10.5-2.36s-6.91-1.9-10.28-3-7-2.16-10.39-3.38q-3.7-1.38-7.25-3.13t-7.25-3.49c-1.22-.6-2.44-1.23-3.71-1.72a8,8,0,0,0-3.35-.49,10.56,10.56,0,0,0-.88-1.68,6.22,6.22,0,0,0-3.06-2.54,5.91,5.91,0,0,0-1.88-.33,3.9,3.9,0,0,0-.86.09M533,267.51l.41.2-.41-.2m128.34,8.16-.21.08.21-.08m21.07-1.31Z"/></g></g><g class="cls-10"><g class="cls-14"><path class="cls-7" d="M743,256.05a11.33,11.33,0,0,0-1.73.1,6.63,6.63,0,0,0-1.71.53,4.17,4.17,0,0,0-1.36.81,7.93,7.93,0,0,0-1.12,1.47,9.87,9.87,0,0,0-.78,1.87,10.88,10.88,0,0,0-.46,3.09c-.06,2.23,0,4.47,0,6.7s-.36,4.46-.55,6.68c-.18,2-.36,4.07-.43,6.11-.12,4-.79,8.06-.6,12.09,0,1,.1,2,.19,3a18.78,18.78,0,0,0,.53,3.78,10.23,10.23,0,0,0,1,2.43,8,8,0,0,0,3.8,3.25,19.32,19.32,0,0,0,5.45,1.16c2.22.25,4.49.18,6.72.23s4.44.13,6.67.19c1.48,0,3,.28,4.43.41,2.21.19,4.4.51,6.61.74s4.6.27,6.9.34,4.62.2,6.93.37c5,.37,10,.72,15,.93,7.45.32,14.9.58,22.34,1,3.19.2,6.41.48,9.61.4a9.86,9.86,0,0,0,5-1.37c.49-.29,1-.63,1.45-.94a10.14,10.14,0,0,0,3.14-2.9,8.85,8.85,0,0,0,1.23-5.26A31.72,31.72,0,0,0,841,300c-.18-2.51-.33-5-.48-7.53-.08-1.39-.15-2.77-.23-4.16-.06-1-.12-2-.26-3a7.17,7.17,0,0,0-3.14-5.05,7.8,7.8,0,0,0-1.86-.85,8.37,8.37,0,0,0-3.7-.16,11.09,11.09,0,0,0-2.25.54c-1.24.4-2.45.85-3.73,1.14-2.46.56-5,1-7.45,1.39a78.19,78.19,0,0,1-15.77-1c-1-.23-2-.51-3-.78-1.19-.31-2.38-.59-3.55-.95s-2.56-.77-3.81-1.24-2.64-1.15-4-1.75c-2.59-1.19-5.15-2.43-7.76-3.55-2.39-1-4.8-2-7.19-3.1-3.25-1.64-6.4-3.47-9.49-5.39a52.28,52.28,0,0,0-4.7-2.94c-2-1.06-4.18-1.84-6.3-2.73-1.65-.7-3.32-1.38-5-2.09l-1.12-.45a10.31,10.31,0,0,0-2-.41,6.82,6.82,0,0,0-.89-.05H743m85,30.88v.06h0v-.07"/></g></g><path class="cls-9" d="M227.84,195.89a2.79,2.79,0,0,0-.84,1.79c-.18,1.08-.33,2.16-.47,3.24-.09.64-.19,1.27-.23,1.91-.1,1.65-.19,3.29-.21,4.93,0,3.14.07,6.28.19,9.41a2.5,2.5,0,0,0,.62,1.71,2.36,2.36,0,0,0,1.65.78,2.4,2.4,0,0,0,2.5-2.26c.15-3.13.18-6.26.21-9.4,0-1.65.1-3.29.2-4.93a15.31,15.31,0,0,1,.23-1.91c.15-1.08.29-2.16.47-3.24a2.47,2.47,0,0,0-.67-1.86,2.6,2.6,0,0,0-1.79-.84h-.12a2.59,2.59,0,0,0-1.74.67"/><path class="cls-9" d="M243,189.72q-6.75,2-13.49,4.11c-2,.62-4,1.29-6,1.9-2.73.84-5.46,1.69-8.2,2.51a2.36,2.36,0,0,0-1.4,1,2.27,2.27,0,0,0,2.41,3.45c4.71-1.41,9.39-2.91,14.08-4.38,4.51-1.41,9-2.83,13.51-4.38a2.32,2.32,0,0,0,1.33-.93,2.15,2.15,0,0,0,.29-1.64,2.23,2.23,0,0,0-2.07-1.69,1.74,1.74,0,0,0-.5.07"/><path class="cls-9" d="M244.31,193.22a9.24,9.24,0,0,0-.81.85,2.83,2.83,0,0,0-.25.44c-.13.25-.24.52-.35.78s-.35.8-.52,1.21c-.3.7-.58,1.4-.86,2.1-.56,1.39-1,2.83-1.52,4.25-.21.62-.36,1.27-.53,1.9s-.41,1.45-.61,2.18l-.65,2.39-.32,1.2-.18.47-.29.83a6.34,6.34,0,0,0-.3,1.3,1.76,1.76,0,0,0,3.43.63c.26-.68.47-1.39.71-2.08l.49-1.41c.3-.85.61-1.7.92-2.54s.65-1.64,1-2.45c.53-1.35,1.1-2.68,1.71-4,.18-.37.37-.73.56-1.09.06.39.11.79.17,1.18.12.88.26,1.75.39,2.63q.33,2.22.67,4.43c.42,2.8.79,5.6,1.07,8.42a1.79,1.79,0,0,0,.81,1.16,1.89,1.89,0,0,0,2.61-.56,2,2,0,0,0,.26-1.44c-.38-3-1.08-5.93-1.74-8.87-.35-1.55-.68-3.11-1-4.67-.26-1.27-.47-2.55-.73-3.82-.09-.47-.21-.93-.31-1.4l-.14-.65a1.65,1.65,0,0,0-.53-2.18,1.58,1.58,0,0,0-.32-.16,6.12,6.12,0,0,0-1-1,1.37,1.37,0,0,0-.89-.42h-.07a1.26,1.26,0,0,0-.86.34m1.15,7.77-.06.13.06-.13"/><path class="cls-9" d="M252.47,203.44q-6.93,1-13.82,2.2a2,2,0,1,0,.88,3.87q6.89-1.26,13.78-2.4a1.89,1.89,0,0,0,1.42-2.25,1.92,1.92,0,0,0-.81-1.16,1.82,1.82,0,0,0-1-.29h-.42"/><path class="cls-9" d="M262.12,193.31c-1.62.45-3.22.93-4.79,1.52a9.64,9.64,0,0,0-2.28,1.24,5,5,0,0,0-.74.64,4,4,0,0,0-.84,1.27,5.52,5.52,0,0,0-.42,1.91,6.62,6.62,0,0,0,.57,2.82c.55,1.48,1.22,2.91,1.8,4.38a19.28,19.28,0,0,1,.92,4,12.39,12.39,0,0,1-.1,2.35,11.5,11.5,0,0,1-.52,1.78v.07a2.73,2.73,0,0,0-.35,2,2.59,2.59,0,0,0,4.7.84,11.37,11.37,0,0,0,.85-1.87,13.28,13.28,0,0,0,.42-2.12,15.34,15.34,0,0,0-.14-4.84,22.24,22.24,0,0,0-1.34-4.58c-.54-1.37-1.19-2.68-1.76-4-.07-.21-.12-.42-.17-.63s0-.14,0-.21l.28-.24a11.37,11.37,0,0,1,1.67-.79c1.07-.36,2.16-.67,3.26-1a2.36,2.36,0,0,0,1.75-2.78,2.39,2.39,0,0,0-2.25-1.82,2,2,0,0,0-.52.07M257.87,200v0m-1.46,11.45v0"/><path class="cls-9" d="M266.2,195.41c-.41,5.74-.83,11.49-1,17.25a2.67,2.67,0,0,0,3.9,2.48,2.53,2.53,0,0,0,1.29-1.53,42.31,42.31,0,0,0,.71-4.58c.12-1.42.21-2.83.3-4.25q.28-4.55.6-9.1a2.93,2.93,0,0,0-2.77-3h-.13a3,3,0,0,0-2.91,2.78"/><path class="cls-9" d="M273,196.35l-2.48,4.37q-.48.83-.94,1.67c-.17.31-.34.64-.5,1s-.39.77-.55,1.16a3.24,3.24,0,0,0-.17.95,4.7,4.7,0,0,0,0,1,11.81,11.81,0,0,0,1.61,3.7c.39.68.8,1.36,1.2,2a34.18,34.18,0,0,0,3.08,4.35,2.46,2.46,0,0,0,4.26-1.54,2.58,2.58,0,0,0-.64-1.77c-.58-.73-1.13-1.47-1.68-2.23l-1.47-2.18a21,21,0,0,1-1.72-3.11h0c1.18-2.36,2.57-4.61,3.88-6.89a2.25,2.25,0,0,0-1.91-3.49,2.17,2.17,0,0,0-1.9,1m0,9v.24a2.19,2.19,0,0,1,0-.24m.13,0-.2.38c0-.1.09-.2.14-.29m-.13.45.1.27a1,1,0,0,0-.1-.27m0,.1v0"/><path class="cls-9" d="M289,192.72c-.19,2-.42,4.09-.51,6.13l-.13,3.16v2.77c0,3.65.2,7.3.32,10.95a2.88,2.88,0,0,0,.71,2,2.73,2.73,0,0,0,1.9.89,2.76,2.76,0,0,0,2.87-2.61v-5.63c0-1.69-.11-3.39-.14-5.08v-2.89c0-1,.07-2.06.11-3.08.07-2.11.31-4.22.49-6.32a2.8,2.8,0,0,0-2.65-2.92h-.13a2.84,2.84,0,0,0-2.84,2.63"/><path class="cls-9" d="M451.81,196.72c.06,6,.06,11.91.23,17.86a2.15,2.15,0,0,0,.53,1.47,2,2,0,0,0,3.55-1.33c0-2.8,0-5.6-.06-8.39,0-3.16-.07-6.32-.11-9.47a2.1,2.1,0,0,0-2-2.17h-.09a2.08,2.08,0,0,0-2.07,2"/><path class="cls-9" d="M462,193.26c-.71,0-1.41.07-2.12.12-.93.07-1.89.09-2.82.23-1.9.27-3.82.49-5.71.86a57.52,57.52,0,0,0-7.19,1.8c-2.3.76-4.57,1.64-6.84,2.5a1.87,1.87,0,0,0-.94,1.12,1.94,1.94,0,0,0,.13,1.5,2,2,0,0,0,1.11.95,2.13,2.13,0,0,0,1.51-.13l1.76-.67c1.38-.5,2.74-1,4.13-1.48a43.75,43.75,0,0,1,4.4-1.22c1.76-.41,3.52-.73,5.31-1l2.25-.34c.34-.05.68-.12,1-.15l3-.29c2.11-.12,4.23-.25,6.34-.31a1.88,1.88,0,0,0,1.28-.46,1.78,1.78,0,0,0-1.12-3.09h-1.19c-1.43,0-2.87,0-4.3.08m-21,8.23h0"/><path class="cls-9" d="M470.74,194.45a1,1,0,0,0-.61.43c-.78,1.64-1.54,3.3-2.29,5-.16.36-.34.72-.48,1.09l-.89,2.28c-.16.42-.35.84-.49,1.27l-.74,2.2c-.39,1.19-.74,2.39-1.09,3.59q-.67,2.24-1.33,4.49a1.24,1.24,0,0,0,2.36.77q.57-2.14,1.13-4.29c.27-1.05.53-2.12.83-3.17l.68-2.35c.11-.4.23-.78.37-1.17l.87-2.4c.13-.37.26-.74.42-1.1.79-1.8,1.58-3.61,2.43-5.4a1,1,0,0,0-1-1.29h-.22"/><path class="cls-9" d="M468.55,193.47a1.67,1.67,0,0,0-1.26,2h0c.45,1.46,1,2.9,1.49,4.33l1.29,3.31c.27.81.56,1.62.8,2.45a26.31,26.31,0,0,1,.86,4.74v.4a1.93,1.93,0,0,0,.47,1.28,1.78,1.78,0,0,0,2.51.11h0a1.7,1.7,0,0,0,.58-1.23,31.47,31.47,0,0,0-.39-3.75,23.57,23.57,0,0,0-1.22-4l.15.43-.61-1.82c-.33-.84-.69-1.66-1-2.48s-.58-1.44-.86-2.16-.54-1.59-.79-2.39a1.75,1.75,0,0,0-.72-1,1.68,1.68,0,0,0-.91-.27,1.66,1.66,0,0,0-.36,0m4.84,8.71-.16-.42.16.42m-.16-.42h0"/><path class="cls-9" d="M475.45,204c-1.17.13-2.33.28-3.5.43-.9.11-1.8.22-2.7.38s-2,.29-3,.53c-1.27.3-2.54.6-3.79.94a1.91,1.91,0,1,0,.84,3.73c1.23-.33,2.47-.63,3.71-.93,1-.24,2-.39,3-.57,2.06-.39,4.15-.68,6.23-1a1.8,1.8,0,0,0,.58-3.26,1.7,1.7,0,0,0-1-.27h-.41"/><path class="cls-9" d="M487.13,192.86a12.51,12.51,0,0,0-1.9.23,10,10,0,0,0-2.25.84,13.25,13.25,0,0,0-1.82,1.15,13.55,13.55,0,0,0-1.72,1.49,6.79,6.79,0,0,0-1.26,1.56,4.56,4.56,0,0,0-.51,2.72c.19,1.68,1.27,2.93,2.22,4.25a10.45,10.45,0,0,1,1,1.75,7.59,7.59,0,0,1,.29,1.2,10.51,10.51,0,0,1-.08,1.63,11.2,11.2,0,0,1-.65,2.15,7.28,7.28,0,0,1-.53.85l-.33.31a2,2,0,1,0,2.67,2.92,6.61,6.61,0,0,0,1.83-3,15.77,15.77,0,0,0,.42-1.8,14.71,14.71,0,0,0,.26-2.09,9.15,9.15,0,0,0-.16-2.08,9.7,9.7,0,0,0-.61-1.84,8.13,8.13,0,0,0-.93-1.59c-.39-.56-.8-1.1-1.21-1.64a8.47,8.47,0,0,1-.67-1.16,2.23,2.23,0,0,0-.1-.43.93.93,0,0,1,0-.29,1.28,1.28,0,0,1,.14-.4,4.67,4.67,0,0,1,.3-.43,14.16,14.16,0,0,1,2.08-1.95,10.11,10.11,0,0,1,1.73-.92,8.78,8.78,0,0,1,1.56-.34H487a1.65,1.65,0,0,0,1.1-.4,1.54,1.54,0,0,0-.91-2.66h-.06m-.4,3.07h0"/><path class="cls-9" d="M489.26,196.3a2.78,2.78,0,0,0-2.06,3.28c.35,1.94.72,3.87.92,5.83a32.3,32.3,0,0,1-.31,6.6c-.17,1.19-.33,2.37-.52,3.55a2.57,2.57,0,0,0,.29,1.3A2.54,2.54,0,0,0,489,218.1a2.57,2.57,0,0,0,3.22-1.64,32.38,32.38,0,0,0,1.4-8.53,46.83,46.83,0,0,0-1.12-9.56,2.74,2.74,0,0,0-2.71-2.13,2.64,2.64,0,0,0-.57.06"/><path class="cls-9" d="M498.58,199.53c-2.93,2.13-5.87,4.25-8.8,6.39l-.87.66-.65.5a2.56,2.56,0,0,0-.39.41l-.32.38a6.89,6.89,0,0,0-.3.65,1.88,1.88,0,0,0,.2,1.6,3.19,3.19,0,0,0,1.21,1.09,16.79,16.79,0,0,0,1.83.82q2,.91,4,1.86c1,.46,1.91.92,2.85,1.41a2,2,0,0,0,1.38.25,1.84,1.84,0,0,0,1.12-.78,1.82,1.82,0,0,0-.53-2.51c-2.28-1.25-4.67-2.3-7-3.39l.83-.61,2.44-1.79,5.6-4.07a1.84,1.84,0,0,0,.63-1.34,1.93,1.93,0,0,0-1.84-2h-.09a2.13,2.13,0,0,0-1.3.5"/><path class="cls-9" d="M511.36,195a14.94,14.94,0,0,0-1.86.38,2.1,2.1,0,0,0,.93,4.09,14.83,14.83,0,0,1,1.56-.33l.1.07.08.09c.1.18.19.35.27.53a4.19,4.19,0,0,1,.17.75,8.54,8.54,0,0,1-.06,1.37,15.12,15.12,0,0,1-.81,2.35,43.62,43.62,0,0,1-2.4,4,31.08,31.08,0,0,0-2.48,4,3.07,3.07,0,0,0-.22,1.11,3.23,3.23,0,0,0,.38,1.45,3.46,3.46,0,0,0,1,1.13,3.32,3.32,0,0,0,1.1.61,13.32,13.32,0,0,0,5.12.25c1.58-.15,3.14-.4,4.71-.66a2.46,2.46,0,0,0,.79-4.45,2.59,2.59,0,0,0-1.88-.33c-1.56.24-3.13.48-4.71.64h-.91c.93-1.56,1.88-3.11,2.75-4.7,1.44-2.63,2.51-5.81,1.51-8.78a5.29,5.29,0,0,0-3-3.43,4.07,4.07,0,0,0-1.45-.25h-.68m.44,4.13h0m.41,0h0m-.28,4.78-.07.15.07-.15m-1.63,8,.19.09-.19-.09"/><path class="cls-9" d="M680,194.63a2.12,2.12,0,0,0-.71,1.5c.29,6.06.59,12.11.94,18.17a2.24,2.24,0,0,0,.54,1.5,2.08,2.08,0,0,0,3.62-1.31c-.12-6.05-.48-12.11-.77-18.16a2.3,2.3,0,0,0-.56-1.56,2.17,2.17,0,0,0-1.5-.71h-.1a2.19,2.19,0,0,0-1.46.57"/><path class="cls-9" d="M696.53,193.46A124.72,124.72,0,0,1,684,196.13c-4.44.67-8.89,1.27-13.34,1.9l-2.66.39a2,2,0,0,0-.65,3.65,2.1,2.1,0,0,0,1.54.27c2.37-.35,4.75-.69,7.12-1,2.12-.3,4.24-.57,6.35-.91l3.71-.59c1.07-.17,2.13-.45,3.2-.68s2-.48,3-.73,1.8-.47,2.69-.72l2.36-.69a1.91,1.91,0,0,0,1.12-.79,1.84,1.84,0,0,0,.25-1.4A1.87,1.87,0,0,0,697,193.4a1.62,1.62,0,0,0-.41.05"/><path class="cls-9" d="M698,195l-.22.83h-.08a3.13,3.13,0,0,0-1.29.62,4.85,4.85,0,0,0-1.3,2.12l.16-.33a34.85,34.85,0,0,0-1.56,3.74,23.49,23.49,0,0,0-1,4.12,18.2,18.2,0,0,0-.19,2.09v2a7.12,7.12,0,0,0,.15,1.91,2.52,2.52,0,0,0,.45.9,4.32,4.32,0,0,0,.76.68,1.49,1.49,0,0,0,1.18.21,1.58,1.58,0,0,0,1.12-1c.28-.76.56-1.51.77-2.29l.36-1.37c.2-.77.41-1.54.61-2.31l.9-3.4.62-2.35c.84,2.57,1.39,5.23,2,7.86.53,2.22,1.16,4.41,1.8,6.61a1.86,1.86,0,0,0,2.2,1.38,1.84,1.84,0,0,0,1.38-2.19c-.79-2.89-1.68-5.74-2.57-8.6-.64-2.07-1.2-4.18-2-6.19a10.51,10.51,0,0,0-1.18-2.49c-.14-.19-.29-.36-.45-.54l.29-1.08a1.54,1.54,0,0,0-1-1.91,1.45,1.45,0,0,0-.45-.07,1.5,1.5,0,0,0-1.46,1"/><path class="cls-9" d="M708.74,206a69.37,69.37,0,0,0-7.72.43c-1.13.14-2.27.26-3.4.43-1.71.26-3.42.52-5.13.82a2,2,0,0,0,.87,3.86c3.75-.64,7.51-1.2,11.3-1.6,1.3-.09,2.61-.19,3.91-.25a2,2,0,0,0,1.33-.48,1.84,1.84,0,0,0-1.14-3.2Z"/><path class="cls-9" d="M714.7,195.24a11.09,11.09,0,0,0-3.54,1.42A16,16,0,0,0,708,199a8.47,8.47,0,0,0-2.16,3.32,5.84,5.84,0,0,0,.28,4.1,11.72,11.72,0,0,0,2.24,3.24c1,1.12,2,2.17,3,3.35a3.18,3.18,0,0,1,.16.32v.18s-.09.29-.14.44a5.84,5.84,0,0,1-.55.79,17.83,17.83,0,0,1-1.86,1.7,2.5,2.5,0,0,0,1.57,4.35,2.69,2.69,0,0,0,1.8-.65,12,12,0,0,0,3.37-3.66,6.94,6.94,0,0,0,.8-2.75,5.68,5.68,0,0,0-.67-2.89,7,7,0,0,0-.79-1.18c-.25-.35-.53-.69-.8-1s-.53-.62-.81-.92c-.82-.91-1.65-1.81-2.39-2.78a6.36,6.36,0,0,1-.31-.57,2.77,2.77,0,0,0-.11-.48c0-.16.09-.31.15-.46a6.45,6.45,0,0,1,.45-.68,13.8,13.8,0,0,1,1.72-1.53,14.26,14.26,0,0,1,2-1.08,8.37,8.37,0,0,1,1.31-.3h.2l1.06.3a2.39,2.39,0,1,0,1.48-4.55,11.8,11.8,0,0,0-2-.49,5.91,5.91,0,0,0-.7,0,10.36,10.36,0,0,0-1.65.16m2,4.65h0M711.38,213l.07.19h0l-.07-.19m.08.21Z"/><path class="cls-9" d="M720.42,196.33v2.38a18.83,18.83,0,0,0,.15,2c.1,1.29.21,2.59.33,3.88.2,3,.38,6,.38,9a2.23,2.23,0,1,0,4.44.42q0-.11,0-.22a101,101,0,0,0-.79-12.6c-.06-.71-.12-1.43-.17-2.14a25.49,25.49,0,0,1,0-2.59,2.2,2.2,0,0,0-2.07-2.27h-.09a2.19,2.19,0,0,0-2.18,2.07"/><path class="cls-9" d="M732.51,196.72c-2.82,2.43-5.69,4.82-8.45,7.32-.38.33-.75.68-1.13,1a3.51,3.51,0,0,0-1.09,1.37,4,4,0,0,0-.27,1.47,5.38,5.38,0,0,0,1.38,3.18,8.64,8.64,0,0,0,1.06,1.09c.49.46,1,.89,1.54,1.31a36.79,36.79,0,0,0,7.85,4.42,2,2,0,0,0,1.6-.13,2.07,2.07,0,0,0,1-1.19,2.1,2.1,0,0,0-1.33-2.61c-1.24-.47-2.47-1-3.67-1.52a22.75,22.75,0,0,1-4.49-2.84,9.46,9.46,0,0,1-1.16-1.21,5.4,5.4,0,0,1-.28-.5v-.06l1.23-1.1,1-.87,2.32-2,5.26-4.55a1.76,1.76,0,0,0,.11-2.47,1.71,1.71,0,0,0-1.27-.56,1.82,1.82,0,0,0-1.19.45M725,207.57v0"/><path class="cls-9" d="M743.1,198.11l-3.5.7a2,2,0,0,0,.88,3.86l2.17-.44c.85-.17,1.7-.37,2.56-.48a5,5,0,0,1,.68,0,6.26,6.26,0,0,1,.61.21,6.81,6.81,0,0,1,.8.54h0v.34a8,8,0,0,1-.36,1.08,14.88,14.88,0,0,1-1.45,2.18,9.9,9.9,0,0,1-1.08,1,2.54,2.54,0,0,0-1.31,1.43,2.18,2.18,0,0,0,2,2.83h.31l.48.15a7.52,7.52,0,0,1,.85.55,8.15,8.15,0,0,1,.75.79,7.66,7.66,0,0,1,.49,1c0,.2.09.4.13.6a5.58,5.58,0,0,1,0,.82,7,7,0,0,1-.28.89,10.13,10.13,0,0,1-.78,1.26,14.21,14.21,0,0,1-2,1.71,11.85,11.85,0,0,1-1.83,1l-.35.1a2.51,2.51,0,0,0-.81,4.56,2.45,2.45,0,0,0,1.92.34,10.08,10.08,0,0,0,2.55-1.19,18.56,18.56,0,0,0,2.67-2.15,13.16,13.16,0,0,0,1.93-2.34,8.83,8.83,0,0,0,1.27-3.31,7.35,7.35,0,0,0-.18-3.33,8.81,8.81,0,0,0-1.6-2.9,7.54,7.54,0,0,0-1.57-1.52,15.88,15.88,0,0,0,1.48-2.45,6.77,6.77,0,0,0,.84-3.32A4.45,4.45,0,0,0,751,201a4.31,4.31,0,0,0-1.26-1.55,6.9,6.9,0,0,0-3.24-1.52,5.36,5.36,0,0,0-1-.08,12.14,12.14,0,0,0-2.39.31m4.27,4.31h0m.08.26.16.22-.22-.19"/><path class="cls-3" d="M138.25,159.66c-1.52.28-2.93.46-4.55.64a10.71,10.71,0,0,1-4.55-.66q-.62,8.7-1.3,17.39c-.8,10.69-1.8,21.38-2.46,32.08l-1.32,21c-.28,4.55-.37,9.11-.52,13.66-.16,4.73-.36,9.46-.46,14.2-.11,5.68-.19,11.37-.33,17.05-.13,5.53-.24,11.07-.45,16.6s-.34,11-.81,16.49a4.69,4.69,0,0,0,1.43,3.43,4.85,4.85,0,0,0,6.86,0h0l.76-1a4.85,4.85,0,0,0,.67-2.45c.68-5.31.84-10.69,1-16,.19-5.63.26-11.27.35-16.9s.14-11.25.21-16.87c.06-4.68.24-9.36.38-14s.19-9.27.46-13.89l1.24-20.88c.64-10.74,1.57-21.46,2.4-32.19q.68-8.84,1.31-17.68l-.34.07"/><path class="cls-3" d="M372,302.45c-6.87.19-13.74.38-20.61.52-15.35.3-30.69.43-46,.51l-42.45.23c-14.6.1-29.2.17-43.79.42-7.63.13-15.26.26-22.9.45-3.28.09-6.56.15-9.84.29-3.92.17-7.85.26-11.76.5l-10.48.65c-3,.18-6,.45-8.93.68-6.29.48-12.56,1.26-18.82,2.06a2.82,2.82,0,0,0-1.85.76,2.61,2.61,0,0,0,0,3.69h0a2.51,2.51,0,0,0,1.85.77c3.93-.5,7.87-1.06,11.81-1.41,3.64-.33,7.28-.65,10.92-.92q10.91-.8,21.84-1.2c14.33-.53,28.67-.69,43-.75q22.21-.09,44.41,0l46.42.22q21.14.11,42.27-.13l19.07-.24a19.08,19.08,0,0,1,1-5.59l.28-.84c-.24-.28-.46-.55-.66-.83l-4.72.13"/><path class="cls-3" d="M245.64,244.54a28.53,28.53,0,0,0-4.41,1.25,45.71,45.71,0,0,0-5.08,2.06c-1.54.79-3.06,1.6-4.51,2.53a39.57,39.57,0,0,0-5.94,4.72q-1.81,1.71-3.58,3.46c-1.09,1.08-2.23,2.07-3.39,3.06-2.56,1.9-5.22,3.66-7.87,5.44s-5.37,3.47-8.12,5.08-5.54,3.17-8.32,4.75c-3,1.69-5.94,3.33-9,4.89-1.05.54-2.16,1-3.24,1.48s-2.44,1-3.69,1.42l-2.27.74c-.68.22-1.35.48-2,.67l-4.48,1.2c-.6.16-1.24.24-1.85.36l-2.31.45c-2.82.36-5.63.66-8.47.9-1.61.14-3.22.23-4.84.31s-3.42,0-5.13,0a1.86,1.86,0,1,0,0,3.72c1.79,0,3.59.08,5.39,0s3.62-.21,5.43-.35c1.46-.12,2.93-.22,4.39-.38,1.64-.19,3.3-.33,4.93-.62s3.29-.57,4.91-1,3.25-.82,4.85-1.3,3.29-1,4.92-1.63,3.13-1.22,4.68-1.87c2.9-1.21,5.69-2.72,8.45-4.21l9-4.9c2.92-1.59,5.78-3.27,8.6-5,1.27-.79,2.52-1.6,3.77-2.41s2.72-1.72,4-2.65a54.19,54.19,0,0,0,5.93-4.9c1.87-1.77,3.76-3.51,5.77-5.11a33.45,33.45,0,0,1,3.54-2.27l.44-.37a21.75,21.75,0,0,1,2.09-1.62,15.36,15.36,0,0,1,4-1.71,23.07,23.07,0,0,1,3.36-.74,37.79,37.79,0,0,1,4.06-.42h2.13a36.19,36.19,0,0,1,5.48.38,34.32,34.32,0,0,1,7.72,2.5c1.74.66,3.48,1.27,5.17,2.05,2.69,1.25,5.32,2.61,8,4,1.22.63,2.48,1.17,3.68,1.83s2.52,1.38,3.82,2c2.61,1.22,5.09,2.69,7.63,4a74.93,74.93,0,0,0,7.42,3.38h.1c2.68,1.07,5.33,2.22,8,3.3,1.44.58,2.87,1.16,4.28,1.8,1.24.57,2.47,1.14,3.73,1.66l4.64,1.8.29.1.22.07q1.29.36,2.56.76h.1a13.13,13.13,0,0,1-.07-5.74l-1-.37h-.06c-2.23-.88-4.44-1.81-6.6-2.87-.76-.37-1.49-.78-2.23-1.19q-2.3-.89-4.58-1.84c-1.43-.65-2.87-1.29-4.28-2s-2.88-1.45-4.32-2.19q-4.4-2.27-8.77-4.57c-2.78-1.47-5.58-2.87-8.46-4.13l-4.88-2.13c-1.38-.6-2.73-1.27-4.1-1.87-3.15-1.37-6.35-2.62-9.53-3.92a34.69,34.69,0,0,0-9.84-2.52c-.82-.08-1.63-.11-2.46-.11a42.6,42.6,0,0,0-7.85.85"/><polyline class="cls-3" points="300.69 269.61 300.68 269.6 300.69 269.61"/><path class="cls-3" d="M316.34,276.23l-.19-.07.19.07"/><path class="cls-3" d="M165,307.3c-4.19,0-8.36.15-12.54.26-2.18.05-4.36.19-6.54.29-.92,0-1.85.14-2.77.21s-2.07.13-3.09.24l-6.1.6q-3.35.35-6.68.76l-1.57.22a1.76,1.76,0,0,0-1.1.85,1.85,1.85,0,0,0,.66,2.53,2,2,0,0,0,1.42.18l.7-.1,3.19-.4c1.12-.14,2.25-.22,3.38-.33l6.1-.55c1-.09,2.06-.13,3.09-.2s1.85-.15,2.77-.18c2.18-.07,4.36-.18,6.54-.21q13.11-.18,26.22-.28a2,2,0,0,0,0-3.95H165"/><path class="cls-3" d="M183.18,304.84c-2.78.13-5.56.34-8.33.56-2.52.2-5.05.41-7.56.74h-.08l-.38.05H167l-.4.05h-.08l-.52.07h-.3l-.88.12h.36l-.76.1h0c-2.9.39-5.79.85-8.68,1.25l-4.76.6h-.13c-1.9.22-3.8.39-5.72.5s-3.58.17-5.35.41c-.86.12-1.72.22-2.58.37l-2.82.52-5.32,1a1.57,1.57,0,0,0-.7.41,1.71,1.71,0,0,0-.47,1.13.28.28,0,0,0,0,.06,1.6,1.6,0,0,0,1.59,1.61h0c2.3-.28,4.6-.58,6.9-.84,1.68-.19,3.36-.36,5-.53,4.06-.42,8.12-.83,12.17-1.28,3.74-.42,7.46-.93,11.19-1.36q3.2-.36,6.4-.64c1.93-.17,3.87-.27,5.8-.4l6.24-.45a2.13,2.13,0,0,0,1.44-.6,2,2,0,0,0-1.36-3.47h-.08m-17.62,1.53h0m-1.38.19h0m-.33,0h.43l-.43.05m.43-.05h0m.86-.12h0m.52-.07h0m0,0h0m.09,0h0m.72-.09h0m.36,0h0m.15,0h0m.52-.07h0"/><path class="cls-9" d="M474.83,301.48c-4.29.1-8.58.18-12.87.31s-8.53.29-12.8.37c-8.66.15-17.32.22-26,.36q-7,.11-14,.28c-3.88.09-7.76.22-11.63.22-4.66,0-9.33-.05-14-.07-5.29,0-10.59,0-15.88-.22a3.31,3.31,0,0,0,0,6.62c4.55.16,9.11.19,13.67.23,4.18,0,8.35.12,12.53.14,8.17,0,16.34-.21,24.51-.27,9-.07,18-.07,27-.15,8.63-.08,17.25-.33,25.88-.49,17-.3,34,.22,51,.44,8.57.11,17.15.16,25.72.3,4.23.07,8.46.3,12.69.48s8.38.52,12.57.83,8.37.66,12.56,1l3.55.28a15.4,15.4,0,0,1-.71-2.72,14.88,14.88,0,0,1,.14-5.57c-4.14-.28-8.29-.59-12.43-.84l-7.54-.45c-1.75-.11-3.51-.26-5.26-.31l-7.29-.23c-1.86-.06-3.72-.16-5.58-.18-4.28,0-8.55-.08-12.83-.08H525.14c-8.41-.06-16.81-.2-25.22-.28-5.12,0-10.25-.11-15.38-.11q-4.89,0-9.77.11"/><path class="cls-9" d="M377.11,308.92h-.87a2.47,2.47,0,0,0-.44.08.28.28,0,0,0,0,.52h.09a.38.38,0,0,0,.18,0h.15l.35-.06h.61a.28.28,0,1,0,0-.56Z"/><path class="cls-9" d="M379.85,302.18h-.91a2.54,2.54,0,0,0-.67.06h-.07a10.87,10.87,0,0,0-1.28.05h-.38a1.84,1.84,0,0,0-.36.05H376a.29.29,0,0,0-.11.33.24.24,0,0,0,.21.18.33.33,0,0,0,.19.07.29.29,0,0,0,.35.15h.51a.35.35,0,0,0,.19.09,5.24,5.24,0,0,0,.59,0h1.3l1,.05h.81l.86.07h.71l1.17.09c.28,0,.56.07.84.08h.7l.52.08.48.07,1.2.23c1.11.23,2.21.51,3.32.73a.35.35,0,0,0,.23-.64,30,30,0,0,0-3.6-1c-.43-.11-.87-.21-1.31-.3-.22,0-.44-.09-.66-.11s-.49,0-.74,0h-.39a4.41,4.41,0,0,0-.77-.17l-.93-.09c-.66-.06-1.32-.09-2-.11h-.86m2.79,1.29h0m-1.57-.11h0"/><path class="cls-9" d="M570.45,305.44a4.15,4.15,0,0,0,2.88,5.08A33.37,33.37,0,0,0,580,311a37.21,37.21,0,0,1,3.94.25c2.69.41,5.38.76,8.1,1l5.07.46c3.43,0,6.86-.08,10.28-.08h5.07q9-.39,17.89-.55c3-.06,6-.07,9.07-.07H670.7c6.71,0,13.42,0,20.13.13,7,.15,13.9.34,20.85.52,6.78.18,13.56.24,20.34.25h9.16c3.51.07,7,.19,10.5.35a4.58,4.58,0,0,1,2.28-1.25c.65-.11,1.31-.21,2-.34a5.46,5.46,0,0,0-.9-5.89c-3-.07-6.07-.11-9.1-.26l-5.63-.28c-1.71-.08-3.41-.26-5.11-.39-2.26-.18-4.52-.41-6.78-.65-3.19.09-6.39.17-9.58.22h-5.78c-8.64-.08-17.26-.59-25.89-1-5.18-.24-10.37-.48-15.55-.58-5.43-.1-10.86-.06-16.3-.06-4.89,0-9.78,0-14.66.13-5.49.14-11,.35-16.47.49-4,.11-8.07.22-12.11.27-3.71.05-7.39-.1-11.09-.3q-2.94-.16-5.89-.26c-2-.07-4,0-6-.17s-4.25-.37-6.38-.47h-6.62l-.54-.11a4.69,4.69,0,0,0-1-.11,4.08,4.08,0,0,0-4.06,3"/><path class="cls-9" d="M315.75,272.63a.94.94,0,0,0,0,1.31l1.06,1.14a12.63,12.63,0,0,0,3,2.28c.47.27,1,.52,1.45.75l.25.1.29.11.23.07c.87.24,1.74.49,2.6.77l2.07.51c1.29.3,2.59.58,3.88.9s2.68.71,4,1.09l3.54,1,1,.19c1.44.27,2.88.48,4.32.78,2.84.58,5.67,1.14,8.49,1.79s5.72,1.34,8.62,1.86c1.36.24,2.7.61,4.06.86s2.86.5,4.29.73,2.94.39,4.4.64c1.26.22,2.53.41,3.8.57s2.52.23,3.78.36,2.74.34,4.11.5a36.52,36.52,0,0,0,6.33.07c1.89-.12,3.77-.25,5.64-.48.75-.12,1.49-.27,2.22-.43s1.35-.24,2-.36l.83-.16a4.25,4.25,0,0,1,3.2-1.92h.18a2.17,2.17,0,0,0-.62-1.34,2.07,2.07,0,0,0-1.51-.63,30.14,30.14,0,0,0-5.21,1.18c-.69.2-1.39.33-2.09.46l-2.07.38c-1.67.13-3.35.11-5,.09-1.84,0-3.68-.05-5.52,0s-3.75,0-5.62-.11-3.51-.29-5.27-.43c-1.31-.1-2.61-.23-3.92-.36-1.75-.26-3.48-.56-5.22-.85s-3.51-.5-5.27-.81-3.81-.69-5.72-1-3.75-.55-5.62-.86-3.58-.74-5.35-1.17-3.41-.81-5.1-1.25a110.21,110.21,0,0,1-10.77-3.27c-.85-.31-1.68-.64-2.52-1a19.55,19.55,0,0,1-3.83-2,18.71,18.71,0,0,1-2-2,.85.85,0,0,0-.64-.27,1,1,0,0,0-.67.27"/><path class="cls-9" d="M319.9,272.32c-.18.13-.36.27-.53.42l-.66.56a.72.72,0,0,0,0,1,.73.73,0,0,0,1,0l.56-.47.15-.1h0a8.34,8.34,0,0,1,1.21.41h0c1.53.68,3,1.4,4.63,2s3.18,1.06,4.77,1.57,2.93,1,4.4,1.41,3.24.93,4.86,1.39c3.14.9,6.31,1.68,9.45,2.6,1.7.5,3.4,1,5.12,1.38,1.47.37,3,.68,4.43,1.05,3.31.83,6.58,1.77,9.87,2.67,1.49.41,3,.84,4.48,1.22l1.75.42,1.6.22c1.26.14,2.52.23,3.78.36s2.74.34,4.11.5a34.83,34.83,0,0,0,5,.14,2.25,2.25,0,0,0-1.22-3.5l-1.44-.31c-.93-.09-1.87-.17-2.81-.28s-1.87-.33-2.8-.48c-1.23-.11-2.47-.16-3.7-.34s-2.39-.42-3.59-.64c-2.11-.38-4.2-.83-6.27-1.37a33.49,33.49,0,0,0-3.6-.76c-1.13-.17-2.25-.34-3.37-.57s-2.35-.47-3.54-.64-2.31-.3-3.47-.48c-1.35-.21-2.68-.45-4-.65s-2.48-.46-3.72-.7a41.38,41.38,0,0,1-4.09-.92c-1.29-.38-2.57-.81-3.87-1.19-2.64-.76-5.18-1.76-7.77-2.65-2.36-.81-4.71-1.64-7-2.55h0l-2.17-.87-.56-.05h-.1a1.55,1.55,0,0,0-.82.21m3.71.74h0m-3.09.69h0"/><path class="cls-9" d="M310.11,269.17a1.93,1.93,0,0,0-.5.86,1.87,1.87,0,0,0,.2,1.49,3.2,3.2,0,0,0,.52.62,4.34,4.34,0,0,0,.71.5c.21.11.44.2.66.29l1.42.58,2.25.88q2.45,1,4.91,1.87,1.71.64,3.43,1.22c2.49,1,5,2,7.5,2.91,1.52.56,3,1.09,4.58,1.61l2.42.69.88.17c1.44.27,2.88.49,4.32.78,2.83.58,5.67,1.14,8.49,1.79s5.72,1.34,8.62,1.86c1,.19,2.09.45,3.14.68a1.41,1.41,0,0,0-.4-.79A1.31,1.31,0,0,0,363,287h0l-.2-.08c-.55-.21-1.12-.36-1.68-.53l-1.68-.51-2.26-.71-.61-.19a1.74,1.74,0,0,0-.89-1.28,9,9,0,0,0-1.53-.56l-.58-.16-1.23-.33-2.38-.63a2.13,2.13,0,0,0-.1-.9c-1.14-.18-2.27-.43-3.4-.65-1.37-.26-2.75-.53-4.09-.92s-2.57-.82-3.87-1.19c-2.64-.76-5.18-1.76-7.77-2.65-2.36-.81-4.71-1.64-7-2.55h-.06c-2.23-.88-4.44-1.81-6.6-2.87-.85-.42-1.67-.87-2.5-1.34l-.55-.05a1.82,1.82,0,0,0-.92.22c-.33-.11-.67-.2-1-.33a1.54,1.54,0,0,0-.5-.09,2.08,2.08,0,0,0-1.39.59"/><path class="cls-9" d="M315.2,272.56a1.07,1.07,0,0,0-.26,2c2.75,1.23,5.45,2.55,8.14,3.9l1.53.76,2,.49c1.29.3,2.59.58,3.88.9s2.68.71,4,1.09l3.65,1,.88.17c1.44.27,2.88.48,4.32.78,2.83.58,5.67,1.14,8.49,1.79s5.72,1.34,8.62,1.86c1.36.24,2.7.61,4.06.86l.36.07c-.33-.17-.69-.29-1-.44l-.92-.35c-.78-.28-1.57-.53-2.36-.79-1.43-.46-2.9-.82-4.35-1.2-2.87-.75-5.8-1.27-8.72-1.8s-5.71-1.1-8.52-1.86c-.66-.18-1.32-.34-2-.54l-2.54-.79c-1.41-.44-2.8-1-4.18-1.47-1-.37-2-.79-3-1.2-3.78-1.67-7.53-3.41-11.3-5.09a1.39,1.39,0,0,0-.57-.15,1.11,1.11,0,0,0-.26,0"/><path class="cls-9" d="M358.63,284.31h0l-2.66-.22a1,1,0,0,0-.29,1.94,1.22,1.22,0,0,0,0,.21c1.61.36,3.23.7,4.85,1,1.36.24,2.7.61,4.06.86l1.91.34a1.9,1.9,0,0,0,.44-.32,1.71,1.71,0,0,0,0-2.42h0a1.55,1.55,0,0,0-.76-.43h0c-2.08-.36-4.14-.85-6.23-1.14l-.44-.06a1.67,1.67,0,0,0-.84.22"/><path class="cls-3" d="M475.28,243.51a28.53,28.53,0,0,0-4.41,1.25,45.64,45.64,0,0,0-5.08,2.06c-1.54.79-3.06,1.6-4.52,2.53a39.49,39.49,0,0,0-5.94,4.72q-1.81,1.71-3.58,3.46c-1.09,1.08-2.24,2.07-3.39,3.06-2.57,1.9-5.22,3.66-7.87,5.44s-5.37,3.47-8.12,5.08-5.54,3.17-8.32,4.75c-3,1.69-5.94,3.33-9,4.89-1.06.54-2.16,1-3.24,1.48s-2.44,1-3.69,1.42l-2.27.74c-.68.22-1.35.48-2,.67l-3.11.83c-.07.19-.14.38-.22.57a12.85,12.85,0,0,1-.43,2.55q-.15.55-.36,1.1c.7-.14,1.39-.29,2.08-.46,1.63-.41,3.25-.82,4.85-1.31s3.29-1,4.92-1.63,3.13-1.22,4.68-1.87c2.9-1.21,5.69-2.72,8.45-4.21l9-4.9c2.92-1.59,5.78-3.27,8.6-5l.24-.15c1.2-1.12,2.42-2.2,3.71-3.22,1.91-1.53,3.93-2.9,5.9-4.35,3.58-3.06,6.41-6.93,10.39-9.53a34.16,34.16,0,0,1,6.36-3.18,59.1,59.1,0,0,1,6-1.74,25.82,25.82,0,0,1,6.62-.95H482a40.34,40.34,0,0,1,6.55.68,41,41,0,0,1,11.82,4.14c2.08,1.11,4.22,2.1,6.3,3.2l6.9,3.65c2.39,1.27,4.89,2.32,7.33,3.47l6.42,3c4.92,2,9.83,4,14.9,5.68,2.51.82,5.08,1.49,7.58,2.36,2.83,1,5.59,2.13,8.34,3.32,2.13.86,4.29,1.63,6.44,2.45l1.59.61c2.51.43,5,.85,7.56,1.21,3.83.49,7.67.9,11.5,1.39q3.61.48,7.21,1l2,.36h.13q-1.93-.5-3.83-1.08c-3.13-1-6.28-1.93-9.42-2.91a6.46,6.46,0,0,1-3.86.34,17,17,0,0,1-2.68-.91l-3.35-1.28c-2.58-1-5.14-2-7.69-3.09l-.22-.09c-1.67-.54-3.34-1-5-1.51a67.64,67.64,0,0,1-6.54-2,85.09,85.09,0,0,1-9.77-4.51l-2.4-1c-1.43-.65-2.87-1.29-4.28-2s-2.88-1.45-4.32-2.19q-4.4-2.27-8.78-4.57c-2.78-1.47-5.58-2.87-8.46-4.13l-5-2.11c-1.38-.6-2.73-1.27-4.1-1.87-3.15-1.37-6.35-2.62-9.53-3.92a34.69,34.69,0,0,0-9.84-2.52q-1.23-.12-2.46-.12a42.6,42.6,0,0,0-7.85.85"/><path class="cls-3" d="M476,243.46a28.52,28.52,0,0,0-4.41,1.25,45.44,45.44,0,0,0-5.08,2.06c-1.54.79-3,1.6-4.52,2.53A39.57,39.57,0,0,0,456.1,254q-1.81,1.71-3.58,3.46c-1.08,1.08-2.23,2.07-3.39,3.06-2.56,1.9-5.22,3.66-7.87,5.44s-5.37,3.47-8.12,5.09-5.54,3.17-8.32,4.75c-3,1.69-5.94,3.33-9,4.89-1,.54-2.16,1-3.24,1.48s-2.44,1-3.69,1.42l-2.27.74c-.68.22-1.35.48-2,.67L400,286.21c-.6.16-1.23.24-1.85.36l-2.31.45c-2.82.36-5.63.67-8.47.9-1.61.14-3.22.23-4.84.31s-3.42,0-5.13,0a1.85,1.85,0,0,0-1.75,1.23h.07l.52.13a2.6,2.6,0,0,1,.44,0H377a38.82,38.82,0,0,1,4.9,1.14l.55.15c1.9.15,3.8.4,5.72.41a25.49,25.49,0,0,1,2.62.09l1.83-.18c1.64-.18,3.3-.33,4.93-.62s3.29-.57,4.91-1,3.25-.82,4.85-1.3,3.29-1,4.92-1.63,3.13-1.22,4.68-1.87c2.9-1.21,5.69-2.72,8.45-4.21l9-4.9c2.92-1.59,5.78-3.27,8.6-5,1.27-.79,2.52-1.6,3.78-2.41s2.72-1.72,4-2.65a54.4,54.4,0,0,0,5.93-4.9c1.87-1.77,3.76-3.51,5.77-5.11a33.45,33.45,0,0,1,3.54-2.27l.44-.37a21.74,21.74,0,0,1,2.09-1.62,15.34,15.34,0,0,1,4-1.71,23.07,23.07,0,0,1,3.36-.74,37.81,37.81,0,0,1,4.06-.42h2.13a36.18,36.18,0,0,1,5.48.38,34.26,34.26,0,0,1,7.72,2.5c1.74.66,3.48,1.27,5.17,2.05,2.69,1.25,5.32,2.61,8,4,1.22.63,2.48,1.17,3.68,1.83s2.52,1.38,3.82,2c2.61,1.22,5.09,2.69,7.63,4a74.81,74.81,0,0,0,7.42,3.38h.1c2.68,1.07,5.33,2.22,8,3.3,1.44.58,2.87,1.16,4.28,1.8,1.24.56,2.47,1.14,3.73,1.66l4.64,1.8.29.1.22.07c.86.24,1.72.49,2.56.76h.1a13.15,13.15,0,0,1-.07-5.75l-1-.37h0c-2.23-.88-4.44-1.81-6.6-2.87-.75-.37-1.49-.78-2.23-1.19-1.54-.59-3.06-1.21-4.59-1.84s-2.87-1.29-4.28-2-2.88-1.45-4.32-2.19c-2.93-1.51-5.86-3-8.77-4.57s-5.58-2.87-8.46-4.13l-4.88-2.13c-1.38-.6-2.72-1.28-4.1-1.87-3.15-1.37-6.35-2.62-9.53-3.92a34.71,34.71,0,0,0-9.84-2.52c-.82-.08-1.64-.11-2.46-.11a42.6,42.6,0,0,0-7.85.85"/><polyline class="cls-3" points="531.16 268.58 531.16 268.57 531.15 268.57 531.16 268.58"/><path class="cls-3" d="M546.71,275.15l-.19-.07.19.07"/><path class="cls-9" d="M546.12,271.56a.94.94,0,0,0,0,1.31l1.06,1.14a12.64,12.64,0,0,0,3,2.28c.47.27,1,.52,1.45.75l.25.1.29.11.22.07c.87.24,1.74.49,2.6.77l2.07.51c1.29.3,2.59.58,3.88.9s2.68.7,4,1.09l3.54,1,1,.19c1.44.27,2.88.49,4.32.78,2.84.58,5.67,1.14,8.49,1.79s5.72,1.34,8.62,1.86c1.36.24,2.7.61,4.06.86s2.86.5,4.29.73,2.94.39,4.4.64c1.27.22,2.53.42,3.8.57s2.52.23,3.78.36,2.74.34,4.11.5a36.52,36.52,0,0,0,6.33.07c1.89-.12,3.77-.25,5.64-.49.75-.12,1.49-.27,2.22-.43s1.35-.24,2-.36l.83-.15a4.25,4.25,0,0,1,3.2-1.92h.18a2.17,2.17,0,0,0-.62-1.34,2.08,2.08,0,0,0-1.51-.63,30,30,0,0,0-5.21,1.18c-.69.19-1.39.33-2.09.46l-2.07.38c-1.67.13-3.35.11-5,.09-1.84,0-3.68-.05-5.52,0s-3.75,0-5.62-.11-3.51-.29-5.27-.43c-1.31-.11-2.61-.23-3.92-.36-1.75-.26-3.48-.56-5.22-.85s-3.52-.5-5.27-.81c-1.91-.34-3.81-.69-5.72-1s-3.75-.55-5.62-.86-3.58-.75-5.35-1.17-3.41-.81-5.1-1.25a110.86,110.86,0,0,1-10.77-3.27c-.85-.31-1.68-.64-2.52-1a19.58,19.58,0,0,1-3.83-2,18.8,18.8,0,0,1-2-2,.85.85,0,0,0-.64-.27,1,1,0,0,0-.67.27"/><path class="cls-9" d="M550.27,271.25c-.18.13-.36.27-.53.42l-.66.56a.72.72,0,0,0,0,1,.73.73,0,0,0,1,0l.56-.47.15-.1h0a8.34,8.34,0,0,1,1.21.42h0c1.54.68,3,1.4,4.64,2s3.17,1.06,4.77,1.57,2.93,1,4.41,1.41,3.24.93,4.85,1.39c3.14.9,6.31,1.68,9.45,2.6,1.7.5,3.4,1,5.12,1.38,1.47.37,3,.68,4.43,1.05,3.31.83,6.58,1.77,9.87,2.67,1.49.41,3,.84,4.48,1.22l1.75.42,1.6.22c1.26.14,2.52.23,3.78.36s2.74.34,4.11.5a34.83,34.83,0,0,0,5,.14,2.25,2.25,0,0,0-1.22-3.5l-1.44-.31c-.93-.09-1.87-.17-2.81-.28s-1.87-.33-2.8-.48c-1.23-.11-2.47-.16-3.7-.34s-2.39-.42-3.59-.64c-2.11-.38-4.2-.83-6.27-1.37a33.7,33.7,0,0,0-3.6-.76c-1.13-.17-2.25-.34-3.37-.57s-2.35-.47-3.54-.64-2.31-.3-3.47-.48c-1.34-.21-2.68-.45-4-.65s-2.48-.46-3.72-.7-2.75-.52-4.09-.92-2.57-.82-3.87-1.19c-2.64-.76-5.18-1.76-7.77-2.65-2.36-.81-4.71-1.64-7-2.55h0c-.72-.29-1.45-.57-2.16-.87l-.56-.05H551a1.56,1.56,0,0,0-.82.21m3.71.75h0m-3.09.69h0"/><path class="cls-9" d="M540.48,268.1a1.93,1.93,0,0,0-.5.86,1.87,1.87,0,0,0,.2,1.49,3.14,3.14,0,0,0,.52.62,4.27,4.27,0,0,0,.71.5c.21.11.44.2.66.29l1.42.58,2.25.88q2.45,1,4.91,1.87,1.71.63,3.43,1.22c2.49,1,5,2,7.5,2.91q2.28.84,4.58,1.61l2.42.69.88.17c1.44.27,2.88.48,4.32.77,2.84.58,5.67,1.14,8.49,1.79s5.72,1.34,8.62,1.86c1,.19,2.1.45,3.14.68a1.41,1.41,0,0,0-.4-.79,1.32,1.32,0,0,0-.29-.22h0l-.29-.16c-.55-.21-1.12-.36-1.68-.53l-1.68-.51-2.26-.71-.61-.19a1.74,1.74,0,0,0-.9-1.28,9,9,0,0,0-1.53-.56l-.58-.16-1.23-.33-2.38-.63a2.14,2.14,0,0,0-.1-.9c-1.14-.19-2.27-.43-3.41-.65a41.69,41.69,0,0,1-4.09-.92c-1.29-.38-2.57-.82-3.87-1.19-2.64-.76-5.18-1.76-7.77-2.65-2.36-.81-4.71-1.65-7-2.55h-.06c-2.23-.88-4.44-1.81-6.6-2.87-.85-.41-1.68-.87-2.5-1.34l-.55-.05a1.82,1.82,0,0,0-.92.22c-.33-.11-.67-.2-1-.33a1.58,1.58,0,0,0-.5-.09,2.08,2.08,0,0,0-1.39.59"/><path class="cls-9" d="M545.57,271.49a1.07,1.07,0,0,0-.26,2c2.75,1.23,5.46,2.55,8.14,3.9l1.53.76,2,.49c1.29.3,2.59.58,3.88.9s2.68.71,4,1.09l3.65,1,.88.17c1.44.27,2.88.48,4.32.78,2.84.58,5.67,1.14,8.49,1.79s5.72,1.34,8.62,1.86c1.36.24,2.7.61,4.06.86l.36.06c-.33-.17-.69-.29-1-.44a8.64,8.64,0,0,0-.92-.35c-.78-.28-1.57-.53-2.36-.79-1.43-.46-2.9-.82-4.35-1.2-2.87-.75-5.8-1.27-8.72-1.8s-5.71-1.1-8.52-1.87c-.66-.18-1.32-.34-2-.54l-2.54-.79c-1.41-.44-2.8-1-4.18-1.47-1-.37-2-.79-3-1.2-3.78-1.67-7.53-3.41-11.3-5.09a1.38,1.38,0,0,0-.56-.15,1.11,1.11,0,0,0-.26,0"/><path class="cls-9" d="M589,283.24h0l-2.66-.22a1,1,0,0,0-.29,1.94,1.23,1.23,0,0,0,0,.21c1.61.36,3.23.7,4.85,1,1.36.24,2.7.61,4.06.86l1.91.34a1.9,1.9,0,0,0,.45-.32,1.71,1.71,0,0,0,0-2.42h0a1.56,1.56,0,0,0-.76-.43h0c-2.08-.36-4.14-.85-6.23-1.14l-.44-.06a1.66,1.66,0,0,0-.84.22"/><path class="cls-3" d="M705.65,242.44a28.4,28.4,0,0,0-4.41,1.25,45.42,45.42,0,0,0-5.08,2.06c-1.54.78-3.06,1.6-4.52,2.53A39.61,39.61,0,0,0,685.7,253q-1.81,1.71-3.59,3.46c-1.09,1.08-2.23,2.07-3.39,3.06-2.57,1.9-5.22,3.66-7.87,5.44s-5.37,3.47-8.12,5.08-5.54,3.17-8.32,4.75c-3,1.69-5.94,3.33-9,4.89-1.06.54-2.16,1-3.24,1.48s-2.44,1-3.69,1.42l-2.27.74c-.68.22-1.35.48-2,.67l-3.11.83-.22.57a12.93,12.93,0,0,1-.43,2.55,10.6,10.6,0,0,1-.36,1.1c.7-.14,1.39-.29,2.08-.46,1.63-.41,3.24-.82,4.85-1.3s3.29-1,4.92-1.63,3.13-1.22,4.68-1.87c2.9-1.21,5.69-2.72,8.45-4.21l9-4.9c2.92-1.59,5.78-3.27,8.6-5,1.27-.79,2.52-1.6,3.77-2.41s2.72-1.72,4-2.65a54.41,54.41,0,0,0,5.93-4.9c1.87-1.77,3.76-3.51,5.77-5.12a43,43,0,0,1,6.9-4c1.4-.55,2.79-1.09,4.25-1.51.91-.26,1.81-.5,2.73-.71.63-.15,1.27-.24,1.91-.34,1.19-.11,2.37-.2,3.57-.26a27.78,27.78,0,0,1,3.53.1c.51.08,1,.16,1.55.27.75.16,1.49.36,2.23.56a31.34,31.34,0,0,1,3.72,1.34c2.77,1.25,5.58,2.43,8.32,3.74,1.56.75,3.11,1.53,4.66,2.29,1.39.68,2.8,1.31,4.21,2,5.86,2.71,11.45,5.94,17.11,9,1.35.74,2.7,1.49,4.07,2.21,1.63.86,3.27,1.66,4.92,2.46,3,1.47,6.2,2.75,9.36,4a184.68,184.68,0,0,0,18.88,5.9,72.62,72.62,0,0,0,9.32,1.66,89.55,89.55,0,0,0,9.16.78,58.57,58.57,0,0,0,9.68-.46c3-.42,5.83-1.17,8.74-1.76a4.15,4.15,0,0,0,3-.43,4,4,0,0,0,1.45-5.47h0a4.28,4.28,0,0,0-2.4-1.84,6.18,6.18,0,0,0-1.79-.39,6.82,6.82,0,0,0-1.91.11c-.6.09-1.19.22-1.78.35l-2.44.55c-1.46.32-2.92.61-4.4.85a74.66,74.66,0,0,1-8.66.19c-2.72-.09-5.42-.41-8.12-.75a81.47,81.47,0,0,1-8.39-1.6c-2.84-.72-5.68-1.51-8.51-2.32-3-.85-5.93-1.73-8.84-2.77-2.71-1-5.38-2-8-3.13-1.43-.65-2.87-1.29-4.28-2s-2.88-1.45-4.32-2.19q-4.4-2.27-8.78-4.57c-2.78-1.47-5.58-2.87-8.46-4.13l-4.88-2.14c-1.38-.6-2.72-1.27-4.1-1.87-3.15-1.37-6.35-2.62-9.53-3.92a34.77,34.77,0,0,0-9.84-2.52q-1.23-.12-2.46-.12a42.53,42.53,0,0,0-7.85.86m125.12,39.12-.37.05.38-.05"/><path class="cls-9" d="M718.51,304.58a4.53,4.53,0,0,0-1.91,3.69,4.59,4.59,0,0,0,1.34,3.23,4.88,4.88,0,0,0,3.23,1.34c2.45.26,4.89.46,7.35.55,1.29.05,2.59,0,3.89,0h2.34c4.72.05,9.45.24,14.17.35,4.53.11,9.07-.3,13.59-.36s9.35-.07,14-.16c6-.12,12.08-.12,18.12-.12h37.94c7.4,0,14.8.24,22.2.25h4.87l2.69-.43c3.67-.57,7.35-1,11-1.41,3-.33,6.08-.53,9.13-.68a.9.9,0,0,1,.08-.25,4.45,4.45,0,0,0,0-2.37c-4.57-.07-9.14-.15-13.71-.17H849.6c-7.23,0-14.45,0-21.68-.06s-14.41-.18-21.61-.41c-6.38-.2-12.77-.46-19.15-.65l-21.76-.66q-4.59-.15-9.19-.26c-3.44-.09-6.89-.12-10.32-.29l-5.63-.28c-1.71-.08-3.41-.26-5.11-.39-3-.24-6-.58-9.07-.9l-7.59.42"/><path class="cls-9" d="M866.75,301.5a3.83,3.83,0,0,0,1.36,5.18,50.63,50.63,0,0,0,11,5,3.44,3.44,0,0,0,2.65-6.28c-3.26-1.77-6.6-3.4-9.79-5.3a3.68,3.68,0,0,0-1.87-.51,3.84,3.84,0,0,0-3.31,1.87"/><path class="cls-9" d="M879.26,307.94c-3.17,1.4-6.21,3-9.22,4.7-1.44.81-2.85,1.69-4.26,2.55q-2.39,1.5-4.68,3a2.41,2.41,0,0,0-1,1.36,2.29,2.29,0,0,0,3.36,2.58c3-1.9,5.88-3.85,8.83-5.76a66.19,66.19,0,0,1,9.11-4.89,2,2,0,0,0,1-1.23A2.08,2.08,0,0,0,881,307.7a1.92,1.92,0,0,0-.51-.07,2.69,2.69,0,0,0-1.09.28"/><path class="cls-9" d="M229.35,263.89c-.12,2.79-.22,5.57-.29,8.36a.68.68,0,0,0,1.36,0c.14-2.79.23-5.57.35-8.36a.71.71,0,0,0-1.42,0h0"/><path class="cls-9" d="M228.68,281.56c-.08,1.41-.15,2.81-.19,4.23a.7.7,0,0,0,.7.7.71.71,0,0,0,.7-.7c.07-1.41.15-2.82.23-4.23a.72.72,0,1,0-1.44,0h0"/><path class="cls-9" d="M228.55,295.38a.85.85,0,0,0-.23.55c-.24,2.13-.42,4.26-.63,6.4a.71.71,0,0,0,1.07.61.68.68,0,0,0,.33-.43c.16-1.13.31-2.26.43-3.39s.23-2.13.35-3.19a.75.75,0,0,0-.23-.55.77.77,0,0,0-1.09,0h0"/><path class="cls-9" d="M271.41,259.19q-.15,3.47-.23,6.94a.45.45,0,0,0,.9,0h0q.11-3.47.26-6.94a.47.47,0,1,0-.93,0"/><path class="cls-9" d="M271.41,275.19a1,1,0,0,0-.27.64c-.24,2.2-.48,4.41-.66,6.62a.84.84,0,0,0,.61.81.87.87,0,0,0,.64-.08.82.82,0,0,0,.38-.5c.17-1.13.34-2.26.47-3.4l.38-3.45a.89.89,0,0,0-.27-.64.92.92,0,0,0-1.3,0"/><path class="cls-9" d="M272.36,294.21a.54.54,0,0,0-.27.34c-.24,1.68-.48,3.35-.7,5a.55.55,0,0,0,.82.47.51.51,0,0,0,.25-.33q.38-2.43.74-4.86a.65.65,0,0,0-.06-.45.61.61,0,0,0-.35-.27h-.15a.56.56,0,0,0-.29.08"/><path class="cls-9" d="M457,262.93c-.1,1.48-.2,3-.27,4.45a.83.83,0,0,0,1.66,0c0-1.49.14-3,.23-4.45a.82.82,0,0,0-.81-.81.83.83,0,0,0-.81.81"/><path class="cls-9" d="M457.44,280.6a.92.92,0,0,0-.25.6c-.11,1-.22,2-.31,3s-.14,2-.16,3a.78.78,0,0,0,.77.77.76.76,0,0,0,.55-.23.81.81,0,0,0,.23-.54q.29-3,.62-6.05a.82.82,0,0,0-.25-.6.85.85,0,0,0-.6-.25.84.84,0,0,0-.59.25"/><path class="cls-9" d="M454.63,296c-.1,1.74-.2,3.47-.35,5.2a.54.54,0,0,0,.92.38.57.57,0,0,0,.16-.38c.09-.83.17-1.67.23-2.5s.11-1.8.17-2.7a.57.57,0,0,0-1.13,0"/><path class="cls-9" d="M508.34,260.39a.92.92,0,0,0-.25.6c-.18,1.3-.35,2.59-.5,3.89s-.23,2.53-.26,3.81a.82.82,0,1,0,1.63,0c.15-2.58.49-5.14.83-7.7a.8.8,0,0,0-.25-.6.85.85,0,0,0-.6-.25.86.86,0,0,0-.6.25"/><path class="cls-9" d="M506.79,280.24c-.12,2.17-.22,4.33-.27,6.5a.74.74,0,0,0,1.48,0h0c.09-2.17.2-4.33.32-6.5a.76.76,0,0,0-1.52,0"/><path class="cls-9" d="M506.71,294.27a1,1,0,0,0-.5.64q-.4,2.37-.68,4.76c-.17,1.48-.3,3-.41,4.46a1.06,1.06,0,0,0,1,1.05,1,1,0,0,0,.74-.31,1.09,1.09,0,0,0,.31-.74c.16-1.89.39-3.78.6-5.67.15-1,.29-2,.46-3a1.17,1.17,0,0,0-.11-.83,1.09,1.09,0,0,0-.65-.49,1,1,0,0,0-.28,0,1.07,1.07,0,0,0-.55.15"/><path class="cls-9" d="M683.52,264.43c-.08,1.64-.16,3.27-.22,4.91a.76.76,0,1,0,1.51,0q.15-2.45.27-4.91a.78.78,0,0,0-1.56,0"/><path class="cls-9" d="M682.3,281.37a1.13,1.13,0,0,0-.3.74c-.16,1.34-.35,2.69-.45,4s-.15,2.87-.17,4.3a.91.91,0,0,0,1.55.64.94.94,0,0,0,.27-.64c.23-2.79.55-5.56.88-8.34a1,1,0,0,0-1.71-.8l-.06.06"/><path class="cls-9" d="M681.39,295.91a1,1,0,0,0-.45.59c-.17,1.24-.35,2.48-.44,3.73-.09,1.41-.12,2.8-.13,4.21a1,1,0,1,0,2,0c0-1.33.07-2.67.16-4,.06-1,.18-2,.31-3a1,1,0,0,1,.06-.42,1,1,0,0,0-.1-.76,1,1,0,0,0-1.35-.32m1.41,1.34v0"/><path class="cls-9" d="M735.17,260.41a1.1,1.1,0,0,0-.3.71c-.19,1.44-.37,2.87-.52,4.31a38.46,38.46,0,0,0-.17,4.1,1,1,0,1,0,1.91,0,82.65,82.65,0,0,1,.79-8.41,1,1,0,0,0-1.71-.72h0"/><path class="cls-9" d="M734.58,277.2a1,1,0,0,0-.29.69c-.27,2.71-.47,5.43-.74,8.14a.91.91,0,0,0,.67.88.93.93,0,0,0,.7-.09.86.86,0,0,0,.41-.54c.2-1.46.39-2.92.53-4.39s.25-2.67.38-4a.93.93,0,0,0-.29-.69,1,1,0,0,0-1.38,0"/><path class="cls-9" d="M735,294.46a1,1,0,0,0-.26.61c-.39,3.39-.77,6.78-1.2,10.16v.13c0,.39-.11.78-.16,1.17v-.22a6.87,6.87,0,0,1-.14,1,.87.87,0,0,0,.08.62.79.79,0,0,0,.48.37.81.81,0,0,0,.62-.08.76.76,0,0,0,.37-.48c.7-4.2,1.18-8.43,1.68-12.66a.84.84,0,0,0-.26-.61.87.87,0,0,0-1.22,0m-1.49,11h0m0-.16h0"/><path class="cls-9" d="M133.48,153a14.65,14.65,0,0,0-3.26,3.54l-1.17,1.6a3.73,3.73,0,0,0-2.34,1.19c-2.18,2.43-4.36,4.87-6.51,7.33-.89,1-1.76,2-2.64,3.08-.45.53-.86,1.09-1.29,1.63s-.81,1-1.22,1.57a9.69,9.69,0,0,0-1.24,2.64,4.05,4.05,0,0,0,.42,3.21,4.15,4.15,0,0,0,3.59,2.06,9,9,0,0,0,1.74-.17,6.56,6.56,0,0,0,2.39-1.38q1.3-1.12,2.52-2.34c.82-.83,1.57-1.72,2.35-2.58,1.28-1.42,2.44-3,3.64-4.46s2.42-3,3.66-4.54c.68-.82,1.37-1.67,2.09-2.48a49.73,49.73,0,0,1,2.63,5.13,73.7,73.7,0,0,1,3.85,12.85,4.81,4.81,0,0,0,8,2.12,4.58,4.58,0,0,0,1.41-3.4,99.71,99.71,0,0,0-1.73-10.56c-.16-.69-.42-1.36-.63-2a32,32,0,0,0-2.28-5.35,34.89,34.89,0,0,0-3.46-5.23,14,14,0,0,0-4.07-3.71,6.23,6.23,0,0,0-6.44.25m5,14.14.18.44-.18-.44"/></g></g></svg>