<svg id="Layer_1" data-name="Layer 1" xmlns="http://www.w3.org/2000/svg" xmlns:xlink="http://www.w3.org/1999/xlink" viewBox="0 0 1152 648"><defs><style>.cls-1{fill:none;}.cls-2{clip-path:url(#clip-path);}.cls-3{fill:#2d2d2c;}.cls-4{opacity:0.62;}.cls-5{opacity:0.2;}.cls-6{clip-path:url(#clip-path-6);}.cls-7{fill:#7f8080;}.cls-8{clip-path:url(#clip-path-7);}.cls-9{fill:#2b2c2b;}.cls-10{opacity:0.31;}.cls-11{clip-path:url(#clip-path-9);}.cls-12{opacity:0.23;}.cls-13{clip-path:url(#clip-path-11);}.cls-14{clip-path:url(#clip-path-12);}.cls-15{clip-path:url(#clip-path-13);}.cls-16{clip-path:url(#clip-path-14);}</style><clipPath id="clip-path"><rect class="cls-1" x="-56.64" y="-510.06" width="1765.39" height="1765.39"/></clipPath><clipPath id="clip-path-6"><rect class="cls-1" x="891.02" y="344.81" width="40.94" height="57.62"/></clipPath><clipPath id="clip-path-7"><rect class="cls-1" x="1023.93" y="346.83" width="40.6" height="53.19"/></clipPath><clipPath id="clip-path-9"><rect class="cls-1" x="563.28" y="621.51" width="4.29" height="4.14"/></clipPath><clipPath id="clip-path-11"><rect class="cls-1" x="63.12" y="356.04" width="76.1" height="42.37"/></clipPath><clipPath id="clip-path-12"><rect class="cls-1" x="171.54" y="351.15" width="158.01" height="47.22"/></clipPath><clipPath id="clip-path-13"><rect class="cls-1" x="369.76" y="354.93" width="149.12" height="42.97"/></clipPath><clipPath id="clip-path-14"><rect class="cls-1" x="561.52" y="353.57" width="90.01" height="48.57"/></clipPath></defs><title>batch-oper</title><g class="cls-2"><g class="cls-2"><path class="cls-3" d="M765.79,361.51q-4.24.14-8.47.23l-2.87.06a2.36,2.36,0,1,0,0,4.73c2.94-.06,5.89-.11,8.83-.2,2.65-.07,5.29-.11,7.93-.12.49,0,1,0,1.46.06l2.55.11c1.21.05,2.42.16,3.64.25,2.39.17,4.78.32,7.17.39l2.46.07a2.25,2.25,0,0,0,1.59-3.85,2.36,2.36,0,0,0-1.59-.66c-2.67-.19-5.33-.42-8-.63s-5.21-.37-7.82-.47c-1,0-2-.05-2.93-.05-1.32,0-2.64,0-4,.07"/><path class="cls-3" d="M778.7,354.08a3,3,0,0,0-.88,2.11,3.14,3.14,0,0,0,.88,2.11c.39.45.79.89,1.19,1.32a16.31,16.31,0,0,0,2.12,1.8c.57.43,1.16.84,1.75,1.25.83.58,1.64,1.17,2.45,1.78l1.48,1.21.71.59c-.52.5-1.08,1-1.59,1.47s-1.25,1.22-1.88,1.82c-1.59,1.52-3.19,3-4.83,4.47a3,3,0,0,0,2.13,5.15,3.24,3.24,0,0,0,2.13-.88c1.73-1.37,3.41-2.78,5-4.27.64-.59,1.26-1.2,1.87-1.82a27.27,27.27,0,0,0,3-3.44,6.83,6.83,0,0,0,.61-1.33,9,9,0,0,0,.17-1.11,4.79,4.79,0,0,0-.11-1.1,5.39,5.39,0,0,0-.4-1,3.3,3.3,0,0,0-.62-.89,8.54,8.54,0,0,0-1.07-1.08c-.78-.69-1.58-1.35-2.4-2-1.65-1.31-3.42-2.44-5.11-3.7a19.51,19.51,0,0,1-2.44-2.43,2.64,2.64,0,0,0-2-.87,3.15,3.15,0,0,0-2.2.87m10.67,11,0,.1,0-.1"/></g><g class="cls-2"><g class="cls-5"><g class="cls-6"><path class="cls-7" d="M922.72,345a16.22,16.22,0,0,0-1.87.28,25.83,25.83,0,0,0-4.68,1.58c-1.13.5-2.26,1-3.4,1.51a8.37,8.37,0,0,0-2.64,1.8,10.38,10.38,0,0,0-1.75,2.47,34.83,34.83,0,0,0-3,8.28c-.25,1.05-.51,2.1-.75,3.15s-.46,2.2-.66,3.3c-.43,1.79-1,3.54-1.44,5.31-.53,2-.9,4-1.29,6a32.33,32.33,0,0,1-1.92,6.53,41.79,41.79,0,0,1-4.33,6.9,10.61,10.61,0,0,1-1,.93c-.44.37-1,.67-1.39,1a4.88,4.88,0,0,0-1.42,2,4.14,4.14,0,0,0,1.2,4.36,4.82,4.82,0,0,0,1,.78l1.14.56a6.76,6.76,0,0,0,1,.3,13.09,13.09,0,0,0,2.83.34,34.31,34.31,0,0,0,5.84-.75c1.37-.24,2.76-.39,4.14-.5,2.12-.11,4.24,0,6.35,0s4.3.23,6.45.23a40.06,40.06,0,0,0,4.16-.27,10.44,10.44,0,0,0,3.38-.63c2-.91,2.63-3.16,2.85-5.15a13.86,13.86,0,0,0-.07-2.53c0-.45-.07-.89-.11-1.34-.05-1.11,0-2.23-.06-3.34s-.07-2.5,0-3.74.07-2.44.09-3.65,0-2.6-.08-3.9,0-2.47-.1-3.71-.12-2.54-.09-3.82c.06-2.52.23-5,.42-7.55a69.69,69.69,0,0,0,.42-7.45c0-.66-.06-1.32-.08-2a6.05,6.05,0,0,0-.36-2.41l0,0a2.46,2.46,0,0,0,.07-1.17,4.08,4.08,0,0,0-.33-1,3.53,3.53,0,0,0-.72-1,5.35,5.35,0,0,0-1.24-.94,5.59,5.59,0,0,0-1.5-.6,10.21,10.21,0,0,0-2.52-.33h-.07a24,24,0,0,0-2.46.14m5.26,7.79v0l0,0Zm-30.81,42.2.19.16-.19-.16"/></g></g><g class="cls-5"><g class="cls-8"><path class="cls-7" d="M1030.74,346.83c-.53,0-1.05.06-1.57.12a4.59,4.59,0,0,0-2.12,1,3.22,3.22,0,0,0-.91,1l-.06.08a2.06,2.06,0,0,0-.75.72,6,6,0,0,0-.55,1.15,5.08,5.08,0,0,0-.18,1.64c0,.58,0,1.17,0,1.75,0,1,0,2.06,0,3.1.11,2.16.4,4.3.66,6.45.06,1.29,0,2.57.05,3.86,0,1.46-.1,2.94-.2,4.4-.21,2.95-.65,5.87-1,8.8a27.74,27.74,0,0,0-.12,4.33c0,1.46,0,2.92.06,4.38.06,1.62.13,3.25.32,4.86a7.51,7.51,0,0,0,.6,2.4,4.6,4.6,0,0,0,2.38,2,9.56,9.56,0,0,0,2.86.78,15.23,15.23,0,0,0,2.95.21,14.59,14.59,0,0,0,2.85-.42l1.24-.32a27.74,27.74,0,0,1,4.21-.74,17.44,17.44,0,0,1,3.51.3c.7.14,1.4.27,2.11.36s1.54.13,2.31.17c1.37.07,2.74,0,4.1.18a11.1,11.1,0,0,0,2.08.31c.58,0,1.18,0,1.76.07a12,12,0,0,0,1.66.19c.61,0,1.19-.11,1.79-.19a7.22,7.22,0,0,0,1.56-.36,3.51,3.51,0,0,0,2.06-2.69,4.88,4.88,0,0,0,.07-2,3.77,3.77,0,0,0-1.41-2.11c-.5-.43-1.14-.66-1.67-1.05-.29-.22-.58-.43-.86-.66a7.47,7.47,0,0,1-.73-.8,22.34,22.34,0,0,1-1.78-3.86l.1.28c-.52-1.46-1.07-2.9-1.61-4.36a43.07,43.07,0,0,1-1.08-4.49,29,29,0,0,0-1.74-5.55c-.31-.72-.58-1.46-.92-2.17s-.7-1.42-1-2.16c-.6-1.52-1.32-3-1.91-4.51-.3-.93-.56-1.87-.78-2.83a18.64,18.64,0,0,0-1.49-4.39c-.13-.26-.29-.52-.45-.77a13.21,13.21,0,0,0-.91-1.27A9.62,9.62,0,0,0,1045,353a15.13,15.13,0,0,0-2-1.41,40,40,0,0,0-4.47-2,20,20,0,0,0-5.47-2.43,10.45,10.45,0,0,0-2.14-.31h-.18m29.75,48.44v.05h0v-.05"/></g></g></g><g class="cls-2"><path class="cls-3" d="M884.72,275.08a3.68,3.68,0,0,0-1,2.49q-.88,13.31-1.9,26.63c-.62,8-1.33,15.92-1.83,23.89q-.49,7.81-1,15.63c-.21,3.39-.27,6.78-.39,10.17s-.27,7-.34,10.57c-.08,4.23-.14,8.47-.24,12.7s-.18,8.24-.34,12.36-.25,8.2-.6,12.28a3.49,3.49,0,0,0,1.06,2.55,3.61,3.61,0,0,0,5.11,0l.56-.73a3.58,3.58,0,0,0,.5-1.82c.14-1.1.25-2.19.34-3.3,0,0,0-.09,0-.13a5.38,5.38,0,0,1,0-.66c0-.21,0-.41.06-.62s0-.2,0-.3v-.07a1.69,1.69,0,0,1,.06-.45c.13-2.14.2-4.29.27-6.42.14-4.19.2-8.39.26-12.59s.11-8.38.16-12.57c0-3.49.18-7,.28-10.46s.14-6.9.35-10.35q.46-7.77.92-15.55c.48-8,1.17-16,1.79-24q1-13.29,1.89-26.6a20.75,20.75,0,0,1-5.34-3.19,3.45,3.45,0,0,0-.64.5"/><path class="cls-3" d="M880.09,272.15c-.26.36-.46.76-.71,1.13l-.59.9-.86,1.3c-.66,1-1.33,2-2,3.06l-2.22,3.59c-.7,1.14-1.38,2.3-2,3.48a16.6,16.6,0,0,0-1,2,3.62,3.62,0,0,0,0,2.53,2.49,2.49,0,0,0,1.68,1.68,2.45,2.45,0,0,0,2.34-.62,15.1,15.1,0,0,0,1.58-1.67c.41-.53.81-1.07,1.21-1.6l1.39-1.83,2.35-3.13c1.46-1.94,2.92-3.88,4.38-5.82l.17-.22.5.68a30.46,30.46,0,0,0,4,4.54c1.59,1.44,3.19,2.87,4.84,4.25a3.31,3.31,0,0,0,2.21.92,3.13,3.13,0,0,0,1.58-5.84l0,0c-1-.76-2-1.52-2.94-2.3a22.13,22.13,0,0,1-2.88-.57,21,21,0,0,1-9.27-5.41l-2.14-2.77a8.69,8.69,0,0,0-1.58,1.74m5.35,5.24-.18.24.18-.24m13.08,3.78.27.21-.27-.21"/><path class="cls-3" d="M1080.19,396.87l-.58.09c-2.42.26-4.86.31-7.29.38l-8.71.25q-7.67.22-15.35.39c-11.43.23-22.86.32-34.29.38q-15.8.08-31.61.17c-10.87.07-21.75.13-32.62.32-5.68.1-11.37.19-17.05.34-2.44.07-4.89.11-7.33.21-2.92.12-5.84.19-8.76.37l-7.81.48c-2.22.14-4.43.34-6.65.51-4.69.36-9.35.94-14,1.53a2.11,2.11,0,0,0-1.38.57,1.94,1.94,0,0,0,0,2.75,1.86,1.86,0,0,0,1.38.57c2.93-.37,5.86-.79,8.8-1,2.71-.24,5.42-.48,8.13-.68q8.12-.6,16.26-.9c10.67-.4,21.35-.51,32-.55q16.54-.06,33.08,0l34.57.16q15.74.08,31.48-.1l15.27-.19c2.29,0,4.57,0,6.86,0H1079a22.12,22.12,0,0,1,.52-2.48l1.54-3.66-.91.13"/><path class="cls-3" d="M1070.19,390.57a2.52,2.52,0,0,0-.91,3.45,2.79,2.79,0,0,0,1.51,1.16l.46.19-.44-.18c.95.4,1.9.8,2.83,1.22a20.79,20.79,0,0,1,2.59,1.29l-.06.22a7.68,7.68,0,0,1-.52.84,23.11,23.11,0,0,1-3.46,3.3l-1.72,1.34c-.68.52-1.38,1-2.06,1.53s-1.14.82-1.66,1.27-.9.78-1.31,1.22a21.57,21.57,0,0,0-1.56,1.93,2.92,2.92,0,0,0,2.52,4.39,2.79,2.79,0,0,0,2.06-.85,38.24,38.24,0,0,1,5.16-5A44.73,44.73,0,0,0,1079,403l.08-.09a22.25,22.25,0,0,1,.52-2.51l1.71-4.06a4.89,4.89,0,0,0-1.95-2.67,10.42,10.42,0,0,0-1.54-.86c-1.84-.93-3.76-1.69-5.65-2.49a1.63,1.63,0,0,0-.61-.11,2.81,2.81,0,0,0-1.33.36m6,6.9.13.15h0l-.12-.16m.13.26h0s0,0,0,0h0s0,0,0,0m0,.07v0a2.84,2.84,0,0,1,0,.33c0-.1,0-.21,0-.31m.17.07a2.15,2.15,0,0,1,.14.34l-.14-.34"/><path class="cls-3" d="M1070.82,395.19l-.16-.07.16.07"/><path class="cls-3" d="M880.13,274a2.19,2.19,0,1,0,2.19-2.19,2.21,2.21,0,0,0-2.19,2.19"/><path class="cls-3" d="M881.54,269.86a3.71,3.71,0,0,0-.92,1.29c-.12.26-.23.52-.34.79s-.36.61-.57.89l-.67.86,0,0c-.41.52-.84,1-1.2,1.59s-.65,1.07-1,1.61a2.26,2.26,0,1,0,3.9,2.28c.3-.5.59-1,.91-1.49a8.37,8.37,0,0,1,.85-.79h.26a3.23,3.23,0,0,0,1.56-.44l.16-.09,1.14,1.15a46.93,46.93,0,0,0,4.27,3.65l-.19-.15c1.55,1.2,3.06,2.42,4.62,3.61.45.37.88.76,1.36,1.09a3.59,3.59,0,0,0,2.87.47,2.75,2.75,0,0,0,2-2.63c.09-2-1.63-3.22-3.06-4.29-1.65-1.28-3.27-2.6-4.89-3.93-.91-.75-1.78-1.53-2.64-2.33-.38-.35-.76-.72-1.15-1.07a25.54,25.54,0,0,0-2.06-1.59c-.37-.27-.74-.53-1.13-.76a4.39,4.39,0,0,0-1.83-.56l-.27,0a3.31,3.31,0,0,0-2,.89m-2.66,4-.17.22.17-.22"/><path class="cls-3" d="M1070.05,390a3.6,3.6,0,0,0-2.51,4.43l.36.86a3.66,3.66,0,0,0,1.29,1.29c.94.71,1.88,1.42,2.85,2.09s2.08,1.35,3.1,2c1.88,1.27,3.89,2.84,6.28,2.65a3.93,3.93,0,0,0,3.28-1.88,3.86,3.86,0,0,0-.59-4.6,6.16,6.16,0,0,0-2.34-1.44c-1.36-.59-2.68-1.24-4-1.9a31.23,31.23,0,0,1-4.94-3.19,2.93,2.93,0,0,0-1.75-.49,3.93,3.93,0,0,0-1,.13"/><path class="cls-3" d="M1079.78,398l-3.31,2c-1.08.67-2.09,1.48-3.12,2.23s-2.14,1.55-3.21,2.32-2.36,1.8-3.53,2.71a2.17,2.17,0,0,0-.34,2.63,2.19,2.19,0,0,0,3,.78,38.63,38.63,0,0,0,3.2-2.18c1.06-.78,2.14-1.55,3.2-2.34s2-1.53,3-2.26,2.22-1.41,3.34-2.09a2.23,2.23,0,0,0,.8-3,2.27,2.27,0,0,0-1.94-1.1,2.06,2.06,0,0,0-1.09.3"/><path class="cls-3" d="M909.51,401.21c-3.12,0-6.23.12-9.34.19-1.62,0-3.24.14-4.87.22-.69,0-1.38.11-2.06.16s-1.54.1-2.31.18l-4.54.45q-2.49.26-5,.57l-1.17.16a1.31,1.31,0,0,0-.82.63,1.38,1.38,0,0,0,.49,1.88,1.51,1.51,0,0,0,1.06.14l.52-.07,2.38-.3c.83-.11,1.68-.16,2.52-.25l4.54-.41c.77-.07,1.54-.1,2.31-.15s1.38-.11,2.06-.13c1.62-.05,3.24-.14,4.87-.16,6.51-.09,13-.14,19.53-.21a1.47,1.47,0,0,0,0-2.94h-2q-4.09,0-8.19,0"/><path class="cls-3" d="M923,399.38c-2.07.09-4.14.25-6.21.42-1.88.15-3.76.31-5.63.55l.17,0-.15,0h-.09l-.28,0h.1l-.3,0h-.05l-.39.05-.15,0h-.08l-.66.09.27,0-.57.08.18,0-.23,0h-.08l.12,0c-2.16.29-4.31.63-6.46.93L899,402h-.1c-1.42.16-2.83.29-4.26.37s-2.66.13-4,.31c-.64.09-1.28.16-1.92.28l-2.1.38-4,.75a1.16,1.16,0,0,0-.52.31,1.27,1.27,0,0,0-.35.84.18.18,0,0,0,0,0,1.19,1.19,0,0,0,1.2,1.2c1.71-.21,3.42-.43,5.14-.63l3.75-.4c3-.31,6-.62,9.06-1,2.78-.31,5.55-.69,8.33-1,1.59-.18,3.17-.34,4.76-.48,1.44-.13,2.88-.2,4.32-.3l4.65-.33a1.59,1.59,0,0,0,1.07-.44,1.52,1.52,0,0,0-1-2.58H923m-13.12,1.14h-.17l.17,0m-1,.14h0m-.25,0,.25,0h.07l-.32,0m.32,0h0m.64-.09.12,0-.12,0m.39-.05h0m0,0h0m.07,0h0m.54-.07h.05l.2,0-.25,0m.26,0,.12,0-.12,0m.12,0,.24,0h0l-.28,0m.38-.05.12,0-.12,0"/><path class="cls-3" d="M884.59,398.22l0,.11a5.14,5.14,0,0,1,0-.61c0-.21,0-.41.06-.62s0-.2,0-.29a.57.57,0,0,1,0-.08,1.78,1.78,0,0,1,.07-.47,2.69,2.69,0,0,0-.2,2"/><path class="cls-9" d="M899.64,133.17a7.22,7.22,0,0,0-2.08.37l-.22.08,2.5-.17,1.4-.09a7,7,0,0,0-1.54-.19Z"/><path class="cls-9" d="M874.48,350.35a.38.38,0,0,0,0-.1s0,.06,0,.1"/><path class="cls-9" d="M912.44,344.55a4.88,4.88,0,0,1-1.31.54c.68,0,1.35,0,2,0,1,0,2.09.1,3.14.16l2.33.17c.67,0,1.34.13,2,.19l.85.11.65.08c.36,0,.73.11,1.09.17a.38.38,0,0,0,.41-.34.38.38,0,0,0-.35-.41c-.39-.07-.78-.13-1.18-.18l-1-.12-1.23-.13-1.15-.11-1.8-.13-2.27-.15c-.64,0-1.27-.06-1.91-.06l-.35.22"/><path class="cls-9" d="M925.45,342.77a69.83,69.83,0,0,0-7,.43,28.52,28.52,0,0,0-3,.45c-.68.14-1.35.34-2,.54l-.75.24-.18.11a4.91,4.91,0,0,1-1.32.55l-.08,0a10.61,10.61,0,0,0-3.45,3.24,14.68,14.68,0,0,0-1.13,2,12,12,0,0,0-.7,1.81,70.83,70.83,0,0,0-1.61,6.9c-.69,3.64-1.37,7.26-2.14,10.88v0l0,.12c-.38,1.72-.76,3.43-1.12,5.15s-.68,3.37-1,5.05l-.38,1.41c-.12.45-.31.89-.46,1.33a21.13,21.13,0,0,1-1.07,2.33c-.33.59-.67,1.16-1,1.71a15.08,15.08,0,0,1-1.25,1.56c-1.06,1.1-2.16,2.16-3.28,3.21a1.55,1.55,0,0,0-.17,2.15,1.54,1.54,0,0,0,2.15.18c1-.9,1.92-1.8,2.83-2.75a26.69,26.69,0,0,0,2-2.29,21,21,0,0,0,1.88-3.16,29.51,29.51,0,0,0,1.34-3.08c.19-.49.31-1,.46-1.53s.3-1.23.45-1.85c.53-2.21,1-4.44,1.57-6.65s1-4.18,1.53-6.29c.61-2.66,1.16-5.34,1.72-8L908,359a33.17,33.17,0,0,1,2.15-7.21,12,12,0,0,1,1.26-1.84,9,9,0,0,1,1.2-1,9.41,9.41,0,0,1,1.35-.62,24.59,24.59,0,0,1,3.3-.74c.76-.12,1.52-.17,2.28-.24s1.64-.12,2.45-.16a58.46,58.46,0,0,1,6.51.11c2.25.19,4.49.47,6.73.73s4.39.54,6.59.72,4.6.33,6.91.46l6.61.38c2.31.14,4.62.35,6.92.57s4.42.42,6.63.56c1.19.08,2.38.14,3.58.14s2.35,0,3.53-.08c4.51-.16,9-.36,13.53-.37,4,0,8,0,11.93,0a10.85,10.85,0,0,1,2.29,0c4.23,0,8.46.08,12.69.09,2.29,0,4.57,0,6.85-.08s4.55,0,6.82.06c.57,0,1.14,0,1.71.1s1.24.15,1.87.25a43.1,43.1,0,0,1,7.44,2.69,16.52,16.52,0,0,1,2.76,1.85,12.23,12.23,0,0,1,1.34,1.58,31.66,31.66,0,0,1,2.71,6.29c.67,2.12,1.26,4.26,1.78,6.42.26,1.1.51,2.21.8,3.3s.61,2.1.95,3.14a43.72,43.72,0,0,0,2.66,6.53c.52,1,1.09,2,1.66,3,.24.42.48.85.73,1.26a10.44,10.44,0,0,0,1,1.4,6.79,6.79,0,0,0,.64.62c.29.27.58.54.86.82a2.6,2.6,0,0,0,1.68.86,2.46,2.46,0,0,0,2.65-2.25,2.6,2.6,0,0,0-.58-1.8c-.43-.6-.94-1.15-1.37-1.75-.48-.82-.89-1.68-1.35-2.52s-1-1.88-1.46-2.85c-.87-1.9-1.64-3.84-2.34-5.81s-1.15-4.14-1.7-6.22c-.63-2.42-1.45-4.79-2.3-7.15-.37-1-.82-2-1.28-3-.25-.53-.51-1.06-.79-1.57a17.92,17.92,0,0,0-1.25-1.94,11.86,11.86,0,0,0-1.73-1.82,20.79,20.79,0,0,0-6.45-3.64,35,35,0,0,0-6.88-2,42.85,42.85,0,0,0-6.58-.35c-2.33,0-4.66,0-7,0s-4.5,0-6.75,0q-6.66-.1-13.31-.18c-4.53,0-9.06-.18-13.58-.09-2.24,0-4.49.14-6.73.21s-4.65.2-7,.22-4.53-.16-6.78-.33-4.52-.4-6.79-.57c-4.49-.33-9-.5-13.5-.73s-8.93-.76-13.39-1.19q-1.77-.17-3.55-.28c-1.11-.07-2.22-.07-3.33-.07Z"/><path class="cls-9" d="M902,370v0"/><path class="cls-9" d="M902,370v0"/><path class="cls-9" d="M902,370.14l0-.09,0,.09"/><g class="cls-10"><g class="cls-11"><path class="cls-7" d="M563.3,624.59q0,.53,0,1.06l4.29-4.14-4.26,3.08"/></g></g><path class="cls-9" d="M953.14,231a20.88,20.88,0,0,0-6.23,4.34,18.91,18.91,0,0,0-4,6.47,21.54,21.54,0,0,0-1.5,7.8,20.24,20.24,0,0,0,.38,3.87,15.06,15.06,0,0,0,1.34,3.84,8.09,8.09,0,0,0,.84,1.38,6.91,6.91,0,0,0,.65.76,5.08,5.08,0,0,0,.79.59,6.51,6.51,0,0,0,1.65.69,14.73,14.73,0,0,0,5.86.27c.61-.09,1.21-.2,1.8-.35a17.19,17.19,0,0,0,2.08-.71,62.31,62.31,0,0,0,6.74-3.39c1.3-.7,2.56-1.48,3.78-2.3a1.86,1.86,0,0,0,.81-1.05,1.76,1.76,0,0,0-2.58-2c-1.19.76-2.42,1.47-3.68,2.11l-2,1c-1.06.54-2.1,1.1-3.19,1.59-.69.28-1.39.54-2.1.77a14.48,14.48,0,0,1-2.34.53,15.76,15.76,0,0,1-1.69.1,11.52,11.52,0,0,1-1.37-.1,9,9,0,0,1-1.57-.38l-.39-.23-.25-.27a12.54,12.54,0,0,1-1-1.83,15.37,15.37,0,0,1-.85-3.25,19.42,19.42,0,0,1,0-4.44,22.22,22.22,0,0,1,1.3-4.78,18.18,18.18,0,0,1,2-3.46,19.23,19.23,0,0,1,2.9-2.85,18.65,18.65,0,0,1,3.55-2.12,15.36,15.36,0,0,1,3.29-.95,12.47,12.47,0,0,1,2.44,0,7,7,0,0,1,1.3.33,26.41,26.41,0,0,1,4.26,2.77,1.43,1.43,0,0,0,1.15.15,1.5,1.5,0,0,0,.9-.69,1.53,1.53,0,0,0,.15-1.16,1.61,1.61,0,0,0-.69-.89c-.95-.69-1.87-1.44-2.88-2a15.66,15.66,0,0,0-1.56-.83,7.55,7.55,0,0,0-2.09-.6,11.84,11.84,0,0,0-1.75-.13,15.53,15.53,0,0,0-6.23,1.43m-8,15.51,0,.21,0-.21"/><path class="cls-9" d="M970.2,244l-1.34.59a19.14,19.14,0,0,0-1.78.82,15.18,15.18,0,0,0-2.09,1.47,12.24,12.24,0,0,0-1.78,1.86,10.62,10.62,0,0,0-1.55,2.23,10.36,10.36,0,0,0-.47,1.22,7.49,7.49,0,0,0-.21,1.3,4.71,4.71,0,0,0,0,.91,7.42,7.42,0,0,0,.27,1.5,6.61,6.61,0,0,0,1.32,2.33,4.94,4.94,0,0,0,2.13,1.5,6,6,0,0,0,4.72-.25,9.51,9.51,0,0,0,3.58-3.42,14.86,14.86,0,0,0,1.08-2.25,16.25,16.25,0,0,0,.76-2.48,12.53,12.53,0,0,0,.33-2.82,12.77,12.77,0,0,0-.41-2.77,1.85,1.85,0,0,0-1.78-1.35h0a2.25,2.25,0,0,0-1-.62,2.05,2.05,0,0,0-.55-.08,2.87,2.87,0,0,0-1.18.3m1.07,4.4c0,.1,0,.19,0,.29a16.47,16.47,0,0,1-.89,3.1,14.79,14.79,0,0,1-1.28,2.33,9.33,9.33,0,0,1-1,1,7,7,0,0,1-.68.42l-.28.08h-.52l-.42-.11-.22-.22c-.12-.18-.23-.37-.33-.56s-.09-.32-.12-.48a6,6,0,0,1,0-.64c0-.2.11-.39.17-.59a6.18,6.18,0,0,1,.46-.77,15.86,15.86,0,0,1,2-2.19,12.53,12.53,0,0,1,2.31-1.31l.75-.32"/><path class="cls-9" d="M981.25,242.1q-1.06,5.29-2.12,10.58-.94,4.79-1.51,9.62a2,2,0,0,0,.27,1,2,2,0,0,0,3.66-.48c1.39-6.5,2.66-13,4-19.55a2.34,2.34,0,0,0-.22-1.71,2.22,2.22,0,0,0-1.32-1,2.11,2.11,0,0,0-.55-.07,2.18,2.18,0,0,0-2.17,1.62"/><path class="cls-9" d="M980,238.33c.11,1.61.21,3.21.37,4.81.09.88.19,1.74.31,2.62,0,.35.1.71.14,1.06s.16.89.26,1.33c0,.24.1.48.16.71s.25.6.39.9l.21.27a2.86,2.86,0,0,0,.63.73,3.12,3.12,0,0,0,2,.83,4.8,4.8,0,0,0,2.81-1,10.06,10.06,0,0,0,1.86-1.8c.67-.77,1.26-1.6,1.86-2.43s1-1.44,1.51-2.17l0,.22a86.28,86.28,0,0,1,.33,9.48c0,2.4,0,4.79.17,7.18a1.81,1.81,0,0,0,3.62,0c0-1.6.06-3.2.08-4.8,0-1.34,0-2.69,0-4,0-2.71,0-5.44-.31-8.14a15.74,15.74,0,0,0-.52-2.52,3.82,3.82,0,0,0-1.16-2l-.4-.31a3.1,3.1,0,0,0-.71-.27,3.42,3.42,0,0,0-1.66.08,3.08,3.08,0,0,0-1.39.78,8.08,8.08,0,0,0-.77.92l-1.59,2c-.82,1-1.63,2.07-2.54,3-.28-2.5-.48-5-.64-7.51a2.63,2.63,0,0,0-.74-1.78,2.52,2.52,0,0,0-4.29,1.78m13.67,4.31-.2.15.2-.15"/><path class="cls-9" d="M1002.51,240.18a2.39,2.39,0,0,0-.67,1.62c-.23,3.61-.44,7.21-.63,10.82-.16,3-.29,6.09-.49,9.13a2.14,2.14,0,0,0,3.65,1.51,2.34,2.34,0,0,0,.63-1.51c.38-3,.62-6.07.79-9.13q.3-5.41.64-10.82a2.29,2.29,0,0,0-3.92-1.62"/><path class="cls-9" d="M1004.82,238.9l-.9.11a1.41,1.41,0,0,0-.92.38,1.29,1.29,0,0,0,0,1.83,1.23,1.23,0,0,0,.92.38l1.57-.2-.34,0a9.7,9.7,0,0,1,2-.07,5.67,5.67,0,0,1,.87.24,3.16,3.16,0,0,1,1.28,1,4.78,4.78,0,0,1,.36.64,6.4,6.4,0,0,1,.28,1,6.8,6.8,0,0,1,0,1.21,5.52,5.52,0,0,1-.18.65,2.39,2.39,0,0,1-.75,1,2.15,2.15,0,0,0-.41.37,1.66,1.66,0,0,0-.46,1.1,1.59,1.59,0,0,0,.77,1.34l.06,0a7.06,7.06,0,0,1,.49.52,14.18,14.18,0,0,1,1.39,2.58c.21.52.42,1,.62,1.56a8.51,8.51,0,0,1,.47,1.73,5.89,5.89,0,0,1,0,1,8.06,8.06,0,0,1-.38,1.41,8.67,8.67,0,0,1-.81,1.37,9.61,9.61,0,0,1-1.28,1.26c-.36.26-.73.52-1.11.75a13.74,13.74,0,0,1-1.36.7,1.53,1.53,0,0,0-.73.94,1.58,1.58,0,0,0,1.1,1.94,1.63,1.63,0,0,0,1.21-.16c.38-.19.76-.38,1.13-.61a14.61,14.61,0,0,0,3-2.51,9.62,9.62,0,0,0,1.4-2.2,9.33,9.33,0,0,0,.79-3,5.25,5.25,0,0,0,0-1.28,12.66,12.66,0,0,0-.26-1.4,10.43,10.43,0,0,0-.41-1.2c-.19-.5-.37-1-.58-1.51a19.91,19.91,0,0,0-1.19-2.5,8,8,0,0,0-.63-.9c.07-.11.13-.22.19-.33a5.83,5.83,0,0,0,.62-2.12,9,9,0,0,0-.1-2.2,7,7,0,0,0-.63-1.92,5.12,5.12,0,0,0-1.15-1.52,5.38,5.38,0,0,0-1.61-1.05,7,7,0,0,0-1-.34,6.44,6.44,0,0,0-1.12-.17l-.56,0a12.5,12.5,0,0,0-1.66.14m4.36,3.51,0,.06,0-.06m0,7.63.08.06-.08-.06"/><path class="cls-9" d="M1019.72,239.51a3,3,0,0,0-.83,2c-.35,3.33-.72,6.67-.9,10s-.31,6.49-.31,9.74a2.64,2.64,0,0,0,4.51,1.87,2.74,2.74,0,0,0,.77-1.87c.4-6.6.9-13.19,1.58-19.76a2.71,2.71,0,0,0-.83-2,2.83,2.83,0,0,0-4,0"/><path class="cls-9" d="M1045,237a1.91,1.91,0,0,0-.54,1.29c-.23,3.27-.61,6.52-1,9.77l-.21,1.61.06-.46c-.14,1-.31,2-.53,3a21.07,21.07,0,0,1-.66,2.61,5.71,5.71,0,0,1-.42.71,4.8,4.8,0,0,1-.39.4l-.33-.1-.28-.16a6.07,6.07,0,0,1-.59-.63,27.23,27.23,0,0,1-3.1-5.4c-.28-.66-.55-1.32-.86-2a14.91,14.91,0,0,0-.88-1.72l-.17-.23.29-2.31a1.77,1.77,0,0,0-.54-1.31,1.86,1.86,0,0,0-2.62,0l-.29.37a1.84,1.84,0,0,0-.25.94l-.24,1.89a3.07,3.07,0,0,0-.83,1.32,11.13,11.13,0,0,0-.48,1.84c-.14.84-.21,1.69-.31,2.53-.08.68-.15,1.36-.22,2,0,.4,0,.8-.06,1.2q0,1-.09,2.05a15.16,15.16,0,0,0,.24,3.83,1.79,1.79,0,0,0,1.73,1.32,1.82,1.82,0,0,0,1.73-1.32c.09-.3.18-.59.26-.89a10.33,10.33,0,0,0,.19-1.31c.06-.43.1-.86.15-1.29l.25-2.09q.2-1.69.41-3.38l0-.25c.21.49.42,1,.65,1.46.46,1,1,2,1.52,2.91.25.43.53.83.81,1.24a12.07,12.07,0,0,0,1,1.34,4.73,4.73,0,0,0,2.78,1.27,3.59,3.59,0,0,0,2.71-1.24,6.77,6.77,0,0,0,1.53-2.69c.14-.42.25-.87.35-1.3s.27-1.1.39-1.65c.26-1.11.41-2.25.59-3.38.56-3.52,1-7.05,1.29-10.61A1.83,1.83,0,0,0,1045,237m-1.47,10.67,0,.34,0-.34m-6.59,1.84,0,.06,0-.06m4.51,6.44-.05,0,.05,0m-.41,0,.21,0-.21,0m.17.07-.16,0,.16,0"/><path class="cls-9" d="M1054.38,238.29c-.33,1.3-.65,2.6-1,3.9-.22.89-.38,1.78-.55,2.68-.38,1.94-.68,3.89-1,5.85-.18,1.14-.3,2.29-.45,3.43a19.4,19.4,0,0,0-.24,2.66,6.28,6.28,0,0,0,1,3.86,7.59,7.59,0,0,0,3.34,2.51,8,8,0,0,0,2,.49,8.5,8.5,0,0,0,2.14-.08,11.76,11.76,0,0,0,2.64-.79c.84-.33,1.65-.68,2.46-1.07a2.15,2.15,0,0,0,1-2.44,2.18,2.18,0,0,0-1-1.29,2.06,2.06,0,0,0-1.66-.22,19.9,19.9,0,0,1-3.87,1.25,8.82,8.82,0,0,1-1,0,8.2,8.2,0,0,1-.86-.24,7,7,0,0,1-.81-.49c-.16-.14-.3-.28-.45-.44h0c0-.1-.06-.2-.08-.31a12.43,12.43,0,0,1,0-2.34q.08-.7.17-1.4.13-1,.26-2.09c.27-1.8.54-3.6.89-5.39.18-.91.33-1.83.55-2.74.34-1.36.66-2.72,1-4.07a2.41,2.41,0,0,0-1.66-2.92,2.3,2.3,0,0,0-.61-.08,2.39,2.39,0,0,0-2.31,1.74m1.87,19.79,0,0h0l0,0m0,0h0l.1.13-.1-.13"/><path class="cls-9" d="M1050.2,254.83a2.73,2.73,0,1,0,2.73-2.73,2.76,2.76,0,0,0-2.73,2.73"/><path class="cls-9" d="M1070.06,238.66c-4.08.7-8.18,1.34-12.28,2a.93.93,0,0,0-.58.45,1,1,0,0,0,.34,1.33,1.06,1.06,0,0,0,.75.1c4.09-.66,8.18-1.32,12.26-2a.94.94,0,0,0,.66-1.16,1,1,0,0,0-.43-.56.91.91,0,0,0-.46-.12l-.26,0"/><path class="cls-9" d="M1068,247.62q-7.6,2.52-15.22,5a1.7,1.7,0,0,0,.91,3.28q7.62-2.46,15.21-5a1.7,1.7,0,0,0,1.17-2.06,1.74,1.74,0,0,0-1.61-1.24,1.4,1.4,0,0,0-.45.07"/><path class="cls-9" d="M972.78,272q.14,6.39.34,12.79c.12,3.7.38,7.43.13,11.14a2.38,2.38,0,0,0,3.58,2.06,2.3,2.3,0,0,0,1.09-1.42,38.9,38.9,0,0,0,.61-6.23q0-2.75,0-5.49-.2-6.42-.34-12.85a2.69,2.69,0,1,0-5.39,0"/><path class="cls-9" d="M993.43,266.13c-2.7.15-5.38.49-8.07.87-1,.14-2.06.32-3.09.51s-2.14.35-3.18.62c-2.15.57-4.32,1.07-6.42,1.8-3.21,1.11-6.41,2.22-9.59,3.39a2.58,2.58,0,0,0-1.46,1.12,2.44,2.44,0,0,0,.87,3.34,2.37,2.37,0,0,0,1.88.25c2.88-1.06,5.78-2.07,8.68-3.08.69-.24,1.38-.53,2.09-.72l3.86-1.05c.74-.2,1.48-.42,2.24-.58l3.81-.77c1.79-.36,3.62-.59,5.43-.84,1-.11,2-.22,2.93-.31A2.39,2.39,0,0,0,995,270a2.28,2.28,0,0,0-1.5-3.88h-.11"/><path class="cls-9" d="M997.5,268.71a2.72,2.72,0,0,0-1.18,1.54l-.43,1.2-.15.07-.22.17a2.88,2.88,0,0,0-.63.54,10.5,10.5,0,0,0-2,3.69c-.49,1.28-.84,2.61-1.23,3.92a51.3,51.3,0,0,0-1.47,8.34,9.58,9.58,0,0,0,0,4,2.53,2.53,0,0,0,4.87,0c1-3.3,1.72-6.65,2.68-10,.42-1.44.82-2.9,1.31-4.32l.4-1.18c.25.29.5.59.74.89a46.42,46.42,0,0,1,4.78,9.08c.89,2.22,1.78,4.44,2.47,6.73a2.31,2.31,0,1,0,4.45-1.22,53.28,53.28,0,0,0-2.68-7.1c-.43-1-.92-2-1.38-2.92a41.89,41.89,0,0,0-3.64-6.23,21.91,21.91,0,0,0-2.54-3,7,7,0,0,0-.68-.58l.29-.79a2.5,2.5,0,0,0-.26-2,2.6,2.6,0,0,0-1.54-1.18,2.57,2.57,0,0,0-.68-.09,2.6,2.6,0,0,0-1.31.35"/><path class="cls-9" d="M1007,282.11c-5.2.15-10.4.4-15.59.68a2.5,2.5,0,0,0-2.47,2.47,2.48,2.48,0,0,0,2.47,2.47c5.2-.29,10.39-.56,15.59-.74a2.44,2.44,0,0,0,.06-4.87H1007"/><path class="cls-9" d="M1028,268.74c-1.17.13-2.33.29-3.5.43s-2.16.31-3.23.56A14,14,0,0,0,1018,271a6.82,6.82,0,0,0-1.4,1.08,4.62,4.62,0,0,0-1.16,2.06,4.13,4.13,0,0,0-.11,1.49,2.7,2.7,0,0,0,.24,1.16,4.17,4.17,0,0,0,.51,1.06,12.27,12.27,0,0,0,2.35,2.61,26.66,26.66,0,0,1,2.66,2.91,22.81,22.81,0,0,1,2.47,3.86,13.07,13.07,0,0,1,.56,2.11,14.2,14.2,0,0,1,.11,2.05c0,.1-.05.19-.08.29l0,.08c-.13.13-.25.25-.39.37a10.12,10.12,0,0,1-1.29.72,12.15,12.15,0,0,1-1.86.54l-.26,0a3,3,0,0,0-2,.82,2.81,2.81,0,0,0,2,4.79,10.79,10.79,0,0,0,3.59-.7,12.08,12.08,0,0,0,3.44-2,9.82,9.82,0,0,0,1.38-1.55,3.49,3.49,0,0,0,.37-.74,6.44,6.44,0,0,0,.41-1.05,7,7,0,0,0,.25-2c0-.63-.06-1.28-.1-1.91a14.39,14.39,0,0,0-.86-4,21.46,21.46,0,0,0-2-3.76,30.34,30.34,0,0,0-2.65-3.58c-.46-.54-.93-1.06-1.42-1.58l-.3-.31a22.8,22.8,0,0,1,2.73-.59l2.85-.36.82-.11a3.08,3.08,0,0,0,1.36-5.15,3.07,3.07,0,0,0-2-.91H1028m-3.69,22.53-.09.22.09-.22m-3.12,2.05-.4.05.4-.05"/><path class="cls-9" d="M1035.46,269.26q0,5.5,0,11c0,1.35,0,2.69,0,4s-.13,3-.28,4.45c0,.26-.08.52-.13.78a2.06,2.06,0,0,0,.19,1.47,1.9,1.9,0,0,0,3.47-.46,25.74,25.74,0,0,0,.74-5.69c0-1.46,0-2.92,0-4.37q-.05-5.61-.06-11.21a2,2,0,1,0-3.92,0"/><path class="cls-9" d="M1044.37,268.13c-.5,1-1,2-1.51,3-.22.43-.51.83-.75,1.24s-.44.77-.69,1.13c-1.17,1.7-2.36,3.37-3.61,5a9.53,9.53,0,0,0-1.41,2.38,4.36,4.36,0,0,0-.3,1.92,3.8,3.8,0,0,0,1,2.25c.52.58,1.09,1.12,1.63,1.68l1,1.08a27.34,27.34,0,0,0,2,2c.52.45,1,.9,1.57,1.32a20,20,0,0,0,3.4,2.06,2.57,2.57,0,0,0,1.9.25,2.47,2.47,0,0,0,.59-4.52,24,24,0,0,1-2.55-1.58c-.94-.76-1.84-1.58-2.71-2.41l-1.29-1.23-.88-.82c-.28-.26-.57-.5-.85-.76a27.43,27.43,0,0,1,1.9-2.74q1-1.44,2-2.89c.64-.95,1.22-1.93,1.81-2.91.22-.37.4-.76.59-1.15q.52-1,1-2.06a2.34,2.34,0,0,0,.22-1.72,2.2,2.2,0,0,0-2.16-1.63,2.11,2.11,0,0,0-1.93,1.1m-3.7,13.8h0"/><path class="cls-9" d="M1064.45,267.14c-1.75.76-3.51,1.52-5.25,2.31-.79.36-1.56.75-2.34,1.14a17.45,17.45,0,0,0-2,1.24,7.21,7.21,0,0,0-1.1.94l-.66.85c-.16.32-.3.64-.43,1a7.08,7.08,0,0,0-.13,1.46,5.24,5.24,0,0,0,.66,2.13l.24.33a8.51,8.51,0,0,0,.73.89c.4.46.83.88,1.28,1.3.83.77,1.63,1.57,2.44,2.37a31.74,31.74,0,0,1,2.68,3.11,13.07,13.07,0,0,1,1.08,1.75c.07.2.12.39.17.59s0,.29,0,.43-.09.35-.15.53a8.57,8.57,0,0,1-.46.73,7.79,7.79,0,0,1-.63.62,8.12,8.12,0,0,1-1,.55,2.84,2.84,0,0,0,2.18,5.18,10.12,10.12,0,0,0,2-.88l.94-.72a4.79,4.79,0,0,0,.78-.85,8.34,8.34,0,0,0,2-4.83,9.79,9.79,0,0,0-.24-2.33,9.19,9.19,0,0,0-.9-2.19,17.17,17.17,0,0,0-1.75-2.52c-.8-1.06-1.66-2.06-2.54-3.06-.45-.52-1-1-1.46-1.49s-1.16-1.14-1.73-1.72a35.76,35.76,0,0,1,4-2c1.51-.69,3-1.34,4.56-2a2.66,2.66,0,0,0,1.28-1.67,2.79,2.79,0,0,0-2-3.43l-.74-.1a2.84,2.84,0,0,0-1.41.38M1057.9,275l0,0Z"/><path class="cls-9" d="M1076.59,240.91a2.54,2.54,0,0,0-.69,1.66c-.28,2.78-.58,5.56-.93,8.34-.53,3.28-1.11,6.54-1.55,9.83a2.25,2.25,0,0,0,4.42.6c.6-3,1.16-6,1.64-9,.52-3.24.79-6.54,1.12-9.8a2.26,2.26,0,0,0-.69-1.66,2.35,2.35,0,0,0-3.33,0"/><path class="cls-9" d="M1081.45,239.86a18.09,18.09,0,0,0-5.73,2.34A2.22,2.22,0,1,0,1078,246c.8-.43,1.6-.88,2.43-1.26a10.88,10.88,0,0,1,1.89-.56,8.24,8.24,0,0,1,1.15,0,7.83,7.83,0,0,1,.87.24c.16.09.32.18.47.28a7.31,7.31,0,0,1,.59.59,7.18,7.18,0,0,1,.44.75,10.09,10.09,0,0,1,.41,1.53,12.58,12.58,0,0,1,0,2.36,17,17,0,0,1-.91,3.31,17.91,17.91,0,0,1-1.85,3.22,29,29,0,0,1-4.23,4.08l-.23.16a2.34,2.34,0,0,0-3.9,1.05,7.56,7.56,0,0,0-.2,1.32,2.78,2.78,0,0,0,.57,1.63l.37.48.67.52a3,3,0,0,0,1.75.38,5.23,5.23,0,0,0,2.74-1,27.86,27.86,0,0,0,2.57-2.07,25.12,25.12,0,0,0,4.13-4.56,19,19,0,0,0,2.59-5.71,18.18,18.18,0,0,0,.5-3,12.45,12.45,0,0,0-.2-3.47,8.27,8.27,0,0,0-2.88-4.94,7.44,7.44,0,0,0-2.61-1.33,6.93,6.93,0,0,0-2-.28,11.11,11.11,0,0,0-1.61.13"/><path class="cls-9" d="M931.76,351.39a.86.86,0,0,0-.24.59c-.07.87-.13,1.74-.18,2.62a15.46,15.46,0,0,0,.16,2.59.85.85,0,0,0,.23.55.78.78,0,0,0,1.32-.55,17.24,17.24,0,0,1-.08-2.53q.09-1.34.2-2.68a.83.83,0,0,0-1.42-.59"/><path class="cls-9" d="M931.37,368q-.06,2-.06,3.9a.82.82,0,0,0,1.65,0q.08-2,.14-3.9a.86.86,0,1,0-1.72,0"/><path class="cls-9" d="M931.12,384.94c0,2.09-.07,4.19-.06,6.28a.81.81,0,1,0,1.62,0q.1-3.14.14-6.28a.85.85,0,1,0-1.71,0"/><path class="cls-9" d="M1023.09,354.16q0,2.06.07,4.12a1,1,0,1,0,2,0q0-2.05,0-4.12a1,1,0,1,0-2,0"/><path class="cls-9" d="M1023,369q-.06.94-.12,1.87c0,.63,0,1.25,0,1.88a1,1,0,0,0,1,1,1,1,0,0,0,.72-.3,1,1,0,0,0,.3-.72c.11-1.25.19-2.5.28-3.75a1.11,1.11,0,0,0-1.1-1.1,1.12,1.12,0,0,0-1.1,1.1"/><path class="cls-9" d="M1023,386.4c0,1.75,0,3.51,0,5.26a1.27,1.27,0,0,0,2.55,0c0-1.75,0-3.51,0-5.26a1.29,1.29,0,1,0-2.59,0"/></g><g class="cls-2"><g class="cls-12"><g class="cls-13"><path class="cls-7" d="M131.23,358.3c-1.19,1.11-2.41,2.21-3.65,3.26-1.67,1.22-3.43,2.31-5.12,3.5-1,.68-1.93,1.36-2.92,2s-1.89,1.18-2.8,1.83-2,1.47-3,2.15a36.3,36.3,0,0,1-3.27,1.78c-2,1-4,1.92-6.06,2.8-3.56,1.38-7.27,2.21-10.91,3.33a103.06,103.06,0,0,1-11,3.13c-1.8.16-3.6.1-5.39.28-.85.09-1.69.14-2.54.22-1,.1-2,.28-3,.45a24,24,0,0,1-2.67,0,3.42,3.42,0,0,0-3.39,3.4,3.35,3.35,0,0,0,.19,1.12,5.82,5.82,0,0,0-1.52,1.57,5.55,5.55,0,0,0-1,3.33,5.68,5.68,0,0,0,1.66,3.71,13.73,13.73,0,0,0,1.41,1.14,5.73,5.73,0,0,0,1.71.82,10.18,10.18,0,0,0,2.34.28,46.31,46.31,0,0,0,6.27-.72l-1,.13c2-.27,4.1-.56,6.16-.69s4.2-.23,6.3-.28c4-.09,8-.3,12-.69,1-.1,2-.22,3-.27,1.18-.06,2.36-.06,3.55-.06,2.14,0,4.27.17,6.41.26l2.82.12c1.08,0,2.16,0,3.24-.1,2-.1,4-.27,6-.33a40.93,40.93,0,0,0,5-.36c.94-.14,1.87-.37,2.79-.57a4,4,0,0,0,4.42-2.93,12,12,0,0,0,.11-3.07,27.34,27.34,0,0,1,.07-2.85c.32-2,.77-3.9,1-5.89.17-1.58.4-3.17.43-4.76s-.27-3.28-.4-4.91a24.92,24.92,0,0,1,0-4.28c.07-.39.16-.77.25-1.16a20,20,0,0,0,.47-2.88,10.42,10.42,0,0,0-.18-2.61,3.93,3.93,0,0,0-3.72-3.44h-.22c-1.59,0-2.76,1.25-3.85,2.26M70,390.43l.22.29a3,3,0,0,1-.22-.29"/></g></g><g class="cls-12"><g class="cls-14"><path class="cls-7" d="M174.58,351.9c-1.39,1.09-1.69,2.82-1.89,4.47a11.55,11.55,0,0,0-.09,1.71c0,.73,0,1.47.09,2.21s.26,1.74.41,2.61a38.28,38.28,0,0,1,.15,4c0,1.81,0,3.61-.13,5.41-.08,1.56-.23,3.1-.37,4.64s-.07,3.12-.2,4.68-.65,3.16-.83,4.78c-.13,1.15-.13,2.29-.16,3.44a7.43,7.43,0,0,0,.16,2.63,5.84,5.84,0,0,0,1.72,2.69l.92.71,1.53.64a8.8,8.8,0,0,0,2.16.32c.49.06,1,.09,1.47.13l.41.15-.36-.15h0a21.22,21.22,0,0,0,6.74,1.41,55.24,55.24,0,0,0,6.73-.26c4.64-.37,9.27-.93,13.88-1.56a150.61,150.61,0,0,1,16.62-.78c2.79,0,5.56.12,8.35.2,2.54.07,5.06,0,7.59.27l2.42.45a45.72,45.72,0,0,0,4.76.57c2.3.18,4.63.16,6.93.21,1.46,0,2.93,0,4.39,0h2.07c2.18,0,4.35,0,6.53-.19,4.29-.3,8.56-.75,12.84-1.16q3.12-.3,6.24-.64c2.16-.24,4.34-.26,6.51-.37a67,67,0,0,1,11.94.2l-.66-.09c1.35.17,2.69.3,4,.45,1.15.19,2.28.44,3.43.6,1.61.22,3.19.41,4.81.47a26.34,26.34,0,0,0,5.43-.54l1.13-.14a4.66,4.66,0,0,0,1.63-.62,6.43,6.43,0,0,0,1.09-.87,6.59,6.59,0,0,0,1.33-2.35,11,11,0,0,0,.44-2.09,16.7,16.7,0,0,1,.5-2.08c.37-1.16.86-2.29,1.16-3.48a25.9,25.9,0,0,0,.65-5c0-.71,0-1.42.07-2.13.05-.92.2-1.83.26-2.74.09-1.27.06-2.55,0-3.82,0-1.69,0-3.37-.09-5.06,0-1.08-.12-2.15-.06-3.23,0-.68.17-1.36.15-2a3.48,3.48,0,0,0-6.21-2.24c-.42.54-.8,1.1-1.2,1.65A9.56,9.56,0,0,1,321,361c-.74.5-1.55.9-2.32,1.34-1.41.81-2.81,1.62-4.23,2.42-1.25.7-2.58,1.27-3.86,1.92a15.61,15.61,0,0,0-1.89,1.09,15.72,15.72,0,0,1-2.36,1.37c-1.29.46-2.61.82-3.91,1.28-1.94.68-3.82,1.51-5.7,2.32-2.38,1-4.75,2.09-7.14,3.13-2.1.84-4.26,1.48-6.42,2.13a59.47,59.47,0,0,1-7.27,1.76c-.69.07-1.39.12-2.08.16a15.3,15.3,0,0,1-2.31,0,39.26,39.26,0,0,0-4.19-.3c-1.58,0-3.14-.05-4.71-.14s-3.37-.23-5-.35c-1.52-.11-3-.19-4.55-.35-1.78-.3-3.51-.78-5.28-1.17a66,66,0,0,0-7.4-.83c-1.72-.26-3.44-.55-5.17-.79-2.08-.3-4.17-.52-6.26-.78-2.52-.38-5-.9-7.5-1.4a47.34,47.34,0,0,1-7.25-1.88c-1.48-.67-2.93-1.44-4.39-2.16-1.79-.89-3.6-1.8-5.35-2.76-1.58-.87-3.14-1.74-4.66-2.71-1.69-1.07-3.33-2.23-5-3.38a26,26,0,0,0-2.78-1.73c-.94-.5-1.92-.93-2.81-1.53a32.91,32.91,0,0,0-4.3-2.89c-1.78-.82-3.8-1.54-5.77-1.08l-.2.06a2.8,2.8,0,0,0-.75-1.89,2.57,2.57,0,0,0-1.81-.75,2.78,2.78,0,0,0-1.81.75m123.34,26.86-.91.12.91-.12m-118.75,18,.29.12h0l-.26-.11"/></g></g><g class="cls-12"><g class="cls-15"><path class="cls-7" d="M375.48,355a5.07,5.07,0,0,0-2.72,2,9.79,9.79,0,0,0-1.14,2.08A10.05,10.05,0,0,0,371,361a33.79,33.79,0,0,0-.81,4.93c-.1,1.34,0,2.68-.06,4s-.22,2.93-.31,4.4,0,2.83,0,4.23.16,3,.21,4.45.11,2.8.07,4.2c0,.65-.06,1.31-.1,2a7.17,7.17,0,0,0,0,1.66,4.53,4.53,0,0,0,2.18,3.07,7.09,7.09,0,0,0,3,.87c.39,0,.79.07,1.19.08.77,0,1.53,0,2.29,0,1.47-.05,2.93-.07,4.4-.08s3.14-.07,4.71,0,3,.23,4.47.32,3.2.06,4.8,0,3,0,4.58,0c1.8,0,3.58,0,5.38-.1s3.49-.31,5.22-.49c3.09-.23,6.19-.37,9.28-.55,1.41-.08,2.82-.16,4.23-.22a3.4,3.4,0,0,0,0,1.49,3.35,3.35,0,0,0,.8,1.52,3.57,3.57,0,0,0,2.33,1.1,9.8,9.8,0,0,0,1.86,0c.83-.05,1.66-.14,2.48-.25l1.85-.24q1.78-.21,3.57-.39l2.79-.22,5.51-.27c3-.16,5.92-.39,8.88-.37,3.28,0,6.56.14,9.84.13,1.46,0,2.92-.05,4.38-.06,1.71,0,3.41,0,5.12.05,2.46.06,4.92.12,7.38.09s4.83-.06,7.25.08c2.24.13,4.47.36,6.71.36,2.46,0,4.9-.18,7.35-.39,1.82-.14,3.64-.19,5.45-.31.7,0,1.41-.07,2.11-.15l1-.13a8,8,0,0,0,2-.67,3.41,3.41,0,0,0,2-3.05c0-.25,0-.51.06-.77.06-.69.07-1.38.12-2.07a18.68,18.68,0,0,0,.05-2.09c0-.67-.11-1.33-.2-2a33.14,33.14,0,0,0,.66-3.49c.07-.51.13-1,.19-1.54,0-.22,0-.44.06-.66s0-.24,0-.37a3.87,3.87,0,0,0-.39-1.65,1.88,1.88,0,0,0-.29-.49c.24-1,.45-2.08.62-3.14.2-1.3.3-2.63.51-3.93L518,369l-.06.31L518,369l.07-.38L518,369c.18-1,.38-2,.51-2.94.11-.83.19-1.67.27-2.51a5.18,5.18,0,0,0-.2-3,2.86,2.86,0,0,0-3.25-1.36,6,6,0,0,0-2.41,1.44,58.17,58.17,0,0,1-4.47,3.79c-.81.58-1.61,1.15-2.38,1.78s-1.48,1.33-2.28,1.93a18.92,18.92,0,0,1-3.24,1.81c-1.7.56-3.38,1.19-5,1.87s-3.08,1.27-4.63,1.88c-1.09.39-2.19.77-3.31,1.08-1.5.41-3,.75-4.55,1.07-2.7.57-5.36,1.32-8,2s-5.36,1.1-8,1.57l-1.77.3-1.13-.07c-1.57-.1-3.14-.22-4.7-.33s-2.93-.21-4.39-.41c-1.09-.15-2.18-.34-3.27-.48l-3.32-.41c-1.88-.26-3.76-.61-5.63-.95-1.42-.29-2.82-.64-4.23-1s-3.08-.59-4.63-.85l-4-.81c-1.48-.3-3-.56-4.44-.89-2.94-.68-5.89-1.29-8.83-2S410.8,370,408,369s-5.85-1.81-8.74-2.84a66.38,66.38,0,0,1-6.1-2.63q-3-1.49-6.09-2.94c-1-.51-2.05-1-3.12-1.45a6.71,6.71,0,0,0-2.82-.41,8.88,8.88,0,0,0-.74-1.41,5.23,5.23,0,0,0-2.57-2.14,5,5,0,0,0-1.58-.28,3.28,3.28,0,0,0-.73.08m16.91,8.2.35.17-.35-.17m107.89,6.86-.17.07.17-.07M518,369h0Z"/></g></g><g class="cls-12"><g class="cls-16"><path class="cls-7" d="M568.89,353.58a9.52,9.52,0,0,0-1.45.08,5.58,5.58,0,0,0-1.44.44,3.51,3.51,0,0,0-1.15.68,6.67,6.67,0,0,0-.94,1.23,8.3,8.3,0,0,0-.66,1.57,9.15,9.15,0,0,0-.39,2.59c0,1.88,0,3.76,0,5.63s-.31,3.75-.47,5.61-.3,3.42-.36,5.13c-.1,3.38-.66,6.78-.51,10.16,0,.85.09,1.7.16,2.55a15.78,15.78,0,0,0,.45,3.18,8.6,8.6,0,0,0,.87,2,6.7,6.7,0,0,0,3.2,2.73,16.24,16.24,0,0,0,4.58,1c1.87.21,3.77.15,5.65.19l5.6.16c1.25,0,2.48.23,3.73.34,1.86.16,3.7.43,5.56.63s3.87.23,5.8.28,3.88.17,5.82.31c4.2.31,8.41.6,12.62.78,6.26.27,12.53.49,18.78.88,2.68.17,5.39.41,8.08.34a8.29,8.29,0,0,0,4.18-1.15c.42-.25.82-.53,1.22-.79a8.53,8.53,0,0,0,2.64-2.44,7.44,7.44,0,0,0,1-4.42c0-.91-.13-1.81-.22-2.72-.16-2.11-.28-4.22-.4-6.33-.07-1.16-.12-2.33-.19-3.5-.05-.83-.1-1.68-.22-2.51a6,6,0,0,0-2.64-4.25,6.56,6.56,0,0,0-1.56-.72,7,7,0,0,0-3.11-.13,9.32,9.32,0,0,0-1.89.46c-1,.34-2.06.72-3.13,1-2.07.47-4.16.88-6.26,1.17a65.73,65.73,0,0,1-13.26-.81c-.85-.19-1.69-.43-2.54-.65s-2-.5-3-.8-2.15-.64-3.2-1-2.22-1-3.32-1.47c-2.18-1-4.33-2-6.52-3-2-.87-4-1.72-6-2.61-2.73-1.38-5.38-2.92-8-4.53-1.32-.82-2.56-1.75-3.95-2.47-1.72-.89-3.52-1.55-5.3-2.3-1.39-.59-2.79-1.16-4.17-1.75l-.94-.38a8.67,8.67,0,0,0-1.72-.35,5.73,5.73,0,0,0-.75,0h-.3m71.45,26,0,0h0l0-.06"/></g></g><path class="cls-9" d="M135.8,303a2.35,2.35,0,0,0-.7,1.5c-.15.91-.27,1.82-.4,2.72-.07.54-.16,1.07-.2,1.61-.09,1.39-.16,2.76-.17,4.15,0,2.64.06,5.28.16,7.91a2.1,2.1,0,0,0,.52,1.44,2,2,0,0,0,1.39.65,2,2,0,0,0,2.09-1.91c.12-2.63.15-5.26.18-7.9,0-1.39.09-2.76.17-4.15,0-.54.12-1.08.19-1.61.12-.91.24-1.82.39-2.72a2.07,2.07,0,0,0-.56-1.56,2.18,2.18,0,0,0-1.5-.7h-.1a2.18,2.18,0,0,0-1.46.57"/><path class="cls-9" d="M148.54,297.8q-5.68,1.7-11.34,3.46c-1.68.52-3.34,1.08-5,1.6-2.3.7-4.59,1.42-6.89,2.11a2,2,0,0,0-1.18.82,1.91,1.91,0,0,0,2,2.9c4-1.19,7.9-2.44,11.84-3.68s7.59-2.38,11.35-3.68a2,2,0,0,0,1.12-.78,1.81,1.81,0,0,0,.24-1.38,1.87,1.87,0,0,0-1.74-1.42,1.47,1.47,0,0,0-.42.06"/><path class="cls-9" d="M149.65,300.77a7.77,7.77,0,0,0-.68.71,2.38,2.38,0,0,0-.21.37c-.11.21-.2.43-.29.65s-.29.67-.44,1c-.25.59-.49,1.18-.73,1.77-.47,1.17-.87,2.38-1.28,3.57-.18.52-.3,1.07-.45,1.6s-.35,1.22-.52,1.83l-.55,2-.27,1-.16.4-.25.69a5.33,5.33,0,0,0-.25,1.1,1.48,1.48,0,0,0,2.88.53c.22-.57.39-1.17.6-1.75l.41-1.19c.25-.72.52-1.43.78-2.14s.54-1.38.82-2.06c.45-1.13.92-2.26,1.44-3.36.15-.31.31-.62.47-.92,0,.33.1.66.14,1,.1.74.22,1.47.33,2.21q.28,1.86.56,3.73c.36,2.35.66,4.71.9,7.08a1.51,1.51,0,0,0,.68,1,1.59,1.59,0,0,0,2.19-.47,1.7,1.7,0,0,0,.22-1.21c-.32-2.52-.9-5-1.46-7.46-.3-1.3-.57-2.61-.83-3.93-.22-1.07-.4-2.14-.61-3.21-.08-.39-.18-.78-.26-1.18l-.12-.54a1.39,1.39,0,0,0-.45-1.83,1.33,1.33,0,0,0-.27-.13,5.14,5.14,0,0,0-.81-.81,1.15,1.15,0,0,0-.75-.35h-.05a1.06,1.06,0,0,0-.72.28m1,6.54-.05.11.05-.11"/><path class="cls-9" d="M156.51,309.36q-5.83.81-11.62,1.85a1.67,1.67,0,1,0,.74,3.25q5.79-1.06,11.58-2a1.59,1.59,0,0,0,1.19-1.89,1.61,1.61,0,0,0-.68-1,1.53,1.53,0,0,0-.86-.24l-.36,0"/><path class="cls-9" d="M164.63,300.84c-1.36.37-2.71.78-4,1.28a8.11,8.11,0,0,0-1.88,1,4.22,4.22,0,0,0-.62.53,3.37,3.37,0,0,0-.7,1.07,4.64,4.64,0,0,0-.36,1.6,5.56,5.56,0,0,0,.48,2.37c.46,1.24,1,2.44,1.51,3.68a16.21,16.21,0,0,1,.77,3.37,10.42,10.42,0,0,1-.09,2,9.67,9.67,0,0,1-.44,1.49l0,.06a2.29,2.29,0,0,0-.3,1.66,2.18,2.18,0,0,0,3.95.7,9.55,9.55,0,0,0,.72-1.57,11.16,11.16,0,0,0,.36-1.78,12.9,12.9,0,0,0-.12-4.07,18.69,18.69,0,0,0-1.12-3.84c-.45-1.15-1-2.25-1.48-3.39-.05-.18-.1-.35-.14-.53s0-.12,0-.18l.24-.2a9.56,9.56,0,0,1,1.41-.67c.9-.31,1.82-.56,2.74-.82a2,2,0,0,0,1.47-2.34,2,2,0,0,0-1.89-1.53,1.7,1.7,0,0,0-.44.06m-3.57,5.61v0m-1.23,9.62v0"/><path class="cls-9" d="M168.06,302.61c-.34,4.83-.69,9.66-.83,14.5a2.24,2.24,0,0,0,3.28,2.09,2.13,2.13,0,0,0,1.09-1.29,35.57,35.57,0,0,0,.59-3.85c.1-1.19.18-2.38.25-3.57q.23-3.83.5-7.65a2.46,2.46,0,0,0-2.33-2.56h-.11a2.48,2.48,0,0,0-2.45,2.33"/><path class="cls-9" d="M173.85,303.39l-2.13,3.7-.79,1.4c-.15.26-.28.53-.42.8s-.33.64-.46,1-.1.53-.14.8a4,4,0,0,0,0,.81,9.93,9.93,0,0,0,1.35,3.11c.33.58.67,1.14,1,1.7a28.74,28.74,0,0,0,2.59,3.66,2.06,2.06,0,0,0,3.59-1.29,2.17,2.17,0,0,0-.54-1.49c-.49-.61-1-1.24-1.41-1.87l-1.24-1.84a17.69,17.69,0,0,1-1.52-2.58v0c1-2,2.16-3.88,3.26-5.79a1.89,1.89,0,0,0-1.61-2.94,1.82,1.82,0,0,0-1.6.86m0,7.57,0,.2a1.83,1.83,0,0,1,0-.2m.11,0-.12.25c0-.08.07-.17.12-.25m-.11.38.08.22c0-.07-.06-.15-.08-.22m0,.08v.08s0-.05,0-.08"/><path class="cls-9" d="M187.2,300.34c-.16,1.71-.36,3.44-.43,5.16l-.11,2.66c0,.78,0,1.55,0,2.33,0,3.07.17,6.14.27,9.2a2.42,2.42,0,0,0,.6,1.66,2.3,2.3,0,0,0,1.59.75,2.32,2.32,0,0,0,2.41-2.19c0-1.58,0-3.15,0-4.73,0-1.42-.09-2.85-.12-4.27,0-.81,0-1.62,0-2.43s.06-1.73.09-2.59c.06-1.77.26-3.55.41-5.32a2.36,2.36,0,0,0-2.23-2.45h-.11a2.38,2.38,0,0,0-2.34,2.24"/><path class="cls-9" d="M324.09,303.69c.05,5,.05,10,.2,15a1.8,1.8,0,0,0,.45,1.23,1.72,1.72,0,0,0,3-1.08c0-2.35,0-4.71-.05-7.06,0-2.65-.06-5.31-.09-8a1.77,1.77,0,0,0-1.66-1.82h-.08a1.74,1.74,0,0,0-1.74,1.66"/><path class="cls-9" d="M332.66,300.79c-.6,0-1.18.06-1.78.1-.78.06-1.59.08-2.37.19-1.6.23-3.21.42-4.8.72a48.36,48.36,0,0,0-6,1.52c-1.93.64-3.84,1.38-5.75,2.1a1.57,1.57,0,0,0-.79.94,1.63,1.63,0,0,0,.11,1.26,1.66,1.66,0,0,0,.94.8,1.79,1.79,0,0,0,1.27-.11l1.48-.56c1.16-.42,2.31-.85,3.47-1.24s2.45-.74,3.7-1c1.48-.34,3-.62,4.46-.85l1.89-.29c.28,0,.57-.1.86-.13l2.51-.24c1.78-.1,3.55-.21,5.33-.26a1.58,1.58,0,0,0,1.08-.39,1.49,1.49,0,0,0-.94-2.6h-1c-1.21,0-2.41,0-3.62.07M315,307.71l-.09,0,.09,0"/><path class="cls-9" d="M340,301.8a.81.81,0,0,0-.52.36c-.66,1.38-1.29,2.78-1.93,4.17-.14.3-.28.6-.4.91l-.74,1.91c-.14.35-.29.7-.41,1.06l-.63,1.92c-.33,1-.62,2-.92,3q-.56,1.89-1.12,3.78a1,1,0,0,0,2,.64q.48-1.8.95-3.61c.23-.89.45-1.78.7-2.66l.58-2c.1-.33.19-.66.31-1l.73-2c.11-.31.22-.62.35-.93.67-1.52,1.33-3,2-4.54a.81.81,0,0,0,0-.44.84.84,0,0,0-.82-.65l-.18,0"/><path class="cls-9" d="M338.16,301a1.4,1.4,0,0,0-1.06,1.67c.38,1.23.8,2.44,1.25,3.64q.54,1.39,1.08,2.78c.23.68.47,1.37.67,2.06a22.12,22.12,0,0,1,.72,4c0,.11,0,.22,0,.34a1.62,1.62,0,0,0,.39,1.08,1.5,1.5,0,0,0,2.12.1,1.43,1.43,0,0,0,.49-1,26.46,26.46,0,0,0-.33-3.16,19.81,19.81,0,0,0-1-3.4l.13.36-.53-1.44c-.27-.7-.58-1.39-.88-2.09s-.49-1.21-.73-1.81-.45-1.34-.66-2a1.47,1.47,0,0,0-.6-.86,1.41,1.41,0,0,0-.77-.23,1.4,1.4,0,0,0-.3,0m4.07,7.32-.13-.35.13.35m-.13-.35h0"/><path class="cls-9" d="M344,309.83c-1,.11-2,.23-2.94.36-.76.1-1.52.19-2.27.32s-1.69.24-2.51.44c-1.06.26-2.13.51-3.19.79a1.61,1.61,0,0,0,.71,3.14c1-.27,2.08-.53,3.12-.78.83-.2,1.68-.33,2.51-.48,1.74-.33,3.49-.57,5.24-.83a1.51,1.51,0,0,0,.49-2.74,1.43,1.43,0,0,0-.82-.23l-.34,0"/><path class="cls-9" d="M353.78,300.47a10.52,10.52,0,0,0-1.6.2,8.37,8.37,0,0,0-1.89.71,11.14,11.14,0,0,0-1.53,1,11.39,11.39,0,0,0-1.45,1.25,5.71,5.71,0,0,0-1.06,1.31,3.83,3.83,0,0,0-.43,2.29,7.82,7.82,0,0,0,1.87,3.57,8.78,8.78,0,0,1,.84,1.47,6.38,6.38,0,0,1,.24,1,8.84,8.84,0,0,1-.07,1.37,9.41,9.41,0,0,1-.55,1.81,6.12,6.12,0,0,1-.45.72l-.27.26a1.66,1.66,0,1,0,2.24,2.46,5.56,5.56,0,0,0,1.54-2.55,13.26,13.26,0,0,0,.35-1.51,12.37,12.37,0,0,0,.22-1.76,7.69,7.69,0,0,0-.13-1.75,8.15,8.15,0,0,0-.51-1.55,6.84,6.84,0,0,0-.78-1.34c-.33-.47-.67-.92-1-1.38a7.12,7.12,0,0,1-.57-1c0-.12-.06-.24-.08-.36s0-.16,0-.25.07-.22.11-.33a3.93,3.93,0,0,1,.25-.36,11.9,11.9,0,0,1,1.74-1.64,8.5,8.5,0,0,1,1.45-.77,7.38,7.38,0,0,1,1.31-.28h.06a1.38,1.38,0,0,0,.93-.33,1.29,1.29,0,0,0-.76-2.24h0m-.34,2.58h0"/><path class="cls-9" d="M355.58,303.35a2.34,2.34,0,0,0-1.74,2.76c.3,1.63.6,3.25.78,4.9a27.15,27.15,0,0,1-.26,5.55c-.14,1-.28,2-.44,3a2.16,2.16,0,0,0,.24,1.1,2.14,2.14,0,0,0,1.23,1,2.16,2.16,0,0,0,2.71-1.38,27.22,27.22,0,0,0,1.18-7.17,39.37,39.37,0,0,0-.94-8,2.3,2.3,0,0,0-2.28-1.79,2.22,2.22,0,0,0-.48.05"/><path class="cls-9" d="M363.41,306.07c-2.47,1.79-4.94,3.57-7.4,5.38-.25.18-.49.37-.73.55l-.55.42a2.15,2.15,0,0,0-.33.34l-.27.32a5.8,5.8,0,0,0-.25.54,1.58,1.58,0,0,0,.17,1.35,2.68,2.68,0,0,0,1,.92,14.12,14.12,0,0,0,1.54.69q1.7.76,3.39,1.56c.81.39,1.61.78,2.4,1.18a1.64,1.64,0,0,0,1.16.21,1.55,1.55,0,0,0,.94-.66,1.53,1.53,0,0,0-.45-2.11c-1.92-1.05-3.93-1.93-5.91-2.85l.7-.51,2.05-1.5,4.71-3.42a1.54,1.54,0,0,0,.53-1.13,1.62,1.62,0,0,0-1.55-1.7h-.08a1.79,1.79,0,0,0-1.1.42"/><path class="cls-9" d="M374.15,302.29a12.56,12.56,0,0,0-1.56.32,1.76,1.76,0,0,0,.78,3.44c.44-.1.87-.22,1.31-.28l.09.06.07.07c.08.15.16.29.23.45s.1.41.14.63a7.18,7.18,0,0,1,0,1.16,12.71,12.71,0,0,1-.68,2,36.68,36.68,0,0,1-2,3.37,26.12,26.12,0,0,0-2.08,3.4,2.58,2.58,0,0,0-.18.93,2.72,2.72,0,0,0,.32,1.22,2.91,2.91,0,0,0,.84.95,2.79,2.79,0,0,0,.92.51,11.2,11.2,0,0,0,4.3.21c1.33-.12,2.64-.33,4-.56a2.06,2.06,0,0,0,.66-3.74,2.18,2.18,0,0,0-1.58-.28c-1.31.2-2.63.4-4,.54l-.77,0c.78-1.31,1.58-2.61,2.31-4,1.21-2.21,2.11-4.88,1.27-7.38a4.44,4.44,0,0,0-2.54-2.88,3.42,3.42,0,0,0-1.22-.21c-.19,0-.38,0-.57,0m.37,3.48h0m.35,0,.18,0-.18,0m-.24,4-.06.13.06-.13m-1.37,6.74.16.08-.16-.08"/><path class="cls-9" d="M515.9,302a1.78,1.78,0,0,0-.59,1.26c.24,5.09.49,10.18.79,15.27a1.88,1.88,0,0,0,.46,1.26,1.75,1.75,0,0,0,3-1.1c-.1-5.09-.41-10.18-.65-15.26a1.93,1.93,0,0,0-.47-1.31,1.83,1.83,0,0,0-1.26-.59h-.08a1.84,1.84,0,0,0-1.23.48"/><path class="cls-9" d="M529.81,301a104.85,104.85,0,0,1-10.51,2.25c-3.73.56-7.48,1.07-11.21,1.6l-2.22.33a1.69,1.69,0,0,0-.55,3.07,1.76,1.76,0,0,0,1.29.23c2-.29,4-.58,6-.86,1.78-.25,3.57-.48,5.34-.76l3.12-.5c.9-.14,1.79-.38,2.69-.57s1.65-.4,2.48-.62,1.51-.39,2.26-.6l2-.58a1.6,1.6,0,0,0,.94-.66,1.55,1.55,0,0,0,.21-1.17,1.57,1.57,0,0,0-1.49-1.2,1.36,1.36,0,0,0-.34,0"/><path class="cls-9" d="M531,302.28l-.19.7h-.07a2.63,2.63,0,0,0-1.08.52,4.07,4.07,0,0,0-1.09,1.78l.13-.28a29.3,29.3,0,0,0-1.31,3.14,19.74,19.74,0,0,0-.81,3.46,15.3,15.3,0,0,0-.16,1.75c0,.57,0,1.13,0,1.7a6,6,0,0,0,.13,1.6,2.12,2.12,0,0,0,.38.76,3.63,3.63,0,0,0,.64.57,1.25,1.25,0,0,0,1,.18,1.33,1.33,0,0,0,.94-.86c.24-.64.47-1.27.64-1.93.1-.38.2-.77.3-1.15.17-.65.34-1.3.52-1.94l.75-2.86.52-2c.71,2.16,1.17,4.4,1.7,6.61.45,1.87,1,3.71,1.51,5.56a1.57,1.57,0,0,0,1.85,1.16,1.55,1.55,0,0,0,1.16-1.84c-.66-2.43-1.42-4.83-2.16-7.23-.54-1.74-1-3.52-1.69-5.2a8.83,8.83,0,0,0-1.06-2.09c-.12-.16-.24-.31-.38-.45l.24-.91a1.29,1.29,0,0,0-.82-1.6,1.22,1.22,0,0,0-.38-.06,1.26,1.26,0,0,0-1.23.88"/><path class="cls-9" d="M540.08,311.53a58.32,58.32,0,0,0-6.49.36c-1,.11-1.91.22-2.86.36-1.44.22-2.88.44-4.31.69a1.66,1.66,0,0,0,.73,3.24c3.16-.54,6.32-1,9.5-1.35,1.1-.08,2.19-.16,3.29-.21a1.66,1.66,0,0,0,1.12-.4,1.55,1.55,0,0,0-1-2.69Z"/><path class="cls-9" d="M545.1,302.46a9.32,9.32,0,0,0-3,1.2,13.48,13.48,0,0,0-2.61,2,7.12,7.12,0,0,0-1.82,2.79,4.91,4.91,0,0,0,.23,3.44,9.86,9.86,0,0,0,1.88,2.72c.83.94,1.71,1.82,2.48,2.82,0,.09.09.18.14.27l0,.07s0,.06,0,.08-.07.25-.12.37-.3.45-.46.66a15,15,0,0,1-1.57,1.43,2.1,2.1,0,0,0,1.32,3.66,2.26,2.26,0,0,0,1.51-.55,10,10,0,0,0,2.84-3.08,5.84,5.84,0,0,0,.68-2.31,4.77,4.77,0,0,0-.56-2.43,5.9,5.9,0,0,0-.67-1c-.21-.3-.45-.58-.68-.86s-.45-.52-.68-.77c-.69-.76-1.38-1.52-2-2.33a5.35,5.35,0,0,1-.26-.48c0-.13-.07-.27-.1-.4s.08-.26.13-.39a5.42,5.42,0,0,1,.38-.57,11.6,11.6,0,0,1,1.45-1.28,12,12,0,0,1,1.68-.91,7,7,0,0,1,1.1-.25h.17l.89.25a2,2,0,0,0,1.25-3.83,9.92,9.92,0,0,0-1.63-.4,5,5,0,0,0-.59,0,8.71,8.71,0,0,0-1.39.13m1.73,3.91h0m-4.52,11,.06.16h0l-.06-.16m.06.17h0v0Z"/><path class="cls-9" d="M549.9,303.38c0,.67,0,1.33,0,2s.08,1.15.12,1.71c.08,1.09.18,2.17.28,3.26.17,2.53.32,5.06.32,7.59a1.87,1.87,0,1,0,3.74.17,84.92,84.92,0,0,0-.66-10.59c0-.6-.1-1.2-.15-1.8a21.42,21.42,0,0,1,0-2.18,1.85,1.85,0,0,0-1.74-1.91h-.08a1.84,1.84,0,0,0-1.83,1.74"/><path class="cls-9" d="M560.06,303.7c-2.37,2-4.78,4.05-7.11,6.15-.32.28-.63.57-1,.84a3,3,0,0,0-.92,1.15,3.35,3.35,0,0,0-.23,1.24,4.52,4.52,0,0,0,1.16,2.67,7.26,7.26,0,0,0,.89.92c.41.39.85.75,1.3,1.1a30.93,30.93,0,0,0,6.6,3.72,1.68,1.68,0,0,0,1.35-.11,1.74,1.74,0,0,0,.84-1,1.77,1.77,0,0,0-1.12-2.19c-1-.4-2.07-.81-3.09-1.28a19.12,19.12,0,0,1-3.77-2.39,8,8,0,0,1-1-1,4.54,4.54,0,0,1-.23-.42s0,0,0,0l1-.91.82-.73,1.95-1.7,4.42-3.83a1.48,1.48,0,0,0,.1-2.07,1.43,1.43,0,0,0-1.07-.47,1.53,1.53,0,0,0-1,.38m-6.29,9.13v.12s0-.08,0-.12"/><path class="cls-9" d="M569,304.88l-2.94.59a1.67,1.67,0,0,0,.74,3.25l1.82-.37c.72-.14,1.43-.31,2.16-.4a4.21,4.21,0,0,1,.57,0l.51.17a5.73,5.73,0,0,1,.67.45l0,0s0,.1,0,.15,0,.09,0,.13a6.75,6.75,0,0,1-.31.91,12.51,12.51,0,0,1-1.22,1.84,8.32,8.32,0,0,1-.91.87,2.13,2.13,0,0,0-1.1,1.2,1.83,1.83,0,0,0,1.65,2.38h.26l.41.13a6.33,6.33,0,0,1,.72.46,6.85,6.85,0,0,1,.63.66,6.44,6.44,0,0,1,.41.8c0,.17.08.34.11.51s0,.46,0,.69a5.92,5.92,0,0,1-.23.75,8.52,8.52,0,0,1-.64,1,12,12,0,0,1-1.64,1.44,10,10,0,0,1-1.54.85l-.29.08a2.11,2.11,0,0,0-.68,3.83,2.06,2.06,0,0,0,1.62.29,8.48,8.48,0,0,0,2.15-1,15.6,15.6,0,0,0,2.24-1.81,11.06,11.06,0,0,0,1.62-2,7.42,7.42,0,0,0,1.07-2.78,6.18,6.18,0,0,0-.16-2.8,7.41,7.41,0,0,0-1.34-2.44,6.34,6.34,0,0,0-1.42-1.28,13.35,13.35,0,0,0,1.24-2.06,5.69,5.69,0,0,0,.7-2.79,3.74,3.74,0,0,0-.32-1.39,3.62,3.62,0,0,0-1.06-1.31,5.8,5.8,0,0,0-2.73-1.27,4.5,4.5,0,0,0-.8-.07,10.21,10.21,0,0,0-2,.26m3.59,3.62v0m.06.22.13.19-.13-.19"/><path class="cls-3" d="M60.49,272.55c-1.28.24-2.46.38-3.82.54a9,9,0,0,1-3.82-.55q-.52,7.31-1.1,14.62c-.7,9-1.5,18-2.06,27q-.56,8.82-1.11,17.64c-.24,3.82-.31,7.66-.44,11.48-.14,4-.31,8-.38,11.93-.09,4.78-.16,9.56-.27,14.33s-.2,9.3-.38,14-.28,9.26-.68,13.87a3.94,3.94,0,0,0,1.2,2.89,4.07,4.07,0,0,0,5.77,0l.64-.83a4.08,4.08,0,0,0,.56-2.06c.57-4.46.71-9,.86-13.48.16-4.73.22-9.47.3-14.21s.12-9.45.18-14.19c.05-3.94.2-7.87.32-11.81s.16-7.79.39-11.68q.52-8.77,1-17.56c.54-9,1.32-18,2-27.06q.57-7.43,1.1-14.86l-.29.06"/><path class="cls-3" d="M257,392.59c-5.78.16-11.55.32-17.33.44-12.9.26-25.8.36-38.7.43q-17.84.09-35.68.19c-12.27.08-24.55.14-36.82.36-6.42.11-12.83.22-19.25.38-2.76.07-5.52.12-8.27.24-3.29.14-6.6.22-9.89.42l-8.81.54c-2.5.16-5,.38-7.51.57-5.29.41-10.56,1.06-15.82,1.73a2.37,2.37,0,0,0-1.55.64,2.19,2.19,0,0,0,0,3.11,2.11,2.11,0,0,0,1.55.64c3.3-.42,6.61-.89,9.93-1.18,3.06-.27,6.12-.55,9.18-.77q9.17-.67,18.36-1c12-.45,24.1-.58,36.15-.63q18.67-.07,37.34,0l39,.18q17.77.09,35.53-.11l16-.2a16,16,0,0,1,.83-4.7l.24-.71c-.2-.23-.39-.47-.56-.7l-4,.11"/><path class="cls-3" d="M150.78,343.9a24,24,0,0,0-3.71,1,38.43,38.43,0,0,0-4.27,1.73c-1.29.66-2.57,1.34-3.8,2.12a33.26,33.26,0,0,0-5,4q-1.52,1.44-3,2.91c-.91.9-1.88,1.74-2.85,2.58-2.15,1.6-4.38,3.08-6.62,4.57s-4.51,2.91-6.83,4.27-4.66,2.67-7,4c-2.49,1.42-5,2.8-7.54,4.11-.89.46-1.81.84-2.72,1.24s-2,.86-3.1,1.2l-1.91.62c-.57.18-1.14.4-1.72.56l-3.77,1c-.5.13-1,.2-1.55.3l-1.94.37c-2.37.3-4.73.56-7.12.76-1.36.11-2.71.19-4.07.26s-2.88,0-4.31,0a1.56,1.56,0,0,0,0,3.13c1.51,0,3,.06,4.53,0s3-.18,4.56-.3c1.23-.1,2.46-.18,3.69-.32,1.38-.16,2.77-.28,4.14-.52s2.76-.48,4.13-.82,2.73-.69,4.08-1.1,2.76-.88,4.13-1.37,2.63-1,3.94-1.57c2.44-1,4.78-2.28,7.1-3.54l7.58-4.12c2.46-1.34,4.86-2.75,7.23-4.24,1.06-.67,2.12-1.35,3.17-2s2.29-1.45,3.39-2.22a45.55,45.55,0,0,0,5-4.12c1.58-1.49,3.16-3,4.85-4.3a28.12,28.12,0,0,1,3-1.91l.37-.31a18.28,18.28,0,0,1,1.76-1.36,12.91,12.91,0,0,1,3.37-1.43,19.39,19.39,0,0,1,2.83-.63,31.76,31.76,0,0,1,3.41-.35c.6,0,1.2,0,1.79,0a30.43,30.43,0,0,1,4.6.32,28.85,28.85,0,0,1,6.49,2.1c1.46.55,2.92,1.07,4.34,1.73,2.26,1.05,4.47,2.19,6.69,3.34,1,.53,2.08,1,3.1,1.53s2.12,1.16,3.21,1.67c2.19,1,4.28,2.26,6.41,3.4a63,63,0,0,0,6.24,2.84h0l.08,0h0c2.25.9,4.48,1.87,6.73,2.77,1.21.49,2.41,1,3.6,1.52s2.08,1,3.14,1.4l3.9,1.52.24.08.18.06q1.08.3,2.15.64l.08,0a11,11,0,0,1-.06-4.83l-.81-.31h0l.06,0-.06,0,0,0h0c-1.88-.74-3.74-1.52-5.55-2.41-.64-.31-1.26-.65-1.87-1q-1.94-.75-3.85-1.55c-1.2-.55-2.41-1.09-3.6-1.68s-2.42-1.22-3.63-1.84q-3.7-1.91-7.38-3.84c-2.34-1.23-4.69-2.42-7.11-3.47l-4.1-1.79c-1.16-.5-2.29-1.07-3.45-1.58-2.65-1.15-5.34-2.21-8-3.3a29.16,29.16,0,0,0-8.27-2.12c-.69-.07-1.37-.1-2.07-.1a35.81,35.81,0,0,0-6.6.72"/><polyline class="cls-3" points="197.05 364.98 197.04 364.98 197.05 364.98"/><path class="cls-3" d="M197.17,365h0"/><polyline class="cls-3" points="197.14 365.02 197.13 365.01 197.13 365.01 197.14 365.02"/><path class="cls-3" d="M210.2,370.55l-.16-.06.16.06"/><path class="cls-3" d="M83,396.67c-3.52,0-7,.13-10.55.22-1.83,0-3.66.16-5.49.24-.77,0-1.55.12-2.33.18s-1.74.11-2.6.2l-5.13.51q-2.81.29-5.61.64l-1.32.18a1.48,1.48,0,0,0-.93.71,1.55,1.55,0,0,0,.56,2.12,1.7,1.7,0,0,0,1.2.15l.59-.08,2.68-.33c.94-.12,1.89-.18,2.84-.28l5.13-.46c.86-.08,1.74-.11,2.6-.17s1.55-.12,2.33-.15c1.83-.06,3.66-.16,5.49-.18,7.35-.1,14.69-.16,22-.24a1.66,1.66,0,0,0,0-3.32H92.29q-4.62,0-9.24,0"/><path class="cls-3" d="M98.27,394.6c-2.34.11-4.67.28-7,.47-2.12.17-4.25.35-6.36.63l.19,0-.17,0h-.1l-.32,0,.11,0-.33,0h-.06l-.44.06-.17,0h-.09l-.74.1.3,0-.64.09.21,0-.26,0h-.09l.13,0c-2.44.32-4.87.71-7.3,1.05l-4,.51H71c-1.6.18-3.2.33-4.81.42s-3,.14-4.49.35c-.73.1-1.45.19-2.17.31l-2.37.43-4.47.84a1.32,1.32,0,0,0-.59.34,1.44,1.44,0,0,0-.39.95.24.24,0,0,0,0,0,1.34,1.34,0,0,0,1.35,1.35c1.94-.23,3.87-.49,5.8-.71l4.23-.45c3.41-.35,6.82-.7,10.23-1.07,3.14-.35,6.27-.78,9.4-1.14,1.79-.2,3.58-.38,5.38-.54,1.62-.14,3.26-.23,4.88-.34l5.25-.37a1.79,1.79,0,0,0,1.21-.5,1.71,1.71,0,0,0-1.14-2.91h-.06m-14.81,1.29h-.19l.19,0m-1.16.16h0m-.28,0,.28,0h.08l-.36,0m.36,0h0m.72-.1.14,0-.14,0m.44-.06h0m0,0h0m.08,0h0m.61-.08h.06l.22,0-.28,0m.3,0,.13,0-.13,0m.13,0,.27,0h0l-.31,0m.43-.06.13,0-.13,0"/><path class="cls-9" d="M343.45,391.77c-3.61.09-7.21.15-10.82.26s-7.17.25-10.76.31c-7.28.12-14.56.18-21.85.3q-5.87.09-11.74.23c-3.26.08-6.52.19-9.78.19-3.92,0-7.84,0-11.77-.06-4.45,0-8.9,0-13.35-.18a2.78,2.78,0,0,0,0,5.56c3.83.13,7.66.16,11.49.19,3.51,0,7,.1,10.53.12,6.87,0,13.74-.18,20.61-.23,7.55-.06,15.11-.06,22.67-.13,7.25-.07,14.5-.28,21.76-.41,14.3-.25,28.6.18,42.9.37,7.21.09,14.42.14,21.62.25,3.56.06,7.11.25,10.67.4s7,.44,10.57.7,7,.56,10.56.85l3,.23a12.94,12.94,0,0,1-.59-2.28,12.51,12.51,0,0,1,.12-4.68c-3.48-.24-7-.5-10.45-.71l-6.34-.38c-1.47-.09-2.95-.22-4.42-.26l-6.13-.2c-1.56,0-3.13-.14-4.69-.15-3.6,0-7.19-.07-10.78-.07s-7.11,0-10.66,0c-7.07-.05-14.13-.17-21.2-.23-4.31,0-8.62-.1-12.93-.1q-4.11,0-8.21.09"/><path class="cls-9" d="M261.29,398H261l-.26,0h-.17a2.07,2.07,0,0,0-.37.06.23.23,0,0,0-.13.12.24.24,0,0,0,.11.32l.07,0h0a.32.32,0,0,0,.16,0h.13a1.89,1.89,0,0,0,.29-.05l.06,0h.45a.24.24,0,0,0,.22-.26.24.24,0,0,0-.25-.22Z"/><path class="cls-9" d="M263.59,392.36l-.76,0-.56,0h-.06c-.36,0-.72,0-1.08,0l-.32,0a1.54,1.54,0,0,0-.3,0l-.07,0-.06,0a.24.24,0,0,0-.09.28.2.2,0,0,0,.18.16.28.28,0,0,0,.16.06.25.25,0,0,0,.29.13l.13,0H261l.37,0a.29.29,0,0,0,.16.08,4.4,4.4,0,0,0,.49,0h1.09l.82,0,.68,0h0l.73.06.55,0h0l1,.07c.24,0,.47.06.71.07h.59l.44.06.4.06,1,.19c.93.19,1.86.43,2.79.62A.29.29,0,0,0,273,394a25.23,25.23,0,0,0-3-.88c-.36-.1-.73-.17-1.1-.25-.18,0-.37-.07-.56-.09s-.42,0-.62,0l-.33,0a3.71,3.71,0,0,0-.65-.14l-.78-.08c-.55,0-1.11-.07-1.66-.1l-.63,0h-.1m2.34,1.08h0m-1.32-.09h0"/><path class="cls-9" d="M423.82,395.11a3.49,3.49,0,0,0,2.42,4.27,28.05,28.05,0,0,0,5.62.43c1.11,0,2.21.1,3.31.21,2.26.34,4.53.64,6.81.86l4.26.39c2.88,0,5.76-.07,8.64-.07l3.21,0h1.05q7.52-.33,15-.46c2.54,0,5.09-.06,7.63-.06l8.15,0,18.13,0c5.64,0,11.28,0,16.92.11,5.84.13,11.68.29,17.53.44s11.4.2,17.1.21h1.61c2,0,4.07,0,6.1,0,2.95.06,5.88.16,8.83.29a3.85,3.85,0,0,1,1.92-1c.55-.09,1.1-.18,1.64-.28a4.59,4.59,0,0,0-.76-4.95c-2.55-.06-5.11-.09-7.65-.22l-4.73-.23c-1.44-.07-2.87-.22-4.3-.33-1.9-.15-3.8-.35-5.7-.55-2.68.07-5.37.15-8.05.19h-1.4c-.95,0-1.9,0-2.84,0l-.61,0c-7.26-.07-14.51-.5-21.77-.83-4.35-.2-8.72-.41-13.07-.49-4.57-.08-9.13,0-13.7,0-4.11,0-8.22,0-12.32.11-4.62.12-9.23.29-13.85.42-3.39.09-6.79.18-10.18.23-3.12,0-6.22-.08-9.33-.26q-2.47-.14-5-.22c-1.68-.06-3.38,0-5.06-.14s-3.57-.31-5.36-.39c-.92,0-1.83,0-2.74,0s-1.89,0-2.82,0l-.45-.09a3.94,3.94,0,0,0-.85-.09,3.43,3.43,0,0,0-3.41,2.52"/><path class="cls-9" d="M209.71,367.52a.79.79,0,0,0,0,1.1l.89,1a10.62,10.62,0,0,0,2.48,1.92c.4.23.8.44,1.22.63l.21.09.24.09.19.06c.73.2,1.46.41,2.19.64l1.74.43c1.09.26,2.18.49,3.26.75s2.25.59,3.37.91l3,.85.83.16c1.21.23,2.42.41,3.63.65,2.38.49,4.77,1,7.14,1.5s4.81,1.12,7.24,1.56c1.15.2,2.27.51,3.41.73s2.4.42,3.61.61,2.47.33,3.7.54c1.06.19,2.12.35,3.19.48s2.12.19,3.18.3,2.3.28,3.46.42a30.7,30.7,0,0,0,5.32.06c1.59-.1,3.17-.21,4.74-.41.63-.1,1.25-.23,1.87-.36s1.14-.2,1.71-.3l.7-.13a3.57,3.57,0,0,1,2.69-1.62H285a1.83,1.83,0,0,0-.52-1.13,1.74,1.74,0,0,0-1.27-.53,25.33,25.33,0,0,0-4.38,1c-.58.16-1.17.28-1.76.39l-1.74.32c-1.4.11-2.82.09-4.22.08s-3.09,0-4.64,0-3.15,0-4.73-.09-3-.24-4.43-.36c-1.1-.09-2.2-.19-3.3-.3-1.47-.22-2.93-.47-4.39-.72s-3-.42-4.43-.68-3.21-.58-4.81-.83-3.15-.46-4.72-.72-3-.63-4.49-1-2.86-.68-4.29-1a92.65,92.65,0,0,1-9.06-2.75c-.71-.26-1.42-.54-2.12-.82a16.43,16.43,0,0,1-3.22-1.7,15.73,15.73,0,0,1-1.72-1.7.71.71,0,0,0-.54-.23.81.81,0,0,0-.57.23"/><path class="cls-9" d="M213.2,367.26c-.16.11-.3.23-.45.36l-.55.47a.61.61,0,0,0,0,.86.61.61,0,0,0,.86,0l.47-.39.13-.09h0a7,7,0,0,1,1,.35h0c1.29.58,2.56,1.18,3.9,1.66s2.67.89,4,1.32,2.46.82,3.7,1.18l4.08,1.17c2.64.76,5.31,1.42,7.95,2.19,1.43.42,2.86.8,4.31,1.16,1.24.31,2.49.57,3.72.89,2.78.7,5.53,1.49,8.3,2.25,1.25.34,2.5.71,3.76,1l1.47.35,1.34.18c1.06.12,2.12.19,3.18.3s2.3.28,3.45.42A29.28,29.28,0,0,0,272,383a1.89,1.89,0,0,0-1-2.94l-1.21-.26c-.79-.07-1.58-.14-2.36-.23s-1.57-.27-2.36-.4c-1-.1-2.08-.13-3.11-.28s-2-.36-3-.54c-1.77-.32-3.53-.7-5.27-1.15a28.15,28.15,0,0,0-3-.64c-1-.14-1.89-.29-2.84-.48s-2-.4-3-.54-1.95-.25-2.91-.4l-3.38-.55c-1.05-.16-2.08-.39-3.13-.59a34.78,34.78,0,0,1-3.44-.78c-1.09-.32-2.16-.69-3.25-1-2.22-.64-4.35-1.48-6.53-2.23-2-.68-4-1.38-5.91-2.15h0l0,0h0l-1.82-.73-.47,0h-.08a1.3,1.3,0,0,0-.69.18m3.12.63.06,0-.06,0m-2.59.58.11,0-.11,0"/><path class="cls-9" d="M205,364.61a1.62,1.62,0,0,0-.42.72,1.57,1.57,0,0,0,.17,1.26,2.69,2.69,0,0,0,.43.52,3.65,3.65,0,0,0,.59.42c.18.09.37.17.55.24l1.19.48,1.89.74q2.06.8,4.13,1.57,1.44.53,2.88,1c2.09.85,4.18,1.67,6.3,2.45,1.28.47,2.56.92,3.85,1.36l2,.58.74.14c1.21.23,2.42.41,3.63.65,2.38.49,4.77,1,7.14,1.5s4.81,1.12,7.24,1.56c.89.16,1.76.38,2.64.57a1.19,1.19,0,0,0-.34-.67,1.1,1.1,0,0,0-.25-.19h0l0,0-.17-.07c-.46-.17-.94-.3-1.42-.44l-1.42-.43-1.9-.6-.51-.16a1.46,1.46,0,0,0-.75-1.08,7.53,7.53,0,0,0-1.29-.47l-.49-.14-1-.28-2-.53a1.79,1.79,0,0,0-.08-.76c-1-.16-1.91-.36-2.86-.54-1.15-.22-2.31-.44-3.44-.78s-2.16-.69-3.25-1c-2.22-.64-4.35-1.48-6.53-2.23-2-.68-4-1.38-5.91-2.14h0l.06,0-.06,0,0,0h0c-1.88-.74-3.73-1.52-5.55-2.41-.71-.35-1.41-.73-2.1-1.12l-.46,0a1.53,1.53,0,0,0-.77.19c-.28-.09-.56-.17-.83-.28a1.3,1.3,0,0,0-.42-.07,1.75,1.75,0,0,0-1.17.49"/><path class="cls-9" d="M209.24,367.46a.9.9,0,0,0-.22,1.64c2.31,1,4.59,2.15,6.85,3.28l1.28.64,1.71.42c1.09.26,2.18.49,3.26.75s2.25.59,3.37.92l3.07.88.74.14c1.21.23,2.42.41,3.63.65,2.38.49,4.77,1,7.14,1.5s4.81,1.12,7.24,1.56c1.15.2,2.27.51,3.41.73l.3.05c-.27-.14-.58-.25-.86-.37l-.77-.29c-.66-.23-1.32-.45-2-.66-1.21-.39-2.44-.69-3.66-1-2.41-.63-4.88-1.07-7.33-1.51s-4.8-.92-7.16-1.57c-.55-.15-1.11-.28-1.65-.46l-2.13-.67c-1.19-.37-2.35-.8-3.51-1.23-.85-.31-1.69-.66-2.54-1-3.18-1.41-6.33-2.86-9.5-4.28a1.17,1.17,0,0,0-.47-.12l-.22,0"/><path class="cls-9" d="M245.76,377.34l0,0-2.24-.19a.85.85,0,0,0-.85.84.82.82,0,0,0,.59.79,1,1,0,0,0,0,.18c1.35.3,2.71.59,4.08.84,1.15.2,2.27.52,3.41.73l1.61.28a1.6,1.6,0,0,0,.37-.27,1.44,1.44,0,0,0,0-2,1.31,1.31,0,0,0-.64-.36h0c-1.75-.3-3.48-.71-5.24-1l-.37,0a1.4,1.4,0,0,0-.71.19"/><path class="cls-3" d="M343.82,343a24,24,0,0,0-3.71,1,38.36,38.36,0,0,0-4.27,1.73c-1.29.66-2.57,1.34-3.8,2.12a33.2,33.2,0,0,0-5,4q-1.52,1.44-3,2.91c-.92.9-1.88,1.74-2.85,2.58-2.16,1.6-4.39,3.08-6.62,4.57s-4.51,2.91-6.83,4.27-4.66,2.67-7,4c-2.49,1.42-5,2.8-7.54,4.11-.89.46-1.82.84-2.72,1.24s-2.05.85-3.1,1.2l-1.91.62c-.57.18-1.14.4-1.72.56l-2.61.7-.18.48a10.8,10.8,0,0,1-.36,2.15q-.13.47-.3.92c.59-.12,1.17-.24,1.75-.38,1.37-.34,2.73-.69,4.08-1.1s2.76-.88,4.13-1.37,2.63-1,3.94-1.57c2.44-1,4.78-2.28,7.1-3.54l7.58-4.12c2.46-1.34,4.86-2.75,7.23-4.24l.2-.13c1-.94,2-1.85,3.12-2.71,1.61-1.28,3.31-2.44,5-3.66,3-2.57,5.39-5.83,8.74-8a28.72,28.72,0,0,1,5.34-2.67,49.69,49.69,0,0,1,5.06-1.46,21.71,21.71,0,0,1,5.57-.8h.39a33.91,33.91,0,0,1,5.5.57,34.43,34.43,0,0,1,9.93,3.48c1.75.94,3.54,1.77,5.3,2.69l5.8,3.07c2,1.07,4.11,2,6.16,2.91,1.8.84,3.58,1.71,5.4,2.5,4.13,1.71,8.27,3.4,12.53,4.78,2.11.69,4.27,1.25,6.37,2,2.38.84,4.7,1.79,7,2.79,1.79.73,3.61,1.37,5.41,2.06l1.34.52c2.11.36,4.23.71,6.35,1,3.22.41,6.45.75,9.67,1.17,2,.27,4,.55,6.06.88l1.67.3.11,0q-1.62-.42-3.22-.91c-2.63-.82-5.28-1.62-7.92-2.45a5.43,5.43,0,0,1-3.25.29,14.33,14.33,0,0,1-2.25-.76l-2.82-1.08c-2.17-.83-4.32-1.69-6.47-2.6l-.19-.08c-1.4-.45-2.81-.88-4.24-1.27a56.86,56.86,0,0,1-5.5-1.65,71.53,71.53,0,0,1-8.22-3.79l-2-.82c-1.2-.55-2.41-1.08-3.6-1.68s-2.42-1.22-3.63-1.84q-3.7-1.91-7.38-3.84c-2.33-1.23-4.69-2.42-7.11-3.47l-4.1-1.79c-1.16-.5-2.29-1.07-3.45-1.58-2.65-1.15-5.34-2.21-8-3.3a29.16,29.16,0,0,0-8.27-2.12c-.69-.07-1.38-.1-2.07-.1a35.81,35.81,0,0,0-6.6.72"/><path class="cls-3" d="M344.44,343a24,24,0,0,0-3.71,1,38.2,38.2,0,0,0-4.27,1.73c-1.29.66-2.57,1.34-3.8,2.12a33.27,33.27,0,0,0-5,4q-1.52,1.44-3,2.91c-.91.9-1.88,1.74-2.85,2.58-2.15,1.6-4.38,3.08-6.62,4.57s-4.51,2.91-6.83,4.27-4.66,2.67-7,4c-2.49,1.42-5,2.8-7.54,4.11-.89.46-1.81.84-2.72,1.24s-2,.86-3.1,1.2l-1.91.62c-.57.18-1.14.4-1.72.56l-3.77,1c-.5.13-1,.2-1.55.3l-1.94.37c-2.37.3-4.73.56-7.12.76-1.36.12-2.71.19-4.07.26s-2.88,0-4.31,0a1.56,1.56,0,0,0-1.47,1l.06,0,.44.11a2.19,2.19,0,0,1,.37,0l.26,0a32.63,32.63,0,0,1,4.12,1l.46.12c1.6.13,3.2.33,4.81.35.73,0,1.47,0,2.2.08l1.54-.15c1.38-.15,2.77-.28,4.14-.52s2.76-.48,4.13-.82,2.73-.69,4.08-1.1,2.76-.88,4.13-1.37,2.63-1,3.94-1.57c2.44-1,4.78-2.28,7.1-3.54l7.58-4.12c2.46-1.34,4.86-2.75,7.23-4.24,1.06-.67,2.12-1.35,3.17-2s2.29-1.45,3.39-2.22a45.73,45.73,0,0,0,5-4.12c1.58-1.49,3.16-3,4.85-4.3a28.12,28.12,0,0,1,3-1.91l.37-.31a18.28,18.28,0,0,1,1.76-1.36,12.89,12.89,0,0,1,3.37-1.43,19.39,19.39,0,0,1,2.83-.63,31.79,31.79,0,0,1,3.41-.35c.6,0,1.2,0,1.79,0a30.42,30.42,0,0,1,4.6.32,28.8,28.8,0,0,1,6.49,2.1c1.46.55,2.92,1.07,4.34,1.73,2.26,1.05,4.47,2.19,6.69,3.34,1,.53,2.08,1,3.1,1.54s2.12,1.16,3.21,1.67c2.19,1,4.28,2.26,6.41,3.4a62.89,62.89,0,0,0,6.23,2.84h0l.08,0h0c2.25.9,4.48,1.86,6.73,2.77,1.21.49,2.41,1,3.6,1.52s2.08,1,3.14,1.4l3.9,1.52.24.08.18.06c.72.2,1.44.41,2.15.64l.08,0a11.05,11.05,0,0,1-.06-4.83L410,367h0c-1.88-.74-3.73-1.52-5.55-2.41-.63-.31-1.25-.65-1.87-1-1.29-.5-2.57-1-3.86-1.55s-2.41-1.09-3.6-1.68-2.42-1.22-3.63-1.84c-2.46-1.27-4.93-2.55-7.38-3.84s-4.69-2.42-7.11-3.47l-4.1-1.79c-1.16-.5-2.29-1.07-3.45-1.58-2.65-1.15-5.34-2.21-8-3.3a29.18,29.18,0,0,0-8.27-2.12c-.69-.07-1.38-.1-2.07-.1a35.81,35.81,0,0,0-6.6.72"/><polyline class="cls-3" points="409.93 366.96 409.93 366.96 409.93 366.96"/><polyline class="cls-3" points="409.97 366.98 409.97 366.98 409.97 366.98"/><polyline class="cls-3" points="409.93 366.96 409.92 366.96 409.93 366.96"/><polyline class="cls-3" points="390.71 364.08 390.7 364.08 390.71 364.08"/><path class="cls-3" d="M390.83,364.13h0"/><polyline class="cls-3" points="390.8 364.11 390.8 364.11 390.8 364.11 390.8 364.11"/><path class="cls-3" d="M403.87,369.64l-.16-.06.16.06"/><path class="cls-9" d="M403.38,366.62a.79.79,0,0,0,0,1.1l.89,1a10.63,10.63,0,0,0,2.48,1.92c.4.23.8.44,1.22.63l.21.09.24.09.19.06c.73.2,1.46.41,2.19.64l1.74.43c1.09.25,2.18.49,3.26.75s2.25.59,3.37.92l3,.85.83.16c1.21.23,2.42.41,3.63.65,2.38.49,4.77,1,7.14,1.5s4.81,1.12,7.24,1.56c1.15.2,2.27.52,3.41.73s2.4.42,3.61.61,2.47.33,3.7.54c1.06.19,2.12.35,3.19.48s2.12.19,3.18.3,2.3.28,3.46.42a30.7,30.7,0,0,0,5.32.06c1.59-.11,3.17-.21,4.74-.41.63-.1,1.25-.23,1.87-.36s1.14-.2,1.71-.3l.7-.13a3.57,3.57,0,0,1,2.69-1.62h.15a1.83,1.83,0,0,0-.52-1.13,1.75,1.75,0,0,0-1.27-.53,25.26,25.26,0,0,0-4.38,1c-.58.16-1.17.28-1.76.39l-1.74.32c-1.4.11-2.82.09-4.22.08s-3.09,0-4.64,0-3.15,0-4.73-.09-3-.24-4.43-.36c-1.1-.09-2.2-.19-3.3-.3-1.47-.22-2.93-.47-4.39-.71s-3-.42-4.43-.68-3.21-.58-4.81-.83-3.15-.46-4.72-.72-3-.63-4.49-1-2.86-.68-4.29-1a93.2,93.2,0,0,1-9.06-2.75c-.71-.26-1.42-.54-2.12-.82a16.46,16.46,0,0,1-3.22-1.7,15.8,15.8,0,0,1-1.72-1.7.71.71,0,0,0-.54-.23.81.81,0,0,0-.57.23"/><path class="cls-9" d="M406.87,366.36c-.16.11-.3.23-.45.36l-.55.47a.61.61,0,0,0,0,.86.61.61,0,0,0,.86,0l.47-.39.13-.08h0a7,7,0,0,1,1,.35h0c1.29.57,2.57,1.18,3.9,1.66s2.67.89,4,1.32,2.46.82,3.7,1.18l4.08,1.17c2.64.76,5.31,1.42,7.95,2.19,1.43.42,2.86.8,4.31,1.16,1.24.31,2.49.57,3.72.89,2.78.7,5.53,1.49,8.3,2.25,1.25.34,2.5.71,3.76,1l1.47.35,1.34.18c1.06.12,2.12.19,3.18.3s2.3.28,3.45.42a29.28,29.28,0,0,0,4.18.12,1.89,1.89,0,0,0-1-2.95l-1.21-.26c-.79-.07-1.58-.14-2.36-.23s-1.57-.27-2.36-.4c-1-.1-2.08-.13-3.11-.28s-2-.36-3-.54c-1.77-.32-3.53-.7-5.27-1.15a28.33,28.33,0,0,0-3-.64c-1-.14-1.89-.29-2.84-.48s-2-.4-3-.54-1.95-.25-2.91-.4l-3.38-.55c-1.05-.16-2.08-.39-3.13-.59s-2.31-.44-3.44-.78-2.16-.69-3.25-1c-2.22-.64-4.35-1.48-6.53-2.23-2-.68-4-1.38-5.91-2.15h0l0,0h0l-1.82-.73-.47,0h-.08a1.31,1.31,0,0,0-.69.18M410,367l.06,0-.06,0m-2.59.58.11,0-.11,0"/><path class="cls-9" d="M398.63,363.71a1.63,1.63,0,0,0-.42.72,1.57,1.57,0,0,0,.17,1.26,2.64,2.64,0,0,0,.43.52,3.59,3.59,0,0,0,.59.42c.18.09.37.17.55.24l1.19.49,1.89.74q2.06.8,4.13,1.57,1.43.53,2.88,1c2.09.84,4.19,1.67,6.3,2.45q1.92.7,3.85,1.36l2,.58.74.14c1.21.23,2.42.41,3.63.65,2.38.49,4.77,1,7.14,1.5s4.81,1.12,7.24,1.56c.89.16,1.76.38,2.64.57a1.18,1.18,0,0,0-.34-.67,1.11,1.11,0,0,0-.24-.18h0l0,0-.17-.07c-.46-.17-.95-.3-1.42-.44l-1.42-.43-1.9-.6-.51-.16a1.46,1.46,0,0,0-.75-1.08,7.55,7.55,0,0,0-1.29-.47l-.49-.14-1-.28-2-.53a1.8,1.8,0,0,0-.08-.76c-1-.16-1.91-.36-2.86-.55a35,35,0,0,1-3.44-.77c-1.09-.32-2.16-.69-3.25-1-2.22-.64-4.35-1.48-6.53-2.23-2-.68-4-1.38-5.91-2.14h0l.06,0-.06,0,0,0h0c-1.88-.74-3.73-1.52-5.54-2.41-.71-.35-1.41-.73-2.1-1.12l-.46,0a1.53,1.53,0,0,0-.78.19c-.28-.09-.56-.17-.83-.28a1.33,1.33,0,0,0-.42-.07,1.75,1.75,0,0,0-1.17.49"/><path class="cls-9" d="M402.91,366.56a.9.9,0,0,0-.22,1.64c2.31,1,4.59,2.15,6.85,3.28l1.28.64,1.71.42c1.09.26,2.18.49,3.26.75s2.25.59,3.37.91l3.07.88.74.14c1.21.23,2.42.41,3.63.65,2.38.49,4.77,1,7.14,1.5s4.81,1.12,7.24,1.56c1.15.2,2.27.52,3.41.73l.3.05c-.27-.14-.58-.25-.86-.37l-.77-.29c-.66-.23-1.32-.45-2-.66-1.2-.39-2.43-.69-3.66-1-2.41-.63-4.88-1.07-7.33-1.51s-4.8-.92-7.16-1.57c-.55-.15-1.11-.29-1.65-.46l-2.13-.67c-1.19-.37-2.35-.8-3.51-1.23-.85-.31-1.69-.66-2.54-1-3.18-1.41-6.33-2.87-9.5-4.28a1.16,1.16,0,0,0-.47-.12l-.22,0"/><path class="cls-9" d="M439.42,376.44l0,0-2.24-.19a.85.85,0,0,0-.85.85.82.82,0,0,0,.59.79,1,1,0,0,0,0,.18c1.35.3,2.71.59,4.08.84,1.15.2,2.27.51,3.41.73l1.61.28a1.6,1.6,0,0,0,.37-.27,1.44,1.44,0,0,0,0-2,1.31,1.31,0,0,0-.64-.36h0c-1.75-.31-3.48-.71-5.24-1l-.37,0a1.4,1.4,0,0,0-.71.19"/><path class="cls-3" d="M537.48,342.14a23.87,23.87,0,0,0-3.71,1,38.18,38.18,0,0,0-4.27,1.73c-1.29.66-2.57,1.34-3.8,2.12a33.3,33.3,0,0,0-5,4q-1.52,1.44-3,2.91c-.92.9-1.88,1.74-2.85,2.58-2.16,1.6-4.39,3.08-6.62,4.57s-4.51,2.91-6.83,4.27-4.66,2.67-7,4c-2.49,1.42-5,2.8-7.54,4.11-.89.46-1.82.84-2.72,1.24s-2.05.85-3.1,1.2l-1.91.62c-.57.19-1.14.4-1.72.56l-2.61.7-.18.48a10.87,10.87,0,0,1-.36,2.15q-.13.47-.3.92c.59-.12,1.17-.24,1.75-.39,1.37-.34,2.73-.69,4.08-1.1s2.76-.88,4.13-1.37,2.63-1,3.94-1.57c2.44-1,4.78-2.28,7.1-3.54l7.58-4.12c2.46-1.34,4.86-2.75,7.23-4.24,1.06-.67,2.12-1.35,3.17-2s2.29-1.45,3.39-2.22a45.74,45.74,0,0,0,5-4.12c1.57-1.49,3.16-3,4.85-4.3a36.1,36.1,0,0,1,5.8-3.37c1.17-.47,2.35-.92,3.57-1.27.76-.22,1.52-.42,2.3-.6.53-.13,1.07-.2,1.6-.28,1-.1,2-.17,3-.22a23.35,23.35,0,0,1,3,.08c.43.06.87.13,1.3.23.63.13,1.25.3,1.88.47a26.35,26.35,0,0,1,3.12,1.13c2.33,1.05,4.69,2,7,3.15,1.31.63,2.61,1.29,3.92,1.93s2.36,1.1,3.54,1.64c4.92,2.28,9.62,5,14.39,7.58,1.14.62,2.27,1.25,3.42,1.86,1.37.72,2.75,1.39,4.14,2.06,2.56,1.23,5.21,2.31,7.87,3.32a155.26,155.26,0,0,0,15.87,5,61.05,61.05,0,0,0,7.84,1.4,75.28,75.28,0,0,0,7.7.66,49.23,49.23,0,0,0,8.14-.39c2.48-.35,4.9-1,7.35-1.48a3.49,3.49,0,0,0,2.49-.36,3.37,3.37,0,0,0,1.21-4.61,3.6,3.6,0,0,0-2-1.55,5.19,5.19,0,0,0-1.51-.33,5.73,5.73,0,0,0-1.6.09c-.5.07-1,.19-1.5.29l-2.05.46c-1.23.27-2.45.52-3.7.71a62.76,62.76,0,0,1-7.28.16c-2.29-.07-4.56-.34-6.82-.63a68.49,68.49,0,0,1-7.05-1.34c-2.39-.61-4.78-1.27-7.15-1.95s-5-1.46-7.44-2.33c-2.28-.82-4.52-1.71-6.75-2.64-1.2-.55-2.41-1.08-3.6-1.68s-2.42-1.22-3.63-1.84q-3.7-1.91-7.38-3.84c-2.34-1.23-4.69-2.42-7.11-3.47l-4.1-1.79c-1.16-.5-2.29-1.07-3.45-1.58-2.65-1.15-5.34-2.2-8-3.3a29.23,29.23,0,0,0-8.27-2.12c-.69-.07-1.38-.1-2.07-.1a35.75,35.75,0,0,0-6.6.72m105.2,33-.32,0,.32,0"/><path class="cls-9" d="M548.3,394.38a3.81,3.81,0,0,0-1.61,3.1,3.86,3.86,0,0,0,1.13,2.72,4.1,4.1,0,0,0,2.71,1.12c2.06.22,4.11.39,6.17.46,1.09,0,2.18,0,3.27,0h2c4,0,7.94.2,11.91.3,3.81.09,7.62-.25,11.43-.3s7.86-.06,11.79-.13c5.08-.1,10.15-.1,15.23-.1,2.72,0,5.45,0,8.17,0,4.16,0,8.31,0,12.46,0,1.82,0,3.65,0,5.47,0s3.86,0,5.78,0c6.22,0,12.44.2,18.66.21h4.09l2.26-.36c3.08-.48,6.18-.86,9.28-1.19,2.55-.28,5.11-.44,7.67-.57,0-.07,0-.14.06-.21a3.74,3.74,0,0,0,0-2c-3.84-.05-7.68-.12-11.52-.15-5.39,0-10.78,0-16.17,0-6.08,0-12.15,0-18.23-.05s-12.11-.16-18.17-.34c-5.37-.17-10.73-.39-16.1-.55l-18.29-.56q-3.86-.13-7.72-.22c-2.89-.07-5.79-.1-8.68-.24l-4.73-.23c-1.43-.07-2.87-.22-4.3-.33-2.55-.2-5.09-.49-7.63-.75l-6.38.36"/><path class="cls-9" d="M672.92,391.79a3.22,3.22,0,0,0,1.14,4.36,42.56,42.56,0,0,0,9.22,4.24,2.89,2.89,0,0,0,2.22-5.28c-2.74-1.49-5.55-2.86-8.23-4.45a3.09,3.09,0,0,0-1.58-.43,3.23,3.23,0,0,0-2.78,1.57"/><path class="cls-9" d="M683.44,397.21c-2.66,1.18-5.22,2.52-7.75,3.95-1.21.68-2.39,1.42-3.58,2.14s-2.65,1.66-3.93,2.55a2,2,0,0,0-.88,1.15,1.92,1.92,0,0,0,2.82,2.17c2.49-1.59,4.94-3.24,7.42-4.84a55.64,55.64,0,0,1,7.66-4.12,1.67,1.67,0,0,0,.8-1,1.75,1.75,0,0,0-1.22-2.14,1.62,1.62,0,0,0-.43-.06,2.26,2.26,0,0,0-.92.23"/><path class="cls-9" d="M137.08,360.17c-.1,2.34-.19,4.68-.24,7a.57.57,0,0,0,1.15,0c.11-2.34.19-4.69.29-7a.6.6,0,1,0-1.2,0"/><path class="cls-9" d="M136.51,375c-.07,1.18-.13,2.36-.16,3.55a.59.59,0,0,0,.59.59.6.6,0,0,0,.59-.59c.06-1.19.13-2.37.2-3.55a.61.61,0,1,0-1.21,0"/><path class="cls-9" d="M136.41,386.64a.71.71,0,0,0-.19.46c-.2,1.79-.36,3.59-.53,5.38a.6.6,0,0,0,.9.52.57.57,0,0,0,.28-.36c.13-.95.26-1.9.36-2.85s.19-1.79.3-2.68a.63.63,0,0,0-.19-.46.65.65,0,0,0-.92,0"/><path class="cls-9" d="M172.43,356.22q-.12,2.92-.19,5.83a.38.38,0,1,0,.76,0q.09-2.92.21-5.83a.39.39,0,1,0-.78,0"/><path class="cls-9" d="M172.43,369.67a.84.84,0,0,0-.23.54c-.2,1.85-.4,3.71-.55,5.56a.71.71,0,0,0,.52.68.73.73,0,0,0,.54-.07A.69.69,0,0,0,173,376c.14-.95.29-1.9.39-2.85l.32-2.9a.75.75,0,0,0-.23-.54.77.77,0,0,0-1.09,0"/><path class="cls-9" d="M173.24,385.67a.45.45,0,0,0-.22.29c-.2,1.41-.41,2.82-.59,4.23a.46.46,0,0,0,.69.4.43.43,0,0,0,.21-.27q.32-2,.63-4.09a.55.55,0,0,0,0-.37.51.51,0,0,0-.29-.22l-.13,0a.47.47,0,0,0-.24.07"/><path class="cls-9" d="M328.53,359.37c-.08,1.25-.17,2.5-.23,3.74a.7.7,0,0,0,1.4,0c0-1.25.12-2.5.2-3.74a.69.69,0,0,0-.68-.68.7.7,0,0,0-.68.68"/><path class="cls-9" d="M328.82,374.23a.77.77,0,0,0-.21.5c-.09.85-.18,1.7-.26,2.55s-.12,1.69-.13,2.53a.65.65,0,0,0,.65.65.64.64,0,0,0,.46-.19.68.68,0,0,0,.19-.46q.24-2.54.52-5.09a.69.69,0,0,0-.21-.5.71.71,0,0,0-.5-.21.7.7,0,0,0-.5.21"/><path class="cls-9" d="M326.46,387.15c-.09,1.46-.17,2.92-.3,4.37a.45.45,0,0,0,.78.32.48.48,0,0,0,.13-.32c.07-.7.14-1.4.19-2.1l.14-2.27a.47.47,0,0,0-.95,0"/><path class="cls-9" d="M371.62,357.23a.77.77,0,0,0-.21.5c-.15,1.09-.29,2.18-.42,3.27s-.2,2.13-.22,3.2a.68.68,0,1,0,1.37,0c.13-2.17.41-4.32.7-6.47a.68.68,0,0,0-.21-.5.72.72,0,0,0-.5-.21.72.72,0,0,0-.51.21"/><path class="cls-9" d="M370.31,373.92c-.1,1.82-.18,3.64-.23,5.46a.62.62,0,1,0,1.24,0c.07-1.82.17-3.64.27-5.46a.64.64,0,0,0-.64-.64.65.65,0,0,0-.64.64"/><path class="cls-9" d="M370.25,385.72a.86.86,0,0,0-.42.54q-.33,2-.57,4c-.14,1.25-.25,2.5-.34,3.75a.89.89,0,0,0,.89.89.88.88,0,0,0,.63-.26.92.92,0,0,0,.26-.63c.14-1.59.32-3.18.5-4.76.13-.83.25-1.67.39-2.5a1,1,0,0,0-.09-.7.91.91,0,0,0-.54-.41.87.87,0,0,0-.24,0,.9.9,0,0,0-.46.12"/><path class="cls-9" d="M518.88,360.63c-.07,1.38-.14,2.75-.19,4.13a.64.64,0,1,0,1.27,0q.12-2.06.23-4.13a.66.66,0,0,0-1.31,0"/><path class="cls-9" d="M517.86,374.87a1,1,0,0,0-.26.62c-.13,1.13-.29,2.26-.37,3.39s-.12,2.41-.14,3.62a.76.76,0,0,0,1.3.54.79.79,0,0,0,.22-.54c.2-2.34.46-4.68.74-7a.83.83,0,0,0-.26-.62.87.87,0,0,0-1.23,0"/><path class="cls-9" d="M517.09,387.1a.8.8,0,0,0-.38.5c-.14,1-.3,2.09-.37,3.14s-.1,2.36-.11,3.54a.82.82,0,1,0,1.64,0c0-1.12.06-2.24.13-3.36.05-.84.15-1.68.26-2.52,0-.12,0-.23,0-.35a.88.88,0,0,0-.08-.64.82.82,0,0,0-.49-.38.84.84,0,0,0-.22,0,.82.82,0,0,0-.42.11m1.19,1.13s0,.09,0,.13l0-.13"/><path class="cls-9" d="M562.3,357.25a.92.92,0,0,0-.25.6c-.16,1.21-.31,2.41-.44,3.62a32.33,32.33,0,0,0-.14,3.45.8.8,0,1,0,1.61,0,69.47,69.47,0,0,1,.67-7.07.8.8,0,0,0-.25-.6.84.84,0,0,0-1.2,0"/><path class="cls-9" d="M561.8,371.36a.87.87,0,0,0-.24.58c-.23,2.28-.4,4.56-.63,6.85a.76.76,0,0,0,.56.74.78.78,0,0,0,.59-.08.72.72,0,0,0,.35-.46c.17-1.23.33-2.45.45-3.69s.21-2.24.32-3.36a.78.78,0,0,0-.24-.58.81.81,0,0,0-.58-.24.82.82,0,0,0-.58.24"/><path class="cls-9" d="M562.18,385.87a.81.81,0,0,0-.22.52c-.33,2.85-.65,5.7-1,8.54v-.08l0,.24v0c0,.33-.09.66-.13,1l0-.18c0,.28-.08.56-.12.84a.74.74,0,0,0,.07.52.66.66,0,0,0,.4.31.68.68,0,0,0,.52-.07.64.64,0,0,0,.31-.4c.59-3.53,1-7.09,1.41-10.65a.71.71,0,0,0-.22-.52.73.73,0,0,0-1,0m-1.26,9.29v0m0-.13v0"/><path class="cls-9" d="M56.48,267a12.31,12.31,0,0,0-2.74,3l-1,1.36a3.13,3.13,0,0,0-2,1c-1.83,2-3.67,4.09-5.48,6.16-.75.85-1.48,1.72-2.22,2.59-.37.44-.72.91-1.08,1.37l-1,1.32a8.15,8.15,0,0,0-1,2.22,3.41,3.41,0,0,0,.35,2.7,3.49,3.49,0,0,0,3,1.73,7.57,7.57,0,0,0,1.46-.14,5.51,5.51,0,0,0,2-1.16q1.09-.95,2.12-2c.69-.7,1.32-1.44,2-2.17,1.07-1.2,2.06-2.49,3.06-3.75s2-2.56,3.08-3.82c.58-.69,1.15-1.4,1.76-2.09A41.81,41.81,0,0,1,61,279.61a62,62,0,0,1,3.24,10.81A4,4,0,0,0,71,292.2a3.85,3.85,0,0,0,1.18-2.86,83.82,83.82,0,0,0-1.46-8.88c-.13-.58-.35-1.15-.53-1.71a26.94,26.94,0,0,0-1.92-4.46,29.33,29.33,0,0,0-2.91-4.4,11.73,11.73,0,0,0-3.43-3.12,5.24,5.24,0,0,0-5.41.21m4.17,11.88.15.37-.15-.37"/></g></g></svg>