<svg xmlns="http://www.w3.org/2000/svg" viewBox="0 0 579.55 373.01"><defs><style>.cls-1{fill:#2c2c2c;}.cls-2,.cls-3{stroke:#000;stroke-miterlimit:10;}.cls-2{stroke-width:2px;}</style></defs><title>Asset 2cache</title><g id="Layer_2" data-name="Layer 2"><g id="Layer_1-2" data-name="Layer 1"><path class="cls-1" d="M203,169.68c-.2-3.13-.5-6.26-.75-9.39-.52-6.37-.61-12.77-.76-19.16-.15-6.21-.09-12.44.28-18.65,0-.27,0-.54.05-.82a10.59,10.59,0,0,1,.14-3.29c0-.12,0-.24,0-.36a11.09,11.09,0,0,1,.24-1.94l.06-.92a5.1,5.1,0,0,1,.09-1.34l.16-2.3-.35-.32a12.28,12.28,0,0,1-2.45-3,14.62,14.62,0,0,1-1.11-1.76c-.12,1.69-.26,3.37-.39,5-.5,6.28-1.07,12.55-1.29,18.84-.24,6.53-.19,13.07-.11,19.61,0,3,.13,6.09.34,9.13s.49,6.36.67,9.55c.36,6.32.31,12.66.21,19s-.87,12.68-1.24,19c-.18,3.11-.4,6.21-.69,9.32s-.52,6.24-.66,9.37-.26,6.26-.36,9.39-.18,6.42-.15,9.64c.07,6.27.09,12.54.23,18.81.07,3.18.17,6.36.36,9.53s.42,6.12.49,9.18c0,1.58.08,3.17,0,4.75s-.15,3.13-.29,4.7c-.28,3.08-.62,6.15-1,9.22s-.8,6.35-.91,9.54c-.05,1.6-.12,3.22-.07,4.83s.13,3.29.21,4.93c.32,6.1.79,12.18,1.08,18.28.24,4.86.42,9.72.57,14.59s-.1,9.9.09,14.84a2.81,2.81,0,1,0,5.63,0c.16-3.31.15-6.64.22-10,.06-3,.07-6,0-9q-.27-9.29-.92-18.56c-.22-3.12-.46-6.24-.69-9.37s-.41-6-.35-9a90.87,90.87,0,0,1,.71-9.61c.39-3.1.81-6.22,1.1-9.33.14-1.55.33-3.1.37-4.66s.07-3,0-4.57c-.09-3.27-.28-6.54-.5-9.81-.43-6.25-.54-12.52-.6-18.78s-.23-12.43,0-18.64c.23-6.37.52-12.73,1-19.07.13-1.57.3-3.15.4-4.72s.19-3.29.26-4.93q.22-4.65.6-9.29c.26-3.3.43-6.59.49-9.9.05-3.09,0-6.19-.06-9.29S203.17,172.79,203,169.68Z"/><path class="cls-1" d="M235.61,133.91q-.31-4.82-.48-9.64c-.11-3.23-.1-6.46-.08-9.69,0-5.2.13-10.4.34-15.59a9.41,9.41,0,0,0-1.49-2.39,8.62,8.62,0,0,0-2.07-1.67c0,.22,0,.44,0,.66-.22,3.22-.37,6.43-.5,9.65-.26,6.34-.52,12.69-.46,19,.07,6.59.44,13.18.53,19.77.09,6.31.11,12.62,0,18.93s-.24,12.85-.32,19.27,0,12.66-.31,19c-.18,3.31-.36,6.61-.57,9.92-.19,3.05-.57,6.09-.84,9.14-.28,3.26-.5,6.52-.61,9.79s-.17,6.36,0,9.54.33,6.46.43,9.69.17,6.56.23,9.83q.17,9.69-.09,19.38c-.08,3.13-.21,6.27-.33,9.4s-.28,6.29-.53,9.43c-.27,3.39-.55,6.78-.77,10.17-.2,3.18-.21,6.37-.26,9.55-.08,6.46,0,12.94-.37,19.39-.14,2.4-.39,4.79-.61,7.18s-.38,4.84-.52,7.25c-.13,2.27-.1,4.52,0,6.78.08,2.42.13,4.84.39,7.24l.12.89a3.35,3.35,0,0,0,5.6,1.48,3.48,3.48,0,0,0,1-2.37c.22-3.15,0-6.3-.1-9.45s0-6.18.24-9.27c.2-3.25.52-6.5.68-9.75s.19-6.51.17-9.77-.05-6.42-.05-9.62,0-6.37.12-9.55c.16-3.4.4-6.78.64-10.17.23-3.14.37-6.29.46-9.43s.21-6.27.27-9.4c.06-3.32.07-6.65.08-10,0-6.41-.2-12.83-.44-19.24-.12-3.23-.33-6.46-.5-9.69s-.14-6.36-.07-9.54.25-6.53.5-9.79c.22-3.05.56-6.09.71-9.14q.24-5,.43-9.92c.13-3.19.13-6.39.14-9.59q0-9.57.11-19.15c.07-6.4.21-12.79.1-19.19S236,140.36,235.61,133.91Z"/><path class="cls-1" d="M210.58,363.9a17.55,17.55,0,0,0-2.88.56,18.76,18.76,0,0,0-2.7,1.07,21.87,21.87,0,0,0-2.49,1.38,2.64,2.64,0,0,0-.72.67h-.13l-1.16.07a8.49,8.49,0,0,0-1,.11,4.1,4.1,0,0,0-1.25.46,2.11,2.11,0,0,0-1,1.82,2.14,2.14,0,0,0,1.55,2,10.13,10.13,0,0,0,1.52.37c.57.08,1.14.13,1.72.17l.45.18a1.79,1.79,0,0,0,.88.19,8,8,0,0,0,1.09,0l1.39,0c.76,0,1.52-.07,2.28-.11l5.68-.27H214l4.71-.1,2.94,0,1.52,0h.7a6,6,0,0,0,1.89-.15,2.43,2.43,0,0,0,1.3-.93,8.41,8.41,0,0,0,1.55-.39,2.6,2.6,0,0,0,1.78-1.78,2.55,2.55,0,0,0-.66-2.48,4,4,0,0,0-.52-.57,4.18,4.18,0,0,0-1.44-.81,13.05,13.05,0,0,0-2.05-.43c-1.39-.24-2.8-.42-4.21-.56s-2.56-.27-3.85-.36-2.82-.19-4.23-.19a26,26,0,0,0-2.81.14"/><path class="cls-1" d="M148.91,200.72a2.6,2.6,0,0,0-1.62,1.25,2.91,2.91,0,0,0-.28,2.1c.34,2,2.35,2.85,3.93,3.7.87.47,1.79.84,2.69,1.23q1,.43,2,.83l-.48,0c-2.43.14-4.86.3-7.29.46-3.56-.05-7.13-.06-10.69-.08-2.78-.19-5.57-.43-8.36-.56-1.42-.07-2.85-.14-4.28-.16l-2,0H122a9.91,9.91,0,0,0-3.25.34,2.33,2.33,0,0,0-1.68,2.2,2.27,2.27,0,0,0,1.68,2.2c.95.16,1.89.32,2.84.39s2.06.07,3.08.07a2.06,2.06,0,0,0,1,.71,10.28,10.28,0,0,0,3.6.11l2.23-.11,4-.22,1.19-.07q3.72-.11,7.44-.14l1.92.08c2.89.09,5.78.24,8.66.25,1.94,0,3.89.05,5.84,0-1.59.88-3.26,1.65-4.89,2.41-2,1-4.1,1.88-6.12,2.88a3.18,3.18,0,0,0-1.5,2,3.27,3.27,0,0,0,2.29,4l.87.12a3.32,3.32,0,0,0,1.65-.44c2.49-1.08,4.89-2.35,7.31-3.59,1-.53,2-1.09,3.07-1.63a22.71,22.71,0,0,0,4.46-3.09,7.75,7.75,0,0,0,1.41-1.82,4.84,4.84,0,0,0,.49-3.32,6.71,6.71,0,0,0-2.64-3.73c-.66-.53-1.32-1.05-2-1.55l-.43-.31a3.74,3.74,0,0,0-.89-.84,17.12,17.12,0,0,0-2.44-1.36c-.87-.53-1.76-1-2.65-1.53a36.37,36.37,0,0,0-4.14-1.91,23.83,23.83,0,0,0-2.3-.79l-.46-.11-1.19-.16c-.54,0-1.08.11-1.62.19"/><path class="cls-1" d="M133.38,250.79a15.11,15.11,0,0,0-1.75.39l-.88.23a8.35,8.35,0,0,0-3.66,1.18l-1,.38a27,27,0,0,0-4,1.86,14,14,0,0,0-1.91,1.4,10.86,10.86,0,0,0-2.16,2.48q-.29.59-.53,1.21a5.72,5.72,0,0,0,.55,5,6.09,6.09,0,0,0,.51.75,15,15,0,0,0,1.13,1.38,15.27,15.27,0,0,0,2,1.72,33.83,33.83,0,0,0,7.29,3.93c2.7,1.15,5.41,2.21,8.15,3.23a3.2,3.2,0,0,0,2.47-5.85c-1.74-.91-3.5-1.75-5.28-2.57a68.32,68.32,0,0,1-7.66-3.78H128l3.58,0c3.17,0,6.34-.12,9.51-.17,6.21-.08,12.42-.07,18.63-.11,2.65,0,5.32,0,8-.12a2.55,2.55,0,0,0,.68-5,6.8,6.8,0,0,0-.81-.18,2.16,2.16,0,0,0-1.79-.88q-3.47.15-6.95.24l-.83-.05c-3.23-.2-6.45-.37-9.68-.41-3,0-6,0-9.06.1-1.6.07-3.21.09-4.8.22l.8-.3.59-.22a5.14,5.14,0,0,0,1.81-1.09,3,3,0,0,0-1.3-4.93,5.89,5.89,0,0,0-1.17-.19c-.6,0-1.19.12-1.78.21"/><path class="cls-1" d="M233.9,96.6c-2-2.22-5-3.1-7.91-3.43-1,0-2-.08-2.87-.17-.55,0-1.1.08-1.66.16a50.07,50.07,0,0,0-9.22,2.33,30.09,30.09,0,0,0-7.49,3.83,20.41,20.41,0,0,0-5.72,6.33c-.31.51-.6,1-.87,1.56s-.54,1.16-.78,1.76a5.76,5.76,0,0,0,0,3.25,2.25,2.25,0,0,0,.17.51l-.09.38a15.79,15.79,0,0,0-.41,3.56,5.24,5.24,0,0,0,1.15,3.63,3.66,3.66,0,0,0,1.48.87,3.09,3.09,0,0,0,2.11-.21,10.12,10.12,0,0,1,.2-2.6c0-.1,0-.21,0-.31a11.22,11.22,0,0,1,.32-2.38,5.28,5.28,0,0,1,.09-2,7.54,7.54,0,0,1,2.19-3.69A14.44,14.44,0,0,1,210,104.1c4.61-3,10.73-6.08,16.36-6.09a4.55,4.55,0,0,1,4.56,3.25,3.1,3.1,0,0,0,3.07.82,3.05,3.05,0,0,0,1.89-1.45l.1-.23A11.17,11.17,0,0,0,233.9,96.6Z"/><path class="cls-1" d="M180.89,7.37a2.34,2.34,0,0,0-.72,1.72,35.58,35.58,0,0,1,.33,3.77c0,.64,0,1.29,0,1.93s-.08,1.49-.11,2.23c-.12,2.54-.52,5.07-.79,7.6-.13,1.16-.23,2.33-.32,3.5,0,.61-.08,1.22-.1,1.84a10.51,10.51,0,0,0,.14,2.16,4.53,4.53,0,0,0,1.33,2.47c1.25,1.26,3.2,1.38,4.85,1.33a21.38,21.38,0,0,0,2.91-.29,17.39,17.39,0,0,0,2.77-.64,28.56,28.56,0,0,0,2.93-1.27,2.37,2.37,0,0,0-1.83-4.34,28.36,28.36,0,0,1-3.9.91,24.85,24.85,0,0,1-4.07.31,37.33,37.33,0,0,1,.22-5.29c.14-1.8.34-3.6.54-5.39.09-.86.14-1.72.22-2.59,0-.38,0-.77.05-1.15s.06-.94.05-1.4c0-.86,0-1.73-.07-2.59-.08-1-.18-2.05-.3-3.08a2.62,2.62,0,0,0-.72-1.72,2.43,2.43,0,0,0-3.44,0m3.53,23.75.13.32a2.27,2.27,0,0,1-.13-.32"/><path class="cls-1" d="M199.36,11.65A2.94,2.94,0,0,0,198,13.85a9,9,0,0,0-1.15,1.35,5.78,5.78,0,0,0-.59,1.12,14.13,14.13,0,0,0-.6,1.57,13.9,13.9,0,0,0-.54,3.71,9.24,9.24,0,0,0,2,6.17A6,6,0,0,0,202.91,30a5.89,5.89,0,0,0,2.79-1.61,8,8,0,0,0,1.82-3.18,12.77,12.77,0,0,0,.58-3.09,13.8,13.8,0,0,0-.19-3.6,10.87,10.87,0,0,0-.7-2.48c-.21-.49-.41-1-.66-1.43a11.22,11.22,0,0,0-1.32-1.8,5.43,5.43,0,0,0-.74-.7,5.16,5.16,0,0,0-1.87-1.1,3.46,3.46,0,0,0-.92-.12,4.35,4.35,0,0,0-2.34.74m2.15,5.93h.06c.09.15.17.31.25.47a10.55,10.55,0,0,1,.46,1.68,14.29,14.29,0,0,1,0,2.48,11,11,0,0,1-.41,1.53l-.21.38c-.13-.12-.26-.25-.38-.38s-.24-.39-.35-.6a9.54,9.54,0,0,1-.3-1.11,12,12,0,0,1,0-2.08,11.13,11.13,0,0,1,.44-1.69,7.05,7.05,0,0,1,.34-.62l.07-.07m-.09,0-.21.17.21-.17m-.19.27-.08.1.08-.1m.23,6.25.09,0-.09,0m.34,0-.06,0h0l.06,0m-.42.1.19,0h0l-.19,0m-.08.23-.3.13.3-.13"/><path class="cls-1" d="M218.27,6.85a5.1,5.1,0,0,0-2.19,1.06A10.56,10.56,0,0,0,213,12.08a21.9,21.9,0,0,0-1.5,4.84,20.23,20.23,0,0,0-.42,5.55,8.48,8.48,0,0,0,.72,2.84,7.15,7.15,0,0,0,1.6,2.22C214.87,29,217.11,29,219,28.58a11.74,11.74,0,0,0,2.37-1,13.58,13.58,0,0,0,2.12-1.39c.95-.71,1.87-1.45,2.75-2.23a2.8,2.8,0,0,0-3.39-4.4,32.29,32.29,0,0,1-4.61,2.84,8.32,8.32,0,0,1-1.21.37H217l-.09-.1c-.08-.12-.15-.25-.22-.38-.09-.29-.17-.57-.23-.87a17.88,17.88,0,0,1,.05-3.64,19.65,19.65,0,0,1,1-3.94,11.75,11.75,0,0,1,1-1.73,7,7,0,0,1,.54-.54l.19-.11.27-.07h.84a2.36,2.36,0,0,0,0-4.72,12.77,12.77,0,0,0-2.07.15m-1.16,16,.25,0-.25,0"/><path class="cls-1" d="M232.39,4.09a2.75,2.75,0,0,0-1,.52,3,3,0,0,0-1.67.83,3.16,3.16,0,0,0-.86,2.07c-.19,1.66-.42,3.3-.64,5,0-.26.07-.52.1-.78-.36,2.1-.72,4.2-1.11,6.29a74.56,74.56,0,0,0-1.43,9,2.84,2.84,0,0,0,.85,2.06,2.92,2.92,0,0,0,2.84.75,3.14,3.14,0,0,0,1-.38,3.65,3.65,0,0,0,1.2-1.25,8.28,8.28,0,0,0,.5-1.27,8.9,8.9,0,0,0,.22-1.48c.27-1.78.48-3.55.62-5.34l.18-2.3,0-.25c.28-1.68.61-3.36.83-5l0-.17c.6,2,1,4,1.44,6.06.44,2.2.64,4.43,1.25,6.6a3.09,3.09,0,0,0,5.65.74,3.24,3.24,0,0,0,.31-2.38,70,70,0,0,0-2-7.28c-.42-1.31-.87-2.6-1.33-3.91a37.71,37.71,0,0,0-1.56-3.72,9.55,9.55,0,0,0-3.23-4,2.79,2.79,0,0,0-1.49-.4,2.9,2.9,0,0,0-.76.1"/><path class="cls-1" d="M238,15.42c-1.28.45-2.56.91-3.85,1.33-1.46.47-2.92.9-4.4,1.31a2.89,2.89,0,1,0,1.53,5.57c1.42-.39,2.82-.82,4.21-1.31s2.66-1,4-1.53a3,3,0,0,0,1.66-1.28,2.79,2.79,0,0,0,.28-2.14,2.9,2.9,0,0,0-2.67-2.07,2.26,2.26,0,0,0-.75.13"/><path class="cls-1" d="M244.95,3.28c-.17,4.25,0,8.53,0,12.79,0,.88,0,1.75,0,2.63,0,.59,0,1.17,0,1.75,0,1.37-.1,3,.63,4.19a9,9,0,0,0,1,1.31,4.72,4.72,0,0,0,2.29,1.22,8.13,8.13,0,0,0,5-.7,36.72,36.72,0,0,0,4.09-2,3.11,3.11,0,0,0-2.4-5.69l-2,.65c-.61.2-1.22.41-1.84.61,0-1.09,0-2.18-.07-3.27,0-1.3,0-2.6-.07-3.9-.06-3.19-.18-6.39,0-9.57a3.28,3.28,0,0,0-6.57,0"/><path class="cls-1" d="M175.93,47.45a11.41,11.41,0,0,0-1.52,1.46,8.35,8.35,0,0,0-1.24,2,14.85,14.85,0,0,0-1.22,5.44,11.11,11.11,0,0,0,1.18,5.32,7.22,7.22,0,0,0,.48.79,4.6,4.6,0,0,0,.94,1.08,2.19,2.19,0,0,0,.69.46,7.06,7.06,0,0,0,.79.32,5.06,5.06,0,0,0,1.46.19,6.49,6.49,0,0,0,2.7-.71,12,12,0,0,0,2.56-1.61,20.7,20.7,0,0,0,3.75-3.88c1-1.3,1.91-2.65,2.81-4a2,2,0,0,0-1.71-3,1.89,1.89,0,0,0-1.4.58A43.27,43.27,0,0,1,180,58.76l-.78.56A7.44,7.44,0,0,1,178,60c-.2.07-.4.13-.61.19h-.3l-.19-.21a7.8,7.8,0,0,1-.59-1,9.53,9.53,0,0,1-.47-1.71,12.58,12.58,0,0,1,0-2.36,13.06,13.06,0,0,1,.63-2.35,7.32,7.32,0,0,1,.62-1.1,11.49,11.49,0,0,1,1.41-1.34,1.78,1.78,0,0,0,.54-1.31,1.85,1.85,0,0,0-1.86-1.86,2,2,0,0,0-1.32.54m0,7,0,.22,0-.22m1.23,5.73.2.08-.2-.08"/><path class="cls-1" d="M192.23,41.95a4.27,4.27,0,0,0-1.15.16,3.17,3.17,0,0,0-1.18.75,2.89,2.89,0,0,0-.6.83l-.24.22a3,3,0,0,0-.84,2q-.11,1.39-.22,2.77c-.07.56-.12,1.13-.16,1.69-.06.93-.13,1.87-.18,2.8l-.12,1.58c-.11,1.54-.23,3.08-.33,4.62a42.91,42.91,0,0,0-.2,4.42,2.8,2.8,0,0,0,5.5.75,20.37,20.37,0,0,0,.32-3.84q.06-.66.11-1.32.17-2.31.34-4.62.16-2.08.31-4.16c1.12,3.16,2,6.4,3.06,9.57a2.55,2.55,0,1,0,4.91-1.35c-.81-2.48-1.76-4.91-2.69-7.35-.63-1.65-1.3-3.3-2-4.91a11.34,11.34,0,0,0-2.46-3.73,3.26,3.26,0,0,0-2.11-.9h0"/><path class="cls-1" d="M199,50.35c-1.65.46-3.3.93-4.93,1.45-.8.26-1.63.48-2.42.78-1,.38-2,.75-3,1.15a2.48,2.48,0,0,0-1.35,1,2.26,2.26,0,0,0,.81,3.09,2.16,2.16,0,0,0,1.74.23c3.35-1.38,6.8-2.47,10.23-3.61a2.14,2.14,0,0,0-.58-4.2,2.06,2.06,0,0,0-.56.08"/><path class="cls-1" d="M210.3,39.87c-2,.2-3.38,1.86-4.22,3.57a17.27,17.27,0,0,0-1.55,5.3,12.55,12.55,0,0,0-.14,2.88,9.37,9.37,0,0,0,.72,2.9,7.49,7.49,0,0,0,4.29,3.9,13.68,13.68,0,0,0,2.93.66c.37,0,.73.08,1.1.09a9,9,0,0,0,1.83-.19,7.65,7.65,0,0,0,1.2-.36,16.27,16.27,0,0,0,1.75-.75c.51-.25,1-.54,1.51-.81.73-.4,1.45-.8,2.16-1.25a2.52,2.52,0,0,0-2.55-4.36c-1.24.72-2.55,1.38-3.85,2a10.73,10.73,0,0,1-1.62.49,9.21,9.21,0,0,1-1.35,0,11.88,11.88,0,0,1-1.81-.41,7.41,7.41,0,0,1-.71-.42,7.33,7.33,0,0,1-.53-.53c-.1-.17-.2-.33-.28-.5a9.33,9.33,0,0,1-.33-1.21,13.86,13.86,0,0,1,.06-2.62,17.16,17.16,0,0,1,.79-3.05,8.32,8.32,0,0,1,.66-1.17,4.35,4.35,0,0,1,.34-.34h.06c.44.21.86.45,1.29.68a1.86,1.86,0,0,0,1.88-3.21,7.27,7.27,0,0,0-3.31-1.27l-.3,0m.85,3.67-.25,0,.25,0m-.65.16-.05,0,.05,0"/><path class="cls-1" d="M222.93,37.91a1.2,1.2,0,1,0,1.19-1.19,1.21,1.21,0,0,0-1.19,1.19"/><path class="cls-1" d="M220.93,35.86a2.79,2.79,0,0,0-.79,1.9C220,39.38,220,41,220,42.63v2.47c0,.9.09,1.81.13,2.7.07,1.38.18,2.76.36,4.13a38.25,38.25,0,0,0,1,5.56,2.63,2.63,0,0,0,4.8.63,2.86,2.86,0,0,0,.27-2c0-.24-.07-.48-.11-.71l.09.71c-.2-1.5-.41-3-.61-4.49-.1-1-.25-2-.3-2.95q-.1-1.78-.2-3.55c-.07-1.18,0-2.38,0-3.57s.1-2.52.18-3.78a2.69,2.69,0,0,0-4.6-1.9"/><path class="cls-1" d="M230.75,33.61A3.37,3.37,0,0,0,228.92,35a4.62,4.62,0,0,0-.82,3.09c.05,1.06.23,2.12.38,3.17q.13,1,.23,2.06c-.14.24-.28.46-.43.69a9.86,9.86,0,0,1-.71.71,14.34,14.34,0,0,1-2,1.15,41.69,41.69,0,0,1-5.41,1.5,3.19,3.19,0,0,0,1.7,6.14c1.22-.28,2.44-.56,3.64-.89A24.86,24.86,0,0,0,229,51.31l.15-.07a25.91,25.91,0,0,0,.61,4.76,4,4,0,0,0,7.3,1,4.28,4.28,0,0,0,.4-3.08c-.06-.36-.12-.72-.17-1.08-.3-2.44-.64-4.86-1-7.29-.16-1-.38-2-.6-2.92a11.64,11.64,0,0,0,.14-3.1,12.39,12.39,0,0,0-.64-3.06,7.86,7.86,0,0,0-.53-1.23,3.54,3.54,0,0,0-1.43-1.29,3.18,3.18,0,0,0-1.56-.42,3,3,0,0,0-.8.11m-2.21,8,0,.18,0-.18"/><path class="cls-1" d="M242.77,36.13a10.38,10.38,0,0,0-1.41,4.3,18.73,18.73,0,0,0,.15,4.35,15.72,15.72,0,0,0,1.28,4.95,10.79,10.79,0,0,0,1.3,2,9.87,9.87,0,0,0,2.07,1.88,10,10,0,0,0,2.17,1,9.61,9.61,0,0,0,2.52.48,9.78,9.78,0,0,0,2.63-.2,10.6,10.6,0,0,0,2.11-.65c1-.37,2-.85,3-1.29.66-.29,1.3-.6,1.93-.94a3.41,3.41,0,0,0-.82-6.23,3.59,3.59,0,0,0-2.62.34c-.46.22-.93.43-1.39.64a21.82,21.82,0,0,1-4,1.41c-.31,0-.61,0-.91,0s-.54-.14-.8-.22l-.54-.3c-.15-.14-.3-.29-.44-.44a8.44,8.44,0,0,1-.5-.86,17.84,17.84,0,0,1-.69-2.79,15.56,15.56,0,0,1-.1-2.74,9,9,0,0,1,.22-.89c.1-.21.22-.42.34-.63A3.2,3.2,0,0,0,247.11,35a3.1,3.1,0,0,0-1.57-.43,3.23,3.23,0,0,0-2.76,1.56"/><path class="cls-1" d="M255.07,39.27c-.81.39-1.63.76-2.46,1.12-3,1.14-6.14,2.05-9.15,3.25A2.62,2.62,0,0,0,242,44.75a2.41,2.41,0,0,0,.87,3.3,2.34,2.34,0,0,0,1.86.24c2-.79,4-1.45,6-2.18l1.67-.61c.65-.23,1.27-.55,1.89-.83a27.22,27.22,0,0,0,3-1.62,2.19,2.19,0,0,0-.52-4,2.06,2.06,0,0,0-.55-.08,2.61,2.61,0,0,0-1.14.29"/><path class="cls-1" d="M259.89,29.46c-2.31.37-4.62.83-6.88,1.42-2.69.71-5.32,1.61-8,2.52A3.67,3.67,0,0,0,243,35a3.5,3.5,0,0,0,4,5.14c2.63-.92,5.26-1.83,7.93-2.61,2.24-.66,4.51-1.23,6.78-1.79a3.26,3.26,0,0,0,.78-6,3,3,0,0,0-1.57-.41,6,6,0,0,0-.94.09"/><path class="cls-1" d="M547.13,173.26q-6.74.21-13.48.37t-13.39.24q-3.54.05-7.08.19c-2.17.09-4.33.1-6.5.1-4.62,0-9.25,0-13.87.2-2.31.11-4.61.32-6.92.44s-4.57.28-6.85.47-4.48.34-6.73.47-4.22.3-6.34.42-4.45.25-6.68.3-4.44.1-6.66.23l-1.74.11a68.25,68.25,0,0,1-6.82.93,23.3,23.3,0,0,1-3.71-.08,26.8,26.8,0,0,0-3.38-.1c-2.13.12-4.26.14-6.39.2a15.23,15.23,0,0,1-1.45.48l-.71.17a7.35,7.35,0,0,0-1,1.62,11.41,11.41,0,0,0-.82,3.48c-.07.62-.12,1.23-.16,1.85-.08,1.15-.06,2.31-.06,3.46s0,2,0,3.05,0,2.27-.05,3.4,0,2.39,0,3.58c0,2.12,0,4.23.07,6.35a31.9,31.9,0,0,0,.2,4.47,8.76,8.76,0,0,0,1.9,4.2,9.26,9.26,0,0,0,1.66,1.48,10.81,10.81,0,0,0,2.5,1.25,25.68,25.68,0,0,0,6.68,1.36c1.06.13,2.15.16,3.22.19,2.26.07,4.52,0,6.78-.06s4.52-.12,6.78-.19c4.66-.13,9.32-.25,14-.31s9.13-.19,13.68-.43,8.94-.37,13.42-.39c9.2,0,18.39,0,27.59,0l6.52,0c2.28,0,4.56-.06,6.84,0,4.6.07,9.2.34,13.8.37q3.43,0,6.87,0c2.22,0,4.45-.16,6.67-.29a20.79,20.79,0,0,0,3.71-.55,11.11,11.11,0,0,0,1.52-.51,9,9,0,0,0,1.46-.69,7.59,7.59,0,0,0,1.71-1.61,21.66,21.66,0,0,0,3.08-4.32,26.32,26.32,0,0,0,1.29-3.43,17.73,17.73,0,0,0,.69-2.86,18.25,18.25,0,0,0,.12-3.54c-.1-2-.45-4.07-.75-6.08s-.37-3.82-.43-5.75c-.07-2.45.31-5-.29-7.41a7.4,7.4,0,0,0-.75-1.76,5.45,5.45,0,0,0-1.44-1.6,12.59,12.59,0,0,0-4.21-2.09,24.75,24.75,0,0,0-3.86-.76,66.15,66.15,0,0,0-6.75-.41c-2.2-.06-4.4-.08-6.6-.11-1.36,0-2.73,0-4.09,0-1,0-1.9,0-2.85,0m-33.56,5q3.39-.09,6.78-.12c9-.06,18.09-.25,27.14-.7,3.32-.17,6.66-.12,10-.12a79.9,79.9,0,0,1,9.49.36,22.4,22.4,0,0,1,4.18,1,11.05,11.05,0,0,1,1.66.94c.15.13.29.26.42.41s.17.29.25.43a6.58,6.58,0,0,1,.25.9,29.66,29.66,0,0,1,0,3.69c0,1.22-.05,2.44,0,3.66s.12,2.33.26,3.49.36,2.58.54,3.87c.12,1,.22,1.91.28,2.87a19.81,19.81,0,0,1,0,2.94,24,24,0,0,1-1.33,4.27,13.49,13.49,0,0,1-1.09,1.91,26.19,26.19,0,0,1-2.53,2.79,13.65,13.65,0,0,1-2.29.56c-1,.1-1.91.13-2.87.16l-3.25.1c-2.25.06-4.5,0-6.75,0-4.58,0-9.15-.2-13.73-.4-2.36-.11-4.73-.1-7.09-.11l-6.52,0q-6.91,0-13.82,0t-13.78,0c-4.44,0-8.9,0-13.33.3-2.34.13-4.68.27-7,.37s-4.45.15-6.68.21-4.39.09-6.59.14q-3.65.09-7.31.23l-10.26.38c-1.83.07-3.66.13-5.5.09-1,0-1.93-.06-2.9-.12-.77,0-1.52-.13-2.28-.22a20.26,20.26,0,0,1-3.85-1,9,9,0,0,1-1.22-.69,6.38,6.38,0,0,1-.52-.51,6.72,6.72,0,0,1-.48-.84,8.28,8.28,0,0,1-.36-1.33c-.11-1.08-.14-2.17-.2-3.25s-.11-2-.17-3.07c-.11-2.11-.26-4.21-.36-6.32s-.18-4.3-.28-6.46a41.62,41.62,0,0,1,0-6.69,8.28,8.28,0,0,1,.33-1.32,6.63,6.63,0,0,1,.48-.83,8,8,0,0,1,.6-.58,5.77,5.77,0,0,1,.78-.47,13.5,13.5,0,0,1,2.44-.53l2-.19,1-.06a1.84,1.84,0,0,0,1.76,2.33c1.11,0,2.21.08,3.31.08s2.08,0,3.12-.08c2.15-.11,4.3-.2,6.45-.31s4.49-.2,6.73-.28,4.46-.25,6.69-.42,4.33-.35,6.51-.46,4.39-.23,6.58-.38c2.35-.16,4.7-.28,7.06-.36s4.42-.22,6.63-.29c4.67-.16,9.35,0,14,0h2.43c1.41,0,2.81,0,4.22-.05m56.59,32.37a1.77,1.77,0,0,1-.27.21l.27-.21"/><path class="cls-1" d="M444.09,177.72a20.26,20.26,0,0,1-3.15,0q-.76.1-1.52.23l-1.7.3c-.49.06-1,.1-1.49.14-.66,0-1.33.07-2,.11s-1.33.11-2,.18a10.66,10.66,0,0,0-2.19.42.75.75,0,0,0-.54.75l-.41.16a1.14,1.14,0,0,0-.52,1.29,1.15,1.15,0,0,0,1.1.83,8.06,8.06,0,0,0,1.4-.23l.87-.16,1.65-.27c.41-.05.82-.1,1.22-.14l1.66-.11q1.53-.09,3.05-.24c1-.1,2-.23,3-.35.61-.07,1.23-.14,1.85-.22.24,0,.48-.06.72-.11s.57-.16.85-.24a1.31,1.31,0,0,0,.91-.93c.27,0,.55-.06.82-.1a1.48,1.48,0,0,0,.35-.08,1,1,0,0,0,.72-.94,1,1,0,0,0-.29-.69l-.06-.05c-1.44.21-2.87.38-4.3.5"/><path class="cls-1" d="M559.88,191.44a3,3,0,0,0-.47.14,4,4,0,0,0-1.29.39,3.37,3.37,0,0,0-.65.47,3.48,3.48,0,0,0-.42.44c-.29.36-.54.74-.81,1.12a1.45,1.45,0,0,0,1.22,2.17c0,.09.05.18.08.26a2.47,2.47,0,0,0,.21.62,3.19,3.19,0,0,0,1.06,1.22,2.07,2.07,0,0,0,.63.32,5.29,5.29,0,0,0,.79.13,1.6,1.6,0,0,0,.52,0h.38a3.07,3.07,0,0,0,1.58-.54,3,3,0,0,0,1.2-1.66,2.86,2.86,0,0,0,.1-1,3.74,3.74,0,0,0,.2-1,2.91,2.91,0,0,0-.47-1.58,2.62,2.62,0,0,0-1.11-1,3,3,0,0,0-1.08-.28,2.19,2.19,0,0,0-.47-.16,2.31,2.31,0,0,0-.6-.07,2.94,2.94,0,0,0-.59.06"/><path class="cls-1" d="M546.68,219.2q-6.74.21-13.48.37t-13.39.24q-3.54.05-7.08.19c-2.17.09-4.33.1-6.5.1-4.62,0-9.25,0-13.87.2-2.31.11-4.61.32-6.92.44s-4.57.28-6.85.47-4.48.34-6.73.47-4.22.3-6.34.42-4.45.25-6.68.3-4.44.1-6.66.23l-1.74.11a67.91,67.91,0,0,1-6.82.93,23.29,23.29,0,0,1-3.71-.08,26.8,26.8,0,0,0-3.38-.1c-2.13.12-4.26.14-6.39.2a15,15,0,0,1-1.45.48l-.71.17a7.35,7.35,0,0,0-1,1.62,11.41,11.41,0,0,0-.82,3.48c-.07.62-.12,1.23-.16,1.85-.08,1.15-.06,2.31-.06,3.46s0,2,0,3.05,0,2.27-.05,3.4,0,2.39,0,3.58c0,2.12,0,4.23.07,6.35a31.9,31.9,0,0,0,.2,4.47,8.76,8.76,0,0,0,1.9,4.2,9.3,9.3,0,0,0,1.67,1.48,10.79,10.79,0,0,0,2.5,1.25,25.68,25.68,0,0,0,6.68,1.36c1.06.13,2.15.16,3.22.19,2.26.07,4.52,0,6.78-.06s4.52-.12,6.78-.18c4.66-.13,9.32-.25,14-.31s9.13-.19,13.68-.43,8.94-.37,13.42-.39c9.2,0,18.39,0,27.59,0l6.51,0c2.28,0,4.57-.06,6.84,0,4.6.07,9.2.34,13.8.37q3.43,0,6.87,0c2.22,0,4.45-.16,6.67-.29a20.7,20.7,0,0,0,3.71-.55,11.16,11.16,0,0,0,1.52-.51,9,9,0,0,0,1.46-.69,7.55,7.55,0,0,0,1.71-1.61,21.63,21.63,0,0,0,3.08-4.31,26.32,26.32,0,0,0,1.29-3.43,17.73,17.73,0,0,0,.69-2.86,18.25,18.25,0,0,0,.12-3.54c-.1-2-.45-4.07-.75-6.08s-.37-3.82-.43-5.75c-.07-2.45.31-5-.29-7.41a7.46,7.46,0,0,0-.75-1.77,5.45,5.45,0,0,0-1.44-1.6,12.58,12.58,0,0,0-4.21-2.09,24.75,24.75,0,0,0-3.86-.76,66.19,66.19,0,0,0-6.75-.41c-2.2-.06-4.4-.08-6.6-.11-1.36,0-2.73,0-4.09,0-1,0-1.9,0-2.85,0m-33.56,5q3.39-.09,6.78-.12c9-.06,18.09-.25,27.14-.7,3.32-.17,6.66-.12,10-.12a79.9,79.9,0,0,1,9.49.36,22.4,22.4,0,0,1,4.18,1,11.05,11.05,0,0,1,1.66.94c.15.13.29.26.42.41s.17.29.25.43a6.44,6.44,0,0,1,.25.9,29.85,29.85,0,0,1,0,3.69c0,1.22-.05,2.44,0,3.66s.12,2.33.26,3.49.36,2.58.55,3.87c.12,1,.22,1.91.28,2.87a19.81,19.81,0,0,1,0,2.94,24,24,0,0,1-1.33,4.27,13.53,13.53,0,0,1-1.09,1.91,26.19,26.19,0,0,1-2.53,2.79,13.67,13.67,0,0,1-2.29.56c-1,.1-1.91.13-2.87.16l-3.25.1c-2.25.06-4.5,0-6.75,0-4.58,0-9.15-.2-13.73-.4-2.36-.11-4.73-.1-7.09-.11l-6.52,0q-6.91,0-13.82,0t-13.78,0c-4.44,0-8.9,0-13.34.3-2.34.13-4.68.27-7,.37s-4.45.15-6.68.21-4.39.09-6.59.14q-3.66.09-7.31.23l-10.26.38c-1.83.07-3.66.13-5.5.09-1,0-1.93-.06-2.9-.12-.77,0-1.52-.13-2.28-.22a20.26,20.26,0,0,1-3.85-1,8.94,8.94,0,0,1-1.22-.69,6.53,6.53,0,0,1-.52-.51,6.68,6.68,0,0,1-.48-.84,8.18,8.18,0,0,1-.36-1.33c-.11-1.08-.14-2.17-.2-3.25s-.11-2-.17-3.07c-.11-2.11-.26-4.21-.36-6.32s-.18-4.3-.28-6.46a41.74,41.74,0,0,1,0-6.69,8.38,8.38,0,0,1,.33-1.32,6.76,6.76,0,0,1,.48-.83,8,8,0,0,1,.6-.58,5.77,5.77,0,0,1,.78-.47,13.5,13.5,0,0,1,2.44-.53c.67-.07,1.33-.14,2-.19l1-.06a1.83,1.83,0,0,0-.07.5,1.85,1.85,0,0,0,1.83,1.83c1.11,0,2.21.08,3.31.08s2.08,0,3.12-.08c2.15-.11,4.3-.2,6.45-.31s4.49-.2,6.73-.28,4.46-.25,6.69-.42,4.33-.35,6.5-.46,4.39-.23,6.58-.38c2.35-.16,4.7-.28,7.06-.36s4.42-.22,6.63-.29c4.67-.16,9.35,0,14,0h2.43c1.41,0,2.81,0,4.22-.05m56.59,32.37a1.77,1.77,0,0,1-.27.21l.27-.21"/><path class="cls-1" d="M443.64,223.66a20.14,20.14,0,0,1-3.15,0q-.76.1-1.52.23l-1.7.3c-.49.06-1,.1-1.49.14-.66,0-1.33.07-2,.11s-1.33.11-2,.18a10.66,10.66,0,0,0-2.19.42.76.76,0,0,0-.54.75l-.41.16a1.14,1.14,0,0,0-.52,1.29,1.15,1.15,0,0,0,1.1.83,8.06,8.06,0,0,0,1.4-.23l.87-.16,1.65-.27c.41-.05.82-.1,1.22-.14l1.66-.11q1.53-.09,3.05-.24c1-.1,2-.23,3-.35l1.85-.22c.24,0,.48-.06.72-.11s.57-.16.85-.24a1.31,1.31,0,0,0,.91-.93c.27,0,.55-.06.82-.1a1.46,1.46,0,0,0,.35-.08,1,1,0,0,0,.72-.94,1,1,0,0,0-.29-.69l-.06-.05c-1.44.21-2.87.38-4.3.5"/><path class="cls-1" d="M559.43,237.38a3.07,3.07,0,0,0-.47.14,4,4,0,0,0-1.29.39,4,4,0,0,0-1.07.91c-.29.36-.55.74-.81,1.11a1.45,1.45,0,0,0,1.22,2.17c0,.09.05.18.08.26a2.45,2.45,0,0,0,.21.62,3.2,3.2,0,0,0,1.06,1.22,2.07,2.07,0,0,0,.63.32,5.42,5.42,0,0,0,.79.14,1.63,1.63,0,0,0,.52,0h.38a3.06,3.06,0,0,0,1.58-.54,3,3,0,0,0,1.2-1.66,2.88,2.88,0,0,0,.1-1,3.7,3.7,0,0,0,.2-1,2.9,2.9,0,0,0-.47-1.58,2.62,2.62,0,0,0-1.11-1,3,3,0,0,0-1.08-.28,2.15,2.15,0,0,0-.47-.16,2.31,2.31,0,0,0-.6-.07,2.94,2.94,0,0,0-.59.06"/><path class="cls-1" d="M547.51,264.8q-6.74.21-13.48.37t-13.39.24q-3.54.05-7.08.19c-2.17.09-4.33.1-6.5.1-4.62,0-9.25,0-13.87.2-2.31.11-4.61.32-6.92.44s-4.57.28-6.85.47-4.48.34-6.73.47-4.22.3-6.34.42-4.45.25-6.68.3-4.44.1-6.66.23l-1.74.11a67.87,67.87,0,0,1-6.82.93,23.29,23.29,0,0,1-3.71-.08,26.8,26.8,0,0,0-3.38-.1c-2.13.12-4.26.14-6.39.2a15,15,0,0,1-1.45.48l-.71.17a7.35,7.35,0,0,0-1,1.62A11.41,11.41,0,0,0,427,275c-.07.62-.12,1.23-.16,1.85-.08,1.15-.06,2.31-.06,3.46s0,2,0,3.05,0,2.27-.05,3.4,0,2.39,0,3.58c0,2.12,0,4.23.07,6.35a31.9,31.9,0,0,0,.2,4.47,8.75,8.75,0,0,0,1.9,4.2,9.22,9.22,0,0,0,1.66,1.48,10.81,10.81,0,0,0,2.5,1.25,25.68,25.68,0,0,0,6.68,1.36c1.06.13,2.15.16,3.22.19,2.26.07,4.52,0,6.78-.06s4.52-.12,6.78-.18c4.66-.13,9.32-.25,14-.31s9.13-.19,13.68-.43,8.94-.37,13.42-.39c9.2,0,18.39,0,27.59,0l6.52,0c2.28,0,4.56-.06,6.84,0,4.6.07,9.2.34,13.8.37q3.43,0,6.87,0c2.22,0,4.45-.16,6.67-.29a20.7,20.7,0,0,0,3.71-.55,11.16,11.16,0,0,0,1.52-.51,9,9,0,0,0,1.46-.69,7.56,7.56,0,0,0,1.71-1.61,21.62,21.62,0,0,0,3.08-4.32,26.32,26.32,0,0,0,1.29-3.43,17.73,17.73,0,0,0,.69-2.86,18.25,18.25,0,0,0,.12-3.54c-.1-2-.45-4.07-.75-6.08s-.37-3.82-.43-5.75c-.07-2.45.31-5-.29-7.41a7.46,7.46,0,0,0-.75-1.77,5.47,5.47,0,0,0-1.44-1.6,12.58,12.58,0,0,0-4.21-2.09,24.87,24.87,0,0,0-3.86-.76,66.17,66.17,0,0,0-6.75-.41c-2.2-.06-4.4-.08-6.6-.11-1.36,0-2.73,0-4.09,0-1,0-1.9,0-2.85,0m-33.56,5q3.39-.09,6.78-.12c9-.06,18.09-.25,27.14-.7,3.32-.17,6.66-.12,10-.12a79.9,79.9,0,0,1,9.49.36,22.4,22.4,0,0,1,4.18,1,11.05,11.05,0,0,1,1.66.94c.15.13.29.26.42.41s.17.29.25.43a6.58,6.58,0,0,1,.25.9,29.66,29.66,0,0,1,0,3.69c0,1.22-.05,2.44,0,3.66s.12,2.33.26,3.49.36,2.58.55,3.87c.12,1,.22,1.91.28,2.87a19.81,19.81,0,0,1,0,2.94,24,24,0,0,1-1.33,4.27,13.53,13.53,0,0,1-1.09,1.91,26.09,26.09,0,0,1-2.53,2.79,13.67,13.67,0,0,1-2.29.56c-1,.1-1.91.13-2.87.16l-3.25.1c-2.25.06-4.5,0-6.75,0-4.58,0-9.15-.2-13.72-.4-2.36-.11-4.73-.1-7.09-.11l-6.52,0q-6.91,0-13.82,0t-13.78,0c-4.44,0-8.9,0-13.34.3-2.34.13-4.68.27-7,.37s-4.45.15-6.68.21-4.39.09-6.59.14q-3.65.09-7.31.23l-10.26.38c-1.83.07-3.66.13-5.5.09-1,0-1.93-.06-2.9-.12-.77,0-1.52-.13-2.28-.22a20.26,20.26,0,0,1-3.85-1,9,9,0,0,1-1.22-.69,6.53,6.53,0,0,1-.52-.51,6.68,6.68,0,0,1-.48-.84,8.28,8.28,0,0,1-.36-1.33c-.11-1.08-.14-2.17-.2-3.25s-.11-2-.17-3.07c-.11-2.11-.26-4.21-.36-6.32s-.18-4.3-.28-6.46a41.75,41.75,0,0,1,0-6.69,8.38,8.38,0,0,1,.33-1.32,6.76,6.76,0,0,1,.48-.83,8,8,0,0,1,.6-.58,5.77,5.77,0,0,1,.78-.47,13.5,13.5,0,0,1,2.44-.53c.67-.07,1.33-.14,2-.19l1-.06a1.8,1.8,0,0,0-.07.5,1.85,1.85,0,0,0,1.83,1.83c1.11,0,2.21.08,3.31.08s2.08,0,3.12-.08c2.15-.11,4.3-.2,6.45-.31s4.49-.2,6.73-.28,4.46-.25,6.69-.42,4.33-.35,6.51-.46,4.39-.23,6.58-.38c2.35-.16,4.7-.28,7.06-.36s4.42-.22,6.63-.29c4.67-.16,9.35,0,14,0h2.43c1.41,0,2.81,0,4.22-.05m56.59,32.37a1.77,1.77,0,0,1-.27.21l.27-.21"/><path class="cls-1" d="M444.46,269.26a20.14,20.14,0,0,1-3.15,0q-.76.1-1.52.23l-1.7.3c-.49.06-1,.1-1.49.14-.66,0-1.33.07-2,.11s-1.33.11-2,.18a10.66,10.66,0,0,0-2.19.42.75.75,0,0,0-.54.75l-.41.16a1.14,1.14,0,0,0-.52,1.29,1.15,1.15,0,0,0,1.1.83,8.06,8.06,0,0,0,1.4-.23l.87-.16L434,273c.41-.05.82-.1,1.22-.14l1.66-.11q1.53-.09,3.05-.24c1-.1,2-.23,3-.35l1.85-.22c.24,0,.48-.06.72-.11s.57-.16.85-.24a1.31,1.31,0,0,0,.91-.93c.27,0,.55-.06.82-.1a1.46,1.46,0,0,0,.35-.08,1,1,0,0,0,.72-.94,1,1,0,0,0-.29-.69l-.06-.05c-1.44.21-2.87.38-4.3.5"/><path class="cls-1" d="M560.26,283a3,3,0,0,0-.47.14,4,4,0,0,0-1.29.39,3.37,3.37,0,0,0-.65.47,3.48,3.48,0,0,0-.42.44c-.29.36-.54.74-.81,1.12a1.44,1.44,0,0,0,1.22,2.17c0,.09.05.18.08.26a2.46,2.46,0,0,0,.21.62,3.19,3.19,0,0,0,1.06,1.22,2.07,2.07,0,0,0,.63.32,5.29,5.29,0,0,0,.79.13,1.61,1.61,0,0,0,.52,0h.38a3.07,3.07,0,0,0,1.58-.54,3,3,0,0,0,1.2-1.66,2.9,2.9,0,0,0,.1-1,3.74,3.74,0,0,0,.2-1,2.91,2.91,0,0,0-.47-1.58,2.62,2.62,0,0,0-1.11-1,3,3,0,0,0-1.08-.28,2.19,2.19,0,0,0-.47-.16,2.29,2.29,0,0,0-.6-.07,2.94,2.94,0,0,0-.59.06"/><path class="cls-1" d="M457.29,138.73a4.5,4.5,0,0,0-1.94.86,3.75,3.75,0,0,0-1.36,1.85,5.11,5.11,0,0,0-.21,2,6.81,6.81,0,0,0,.74,2.34,17.41,17.41,0,0,0,1.07,2c.48.74,1,1.45,1.54,2.16a32.62,32.62,0,0,1,3,4.36,5.35,5.35,0,0,1,.2.65,5.64,5.64,0,0,1,0,.81,6.38,6.38,0,0,1-.22.88,7.9,7.9,0,0,1-.64,1.21,8.2,8.2,0,0,1-.77.85l-.21.14-.3.09-.43,0-.43-.11a5.07,5.07,0,0,1-.64-.34,5.42,5.42,0,0,1-.45-.44,6.75,6.75,0,0,1-.41-.65,6.13,6.13,0,0,1-.28-1,20.63,20.63,0,0,1-.22-3.15,1.49,1.49,0,0,0-2.58-1,1.61,1.61,0,0,0-.39,1.07,15.35,15.35,0,0,0,.08,3.39c.06.39.12.77.21,1.15a5.37,5.37,0,0,0,.53,1.29,4.84,4.84,0,0,0,.61.87,5.83,5.83,0,0,0,1.16,1.09,5,5,0,0,0,4.7.66,5.32,5.32,0,0,0,2-1.55,8,8,0,0,0,1.42-2.35,9.72,9.72,0,0,0,.38-1.14,6.05,6.05,0,0,0,.15-1.46,5.93,5.93,0,0,0-.16-1.21,5.61,5.61,0,0,0-.47-1.33,20,20,0,0,0-2-3.17l-1.39-1.84c-.31-.42-.62-.84-.92-1.27a16,16,0,0,1-1.32-2.22,7,7,0,0,1-.34-1,4.42,4.42,0,0,1,0-.63c0-.12,0-.25.08-.37h0l.19-.2.3-.2.46-.15h.41a5.06,5.06,0,0,1,.84.21,36.15,36.15,0,0,1,3.85,2,1.53,1.53,0,0,0,1.44-2.7,28,28,0,0,0-4.93-2.46,4.73,4.73,0,0,0-1.17-.18h-.23a4.81,4.81,0,0,0-.89.09m-.34,3.73h0m0,0h0l0,.07,0-.07"/><path class="cls-1" d="M466.61,146.49a15.88,15.88,0,0,0-.55,6.2,6.15,6.15,0,0,0,1.13,2.76,5.84,5.84,0,0,0,.46.53,4.29,4.29,0,0,0,.79.58,3.94,3.94,0,0,0,.74.35q.47.19.94.33a7.32,7.32,0,0,0,1.59.24,5.5,5.5,0,0,0,1.57-.18,10.16,10.16,0,0,0,2.92-1.35,25.68,25.68,0,0,0,2.26-1.46,1.69,1.69,0,0,0,.7-1,1.61,1.61,0,0,0-2.43-1.72,32.06,32.06,0,0,1-3.15,1.77,8,8,0,0,1-1.18.39,4.9,4.9,0,0,1-.63,0,7,7,0,0,1-1.07-.27,5,5,0,0,1-.58-.3l0,0a4.45,4.45,0,0,1-.26-.43,5.67,5.67,0,0,1-.23-.7,9.76,9.76,0,0,1,0-1.9,26.68,26.68,0,0,1,.55-3,1.81,1.81,0,0,0-1.34-2.15,1.76,1.76,0,0,0-.4,0,1.81,1.81,0,0,0-1.75,1.38"/><path class="cls-1" d="M478.13,147.42q-5.74,1.53-11.47,3.09a1.46,1.46,0,0,0-.94,1.82,1.47,1.47,0,0,0,1.82.94q5.73-1.57,11.44-3.17a1.42,1.42,0,0,0,.92-1.77,1.4,1.4,0,0,0-1.36-1,1.59,1.59,0,0,0-.41.05"/><path class="cls-1" d="M466.42,142.79a1.69,1.69,0,1,0,.13,3.38c4.11-.23,8.22-.5,12.33-.7a1.56,1.56,0,0,0-.12-3.13c-4.11,0-8.22.23-12.33.45"/><path class="cls-1" d="M483.91,140.25a2,2,0,0,0-1.89,2c.12,1.38.24,2.77.43,4.14s.36,2.55.52,3.82.31,2.49.45,3.74.3,2.67.36,4a1.74,1.74,0,0,0,3,1.11,1.89,1.89,0,0,0,.46-1.25,38.89,38.89,0,0,0-.36-7.76c-.15-1.26-.33-2.5-.51-3.75s-.31-2.8-.44-4.21a2,2,0,0,0-.63-1.37,2,2,0,0,0-1.34-.52h-.07"/><path class="cls-1" d="M488,140.41a4.87,4.87,0,0,0-.91.42,6.81,6.81,0,0,0-1,.76,1.48,1.48,0,0,0-.59.84,1.36,1.36,0,0,0,1,1.64,1.3,1.3,0,0,0,1-.18,8,8,0,0,1,1.1-.8,3.62,3.62,0,0,1,.44-.14l.44,0,.29.06.17.09h0l0,0,0,.13s0,0,0,0-.05.24-.09.36a4.13,4.13,0,0,1-.29.53,13.18,13.18,0,0,1-1.73,1.72l-.83.72a2.55,2.55,0,0,0-.6,1,2.47,2.47,0,0,0-.07,1.51,8.12,8.12,0,0,0,2.8,3.69c.53.46,1.07.9,1.61,1.35.86.71,1.72,1.42,2.57,2.15s1.81,1.66,2.67,2.53a1.73,1.73,0,0,0,2.35-2.53c-.61-.62-1.24-1.22-1.89-1.8s-1.28-1.1-1.94-1.63-1.18-.87-1.77-1.31a22.53,22.53,0,0,1-3.23-2.67,4.77,4.77,0,0,1-.31-.49c.43-.45.9-.87,1.36-1.29a6.19,6.19,0,0,0,2.1-3.4,2.92,2.92,0,0,0,0-1.17,4.35,4.35,0,0,0-.38-.93,2.26,2.26,0,0,0-.7-.75,3.55,3.55,0,0,0-2.35-.72h-.05a4.59,4.59,0,0,0-1.23.22m1.77,2.51.13.09h0l-.13-.09m.13.1h0l0,0,0,0m.13,0v0m0,.17h0m0,0,0,.08,0-.08Zm-.8,4.93,0,.19h0a1.09,1.09,0,0,1,0-.18m.13.08-.12.17.12-.17m-.14.22,0,.19a1,1,0,0,1,0-.19h0m-.06.12,0,.06,0-.06"/><path class="cls-1" d="M500.24,139.64A2.22,2.22,0,0,0,499,140.7a2.33,2.33,0,0,0-.16,1.71c.57,2.52,1.15,5,1.77,7.53.25,1,.54,2,.81,3.05.13.48.28,1,.42,1.45.09.32.18.65.27,1l.1.31.37.81a11.5,11.5,0,0,0,1,1.16,2.14,2.14,0,0,0,1.57.58,2.24,2.24,0,0,0,1.52-.7c.25-.25.52-.48.76-.74a5.18,5.18,0,0,0,.91-1.78,8.16,8.16,0,0,0,.31-1.64c.08-.61.17-1.22.23-1.83.15-1.48.22-3,.28-4.46,0-.72.07-1.45,0-2.17a11,11,0,0,0-.48-3.4,1.79,1.79,0,0,0-3.49.61,34.57,34.57,0,0,1-.17,4.12c-.06.85-.12,1.69-.19,2.54l-.14-.54c-.6-2.39-1.15-4.79-1.7-7.19a2.14,2.14,0,0,0-1.07-1.28,2.22,2.22,0,0,0-1.7-.16"/><path class="cls-1" d="M514.84,142.41a2.19,2.19,0,0,0-1.52.7,2.3,2.3,0,0,0-.58,1.57c0,1.22-.13,2.44-.12,3.66,0,.68,0,1.36,0,2a22.66,22.66,0,0,0,.39,3.85,8.69,8.69,0,0,0,.23,1,6.67,6.67,0,0,0,.5,1.1,5.75,5.75,0,0,0,1.37,1.66,5.6,5.6,0,0,0,2.17,1.07,5.1,5.1,0,0,0,2.79-.22,24.72,24.72,0,0,0,4.69-2.44,1.88,1.88,0,0,0-2-3.18c-.38.22-.76.42-1.15.62l-.72.32-.74.33a8.58,8.58,0,0,1-1.46.48l-.35,0-.09,0-.23-.12-.26-.24a6.21,6.21,0,0,1-.33-.53,5.93,5.93,0,0,1-.18-.62,49.67,49.67,0,0,1-.12-9,2.11,2.11,0,0,0-.7-1.52,2.19,2.19,0,0,0-1.49-.58h-.08m3.08,12.46.13,0-.13,0"/><path class="cls-1" d="M521.17,145c-2.91.58-5.82,1.16-8.74,1.69a1.9,1.9,0,0,0-1.16,1,2,2,0,0,0,.82,2.7l.48.18a2,2,0,0,0,1.06,0,78.68,78.68,0,0,0,8.64-2,1.84,1.84,0,0,0,.31-3.38,1.65,1.65,0,0,0-.81-.2,3.16,3.16,0,0,0-.61.07"/><path class="cls-1" d="M523.43,138.85a45.3,45.3,0,0,0-5.35.63c-.77.15-1.56.27-2.33.45-1.13.28-2.27.55-3.39.85a1.88,1.88,0,0,0,1.14,3.59c2.4-.66,4.82-1.2,7.27-1.68.93-.15,1.86-.3,2.79-.43a1.84,1.84,0,0,0,1.19-.55,1.71,1.71,0,0,0,.45-1.23,1.73,1.73,0,0,0-1.67-1.65h-.11"/><path class="cls-1" d="M529.16,137.87a1.33,1.33,0,0,0-1.27,1.37c.16,1.37.31,2.73.42,4.1s.19,2.73.26,4.11c.13,2.51.18,5,.31,7.53a1.4,1.4,0,1,0,2.8-.11c-.06-2.51-.21-5-.38-7.53-.09-1.32-.19-2.65-.31-4s-.28-2.83-.45-4.24a1.39,1.39,0,0,0-.43-.92,1.31,1.31,0,0,0-.9-.35h-.05"/><path class="cls-1" d="M533.66,136.79a7.88,7.88,0,0,0-2,.41,34.73,34.73,0,0,0-3.45,1.39,1.42,1.42,0,0,0-.76.63A1.31,1.31,0,0,0,528,141a1.27,1.27,0,0,0,1,.09,26.13,26.13,0,0,1,4.37-1.65,6.27,6.27,0,0,1,1.11,0l.4.09.35.2a3.37,3.37,0,0,1,.28.26l0,.07c0,.08.05.16.08.24a5.11,5.11,0,0,1,0,.81,5.18,5.18,0,0,1-.19.76,9.34,9.34,0,0,1-.83,1.56,13.88,13.88,0,0,1-1.6,1.84l-.76.71-.48.38c-.3.24-.67.4-1,.64a1.52,1.52,0,0,0-.52.56,1.29,1.29,0,0,0-.26.54,2.16,2.16,0,0,0,.07,1.39,7.88,7.88,0,0,0,.6,1.17c.21.36.45.7.69,1a18.63,18.63,0,0,0,3.5,3.88,13.31,13.31,0,0,0,4.87,2.52,1.77,1.77,0,0,0,1.89-2.67,1.87,1.87,0,0,0-1.09-.77l-.62-.2a15.82,15.82,0,0,1-2.84-1.52,17.17,17.17,0,0,1-2.64-2.51c-.42-.52-.82-1-1.19-1.59a17.67,17.67,0,0,0,1.46-1.4,22.09,22.09,0,0,0,1.63-1.93,13.35,13.35,0,0,0,.89-1.34,10.26,10.26,0,0,0,.77-1.83,5.39,5.39,0,0,0,.21-1.63,4.13,4.13,0,0,0-.42-1.84,4,4,0,0,0-2.66-2,4.48,4.48,0,0,0-1-.1l-.57,0m2,3.29,0,0h0l0,0m0,0,.06.13-.05-.12h0"/><path class="cls-1" d="M260.92,201.3a2.6,2.6,0,0,0,2.57,2.57c5.21.26,10.43.48,15.65.48s10.27,0,15.4.05a2.51,2.51,0,0,0,.67-4.94,23.13,23.13,0,0,0-4.3-.47c-1.35,0-2.69,0-4,0-2.56,0-5.11.08-7.67.12-5.23.07-10.48-.13-15.71-.39h-.1a2.6,2.6,0,0,0-2.46,2.57"/><path class="cls-1" d="M306.72,201.83a2.85,2.85,0,0,0,2.82,2.82c5.66.14,11.31.5,17,.39a2.64,2.64,0,1,0,0-5.29q-8.47-.53-17-.74h-.07a2.84,2.84,0,0,0-2.75,2.82"/><path class="cls-1" d="M339.63,202.07a3,3,0,0,0,.87,2.09,3.09,3.09,0,0,0,2.08.86c2.7.19,5.39.34,8.09.39a48.51,48.51,0,0,0,8.58-.61,2.52,2.52,0,0,0,1.85-2.43,2.55,2.55,0,0,0-2.52-2.52c-1.4-.05-2.8-.13-4.2-.17-1.24,0-2.48,0-3.71-.09-2.7-.11-5.39-.28-8.09-.47h-.17a3,3,0,0,0-2.78,3"/><path class="cls-1" d="M380.46,194.42a2.52,2.52,0,0,0,.69,2.51l0,0c.63.64,1.36,1.19,2,1.8l.42.4-1.2-.07c-2.39-.13-4.76-.31-7.13-.59l-2.11-.29a2.75,2.75,0,0,0-1.95.25,2.54,2.54,0,0,0-.91,3.46,2.41,2.41,0,0,0,1.52,1.16c2.33.34,4.66.63,7,.82,1.62.13,3.25.2,4.88.23l-.07.1c-1.14,1.37-2.41,2.6-3.57,3.94a3.5,3.5,0,0,0-1,2.36,3.34,3.34,0,0,0,3.34,3.34,3.57,3.57,0,0,0,2.37-1,13.16,13.16,0,0,0,1.43-1.34,24.56,24.56,0,0,0,1.55-1.94c.69-.93,1.35-1.86,2-2.85a14.09,14.09,0,0,0,1.09-2.29,8.07,8.07,0,0,0,.37-1.24,2.28,2.28,0,0,0,.74-.77,2.59,2.59,0,0,0,.28-1.91,4.53,4.53,0,0,0-1-1.67q-.23-.27-.47-.52a8.85,8.85,0,0,0-1-1.47,12.49,12.49,0,0,0-2.24-2.06c-.49-.37-1-.74-1.5-1.09l-.75-.48a4.43,4.43,0,0,0-2.24-.76h0a2.62,2.62,0,0,0-2.46,1.91"/><path class="cls-1" d="M366.09,275.94a2.22,2.22,0,0,0,1.55,2.72,35.8,35.8,0,0,0,6.17.41c2.08,0,4.16.06,6.24,0,4.06-.07,8.13-.17,12.19-.17a1.94,1.94,0,1,0,0-3.89c-4,0-8-.09-12-.16s-8-.33-12-.57h-.1a2.23,2.23,0,0,0-2,1.63"/><path class="cls-1" d="M346.56,277a2.17,2.17,0,0,0-1.42.59,2,2,0,0,0,0,2.84,2.19,2.19,0,0,0,1.42.59c1.7.2,3.41.27,5.12.36s3.34.29,5,.51a2,2,0,0,0,1.51-.62,2.14,2.14,0,0,0,0-3l-.43-.34a2.13,2.13,0,0,0-1.08-.29c-1.66-.22-3.32-.42-5-.55-.78-.05-1.57-.12-2.35-.16l-.8,0a18.07,18.07,0,0,0-2,.11"/><path class="cls-1" d="M313.32,278.31A2.36,2.36,0,0,0,314,280a2.54,2.54,0,0,0,1.67.69,75.61,75.61,0,0,0,7.6.31c2.57,0,5.15,0,7.72.07a2.38,2.38,0,1,0,0-4.75l-7.69-.11c-2.54,0-5.08-.18-7.63-.23h0a2.38,2.38,0,0,0-2.32,2.36"/><path class="cls-1" d="M274.41,270.32c-.88.37-1.77.73-2.63,1.15a14.76,14.76,0,0,0-4.69,3.24,6.48,6.48,0,0,0-1.34,2.13,5.86,5.86,0,0,0-.19,3.3,14.46,14.46,0,0,0,2.65,5.3,25.3,25.3,0,0,0,4.33,4.4,3.5,3.5,0,0,0,2.34,1,3.31,3.31,0,0,0,2.34-5.65,43.27,43.27,0,0,1-4-4l-.28-.38c.71,0,1.43,0,2.15,0q1.91,0,3.82-.11c2.83-.12,5.66-.3,8.48-.36,3-.06,6-.07,9-.07a2.58,2.58,0,0,0,0-5.16c-4.23,0-8.47,0-12.7.18-1.91.08-3.83.16-5.75.19A4.18,4.18,0,0,0,280,273a3,3,0,0,0-.28-2.15,2.89,2.89,0,0,0-2.41-1.38h-.22a7.38,7.38,0,0,0-2.72.82"/><path class="cls-1" d="M261.33,236.84a2.14,2.14,0,0,0-.77,2.93,2.06,2.06,0,0,0,1.28,1c2.68.42,5.37.76,8.08,1,1.15.1,2.32.09,3.48.09h4c2.26,0,4.52,0,6.78,0a66.88,66.88,0,0,0,6.85-.42,2.54,2.54,0,0,0,1.66-.69,2.36,2.36,0,0,0-1.66-4c-2,0-4,.3-6,.45s-4.07.19-6.11.23-4.05.11-6.09.11c-1.12,0-2.23,0-3.35-.09s-2.18-.2-3.27-.32-2.12-.3-3.18-.46a4.11,4.11,0,0,0-.62-.06,1.94,1.94,0,0,0-1,.27m5.21.3.16,0-.16,0"/><path class="cls-1" d="M304.52,240.9a2.79,2.79,0,0,0,2.76,2.75c3.7.09,7.41.14,11.11.17h5.2c2,0,3.91,0,5.86-.13a2.86,2.86,0,0,0,1.93-.8,2.73,2.73,0,0,0,.8-1.93,2.77,2.77,0,0,0-2.73-2.73c-3.67-.16-7.35,0-11,0s-7.43,0-11.15-.07h-.07a2.78,2.78,0,0,0-2.69,2.76"/><path class="cls-1" d="M354.87,239.28l-9.36.13a2.27,2.27,0,1,0,0,4.53c3.12,0,6.24-.08,9.36-.19s6.25-.29,9.38-.52a2,2,0,0,0,1.34-.55,1.89,1.89,0,0,0,.55-1.34,1.92,1.92,0,0,0-1.89-1.89c-1.56-.09-3.12-.18-4.69-.19H358.3l-3.43,0"/><path class="cls-1" d="M385.21,233.79a1.65,1.65,0,0,0-.26,2,2.66,2.66,0,0,0,.72.76,5.93,5.93,0,0,0,.56.29c.27.12.53.25.79.38a11.33,11.33,0,0,1,1.31.77c-.84,0-1.69,0-2.54,0h-3.21c-2.35,0-4.69-.09-7-.18a2,2,0,1,0,0,4c3.48.13,7,.21,10.43.18.82,0,1.65,0,2.46-.07a9.19,9.19,0,0,0,2.11-.32,9.29,9.29,0,0,1-.3,1,13.94,13.94,0,0,1-1.29,2.17,21.16,21.16,0,0,1-2.82,2.75,2.31,2.31,0,0,0-.7,1.68,2.38,2.38,0,0,0,2.38,2.38,2.54,2.54,0,0,0,1.68-.7,14.69,14.69,0,0,0,1.88-1.74,16.51,16.51,0,0,0,1.88-2.67,10.42,10.42,0,0,0,1.48-6.77,9.08,9.08,0,0,0-1.18-3.15,7.06,7.06,0,0,0-2.16-2.27,6.36,6.36,0,0,0-1.34-.59,11.1,11.1,0,0,0-1.73-.46,9.74,9.74,0,0,0-1.57-.2h-.06a2.44,2.44,0,0,0-1.48.67"/><path class="cls-2" d="M18.82,147.36l1.63.3c2.28.41,4.56.84,6.85,1.21a59.18,59.18,0,0,0,8,.92c3.05.07,6.1.22,9.16.27,1.83,0,3.66-.06,5.49-.11,2-.06,4-.12,6.07-.2,1.29-.05,2.58-.17,3.87-.21,2.06-.06,4.12-.09,6.17-.12.68,0,1.36,0,2,0a20.74,20.74,0,0,1,4.73.48c1.09.22,2.2.41,3.26.73a15.47,15.47,0,0,1,5,2.63c.47.36.95.72,1.4,1.1a11.17,11.17,0,0,1,3.23,4.87,23.69,23.69,0,0,1,1.15,5.25c.35,2.87.69,5.75,1,8.63.15,1.3.22,2.61.36,3.91.26,2.5.54,5,.8,7.49s.53,5,.77,7.5c.15,1.56.26,3.13.4,4.69.05.61.17,1.21.21,1.82.11,1.56.23,3.13.3,4.7q.2,4.23.34,8.47c0,1.34,0,2.69,0,4,0,4.89,0,9.77-.05,14.66,0,2.91-.22,5.82-.36,8.73-.13,2.53-.29,5.05-.46,7.58-.22,3.2-.46,6.4-.69,9.61-.16,2.21-.3,4.42-.45,6.63s-.32,4.56-.48,6.84c-.12,1.69-.22,3.38-.36,5.06s-.33,3.65-.47,5.47c-.07.82-.08,1.64-.13,2.45-.18,2.93-.36,5.85-.57,8.77-.26,3.71-.56,7.41-.83,11.12a24.64,24.64,0,0,1-.93,5,10.42,10.42,0,0,1-2.89,4.72,6.87,6.87,0,0,1-4.6,2c-4.11.16-8.23.37-12.35.37-3.58,0-7.16.08-10.73,0-3.3-.06-6.59-.2-9.88-.4-3.5-.22-7-.52-10.49-.84-2.15-.19-4.3-.44-6.45-.71-2.3-.29-4.61-.56-6.89-1A33,33,0,0,1,14,310a22.6,22.6,0,0,1-4.45-2.3,14.58,14.58,0,0,1-4.27-4.4,17.61,17.61,0,0,1-1.58-3.46,21.1,21.1,0,0,1-1-5.85,63.77,63.77,0,0,1,.15-9.25c.28-2.76.29-5.54.35-8.31.07-3-.19-5.93-.39-8.89-.15-2.21-.33-4.42-.46-6.63-.16-2.93-.28-5.86-.43-8.78-.06-1.1-.22-2.19-.26-3.29q-.29-9-.53-18.05c-.05-2-.07-4-.07-6q0-11.49-.07-23,0-5.05,0-10.1c0-3.09.07-6.18.12-9.26.09-5.34.16-10.68.28-16a30.61,30.61,0,0,1,1.68-9.6,15,15,0,0,1,4.46-6.66,11.69,11.69,0,0,1,6.14-2.69,3,3,0,0,0,.39-.1ZM59.3,313.14l12-.09c2,0,4,0,6-.1A6.21,6.21,0,0,0,82,310.48a12.14,12.14,0,0,0,2.44-6c.48-3,.66-6.1.86-9.17q.17-2.61.34-5.22c.2-3,.41-5.92.59-8.88.12-1.85.19-3.69.31-5.54s.33-4,.48-5.95c.13-1.74.26-3.48.37-5.22s.18-3.76.31-5.64c.1-1.43.3-2.85.39-4.27.2-3.22.35-6.45.53-9.67.14-2.42.33-4.84.46-7.26.15-2.7.3-5.4.37-8.1.09-3.56.11-7.12.12-10.68,0-2.39-.07-4.78-.07-7.17,0-2.18-.12-4.36-.23-6.54-.15-2.91-.23-5.82-.34-8.73,0-.87-.07-1.74-.14-2.61-.18-2.1-.39-4.2-.57-6.31-.14-1.72-.21-3.45-.38-5.17-.25-2.52-.55-5-.87-7.54q-.6-4.7-1.28-9.38a17.75,17.75,0,0,0-.73-3.63c-.37-1-.63-2.08-1.09-3.05a12.28,12.28,0,0,0-6.43-6.09A20.37,20.37,0,0,0,71.55,151a41.05,41.05,0,0,0-5.84-.43c-3.31.09-6.63.22-9.94.33-3.7.13-7.39.38-11.09.38-3,0-6,.09-8.95-.15-1.13-.09-2.27-.12-3.39-.22-.8-.07-1.59-.2-2.39-.31-1.76-.25-3.53-.46-5.26-.86a37.67,37.67,0,0,0-5.82-1,22,22,0,0,0-5.43.16,10.57,10.57,0,0,0-5.5,2.71,13.86,13.86,0,0,0-3.57,5.71,25.9,25.9,0,0,0-1.22,5.29,64.3,64.3,0,0,0-.65,6.82c-.1,4.64-.23,9.28-.29,13.92q-.12,8.48-.16,17c0,3.51.1,7,.1,10.52,0,6.49.13,13,.3,19.47.05,2,0,3.91.09,5.86,0,1.57.18,3.14.23,4.7.1,2.67.15,5.34.25,8q.09,2.64.23,5.28c.18,3.59.39,7.18.57,10.77.17,3.33.36,6.66.47,10,.07,2,0,4,0,6.07,0,1.52-.19,3-.29,4.54-.07,1-.1,2-.21,3a24,24,0,0,0,0,7.24c.18.92.23,1.88.48,2.78a13.34,13.34,0,0,0,4.84,7,22.38,22.38,0,0,0,7.06,3.58,62.76,62.76,0,0,0,8.12,1.78c1.15.22,2.32.28,3.47.46,3,.47,6,.78,9,1,2.58.18,5.16.31,7.73.46C49.43,313.14,54.36,313.19,59.3,313.14Z"/><path class="cls-3" d="M81.14,247.41q-.23,9.86-.45,19.73c-.11,5-.24,9.91-.31,14.86-.07,5.22-.07,10.44-.09,15.65,0,1,.06,2,.08,3a3.94,3.94,0,0,1-1.28,3.15A8.9,8.9,0,0,1,74.71,306a55,55,0,0,1-9.52.88,81.72,81.72,0,0,1-9.41-.44c-3.84-.37-7.67-.77-11.51-1.16-2.88-.29-5.77-.54-8.64-.88-2.15-.26-4.3-.48-6.45-.67q-2.61-.24-5.2-.56a20.49,20.49,0,0,1-4.24-.91,10.2,10.2,0,0,1-6.1-5.47,21,21,0,0,1-1.79-6.21c-.18-1.33-.24-2.68-.36-4-.21-2.44-.13-4.88-.19-7.32-.08-3.54-.15-7.08-.22-10.62,0-1.48,0-3-.1-4.45-.33-6.64-.33-13.29-.55-19.93-.18-5.69-.33-11.37-.48-17.06-.1-3.85-.18-7.71-.27-11.57q-.2-8.37-.42-16.75c-.06-2.2,0-4.4-.19-6.59-.21-3.26-.15-6.52-.25-9.78-.11-3.59-.2-7.19-.3-10.78-.06-2.34-.1-4.68-.2-7a26.43,26.43,0,0,1,0-4A8,8,0,0,1,9.06,158,5.4,5.4,0,0,1,13,155a22.84,22.84,0,0,1,3.74-.42c2.06-.1,4.11-.25,6.16-.4a4.21,4.21,0,0,1,1.6.19,1.46,1.46,0,0,1,1,1.71c-.07.38-.14.75-.2,1.13a2.7,2.7,0,0,0,1,2.64,6.34,6.34,0,0,0,2.88,1.3c.72.14,1.45.21,2.17.3a106.11,106.11,0,0,0,10.76.65c2.76.08,5.51.12,8.27.08,3,0,5.93-.19,8.88-.51.71-.08,1.42-.19,2.12-.31a1.41,1.41,0,0,0,1.14-1c.1-.28.16-.57.26-.85a4.71,4.71,0,0,1,2.48-2.83A12.36,12.36,0,0,1,69,155.59a19.84,19.84,0,0,1,4.43-.19,4.6,4.6,0,0,1,3.69,2.26,9.72,9.72,0,0,1,1.36,3.71c.26,1.69.51,3.38.73,5.07.16,1.23.26,2.46.39,3.69.16,1.49.34,3,.49,4.47.08.85.1,1.71.16,2.56s.14,1.56.19,2.35c.08,1.06.15,2.12.22,3.18.13,1.86.27,3.72.37,5.59.07,1.2,0,2.41.11,3.61.26,4.22.37,8.44.44,12.66.08,5.08,0,10.16,0,15.23,0,2.44,0,4.89,0,7.33-.1,5.22-.25,10.43-.38,15.65q-.06,2.33-.11,4.66Zm-1-4.12c0-3.17.09-5.28.11-7.39q.05-6.36.08-12.72,0-4.69,0-9.37c0-4.26-.09-8.52-.1-12.77,0-5.18-.2-10.36-.39-15.54,0-1.24-.13-2.47-.21-3.71-.16-2.4-.33-4.8-.5-7.21-.09-1.25-.14-2.51-.27-3.76-.16-1.56-.4-3.11-.57-4.67A16,16,0,0,0,76.83,161,9.38,9.38,0,0,0,75,158.27a6.54,6.54,0,0,0-8.16-.72,6.07,6.07,0,0,0-2.71,3.21,2.62,2.62,0,0,1-1.49,1.54,6.37,6.37,0,0,1-2.06.54q-2.42.24-4.85.45c-2.78.24-5.57.33-8.37.33-2.41,0-4.81,0-7.22-.23s-4.81-.18-7.2-.54c-1.14-.17-2.29-.24-3.42-.43a9.2,9.2,0,0,1-3.91-1.54A2.94,2.94,0,0,1,24.2,158a1.5,1.5,0,0,0-.77-1.5,2.68,2.68,0,0,0-.86-.37A19.36,19.36,0,0,0,15,156a7.65,7.65,0,0,0-4.48,2.6,4.71,4.71,0,0,0-1.17,2.85c0,.49.05,1,.07,1.46.06,2.13.12,4.26.17,6.38.08,3.38.13,6.77.22,10.15,0,1.76.18,3.52.23,5.28.11,4.24.19,8.48.29,12.72.09,3.86.18,7.71.32,11.56.15,4.22.08,8.44.34,12.66.11,1.81.08,3.63.13,5.44.12,4.74.26,9.49.38,14.23.09,3.63.16,7.26.25,10.89.11,4.26.26,8.51.37,12.77.09,3.33.13,6.66.23,10,.13,4.31.29,8.61.45,12.92a11,11,0,0,0,.16,1.67c.21,1.1.52,2.17.7,3.27a13.17,13.17,0,0,0,4.05,6.92,7.83,7.83,0,0,0,4.08,2c1.7.28,3.42.43,5.14.6,1,.1,1.92.12,2.87.21,1.34.13,2.67.3,4,.44l6,.57,5.73.58,5.46.58c1.77.19,3.54.43,5.31.55,2.59.18,5.19.32,7.79.4a37.41,37.41,0,0,0,8.84-.86,14.47,14.47,0,0,0,5-1.9,1.87,1.87,0,0,0,.87-1.18,4.17,4.17,0,0,0,.1-.72c0-.71.08-1.43.09-2.14q.16-5.91.3-11.83c.1-4.19.17-8.37.26-12.56.12-5.13.25-10.26.36-15.39C80,253.53,80.06,247.88,80.15,243.28Z"/><path d="M66.23,159.78c0,.28,0,.56,0,.84s0,.3,0,.45,0,.13,0,.19,0,.14,0,.21a.24.24,0,0,0,.41.17.25.25,0,0,0,.07-.17,1.32,1.32,0,0,0,0-.19c0-.07,0-.14,0-.21l0-.46c0-.14,0-.28,0-.43a3.89,3.89,0,0,1,0-.42.16.16,0,0,0-.31,0"/><path d="M66.23,159.71a.17.17,0,0,0,.17.17h.16a.16.16,0,0,0,0-.31l-.2,0a.17.17,0,0,0-.17.17"/><path d="M66.4,159.73c0,.13,0,.26,0,.4s0,.27,0,.4a3.3,3.3,0,0,1,0,.36c0,.11,0,.23,0,.34s0,.13,0,.2a.23.23,0,0,0,.39.16.24.24,0,0,0,.07-.16,1.42,1.42,0,0,0,0-.19c0-.07,0-.14,0-.21a4,4,0,0,0,0-.41c0-.14,0-.29,0-.43a4.35,4.35,0,0,1,0-.46.18.18,0,0,0-.35,0"/><path d="M65.61,160.2c0,.2,0,.4,0,.6s0,.42,0,.63a.2.2,0,0,0,.41,0c0-.21,0-.42,0-.63s0-.4,0-.6a.2.2,0,1,0-.41,0"/><path d="M65.62,160a.18.18,0,0,0-.07.07.16.16,0,0,0,0,.12.15.15,0,0,0,.06.08h0l0,0a.22.22,0,0,0,.1,0h0l.07,0a.17.17,0,0,0,.19-.24.17.17,0,0,0-.1-.08l-.08,0h-.08l-.09,0m0,.28h0"/><path d="M65.47,160.12c0,.16,0,.32,0,.47s0,.16,0,.23,0,.16,0,.25,0,.13,0,.2,0,.06,0,.09a.45.45,0,0,0,0,.11.11.11,0,0,0,.21,0,.61.61,0,0,0,0-.16c0-.06,0-.11,0-.17s0-.22,0-.34,0-.12,0-.18,0-.11,0-.16,0-.23,0-.34a.16.16,0,1,0-.32,0"/><path d="M65.54,160.44c0,.11,0,.21,0,.32s0,.2,0,.3,0,.19,0,.29a.48.48,0,0,0,0,.19.24.24,0,0,0,.11.14.3.3,0,0,0,.23,0,.17.17,0,0,0,.07-.28.17.17,0,0,0-.11,0v-.13l0-.23a2.3,2.3,0,0,1,0-.23c0-.08,0-.16,0-.24v0a.1.1,0,0,0-.07-.12h0a.1.1,0,0,0-.1.07"/><path d="M67,158.77a.23.23,0,0,0-.11.14,1.24,1.24,0,0,0,0,.17c0,.06,0,.11,0,.17s0,.22,0,.33,0,.44,0,.66,0,.44,0,.65,0,.21,0,.32a.5.5,0,0,0,.1.41.24.24,0,0,0,.37,0c.07-.11,0-.24,0-.36s0-.21,0-.31,0-.43,0-.64,0-.43,0-.64,0-.21,0-.32a2,2,0,0,1,0-.31h0a.24.24,0,0,0-.18-.23h-.06a.24.24,0,0,0-.12,0"/><path d="M64.86,160.45a.31.31,0,0,0-.15.19,2.31,2.31,0,0,0,0,.42,1.61,1.61,0,0,0,0,.43.28.28,0,0,0,.41.17.27.27,0,0,0,.13-.17h0a.28.28,0,0,0,0-.05c0-.2,0-.39.06-.59v0a.34.34,0,0,0,0-.25.32.32,0,0,0-.19-.15H65a.32.32,0,0,0-.16,0"/><path d="M67,160.78a.12.12,0,1,0,.12-.12.12.12,0,0,0-.12.12"/><path d="M69.62,160.82h0a.33.33,0,0,0-.23.1.33.33,0,0,0-.06.09.3.3,0,0,0,0,.08.4.4,0,0,0,0,.28l.05.09a.33.33,0,0,0,.13.11c.17.08.37-.07.41-.26a.48.48,0,0,0,0-.19.42.42,0,0,0-.07-.17h0a.27.27,0,0,0-.07-.08.22.22,0,0,0-.13,0h0"/><path d="M69.43,160a1.69,1.69,0,0,0-.45.17,1,1,0,0,0-.2.15.57.57,0,0,0-.08.11.59.59,0,0,0-.05.13.25.25,0,0,0,.08.27.18.18,0,0,0,.24,0l.06-.06.2-.12a1.9,1.9,0,0,1,.46-.12,1.45,1.45,0,0,1,.34,0l.18.07a.19.19,0,0,0,.18,0,.26.26,0,0,0,.11-.16.31.31,0,0,0,0-.21.26.26,0,0,0-.13-.13,1.12,1.12,0,0,0-.41-.11h-.12a1.9,1.9,0,0,0-.39,0"/><path d="M69.65,159.06l-.38.07a2.1,2.1,0,0,0-.7.31,3.29,3.29,0,0,0-.35.27l-.14.13a1.78,1.78,0,0,0-.15.2.34.34,0,0,0,0,.24.32.32,0,0,0,.12.19.24.24,0,0,0,.2,0,.26.26,0,0,0,.14-.11v0a1.23,1.23,0,0,1,.18-.19l.25-.18.3-.16.33-.11.36-.07h.34l.35,0a.86.86,0,0,1,.2.06.26.26,0,0,0,.16,0,.3.3,0,0,0,.18-.15.4.4,0,0,0,0-.27.37.37,0,0,0-.13-.21.59.59,0,0,0-.3-.11l-.18,0-.36,0h-.14l-.27,0"/><path d="M71.86,159.41a.22.22,0,0,0-.07.14,4.35,4.35,0,0,0,0,.75c0,.11,0,.22,0,.33s0,.44,0,.67a.22.22,0,0,0,.05.15.2.2,0,0,0,.35-.13c0-.22,0-.44,0-.67s0-.21,0-.32,0-.2,0-.3,0-.31,0-.47a.21.21,0,0,0-.2-.22h0a.21.21,0,0,0-.14.06"/><path d="M74.9,159.18h-.41l-.62,0-.57,0h-.89l-.32,0a.16.16,0,0,0-.12.26.16.16,0,0,0,.11.05l.29,0,.35,0h1.11l.54,0H75a.18.18,0,0,0,.21-.26.19.19,0,0,0-.11-.09.45.45,0,0,0-.17,0h0"/><path d="M75.27,161.15l-.78,0H73c-.25,0-.51,0-.76,0H72a.24.24,0,0,0-.16.06.22.22,0,0,0,0,.31.21.21,0,0,0,.15.07l.39,0h.37l.84,0H74.7l.42,0,.18,0a.23.23,0,0,0,.18-.21.23.23,0,0,0-.21-.24h0"/><path d="M75,159.14a.23.23,0,0,0-.17.28c0,.07,0,.15,0,.22s0,.3,0,.45,0,.27,0,.4,0,.26,0,.4,0,.3,0,.45a.25.25,0,0,0,.06.17.24.24,0,0,0,.17.08.24.24,0,0,0,.25-.23c0-.15,0-.31,0-.46s0-.28,0-.41,0-.3,0-.45,0-.15,0-.22a3.15,3.15,0,0,0-.06-.49.23.23,0,0,0-.23-.18h0"/><path d="M74.06,159.48v0a.19.19,0,0,0,0,.14h0c0,.07,0,.13,0,.2s0,.12,0,.18,0,.24,0,.36,0,.5-.05.75a.24.24,0,0,0,.4.19.23.23,0,0,0,.08-.17c0-.12,0-.25,0-.37s0-.28,0-.42,0-.22,0-.34,0-.16,0-.24v-.13a.8.8,0,0,0,0-.12.45.45,0,0,0,0-.12.18.18,0,0,0-.16-.1h0a.19.19,0,0,0-.18.13"/><path d="M73.37,159.42l0,0h0a.26.26,0,0,0-.14,0l-.09.07a.32.32,0,0,0-.14-.09.25.25,0,0,0-.2,0h-.2a.33.33,0,0,0-.14.08h0l0,0a.14.14,0,0,0-.19,0v0a.32.32,0,0,0-.13.07.52.52,0,0,0-.12.18.8.8,0,0,0,0,.48.57.57,0,0,0,.12.27l0,.06a.34.34,0,0,0,0,.09.18.18,0,0,0,.09.16h0v0a.27.27,0,0,0,0,.13.16.16,0,0,0,.07.07h0a.2.2,0,0,0,.09.13h0a.2.2,0,0,0,0,.09.21.21,0,0,0,.25,0l.12-.07.1-.09h0l.05,0,0,0a.24.24,0,0,0,.1.07.25.25,0,0,0,.13,0l.1,0a.28.28,0,0,0,.11.06h.07a.27.27,0,0,0,.14,0l.07,0h0a.28.28,0,0,0,.2,0l.11,0H74l.08,0,.08-.06a.49.49,0,0,0,.11-.17,1.14,1.14,0,0,0,.07-.28c0-.1,0-.2,0-.3s0-.39,0-.58,0-.14,0-.22v-.09a1.06,1.06,0,0,0,0-.11.22.22,0,0,0,0-.08l0-.06a.24.24,0,0,0-.23-.07l-.11,0a.24.24,0,0,0-.17.06h0l0,0a.23.23,0,0,0-.16-.07h0a.25.25,0,0,0-.19.08"/><path d="M75.42,159.87h0a.18.18,0,0,0-.14.09l0,0a.21.21,0,0,0-.05.14c0,.09,0,.18,0,.27h0a.22.22,0,0,0,.15.22h0a.21.21,0,0,0,.15,0,.22.22,0,0,0,.17-.2,2.36,2.36,0,0,0,0-.32v0h0a.22.22,0,0,0-.06-.16.22.22,0,0,0-.16-.07h0"/><path d="M75.09,159.22a.16.16,0,0,0,0,.21v0c0,.08,0,.15,0,.23s0,.18,0,.27,0,.33,0,.49,0,.3,0,.46,0,.17,0,.25v.11a.86.86,0,0,0,0,.13v0a.27.27,0,0,0,0,.05.17.17,0,0,0,.06.06.16.16,0,0,0,.09,0,.17.17,0,0,0,.18-.13.6.6,0,0,0,0-.13q0-.15,0-.31s0-.09,0-.14,0-.12,0-.18,0-.19,0-.28h0c0-.17,0-.34,0-.52s0-.17,0-.26v-.13s0-.07,0-.1a.31.31,0,0,0-.07-.15.15.15,0,0,0-.11,0,.16.16,0,0,0-.11,0"/><path d="M43.69,188.42a.68.68,0,1,0,.66-.71.69.69,0,0,0-.66.71"/><path d="M43.29,192.83a.72.72,0,0,0,.23.5.74.74,0,0,0,.52.19.72.72,0,0,0,.47-1.25.74.74,0,0,0-.52-.19.73.73,0,0,0-.7.75"/><path d="M50.61,183.83a.56.56,0,0,0-.38.17l-.14.12-.07.07a.48.48,0,0,0-.16.19l-.05.13-.06.12-.16.33-.25.51c-.18.38-.36.76-.52,1.14l-.49,1.13-.35.8c-.1.23-.2.45-.32.67a2.74,2.74,0,0,0-.17.35,1.18,1.18,0,0,0-.11.56.62.62,0,0,0,.1.31.62.62,0,0,0,1.07,0c.41-.82.8-1.65,1.18-2.49.17-.36.34-.73.5-1.09l.28-.65c0,.25,0,.5,0,.74,0,.69-.07,1.37-.14,2.06,0,.43-.11.87-.16,1.3L50,191.95c0,.24-.07.47-.11.71l-.29,1.77q-.19,1.15-.39,2.3l-.24,1.39c-.06.35-.1.7-.16,1l-.21,1.42c0,.12,0,.24,0,.37l-.1.89c-.1.84-.18,1.69-.25,2.54,0,.48-.07,1-.11,1.44l0,.17,0,.2a.75.75,0,0,0,.12.38.75.75,0,0,0,1.37-.23,6.54,6.54,0,0,0,.14-1.16c0-.19,0-.37,0-.56l.09-1.31c.06-.8.14-1.6.21-2.4l.16-1.26c.05-.39.09-.79.15-1.18l.42-2.81c.13-.85.25-1.71.37-2.57,0-.25.08-.5.1-.75l.18-1.61.1-.95c0-.44.08-.88.11-1.33,0-.79.07-1.58,0-2.36a9.85,9.85,0,0,0-.1-1.1,1.94,1.94,0,0,0-.19-.63,1,1,0,0,0-.18-.24c-.05-.05-.12-.09-.17-.14a.56.56,0,0,0-.37-.14h0m-.6,16.9h0"/><path d="M58.93,185a1.58,1.58,0,0,0-.46.12,2.47,2.47,0,0,0-.42.23,4.72,4.72,0,0,0-.39.27,5,5,0,0,0-.54.49,3.9,3.9,0,0,0-.47.62,3.2,3.2,0,0,0-.32.71,2.84,2.84,0,0,0-.09.79.48.48,0,0,0,.83.31.5.5,0,0,0,.13-.35c0-.11,0-.21,0-.32a1.72,1.72,0,0,1,.07-.28,3,3,0,0,1,.29-.52,3.45,3.45,0,0,1,.49-.52,4,4,0,0,1,.65-.41l.2-.06H59l.15.08.14.13a2.38,2.38,0,0,1,.22.36,3.81,3.81,0,0,1,.23.77,8.17,8.17,0,0,1,0,1.93,20.9,20.9,0,0,1-1.33,5.1c-.21.55-.44,1.09-.68,1.63-.15.34-.3.68-.46,1l-.7,1.43c-.38.78-.78,1.56-1.17,2.34l-.37.74c-.12.26-.24.52-.35.78a6.38,6.38,0,0,0-.35,1,2.07,2.07,0,0,0,0,.53,1.4,1.4,0,0,0,.17.62,1.11,1.11,0,0,0,.32.37,1.62,1.62,0,0,0,.65.32,2.75,2.75,0,0,0,1.12-.06,7.43,7.43,0,0,0,.89-.22l1.07-.36.79-.25.64-.21.48-.13.55-.15.22-.06.79-.17c.61-.1,1.22-.18,1.83-.22a1,1,0,0,0,.67-.31,1,1,0,0,0-.74-1.63c-.45,0-.89.09-1.33.15-.28,0-.57.1-.85.15l-.56.13-.49.13-.79.24c-.38.12-.75.25-1.12.38l-.76.27-1,.38a5.47,5.47,0,0,1-.55.16l-.36.09a5.31,5.31,0,0,1,.23-.76c.37-.95.84-1.86,1.27-2.78s.86-1.81,1.26-2.73c.51-1.16,1-2.34,1.37-3.54a19.06,19.06,0,0,0,.84-3.64,10.94,10.94,0,0,0,.08-1.95,8,8,0,0,0-.12-.93,3.64,3.64,0,0,0-.26-.84,3,3,0,0,0-.41-.71,1.79,1.79,0,0,0-.84-.6A1.15,1.15,0,0,0,59,185h-.08"/><path d="M41.39,183.87l-1.33.59-.46.2-.76.29-.45.17-.68.22-.7.23c-.15,0-.3.08-.45.11l-.89.22-.57.1-.5.08c-.42,0-.85.09-1.28.12l-.65,0h-.21l-.2,0a.54.54,0,0,0-.32.3,2,2,0,0,0-.1.9c0,.33,0,.66,0,1l0,.78c0,.18,0,.36,0,.54v.76s0,.1,0,.15l0,.43,0,.6-.1.73c0,.21-.07.42-.11.63a10.09,10.09,0,0,1-.37,1.52.57.57,0,0,0,.08.46.59.59,0,0,0,.52.28.78.78,0,0,0,.36-.1l.14-.1a1.8,1.8,0,0,1,.31-.19,3.06,3.06,0,0,1,.58-.17,5.81,5.81,0,0,1,1.29,0,5.74,5.74,0,0,1,1.2.27,2.73,2.73,0,0,1,.44.24,3.86,3.86,0,0,1,.55.51,3.53,3.53,0,0,1,.38.6,3.78,3.78,0,0,1,.23.71,4.13,4.13,0,0,1,0,.87,6.31,6.31,0,0,1-.33,1.4,8.56,8.56,0,0,1-1,1.74,17.81,17.81,0,0,1-1.38,1.67A19,19,0,0,1,33,204.31a15.13,15.13,0,0,1-1.79,1.28l-.58.34a.75.75,0,0,0-.57-.05l-.18.08a.75.75,0,0,0-.26.28l-.11.3a.76.76,0,0,0-.05.29.75.75,0,0,0,.12.42l0,0a.75.75,0,0,0,.28.26.81.81,0,0,0,.71.06l.27-.13.23-.12c.18-.1.35-.21.52-.32l.67-.44c.53-.36,1-.76,1.53-1.17s.88-.79,1.3-1.21a16.59,16.59,0,0,0,1.19-1.32c.39-.48.77-1,1.11-1.5a8.21,8.21,0,0,0,.82-1.64,6.45,6.45,0,0,0,.34-1.34,6.86,6.86,0,0,0,.07-.81,4.05,4.05,0,0,0-.07-.8,4.22,4.22,0,0,0-.48-1.3,3.82,3.82,0,0,0-.43-.6,4,4,0,0,0-.51-.51,4.11,4.11,0,0,0-.61-.42,2.26,2.26,0,0,0-.3-.13l-.41-.14a6.77,6.77,0,0,0-1.53-.25,5.72,5.72,0,0,0-1.49.11l-.24.06v-.06c0-.25.07-.5.09-.76l.07-.74c0-.15,0-.29,0-.44l0-.85c0-.42,0-.84,0-1.26s0-.57-.05-.86l0-.54c0-.17,0-.35,0-.52a5.35,5.35,0,0,1,0-.58h.3l.31,0,.65-.05c.4,0,.79-.09,1.18-.16l.77-.14c.16,0,.32-.08.48-.12l.79-.2.38-.12,1.11-.37.37-.14.69-.27c.3-.12.59-.25.88-.38l1-.47a.39.39,0,0,0,.21-.17.36.36,0,0,0-.15-.49.4.4,0,0,0-.18,0l-.1,0"/><path d="M30.22,210.22a.17.17,0,0,0-.12.06.18.18,0,0,0,0,.12c0,.46,0,.92,0,1.38q0,.22,0,.43c0,.07,0,.14,0,.21l0,.37c0,.08,0,.16,0,.23l0,.34c0,.21,0,.42-.09.62a.19.19,0,0,0,.37.09,4.62,4.62,0,0,0,.09-.68c0-.11,0-.22,0-.32s0-.15,0-.22,0-.39,0-.58,0-.43,0-.65c0-.41,0-.81,0-1.22a.17.17,0,0,0-.17-.17h0"/><path d="M30.11,210.07a.31.31,0,0,0-.2.38l.2.68.11.37.05.14.06.16.07.18.08.18.07.09a.59.59,0,0,0,.13.1.36.36,0,0,0,.27,0,.51.51,0,0,0,.21-.14l0-.06a.83.83,0,0,0,.09-.14,1.2,1.2,0,0,0,.06-.15V212q0,.34,0,.68c0,.24,0,.48,0,.72a4.32,4.32,0,0,0,.12.8.29.29,0,0,0,.53.05.31.31,0,0,0,0-.22v0a18.62,18.62,0,0,1-.16-1.89l0-.42a7.16,7.16,0,0,0-.05-.74c0-.19-.06-.42-.25-.52a.3.3,0,0,0-.32,0l-.05,0-.06.08a1,1,0,0,0-.07.15,5,5,0,0,0-.17.5l-.06.21-.13-.39c-.08-.26-.16-.53-.24-.79a.31.31,0,0,0-.29-.21h-.09"/><path d="M33,211a.79.79,0,0,0-.14.1.86.86,0,0,0-.13.18,1.19,1.19,0,0,0-.07.17,2.13,2.13,0,0,0-.06.21,3.8,3.8,0,0,0-.06.4q0,.24,0,.48t0,.41c0,.13,0,.26,0,.39a.66.66,0,0,0,.14.37.46.46,0,0,0,.16.11l.09,0a.41.41,0,0,0,.17,0,.8.8,0,0,0,.35-.19,1.29,1.29,0,0,0,.24-.29,1.42,1.42,0,0,0,.15-.36,1.65,1.65,0,0,0,0-.89,2.57,2.57,0,0,0-.12-.38,3,3,0,0,0-.18-.39,1.71,1.71,0,0,0-.24-.31.24.24,0,0,0-.19-.09.22.22,0,0,0-.12,0m.11.61,0,.09a3.16,3.16,0,0,1,.22.69,1.48,1.48,0,0,1,0,.3,1.54,1.54,0,0,1-.07.3,1.37,1.37,0,0,1-.1.2l-.11.12-.05,0,0-.07a4.46,4.46,0,0,1,0-1.07,3,3,0,0,1,.11-.58m-.1.55v0m0,1.19h0m.07,0h0"/><path d="M35.53,210.5a.25.25,0,0,0-.24.26q0,.36.06.71l0,.41c0,.17,0,.34.05.51s0,.21,0,.32l-.08-.16c0-.1-.08-.2-.12-.3s-.06-.17-.08-.25l-.07-.27-.06-.25c0-.09,0-.19-.06-.29a.69.69,0,0,0-.06-.16l-.08-.12a.21.21,0,0,0-.17-.09.2.2,0,0,0-.17.1l0,.06a.26.26,0,0,0-.15.08.27.27,0,0,0-.07.18c0,.22,0,.43,0,.65s0,.28,0,.42v.48c0,.08,0,.16,0,.24v.08a.87.87,0,0,0,0,.31.24.24,0,0,0,.47-.08c0-.3,0-.59,0-.89,0-.09,0-.17,0-.26s0-.08,0-.12v-.14l0,.17a4.34,4.34,0,0,0,.22.69c0,.12.11.24.16.36l0,.09a.47.47,0,0,0,.08.14.41.41,0,0,0,.1.08l.09,0,.06,0a.26.26,0,0,0,.29-.13c0-.06.07-.12.1-.19a1,1,0,0,0,.07-.33,4.09,4.09,0,0,0,0-.56c0-.24,0-.47-.08-.71s-.07-.55-.11-.83a.27.27,0,0,0-.08-.18.25.25,0,0,0-.17-.07h0"/><path d="M36.6,210.88a3.27,3.27,0,0,0,0,.95c0,.19,0,.37,0,.56,0,.35,0,.7,0,1a.26.26,0,0,0,.44.17.27.27,0,0,0,.07-.18c0-.33,0-.67,0-1,0-.17,0-.33,0-.5s0-.49,0-.74a1.66,1.66,0,0,1,0-.18.27.27,0,0,0-.2-.32h-.06a.27.27,0,0,0-.26.21"/><path d="M36.68,210.76l-.21,0a.27.27,0,0,0-.16.14.28.28,0,0,0,.12.38l.07,0a.28.28,0,0,0,.15,0l.12,0h.18l.23.05.23.12.15.13a1.23,1.23,0,0,1,.11.17,1,1,0,0,1,0,.13,1.45,1.45,0,0,1,0,.24,1.55,1.55,0,0,1-.07.29,2.61,2.61,0,0,1-.14.3,3,3,0,0,1-.17.26,4.18,4.18,0,0,1-.47.54.3.3,0,0,0,.23.51.31.31,0,0,0,.21-.1,4.83,4.83,0,0,0,.75-1,2.77,2.77,0,0,0,.13-.31,1.57,1.57,0,0,0,.09-.36,1.35,1.35,0,0,0-.07-.65,1.28,1.28,0,0,0-.4-.53,1.61,1.61,0,0,0-.61-.3,1.54,1.54,0,0,0-.32,0h0l-.15,0m0,.58h0"/><path d="M39.12,210.57a.41.41,0,0,0-.19.07l-.08.06-.06.08a1,1,0,0,0-.06.14c0,.12-.1.24-.14.36a3.82,3.82,0,0,0-.11.46c0,.13,0,.27-.05.41s0,.2,0,.3l0,.39V213c0,.11,0,.21,0,.32a.29.29,0,0,0,.44.23l.1-.08a.45.45,0,0,0,.1-.21s0-.09,0-.13v-.05c0-.09,0-.19.06-.29s.07-.34.1-.5.07-.43.09-.64c0,.1.06.21.08.31l.08.39c0,.14,0,.28.06.42s0,.36.06.54a.32.32,0,0,0,.1.21.3.3,0,0,0,.43,0,.29.29,0,0,0,.08-.22c0-.22-.08-.44-.13-.66s-.07-.33-.11-.49l-.08-.33c-.05-.21-.12-.41-.19-.61a1.77,1.77,0,0,0-.15-.34.67.67,0,0,0-.23-.26.33.33,0,0,0-.16,0h0"/><path d="M39.91,212l-.32,0-.32.05-.27.06-.39.12a.3.3,0,1,0,.18.58l.41-.12.27-.06.46-.07a.31.31,0,0,0,.2-.09.29.29,0,0,0,.08-.21.3.3,0,0,0-.28-.28h0"/><path d="M40.27,210.51a.43.43,0,0,0-.41.44.41.41,0,0,0,.14.3l.33.25a4.09,4.09,0,0,0,.35.24l.17.1.16.08a3.7,3.7,0,0,0,.41.16.38.38,0,0,0,.27-.71l-.45-.26c-.14-.09-.28-.19-.42-.29l.09.06-.33-.25a.46.46,0,0,0-.29-.11h0"/><path d="M41.83,210a.44.44,0,0,0-.18.25l-.33.95c-.15.37-.29.73-.45,1.09s-.34.83-.47,1.26a.4.4,0,0,0,.5.47.38.38,0,0,0,.23-.19c.21-.54.44-1.08.66-1.62s.45-1.18.66-1.78a.4.4,0,0,0-.05-.32.41.41,0,0,0-.25-.18H42a.41.41,0,0,0-.22.06"/><path d="M42.8,213c-.11.45-.23.9-.36,1.35-.06.2-.13.41-.19.61s-.11.4-.16.61a.19.19,0,0,0,.38.09c.06-.2.11-.4.17-.6l.2-.61c.14-.44.26-.9.37-1.35a.21.21,0,0,0-.15-.25h0a.21.21,0,0,0-.2.16"/><path d="M45.07,210.83a.19.19,0,0,0-.08.11.19.19,0,0,0,0,.14l.07.14-.08.11a2.5,2.5,0,0,0-.15.27,4.06,4.06,0,0,0-.22.59c0,.1-.06.2-.08.31s-.05.22-.07.32a1.66,1.66,0,0,0,0,.3.77.77,0,0,0,.08.32l.07.11a.35.35,0,0,0,.12.11.38.38,0,0,0,.16,0,.47.47,0,0,0,.17,0,1,1,0,0,0,.26-.15,1.33,1.33,0,0,0,.5-.79,1.47,1.47,0,0,0,0-.31,1.89,1.89,0,0,0,0-.36,1.7,1.7,0,0,0-.08-.3q-.06-.17-.14-.33l-.15-.32,0,0,.06,0h.15a.08.08,0,1,0,0-.17.82.82,0,0,0-.27,0l-.06,0,0-.08a.18.18,0,0,0-.16-.09.18.18,0,0,0-.1,0m.1.57,0,.07,0,0,.07.15c0,.1.08.2.12.29a1.75,1.75,0,0,1,.08.29,1.6,1.6,0,0,1,0,.34,1.46,1.46,0,0,1-.07.31,1.23,1.23,0,0,1-.11.21,1.29,1.29,0,0,1-.18.19l-.17.11-.05,0h0l0,0-.06-.09a.79.79,0,0,1,0-.12,1.31,1.31,0,0,1,0-.28,4.44,4.44,0,0,1,.1-.53,4.18,4.18,0,0,1,.15-.5h0a2.3,2.3,0,0,1,.2-.39m.29.78v0m-.73.62v0m.58.21v0m-.5.29h0M45,211.8h0"/><path d="M46.89,210.61a1.28,1.28,0,0,0-.31.35,2,2,0,0,0-.19.4,2.83,2.83,0,0,0-.13.48,4.49,4.49,0,0,0-.06.48c0,.08,0,.17,0,.25a1.05,1.05,0,0,0,0,.24.68.68,0,0,0,.24.37.73.73,0,0,0,.44.14,1.47,1.47,0,0,0,.88-.28c.2-.14.39-.3.58-.46l.3-.26a.24.24,0,0,0,.07-.18.25.25,0,0,0-.26-.24.27.27,0,0,0-.17.08l0,0-.27.22a4,4,0,0,1-.67.48l-.25.08h-.31l0,0,0,0v0a2.59,2.59,0,0,1,0-.55c0-.11,0-.22,0-.33a2.31,2.31,0,0,1,.1-.36,1.89,1.89,0,0,1,.18-.35l.13-.14.07,0h0a1.64,1.64,0,0,1,.2.21.18.18,0,0,0,.13.05.19.19,0,0,0,.13-.06.19.19,0,0,0,0-.13.2.2,0,0,0-.06-.13l-.11-.13-.06-.06a.45.45,0,0,0-.17-.11l-.1,0a.55.55,0,0,0-.3.11m.31.27h0m0,0h0m0,0h0M48.22,212h0"/><path d="M48.73,210.46a.35.35,0,0,0-.21.18,2.94,2.94,0,0,0-.17.55,4,4,0,0,0-.05.68c0,.19,0,.38,0,.58s0,.56.06.84a.33.33,0,0,0,.57.21.34.34,0,0,0,.09-.23q0-.37,0-.73c0-.34,0-.69,0-1a2.44,2.44,0,0,1,.12-.53l0-.07a.36.36,0,0,0-.36-.45l-.11,0"/><path d="M49.4,210.4a5.33,5.33,0,0,0-.84.19,6.85,6.85,0,0,0-.82.33l-.08,0a.33.33,0,0,0,0,.57.32.32,0,0,0,.26,0c.24-.11.47-.21.72-.29a4.84,4.84,0,0,1,.69-.18l.28,0,.21,0v0a2,2,0,0,1,0,.38c-.06.5-.15,1-.2,1.48V213a.71.71,0,0,0,0,.2.47.47,0,0,0,.13.25l.1.08a.63.63,0,0,0,.15.06.44.44,0,0,0,.19,0l.19,0a1.39,1.39,0,0,0,.49-.36,1.89,1.89,0,0,0,.34-.51,1.78,1.78,0,0,0,.15-.59,1.9,1.9,0,0,0-.08-.65,2,2,0,0,0-.1-.27,1.91,1.91,0,0,0-.18-.31,2,2,0,0,0-.24-.28.27.27,0,0,0-.33,0,.26.26,0,0,0-.08.07l0,0a.64.64,0,0,0-.18-.16.55.55,0,0,0-.15-.06.73.73,0,0,0-.21,0,3.13,3.13,0,0,0-.41,0m.43.6h0m.05,0h0Zm.5,1.29a9.49,9.49,0,0,0,.12-1.13v0l.06.11a2.35,2.35,0,0,1,.15.49,1.65,1.65,0,0,1,0,.29,1.15,1.15,0,0,1-.22.57,2,2,0,0,1-.2.22c0-.17,0-.35.06-.52m-.29.64h0"/><path d="M52,211.14a3.42,3.42,0,0,0-.06.54c0,.11,0,.22,0,.33v.43q0,.46,0,.92a.19.19,0,0,0,.37,0c0-.27,0-.55,0-.82s0-.25,0-.38a6.63,6.63,0,0,1,0-.69q0-.12,0-.24a.17.17,0,0,0-.12-.2h0a.17.17,0,0,0-.17.13"/><path d="M52.51,210a1,1,0,0,0-.25.09,1.43,1.43,0,0,0-.36.29.23.23,0,1,0,.33.31l.15-.14.1-.06.17-.05h.16l.11,0,.05,0,0,0,0,.06v0a.67.67,0,0,1,0,.08.84.84,0,0,1,0,.11,1.31,1.31,0,0,1-.1.17,1.69,1.69,0,0,1-.25.25l-.15.12h0a.66.66,0,0,0-.13.06.24.24,0,0,0,.14.44h.11l.07,0h.16l.14,0,0,0v.06a.87.87,0,0,1,0,.12.89.89,0,0,1,0,.14,1.81,1.81,0,0,1-.16.29l-.19.23-.21.19-.17.13a.25.25,0,0,0-.29.12.24.24,0,0,0,0,.19.33.33,0,0,0,.14.18.36.36,0,0,0,.27,0l0,0,.09,0,.1-.07.2-.17.18-.17.17-.19a2,2,0,0,0,.28-.45,1.34,1.34,0,0,0,.08-.22,1,1,0,0,0,0-.25.73.73,0,0,0,0-.24.63.63,0,0,0-.14-.21l-.1-.08,0,0,0-.05a1.3,1.3,0,0,0,.24-.42.85.85,0,0,0,0-.45.58.58,0,0,0-.1-.19.78.78,0,0,0-.2-.18A.71.71,0,0,0,53,210a1,1,0,0,0-.26,0h0l-.23,0m-.07,2.89h0"/><path d="M54.12,210.39a.34.34,0,0,0-.24.11.36.36,0,0,0-.09.24c0,.3,0,.6-.06.9,0,.12,0,.25,0,.37v.24c0,.06,0,.12,0,.19a1.38,1.38,0,0,0,0,.3l.06.12.09.1.11.08.13.06a.77.77,0,0,0,.54,0,3.24,3.24,0,0,0,.72-.4c.24-.16.48-.33.7-.5a.35.35,0,0,0,.15-.2.33.33,0,0,0-.5-.36l-.45.3c-.22.14-.44.3-.68.42l-.21.08c0-.14,0-.29,0-.43s0-.25,0-.37c0-.3,0-.6.06-.9a.32.32,0,0,0-.11-.24.34.34,0,0,0-.23-.09h0m.17,2,0,0,0,0m0,0h0"/><path d="M55.44,210.87l-.72.38-.88.49a.25.25,0,0,0-.08.35.26.26,0,0,0,.35.08l1.59-.87a.25.25,0,0,0-.07-.45h-.05a.29.29,0,0,0-.14,0"/><path d="M55.91,209.77l-.72.06a4.32,4.32,0,0,0-.69.12,1.64,1.64,0,0,0-.44.2,1.18,1.18,0,0,0-.31.3.32.32,0,0,0-.08.21.29.29,0,0,0,.3.28.28.28,0,0,0,.2-.09,1.31,1.31,0,0,1,.15-.17l.16-.1a2.3,2.3,0,0,1,.48-.14l1-.13a.29.29,0,0,0,.19-.09.27.27,0,0,0-.2-.46h0"/><path d="M56.21,210.33c0,.32-.1.64-.13,1l-.07.79c0,.29-.07.58-.12.87a.23.23,0,0,0,.44.1,6.68,6.68,0,0,0,.14-.94l.07-.91c0-.26.07-.51.11-.77a.23.23,0,0,0,0-.17.22.22,0,0,0-.13-.1h0a.22.22,0,0,0-.22.17M56,212.11v0"/><path d="M56.32,210a.22.22,0,0,0,.23.21l.27,0,.27.06.1,0,0,0v0h0l0,.08,0,.07a1.33,1.33,0,0,1-.17.17l-.18.14a.68.68,0,0,0-.21.2.32.32,0,0,0,0,.31,1.56,1.56,0,0,0,.24.25l.29.26a2.43,2.43,0,0,0,.45.28,3,3,0,0,0,.57.21,3.37,3.37,0,0,0,.5.06h.24a.33.33,0,1,0,0-.65h-.49l-.27,0-.28-.09a2.31,2.31,0,0,1-.43-.24l-.21-.16-.05,0,.22-.19a1.15,1.15,0,0,0,.22-.28.68.68,0,0,0,.08-.37.5.5,0,0,0-.14-.3.73.73,0,0,0-.3-.19,2.32,2.32,0,0,0-.72-.1h0a.22.22,0,0,0-.21.23m.91.34v0"/><path d="M62.05,209.43c-.22,0-.44.08-.66.13a.2.2,0,0,0,0,.38.22.22,0,0,0,.16,0l.45-.09a2.08,2.08,0,0,1,.48,0l.09,0-.07.12a5.53,5.53,0,0,1-.41.47l-.19.2-.08.08,0,0a.54.54,0,0,0-.11.13.24.24,0,0,0,.1.32l.11,0,.12,0,.1,0,.07.06,0,.07,0,.09a.9.9,0,0,1,0,.13.94.94,0,0,1,0,.14,1.17,1.17,0,0,1-.09.16,1.35,1.35,0,0,1-.16.17,1.51,1.51,0,0,1-.25.15l-.28.09H61a.28.28,0,1,0-.13.53,1.25,1.25,0,0,0,.43,0,1.75,1.75,0,0,0,.91-.39,1.51,1.51,0,0,0,.3-.34,1.09,1.09,0,0,0,.1-.21.93.93,0,0,0,.06-.24,1,1,0,0,0-.06-.47.82.82,0,0,0-.32-.37l-.06,0,.11-.12.32-.38a1.44,1.44,0,0,0,.29-.48.35.35,0,0,0,0-.12.38.38,0,0,0-.05-.17.35.35,0,0,0-.12-.12l-.14-.06-.11,0h-.23l-.26,0m.49.35h0m0,.07h0Zm0,0h0Z"/><path d="M63.88,210.41l-.08,0-.07,0a.85.85,0,0,0-.15.14,1.46,1.46,0,0,0-.2.33,2.37,2.37,0,0,0-.15.38c0,.06,0,.12,0,.17a1,1,0,0,0,0,.23.79.79,0,0,0,.11.37,1.09,1.09,0,0,0,.11.14.81.81,0,0,0,.16.14,1.12,1.12,0,0,0,.34.15l.18,0h.19a.75.75,0,0,0,.37-.14.77.77,0,0,0,.13-.13.7.7,0,0,0,.11-.22.74.74,0,0,0,0-.19,1.41,1.41,0,0,0,0-.2,1.4,1.4,0,0,0,0-.2c0-.07,0-.14-.06-.2s-.06-.16-.09-.24-.11-.25-.16-.37a.28.28,0,0,0-.1-.1l-.08,0a.2.2,0,0,0-.14-.15l-.14,0H64l-.15,0m.16.36h0m0,0h0a.24.24,0,0,0,0,.14l.11.29a4.12,4.12,0,0,1,.17.51,1.25,1.25,0,0,1,0,.19V212l0,0,0,0-.06,0h-.14l-.16,0-.11-.06-.09-.09,0-.07,0-.08a.9.9,0,0,1,0-.14,2.21,2.21,0,0,1,.1-.38,1.77,1.77,0,0,1,.15-.3l.08-.09.06,0h.06m-.06,0,0,0,0,0"/><path d="M44.77,173.49l-.2,0-.22,0-.46.06a3.31,3.31,0,0,1-.42,0,3.48,3.48,0,0,0-.44,0l-.15,0-.14,0-.12.06-.07.06a.25.25,0,0,0-.12.22c0,.18,0,.35,0,.53s0,.33,0,.5c0,.34,0,.67-.07,1,0,.07,0,.14,0,.21v.13a1.57,1.57,0,0,0,0,.35.74.74,0,0,0,.08.28.69.69,0,0,0,.18.19l.15.09.17.06.17,0h.18l.26,0,.29-.06.38-.09.49,0,.52,0,.25,0,.27-.05a.77.77,0,0,0,.34-.2.82.82,0,0,0,.1-.13l0-.09,0-.13a1.6,1.6,0,0,0,.06-.37c0-.08,0-.15,0-.23s.06-.37.08-.56,0-.44.06-.65l0-.15a3.13,3.13,0,0,0,0-.37v-.09a.28.28,0,0,0,0-.08.57.57,0,0,0-.07-.14.65.65,0,0,0-.28-.22,1.54,1.54,0,0,0-.4-.1,5.51,5.51,0,0,0-.72-.05h-.29m1.12.7h0m-2.07.13.38,0,.38,0,.35,0a4.53,4.53,0,0,1,.73,0l.25,0c0,.15,0,.3,0,.45s0,.28,0,.42-.05.34-.08.51a5.29,5.29,0,0,1-.12.67l0,.06h0l-.19,0-.49.07-.48,0a3.07,3.07,0,0,0-.55.09l-.48.12a1.86,1.86,0,0,1-.34,0l-.07,0-.07,0h0a1,1,0,0,1,0-.13,3.7,3.7,0,0,1,0-.7c0-.21,0-.41,0-.62s0-.38,0-.57,0-.23,0-.34h.89m2.06-.11v0h0v0m0,.05h0m.06,0h0m-.37,2.1,0,0,0,0m-2.65.33v0"/><path d="M45.2,173.74a.23.23,0,0,0-.1.14l0,.16h0a.24.24,0,0,0,0-.12.24.24,0,0,0-.33-.07.23.23,0,0,0-.1.15l0,.26a.26.26,0,0,0-.15-.11.24.24,0,0,0-.21.05h0a.23.23,0,0,0-.14-.1.24.24,0,0,0-.25.1h0a.26.26,0,0,0-.09-.09l-.09,0a.21.21,0,0,0-.26.16v0a.14.14,0,0,0,0,.06c0,.22-.08.44-.11.66v0l0,.3-.06.48,0,.24c0-.13,0-.27,0-.4s0-.37,0-.56,0-.41,0-.61a.12.12,0,0,0,0-.24l-.1,0a.13.13,0,0,0-.14.06.29.29,0,0,0,0,.13c0,.05,0,.11,0,.16v.17c0,.1,0,.19,0,.29s0,.42,0,.63,0,.4,0,.59,0,.21,0,.31v.13a.74.74,0,0,0,0,.27.17.17,0,0,0,.12.11.17.17,0,0,0,.16,0l.06-.08a.22.22,0,0,0,.15.06l0,.05.07.09a.24.24,0,0,0,.18.07.25.25,0,0,0,.21-.13h0a1,1,0,0,0,.11-.16h0a.25.25,0,0,0,.2,0l.14-.11,0,0a.27.27,0,0,0,.19.07.26.26,0,0,1,.35,0,.27.27,0,0,0,.18-.08l.08-.07.05-.07h0a.32.32,0,0,0,.11.22.26.26,0,0,0,.19.07.27.27,0,0,0,.22-.14l.05-.08a.79.79,0,0,0,.07-.15,2.14,2.14,0,0,0,.07-.27l0-.13H46a.27.27,0,0,0,.15-.13.27.27,0,0,0,0-.2h0c0-.12,0-.24,0-.36s0-.2,0-.29v-.53s0-.09,0-.14a1.56,1.56,0,0,0,0-.27A.25.25,0,0,0,46,174a.26.26,0,0,0-.13,0l-.1,0a.24.24,0,0,0-.17,0s0-.05,0-.08a.24.24,0,0,0-.18-.22h-.05a.24.24,0,0,0-.13,0"/><path d="M43.06,174.28l-.05.24c0,.05,0,.11,0,.16s0,.28-.05.43,0,.51-.07.77v0a.29.29,0,0,0,0,.12.2.2,0,0,0,.05.1l.06,0h0c0,.11,0,.22,0,.33a.2.2,0,0,0,.35.13.21.21,0,0,0,.05-.14c0-.31,0-.62.05-.94,0-.13,0-.26,0-.39s0-.2,0-.3,0-.2,0-.31a1.1,1.1,0,0,0,0-.15.36.36,0,0,0-.07-.13l-.05-.05a.16.16,0,0,0-.1-.07h0a.16.16,0,0,0-.16.12"/><path d="M46.4,169.47a1.41,1.41,0,0,0-.29.13,1.13,1.13,0,0,0-.24.2,1.84,1.84,0,0,0-.21.29,1.67,1.67,0,0,0-.15.33,2.64,2.64,0,0,0-.13.56c0,.08,0,.16,0,.23s0,.13,0,.19a5,5,0,0,0-.09.54l0,.1c0,.19-.07.38-.1.57s-.06.39-.08.59a3.18,3.18,0,0,0,0,.72,2.61,2.61,0,0,0,.08.41l0,.08.06.12.08.1a.36.36,0,0,0,.12.07.4.4,0,0,0,.29,0,.37.37,0,0,0,.22-.18l0,0a.38.38,0,0,0,0-.19.89.89,0,0,0,0-.1v-.14c0-.09,0-.18,0-.27s0-.4,0-.59,0-.37,0-.55,0-.36,0-.54l0-.17c0-.07,0-.15,0-.22a3.29,3.29,0,0,1,.14-.55,3.44,3.44,0,0,1,.36-.63,1.71,1.71,0,0,1,.2-.23l.14-.09.11,0h.16l.18,0,.08.07a1.39,1.39,0,0,1,.12.19,5.06,5.06,0,0,1,.24.85,3.06,3.06,0,0,1,0,.41.38.38,0,0,0,.48.42l.09,0a.38.38,0,0,0,.13-.14.6.6,0,0,0,.06-.4.42.42,0,0,0,0-.13,1.58,1.58,0,0,0,0-.31c0-.07,0-.14-.05-.22s-.08-.3-.12-.45l-.07-.23a2.33,2.33,0,0,0-.11-.25,1.27,1.27,0,0,0-.2-.28,1,1,0,0,0-.24-.18l-.11-.05-.16-.05-.19,0h0l-.15,0h-.16a1.63,1.63,0,0,0-.49.09"/><path d="M45.41,173.79a1.94,1.94,0,0,0-.29.09.26.26,0,0,0-.17.32.26.26,0,0,0,.32.17l.25-.07h.27l.24,0,.05,0h0v0l0,.1a3,3,0,0,1,0,.68v-.06c0,.26-.09.52-.13.78a5.19,5.19,0,0,1-.13.77l-.07.12,0,0-.11.07-.21.07a5.18,5.18,0,0,1-1,0H43.41a2,2,0,0,1-.33-.06l0,0a3.17,3.17,0,0,1-.09-.36c0-.15-.07-.3-.1-.46a4.88,4.88,0,0,1,0-.54c0-.21,0-.41,0-.62a2.36,2.36,0,0,1,.09-.46v0a.24.24,0,0,0,.22,0,.25.25,0,0,0,.08-.35.52.52,0,0,0-.1-.11.35.35,0,0,0-.22-.08.42.42,0,0,0-.21.05.65.65,0,0,0-.19.19,1.52,1.52,0,0,0-.16.31,3.9,3.9,0,0,0-.14.39,2.35,2.35,0,0,0-.06.34,6.21,6.21,0,0,0,0,.73,4.18,4.18,0,0,0,.11.72l0,.2a2,2,0,0,0,.06.32,1.32,1.32,0,0,0,.09.19l0,0a.55.55,0,0,0,.11.12.89.89,0,0,0,.23.14,1.3,1.3,0,0,0,.31.1l.26,0,.35,0,.5,0h.19c.16,0,.32,0,.47,0l.24,0,.34-.06a1.78,1.78,0,0,0,.46-.16,1.4,1.4,0,0,0,.34-.26,1.18,1.18,0,0,0,.26-.47,6.57,6.57,0,0,0,.16-1,7.31,7.31,0,0,0,.1-1.16,1.64,1.64,0,0,0,0-.35.86.86,0,0,0,0-.13.63.63,0,0,0-.12-.19.87.87,0,0,0-.17-.14.6.6,0,0,0-.14-.06l-.18,0-.32,0h-.1l-.21,0m.7.62h0M43,176.83v0m0,.07h0"/></g></g></svg>