<?xml version="1.0" encoding="utf-8"?><!DOCTYPE svg PUBLIC "-//W3C//DTD SVG 1.1//EN" "http://www.w3.org/Graphics/SVG/1.1/DTD/svg11.dtd"><svg version="1.1" id="Contours" xmlns="http://www.w3.org/2000/svg" xmlns:xlink="http://www.w3.org/1999/xlink" x="0px" y="0px" width="972.318481px" height="972.318481px" viewBox="-0.000000 0.000000 972.318481 1803.940063" enable-background="new 0 0 972.318481 972.318481" xml:space="preserve" stroke="black" fill="none" stroke-linecap='round' stroke-linejoin='round'><path class="selected"  fill="#000000" opacity="1.000000" stroke="none" 
 	d="
M182.797780 0.000000 C187.840565 0.666666 192.641804 1.278169 197.424397 2.011347 C207.758336 3.595557 218.093770 5.175470 228.407841 6.882508 C238.213185 8.505345 248.007313 10.206121 257.778431 12.022830 C267.660206 13.860112 277.478383 16.050959 287.379719 17.767996 C295.060200 19.099909 302.830342 19.909018 310.552418 21.008265 C319.671650 22.306393 328.767567 23.778649 337.902150 24.953387 C342.563099 25.552800 347.283345 25.722842 351.982380 25.986691 C358.841267 26.371817 365.702595 26.740231 372.567494 26.986056 C392.289540 27.692273 412.012562 28.376498 431.737813 28.984970 C445.097035 29.397066 458.460713 29.930004 471.822255 29.926836 C485.517323 29.923592 499.213215 29.368040 512.906910 28.988345 C522.770314 28.714852 532.630787 28.337727 542.492360 27.998747 C552.020985 27.671214 561.549611 27.342852 571.077565 26.997965 C589.301259 26.338311 607.595509 26.458292 625.733082 24.833187 C662.115346 21.573374 698.538014 22.955294 734.913319 23.362389 C751.140126 23.543995 767.354786 27.452984 783.517994 30.027460 C804.687794 33.399369 824.726613 40.615498 843.179005 51.239495 C855.482106 58.323002 866.861073 67.206597 877.943348 76.163384 C890.219472 86.085083 898.954762 99.174576 906.345082 112.983498 C909.592396 119.051155 911.790272 125.734986 913.976613 132.301529 C916.470814 139.793198 918.880482 147.370102 920.490468 155.084534 C922.462758 164.535218 923.627247 174.158173 925.030995 183.722794 C926.440358 193.325806 927.801625 202.937668 929.017506 212.566666 C929.842946 219.103684 930.339100 225.681565 931.056264 232.233078 C932.696095 247.212006 934.491810 262.174805 936.005910 277.166199 C936.901539 286.033417 937.162343 294.965729 938.098012 303.827668 C939.575856 317.823609 941.457936 331.776429 943.016957 345.764466 C943.857045 353.302155 944.293873 360.884003 945.067555 368.430085 C946.327504 380.718384 947.761403 392.988831 949.023854 405.276917 C949.504567 409.956910 949.539052 414.685242 950.083485 419.355805 C951.302785 429.816559 952.806874 440.244263 954.015919 450.706116 C954.848622 457.910614 955.334706 465.154480 956.057850 472.372528 C957.355275 485.323548 958.835927 498.257508 959.998341 511.220276 C960.611439 518.057007 960.422841 524.968994 961.115040 531.794373 C962.194081 542.434327 963.785756 553.021424 964.999562 563.649170 C965.318959 566.445984 964.914418 569.317566 965.069508 572.142273 C966.026234 589.563416 967.031788 606.981934 968.059193 624.399048 C968.316823 628.765320 968.882985 633.118286 969.016469 637.486206 C969.434865 651.178589 969.149525 664.916504 970.147267 678.562928 C974.109486 732.759827 971.319386 787.016846 971.904591 841.239930 C972.122731 861.453858 970.726552 881.685669 970.042164 901.908509 C969.742177 910.771363 969.408864 919.633362 969.041676 928.493714 C968.396901 944.051514 967.768666 959.610230 967.030446 975.163758 C966.450123 987.391419 965.763051 999.614685 965.032582 1011.834412 C964.441151 1021.729248 963.700368 1031.614991 963.051014 1041.506592 C962.038807 1056.924561 961.071461 1072.345459 960.038746 1087.762085 C959.420765 1096.989014 958.672719 1106.207276 958.058644 1115.434449 C957.345204 1126.154908 956.810475 1136.888062 956.022389 1147.602784 C955.132802 1159.696411 953.963612 1171.769410 953.069264 1183.862793 C951.978749 1198.608155 951.025868 1213.364014 950.053822 1228.117920 C949.027028 1243.701661 948.073598 1259.290284 947.037953 1274.873413 C946.424733 1284.100586 945.730092 1293.322388 945.044484 1302.544678 C943.722584 1320.326172 942.320973 1338.102051 941.065907 1355.888184 C939.978261 1371.300904 939.247914 1386.740967 937.984791 1402.138184 C936.961537 1414.611084 935.308766 1427.031128 934.096303 1439.490479 C933.774952 1442.792481 934.208973 1446.161377 934.020619 1449.483887 C933.080006 1466.072754 932.104359 1482.660035 931.023366 1499.240235 C930.497487 1507.306397 929.631886 1515.350098 929.068165 1523.414307 C928.319020 1534.132080 927.778248 1544.864502 927.033558 1555.582764 C925.751515 1574.033692 924.392201 1592.479248 923.043934 1610.925537 C922.063099 1624.345703 921.147084 1637.771729 920.020863 1651.179932 C918.806508 1665.637329 917.797719 1680.132325 915.893300 1694.504029 C914.729542 1703.286255 912.070424 1711.872437 910.042348 1720.537354 C907.166737 1732.823120 902.495961 1744.644410 895.813222 1755.088745 C883.751576 1773.939698 868.265980 1789.537110 846.029286 1796.387207 C841.087208 1797.909546 835.779957 1798.625977 830.596425 1798.914063 C814.385914 1799.814942 798.153004 1800.308106 781.931202 1801.013550 C776.232350 1801.261475 770.544362 1801.826905 764.844472 1801.969727 C748.151600 1802.388062 731.456715 1802.785401 714.760121 1802.975586 C678.566517 1803.388062 642.371876 1803.792847 606.176625 1803.936524 C592.149830 1803.992310 578.119069 1803.377076 564.092396 1802.984131 C555.228261 1802.735962 546.368580 1802.330933 537.506764 1802.000733 C528.478383 1801.664307 519.446827 1801.401001 510.422230 1800.983887 C497.362416 1800.380127 484.304585 1799.721558 471.251790 1798.982422 C461.023152 1798.403321 450.798451 1797.735230 440.581135 1796.982788 C427.990254 1796.055664 415.405812 1795.035889 402.824177 1793.989380 C391.401143 1793.039429 379.970540 1792.144776 368.570363 1790.964112 C353.912312 1789.445801 339.288716 1787.597779 324.635670 1786.028077 C316.928975 1785.202393 309.164784 1784.884522 301.473652 1783.949829 C289.308125 1782.471070 277.193959 1780.573487 265.034840 1779.036255 C258.169911 1778.168335 251.232777 1777.861573 244.374882 1776.950562 C235.899815 1775.824463 227.431828 1774.550171 219.035954 1772.946411 C207.961094 1770.830933 196.920582 1768.500489 185.934636 1765.962403 C167.667866 1761.742066 149.628224 1756.531128 132.564519 1748.784424 C118.930516 1742.594727 105.520093 1735.660767 92.818989 1727.757813 C84.545994 1722.610108 77.650967 1715.214112 70.265751 1708.681641 C59.974232 1699.578492 51.512322 1688.882325 44.718499 1677.018799 C39.284440 1667.529541 33.890000 1657.961304 30.981705 1647.215210 C28.396992 1637.664673 25.093602 1628.310059 22.419966 1618.781372 C21.232789 1614.550293 20.359862 1610.128052 20.124627 1605.750611 C18.956189 1584.007691 17.787530 1562.258301 17.158984 1540.495606 C16.850619 1529.819092 17.493020 1519.095948 18.103671 1508.416748 C18.871731 1494.984742 20.055314 1481.576538 21.045149 1468.156861 C21.725426 1458.934327 22.778599 1449.718018 22.972180 1440.484497 C23.521250 1414.294312 23.944583 1388.096558 23.937573 1361.901978 C23.934659 1351.011597 22.722375 1340.120850 22.045518 1329.231202 C21.389287 1318.673584 20.771697 1308.113160 20.035117 1297.561036 C18.747178 1279.110474 17.373311 1260.666138 16.050982 1242.217896 C15.366046 1232.662232 14.674172 1223.106812 14.058341 1213.546509 C13.346285 1202.492432 12.662470 1191.436158 12.065390 1180.375367 C11.641261 1172.518433 11.397523 1164.652100 11.044228 1156.791138 C10.389977 1142.233765 10.747853 1127.533692 8.750964 1113.161621 C6.835352 1099.374634 7.523272 1085.683350 7.032683 1071.950196 C6.429235 1055.057862 5.713391 1038.169312 5.048222 1021.279114 C4.712359 1012.750794 4.321856 1004.224121 4.061710 995.693482 C3.674620 983.000122 3.375995 970.304016 3.049191 957.608826 C2.709524 944.414002 2.334030 931.219910 2.059203 918.023682 C1.680296 899.829773 1.249681 881.635437 1.074081 863.439026 C0.658861 820.412110 0.174527 777.384217 0.092295 734.356079 C-0.062184 653.524659 0.005138 572.692749 0.092465 491.861176 C0.106000 479.332459 0.864985 466.806305 1.018817 454.275727 C1.436547 420.248871 1.665496 386.219727 2.066760 352.192627 C2.295094 332.829865 2.725606 313.469544 3.044764 294.107758 C3.391388 273.079834 3.665144 252.050553 4.066999 231.023713 C4.293733 219.160004 4.338276 207.274201 5.148895 195.445221 C6.038246 182.467362 6.827845 169.371460 9.296132 156.644135 C11.784504 143.813248 13.883860 130.901245 17.679089 118.214470 C22.414155 102.386002 28.237164 87.059693 36.315564 72.934845 C46.473313 55.174317 59.525685 39.270214 75.962643 26.706429 C88.992535 16.746880 103.727658 9.707972 119.463849 5.305427 C128.406651 2.803482 137.836995 2.044119 147.047780 0.250000 C158.881108 0.000000 170.714451 0.000000 182.797780 0.000000 M870.547780 1761.000000 C872.381093 1758.574829 874.247670 1756.173828 876.042042 1753.720215 C884.374440 1742.327637 889.621876 1729.376831 893.883900 1716.129151 C896.745228 1707.234986 898.596669 1697.917969 899.922597 1688.650269 C902.055653 1673.741333 903.654042 1658.740723 904.978139 1643.734864 C906.603505 1625.313599 907.755910 1606.849732 909.032033 1588.398804 C909.784779 1577.514649 910.329213 1566.616089 911.060841 1555.730347 C912.007741 1541.641602 913.120411 1527.563599 914.029042 1513.472535 C915.108876 1496.725830 916.000355 1479.967041 917.067311 1463.219483 C917.623524 1454.489014 918.513112 1445.778687 919.017262 1437.045899 C919.799489 1423.495850 920.384266 1409.934327 921.041371 1396.377198 C921.089772 1395.379639 920.977894 1394.372071 921.058339 1393.378540 C922.376942 1377.096924 923.704823 1360.815918 925.055470 1344.536988 C925.334767 1341.170777 925.786061 1337.817994 926.035328 1334.449952 C927.065175 1320.533692 928.021657 1306.611817 929.057667 1292.695923 C929.670216 1284.468384 930.552479 1276.257691 931.013600 1268.022583 C932.119252 1248.276856 933.049306 1228.521241 934.042409 1208.769165 C934.084218 1207.937867 933.976552 1207.095703 934.058461 1206.270508 C935.376759 1192.988404 936.856190 1179.720581 938.002186 1166.423951 C938.896107 1156.053345 939.465382 1145.652100 940.029652 1135.256470 C941.092518 1115.674805 942.053883 1096.087647 943.036732 1076.501587 C943.120167 1074.839234 942.944935 1073.161744 943.063588 1071.503540 C944.371754 1053.221436 945.705678 1034.941040 947.054616 1016.661805 C947.339894 1012.796448 947.814747 1008.943299 948.029469 1005.074890 C948.744557 992.187561 949.401234 979.296814 950.042348 966.405579 C950.733143 952.516724 951.462330 938.629090 952.027699 924.734986 C952.775868 906.348450 953.701954 887.960938 953.980275 869.565186 C954.540516 832.541443 954.786061 795.512146 954.992238 758.484192 C955.037831 750.291321 954.214589 742.097351 954.077077 733.899109 C953.525441 701.007203 955.026417 668.101014 952.209767 635.217774 C950.641224 616.905152 950.738026 598.450989 950.035267 580.062561 C949.779286 573.364563 949.334950 566.673951 949.056874 559.976685 C948.362599 543.254578 947.711720 526.530701 947.053761 509.807068 C947.007985 508.642243 947.152821 507.463044 947.031666 506.309113 C945.724232 493.859162 944.318104 481.419281 943.070668 468.963440 C942.281666 461.085480 941.637623 453.190857 941.064442 445.293824 C940.006154 430.712830 939.063893 416.123413 938.041920 401.539734 C937.407033 392.480652 936.714284 383.425629 936.049306 374.368622 C936.037098 374.202881 936.064503 374.033478 936.045399 373.869049 C934.381337 359.559632 932.703358 345.251862 931.052968 330.940888 C930.354909 324.887513 929.770070 318.820801 929.035573 312.772065 C927.746205 302.152741 926.349476 291.546448 925.060048 280.927155 C924.325551 274.878418 923.831166 268.799103 923.022999 262.761078 C921.440785 250.940583 919.697377 239.141755 918.055348 227.329132 C917.265126 221.644776 916.662709 215.932465 915.779835 210.263276 C914.638051 202.931916 913.261708 195.637421 912.058949 188.315140 C910.903554 181.281052 910.308583 174.117005 908.617055 167.218567 C906.558522 158.823517 903.353993 150.715439 901.110585 142.358292 C898.071950 131.038636 893.244740 120.566147 887.160451 110.631096 C876.516469 93.250382 862.428456 79.446160 845.190541 68.438836 C827.991994 57.456711 809.221852 50.461647 789.817921 45.205849 C778.284535 42.081906 766.252736 40.544533 754.346486 39.114689 C739.289723 37.306496 724.154469 35.705536 709.012562 35.180477 C694.513478 34.677700 679.960927 35.603966 665.435048 36.014756 C643.877003 36.624421 622.320729 37.301003 600.766163 38.022255 C595.232838 38.207405 589.711781 38.734105 584.179677 38.987114 C568.791432 39.690911 553.400563 40.338040 538.010365 40.998074 C529.982472 41.342358 521.955067 41.700848 513.925221 41.991406 C503.731618 42.360264 493.531910 43.038105 483.341511 42.933407 C446.281849 42.552655 409.183766 44.441166 372.168660 41.051087 C364.672688 40.364556 357.114033 40.383053 349.589406 39.980484 C345.388508 39.755734 341.175679 39.507080 337.007313 38.967186 C324.852833 37.392918 312.714955 35.688729 300.576527 33.992836 C291.290791 32.695511 281.958546 31.632710 272.747975 29.921870 C261.986104 27.922888 251.387013 25.043812 240.621144 23.071333 C226.307835 20.448902 211.972325 17.593371 197.515050 16.212878 C183.690678 14.892824 169.679905 14.757210 155.785847 15.197705 C146.139256 15.503540 136.419072 17.060490 126.965214 19.126644 C107.500378 23.380713 90.349507 32.518723 75.624821 45.972081 C64.569264 56.073101 55.539063 67.681481 48.331269 80.955704 C42.305409 92.053215 37.558640 103.463776 33.903325 115.511093 C30.177186 127.791840 26.489289 139.993088 24.974019 152.821473 C22.938284 170.056137 19.922429 187.183243 18.192849 204.443253 C16.808173 218.261307 16.525954 232.202790 16.088610 246.100022 C15.279257 271.818451 14.617493 297.542511 14.076981 323.268097 C13.603720 345.792939 13.377266 368.322968 13.048846 390.850830 C12.710711 414.045166 12.313471 437.238892 12.063357 460.434235 C11.671294 496.794190 11.155795 533.155030 11.120089 569.515931 C11.092238 597.876465 11.772400 626.237122 12.034110 654.598694 C12.420376 696.458619 12.659113 738.319947 13.076993 780.179505 C13.228695 795.376038 13.707322 810.569397 14.049300 825.763855 C14.710764 855.153443 15.399033 884.542420 16.041930 913.932373 C16.528174 936.161133 15.954632 958.359070 17.719494 980.627381 C19.788960 1006.739136 19.273961 1033.050415 20.093476 1059.268555 C20.496646 1072.166870 21.427521 1085.047974 22.035723 1097.940796 C22.753752 1113.161621 23.379956 1128.386841 24.048264 1143.610108 C24.378769 1151.138550 24.689503 1158.667969 25.053265 1166.194825 C25.700432 1179.585816 26.345933 1192.976929 27.058461 1206.364502 C27.673695 1217.924073 28.410882 1229.477051 29.039849 1241.035889 C29.741143 1253.923951 30.420041 1266.813721 31.034016 1279.706177 C31.439995 1288.231079 31.634068 1296.766114 32.067414 1305.289429 C32.655198 1316.850220 33.467499 1328.399781 34.026600 1339.961670 C34.778679 1355.514283 35.890683 1371.072632 35.927071 1386.630738 C35.980225 1409.359986 36.947239 1432.107300 34.198151 1454.817871 C32.690487 1467.272828 32.710137 1479.912842 32.049553 1492.469971 C31.706154 1498.997681 31.616601 1505.548951 30.996930 1512.049927 C29.840653 1524.180786 27.416672 1536.272705 27.291569 1548.399170 C27.134717 1563.603638 25.417313 1578.908326 28.904599 1594.099366 C30.717858 1601.998169 30.612526 1610.320923 32.142014 1618.304932 C34.978837 1633.113282 40.304677 1647.169800 47.870637 1660.164551 C56.539967 1675.054200 67.554318 1688.013672 80.702725 1699.410157 C97.996358 1714.399414 117.553685 1725.307251 138.473195 1733.905640 C157.545735 1741.745118 177.061421 1748.337525 197.466237 1752.054444 C214.300145 1755.120850 230.999959 1758.931885 247.849141 1761.902954 C258.371083 1763.758301 269.069386 1764.596680 279.671467 1766.018677 C291.491566 1767.604004 303.273274 1769.486573 315.106801 1770.957642 C327.363728 1772.481202 339.651753 1773.780152 351.946431 1774.967408 C363.850636 1776.117188 375.775837 1777.062256 387.700764 1777.980713 C397.583668 1778.741822 407.477192 1779.372193 417.370411 1779.989746 C428.757771 1780.700562 440.146901 1781.392945 451.540883 1781.984864 C465.594258 1782.714966 479.651570 1783.376587 493.710744 1783.984864 C503.235615 1784.397095 512.765065 1784.720337 522.295216 1784.987183 C535.988576 1785.370606 549.685475 1785.990113 563.378956 1785.944580 C625.572377 1785.737915 687.765492 1785.388794 749.957936 1784.971192 C773.153493 1784.815430 796.348195 1784.400635 819.540822 1783.969971 C830.197743 1783.772095 840.611134 1781.464356 849.853383 1776.374390 C857.113453 1772.375977 863.354176 1766.526978 870.547780 1761.000000 z"/><path class="selected"  fill="#000000" opacity="1.000000" stroke="none" 
 	d="
M869.047780 847.000000 C868.714467 861.527832 868.415150 875.556580 868.036427 889.583191 C867.761159 899.779480 867.288319 909.970887 867.067921 920.168030 C866.663930 938.860718 866.421986 957.556946 866.033375 976.250000 C865.776295 988.612854 865.370534 1000.972596 865.050587 1013.334168 C864.704762 1026.695069 864.390797 1040.056763 864.044911 1053.417603 C863.724904 1065.779175 863.329579 1078.139161 863.060109 1090.501709 C862.678029 1108.028321 862.432423 1125.557984 862.027028 1143.083863 C861.810536 1152.447998 861.288075 1161.804932 861.067982 1171.169068 C860.663807 1188.361695 860.428029 1205.558350 860.037037 1222.751343 C859.410512 1250.307862 858.736378 1277.863526 858.041310 1305.418457 C857.405018 1330.641724 856.671803 1355.862549 856.062611 1381.086426 C855.651356 1398.112305 855.187916 1415.140137 855.081837 1432.169312 C854.665272 1499.026978 854.352406 1565.885620 854.095326 1632.744141 C854.071522 1638.937744 854.660328 1645.137329 855.059437 1651.328003 C855.817433 1663.083496 852.014210 1673.691895 844.741078 1682.371460 C839.838368 1688.222657 833.159779 1693.029786 826.436207 1696.811768 C815.099843 1703.188477 803.106618 1708.300904 789.936390 1710.054078 C779.425099 1711.453125 769.021229 1713.721680 758.490956 1714.900269 C745.786427 1716.322266 733.014454 1717.417481 720.243153 1717.901612 C701.396718 1718.616089 682.523366 1718.986939 663.664784 1718.886475 C651.271779 1718.820557 638.876149 1717.791993 626.496998 1716.964966 C613.901356 1716.123291 601.315663 1715.098633 588.742360 1713.967408 C579.475453 1713.133789 570.242360 1711.931275 560.982045 1711.015992 C546.874501 1709.621582 532.751637 1708.381836 518.644276 1706.985718 C505.857228 1705.720215 493.084920 1704.306519 480.301106 1703.007447 C466.857503 1701.641114 453.404011 1700.371338 439.962147 1698.988770 C427.509724 1697.707764 415.070820 1696.296143 402.618764 1695.011475 C392.372761 1693.954712 382.100056 1693.139893 371.868947 1691.959961 C361.900624 1690.810425 351.979024 1689.260498 342.018788 1688.033692 C337.681782 1687.499512 333.296773 1687.365967 328.938374 1686.994019 C313.490223 1685.676026 298.031087 1684.466675 282.601674 1682.955567 C271.299061 1681.848633 260.007405 1680.539795 248.762318 1678.955689 C227.708516 1675.989746 206.744786 1672.424073 187.455601 1662.843384 C168.809041 1653.581910 154.143330 1639.738648 143.111455 1622.179078 C137.019581 1612.482788 132.862523 1601.873169 128.790288 1591.117554 C123.721348 1577.729248 121.092457 1563.872925 118.190335 1550.048951 C116.709797 1542.996338 116.719342 1535.631470 116.046742 1528.408692 C114.716931 1514.128052 113.373646 1499.848755 112.061795 1485.566407 C111.955533 1484.409546 112.059796 1483.234497 112.046017 1482.067994 C111.714940 1454.040894 111.436467 1426.013062 111.018605 1397.987305 C110.866566 1387.789795 110.288365 1377.599366 110.067936 1367.402222 C109.663853 1348.709595 109.466237 1330.012207 109.026776 1311.320435 C108.445462 1286.595948 108.698582 1261.797730 106.765942 1237.174561 C104.901463 1213.420044 105.517811 1189.713623 105.012944 1165.985474 C104.504574 1142.092896 103.697758 1118.206787 103.054211 1094.317017 C102.685338 1080.623291 102.415814 1066.927124 102.036122 1053.233887 C101.762623 1043.370850 101.340779 1033.511841 101.057744 1023.649170 C100.683911 1010.622376 100.394353 997.593262 100.043843 984.565857 C99.729184 972.870728 99.386670 961.176331 99.046185 949.481934 C98.720250 938.287049 98.360051 927.093140 98.053288 915.897828 C97.696347 902.870545 97.345501 889.842957 97.056698 876.814087 C96.686658 860.120545 96.433514 843.424378 96.035687 826.731568 C95.414685 800.674683 94.737637 774.619141 94.040944 748.564148 C93.406590 724.840699 92.695073 701.119385 92.055165 677.396057 C91.681302 663.536011 91.409947 649.673096 91.038472 635.812989 C90.751805 625.117066 90.300343 614.425171 90.065823 603.728333 C89.666966 585.535462 89.458546 567.338379 89.028996 549.146363 C88.437329 524.088745 88.712956 498.956177 86.760899 474.000885 C84.889630 450.078431 85.532147 426.205841 85.014378 402.311524 C84.500279 378.585633 83.693364 354.866272 83.055760 331.142914 C82.678776 317.116242 82.413746 303.086579 82.036976 289.059937 C81.758618 278.697083 81.293812 268.338837 81.066983 257.975129 C80.665166 239.615708 80.536671 221.249131 79.997357 202.894257 C79.584134 188.830399 77.750760 174.740738 78.320462 160.734619 C78.883366 146.895493 79.824009 132.629685 85.236638 119.704491 C93.624241 99.675156 108.707661 87.136017 130.507115 82.893036 C141.898640 80.675812 153.221791 78.998635 164.867909 78.880127 C176.263402 78.764176 187.648915 77.666664 199.038807 77.000000 C210.428700 76.333329 221.914311 76.349976 233.176594 74.772309 C241.400563 73.620278 248.844075 74.559693 256.254048 77.714974 C262.559559 80.399979 264.912678 89.393731 263.799702 94.785553 C262.748128 99.879731 261.402943 105.000634 261.154744 110.156372 C260.499562 123.767372 267.823018 133.272400 278.758565 139.887940 C291.395436 147.532715 305.512013 150.838349 320.212269 152.065369 C332.352650 153.078736 344.438771 154.728638 356.561848 155.970200 C361.571766 156.483277 366.611409 156.755631 371.644520 156.983475 C387.365468 157.695145 403.089436 158.340332 418.812855 158.997177 C427.173665 159.346466 435.532918 159.827927 443.897664 159.969635 C468.590138 160.387940 493.284260 160.824494 517.979176 160.932831 C530.172047 160.986344 542.369435 160.374497 554.562184 159.985413 C562.592824 159.729172 570.627614 159.471329 578.645253 158.969712 C592.903676 158.077607 607.172658 157.239228 621.394337 155.916809 C631.048695 155.019074 640.634694 153.367676 650.242055 151.989350 C658.185353 150.849747 662.259816 144.928345 663.843068 138.277466 C667.699818 122.075882 676.292348 109.531441 690.900807 101.953301 C699.310353 97.590874 708.557423 94.342858 717.799367 92.189255 C736.942921 87.728348 756.506825 86.471413 776.181569 86.972649 C796.716054 87.495797 811.940419 96.602501 822.072011 114.467957 C828.028554 124.971306 831.928395 136.016053 834.294484 147.960190 C836.797535 160.595871 838.923146 173.188706 840.163869 186.010361 C841.279591 197.539338 843.603444 208.946411 844.975087 220.457215 C846.009327 229.136780 846.187977 237.915467 847.096852 246.613526 C848.225575 257.415345 849.811879 268.168671 851.014393 278.963684 C851.853993 286.501191 852.498097 294.065369 853.023366 301.631958 C854.104603 317.211243 854.151906 332.931000 856.402699 348.333130 C857.641530 356.809937 857.555958 365.149018 858.075184 373.553498 C858.976552 388.144562 860.056202 402.724549 861.044972 417.310303 C861.726674 427.365937 862.607533 437.414521 863.000722 447.481842 C863.822682 468.531830 863.353200 489.690125 865.349354 510.619355 C867.187123 529.887635 866.246449 549.102661 867.116444 568.313416 C871.314686 661.021668 867.941884 753.775330 869.047780 847.000000 M101.047780 583.500000 C101.381116 591.236206 101.801541 598.969849 102.028607 606.709168 C102.430348 620.402100 102.688283 634.099244 103.053540 647.793335 C103.699658 672.017212 104.463833 696.238221 105.023747 720.463990 C105.549054 743.192200 105.042470 765.893006 106.722226 788.657532 C108.760403 816.279480 108.396092 844.079590 109.041951 871.803284 C109.407567 887.497437 109.671406 903.194092 110.063298 918.887513 C110.313771 928.917969 110.758053 938.943421 111.037098 948.973328 C111.413441 962.500367 111.674237 976.030762 112.056843 989.557618 C112.690159 1011.948548 113.485547 1034.335328 114.022778 1056.728516 C114.787785 1088.615967 115.356488 1120.508057 116.060963 1152.397095 C116.312001 1163.760620 116.723950 1175.120484 117.045193 1186.482544 C117.389966 1198.677124 117.700322 1210.872803 118.051999 1223.067261 C118.365262 1233.929566 118.718442 1244.790528 119.046681 1255.652344 C119.384984 1266.847290 119.808476 1278.040528 120.027402 1289.237793 C120.431996 1309.931275 120.660557 1330.628052 121.070988 1351.321289 C121.269963 1361.352295 121.765660 1371.377198 122.035481 1381.407227 C122.417302 1395.600830 122.599003 1409.800660 123.078663 1423.990601 C123.610310 1439.718750 124.389378 1455.438355 125.045491 1471.162354 C125.722447 1487.385376 126.270161 1503.614991 127.106190 1519.829712 C127.410863 1525.738526 127.983204 1531.692383 129.138997 1537.484986 C131.153615 1547.582154 133.670430 1557.580689 136.063664 1567.599854 C137.654393 1574.259400 138.488148 1581.294678 141.269902 1587.432373 C146.219151 1598.352417 151.994328 1608.955201 158.149693 1619.257080 C165.488011 1631.538575 175.761677 1641.185547 187.629750 1649.174805 C189.774663 1650.618775 190.173741 1650.164429 190.042714 1647.952881 C189.724949 1642.590210 189.307881 1637.232544 189.061680 1631.866700 C188.355580 1616.478394 187.712758 1601.087036 187.052388 1585.696534 C187.016697 1584.864746 187.112767 1584.024292 187.038121 1583.197632 C185.718113 1568.582398 184.242131 1553.979493 183.102315 1539.350342 C182.465642 1531.178955 182.439931 1522.961548 182.034031 1514.770142 C181.419957 1502.377198 180.710957 1489.989258 180.048756 1477.598755 C179.377659 1465.042115 178.647221 1452.488037 178.064702 1439.927246 C177.327946 1424.040284 176.681935 1408.148804 176.056401 1392.257080 C175.352238 1374.368409 174.600880 1356.480591 174.074650 1338.586426 C173.303593 1312.366211 172.290532 1286.143067 172.137456 1259.916870 C171.833973 1207.919678 171.886433 1155.918946 172.139622 1103.921265 C172.222676 1086.861573 173.606480 1069.812134 173.988698 1052.749024 C174.430745 1033.015137 173.080525 1013.225159 176.051381 993.580689 C176.833195 988.411011 177.141362 983.098267 178.581624 978.115601 C181.020222 969.678711 183.964680 961.367066 187.113392 953.162720 C189.981068 945.690674 195.034504 939.656494 200.550358 933.866516 C209.414662 924.561646 220.946614 923.118409 232.676854 922.021546 C244.419880 920.923523 256.171620 919.898072 267.933278 919.025635 C282.844227 917.919617 297.768483 916.993164 312.687886 916.002320 C322.910695 915.323365 333.132008 914.616639 343.359364 914.012940 C355.579701 913.291504 367.802479 912.597657 380.030140 912.017395 C395.583607 911.279175 411.140217 910.591126 426.700551 910.018860 C446.921101 909.275208 467.142171 908.387574 487.371052 908.062073 C522.061879 907.503846 556.758595 907.251892 591.453785 907.057190 C600.146718 907.008362 608.840931 907.820313 617.539174 907.970581 C641.732411 908.388672 665.941090 908.302307 690.117238 909.159058 C701.597523 909.565979 713.268422 910.608765 724.406483 913.247864 C741.114247 917.206604 753.411061 927.186402 760.170033 943.718018 C765.414418 956.545288 765.517689 970.101258 766.809681 983.390747 C768.458607 1000.352051 768.403859 1017.480347 769.041615 1034.538208 C769.735341 1053.093994 770.435597 1071.649903 771.029469 1090.208985 C771.456898 1103.567505 771.667958 1116.932984 772.065114 1130.292725 C772.303883 1138.323975 772.731251 1146.349366 773.044240 1154.378540 C773.722157 1171.768311 774.403248 1189.157837 775.039357 1206.549195 C775.418324 1216.909180 775.687062 1227.273194 776.053822 1237.633667 C776.698903 1255.857911 777.383473 1274.080689 778.047108 1292.304200 C778.716786 1310.694214 779.447804 1329.082398 780.030995 1347.475098 C780.767262 1370.696167 781.355275 1393.921997 782.061940 1417.144043 C782.306325 1425.175293 782.746083 1433.200318 783.039723 1441.230103 C783.406422 1451.257203 784.085133 1461.290406 783.982228 1471.314209 C783.579579 1510.540650 785.565968 1549.807984 782.069630 1588.985840 C781.577504 1594.500122 781.399464 1600.041993 781.042470 1605.568848 C780.696950 1610.917115 780.582448 1616.299317 779.873768 1621.600708 C778.827260 1629.430176 777.287037 1637.192261 776.061574 1644.999512 C774.340138 1655.966919 772.725636 1666.951050 771.004323 1677.918579 C770.939686 1678.330323 770.235585 1678.641846 769.829518 1679.000000 C769.568959 1678.662964 769.113087 1678.342041 769.083668 1677.985962 C768.987782 1676.827271 769.047780 1675.655518 769.047780 1674.488892 C769.047780 1629.156617 769.158681 1583.823853 769.003407 1538.492066 C768.919362 1513.963135 768.399403 1489.435669 768.042164 1464.907959 C767.735829 1443.879395 767.415516 1422.850953 767.036183 1401.823731 C766.762135 1386.627686 766.383961 1371.433594 766.046986 1356.238770 C765.717396 1341.377076 765.418324 1326.514527 765.035084 1311.654297 C764.767811 1301.290894 764.372792 1290.930786 764.049611 1280.568848 C763.377125 1259.012207 762.763722 1237.453736 762.032338 1215.899170 C761.442189 1198.506470 760.724354 1181.118164 760.044911 1163.728516 C759.391469 1147.004517 758.742726 1130.280152 758.039296 1113.558228 C757.412831 1098.666382 756.660389 1083.779663 756.065846 1068.886597 C755.639149 1058.195313 755.495900 1047.492188 755.017201 1036.803589 C754.484303 1024.907349 753.692677 1013.022950 753.053700 1001.131226 C752.361012 988.242371 751.682545 975.352600 751.059804 962.460205 C750.688710 954.777771 748.011159 948.055542 742.880482 942.348389 C734.856251 933.422791 723.428090 931.147766 712.761098 928.253113 C700.187306 924.840943 687.160328 922.856385 674.213063 921.128174 C660.007496 919.231934 645.677052 917.348023 631.386098 917.227051 C609.003285 917.037537 586.605031 918.249512 564.218983 919.029969 C549.656544 919.537659 535.104481 920.339295 520.547291 920.998291 C505.657399 921.672425 490.767689 922.349915 475.876546 922.993653 C467.349660 923.362244 458.818043 923.623169 450.292073 924.009827 C436.400197 924.639893 422.511036 925.330140 408.621022 926.000855 C394.897297 926.663453 381.174763 927.352234 367.450093 927.994873 C352.727650 928.684265 338.002034 929.307007 323.280140 930.007813 C310.054829 930.637390 296.836018 931.411927 283.608082 931.975281 C272.918233 932.430664 262.212147 932.523743 251.526112 933.042481 C241.959309 933.506958 232.261113 933.502991 222.886357 935.185242 C206.885121 938.056397 197.873753 946.363099 196.042241 963.444275 C195.410252 969.338379 194.835896 975.242615 194.019276 981.112122 C192.795460 989.908203 191.033970 998.642212 190.130009 1007.467041 C188.810063 1020.353089 187.949620 1033.289673 187.076619 1046.217041 C186.274281 1058.098145 185.457005 1069.988037 185.106831 1081.887574 C184.551991 1100.742554 184.094288 1119.609253 184.120213 1138.470215 C184.152791 1162.165406 184.628712 1185.861451 185.071400 1209.554078 C185.533452 1234.282105 184.335194 1258.996949 186.787205 1283.750244 C188.744786 1303.512452 188.365849 1323.505127 189.055028 1343.394410 C189.344822 1351.757569 189.682515 1360.119629 190.054875 1368.479493 C190.695881 1382.870972 191.387120 1397.260010 192.046116 1411.650635 C192.720326 1426.373780 193.389943 1441.097168 194.045353 1455.821167 C194.722981 1471.044190 195.428837 1486.266114 196.035420 1501.492066 C196.754674 1519.546753 197.368458 1537.605591 198.053654 1555.661621 C198.352040 1563.524781 198.672352 1571.387452 199.057316 1579.246704 C199.688786 1592.138672 200.522069 1605.022339 201.005467 1617.919434 C201.431599 1629.288697 203.938298 1640.159424 210.233418 1649.564820 C213.668843 1654.697632 218.503728 1659.265503 223.585133 1662.840699 C231.891759 1668.685181 240.999775 1666.132691 249.097432 1662.105469 C253.584401 1659.873902 257.694752 1655.823853 260.478200 1651.605713 C262.297688 1648.848511 264.151082 1644.511841 261.126576 1640.507935 C259.975117 1638.983643 259.532551 1636.829224 259.076954 1634.889161 C255.844929 1621.125122 259.416096 1608.956421 268.864949 1598.831787 C280.152485 1586.736939 293.909413 1579.739380 311.009511 1582.049561 C324.754048 1583.906617 336.507863 1590.339478 345.684010 1600.450806 C351.626881 1606.999390 356.756611 1614.587769 360.828053 1622.447144 C364.835316 1630.182495 367.023396 1638.856568 370.056782 1647.101441 C371.918294 1652.161377 372.869099 1657.929932 375.959858 1662.096070 C386.563191 1676.389405 401.256276 1683.223633 419.083760 1684.097046 C433.259663 1684.791626 446.810261 1681.431763 460.488240 1678.850098 C462.864949 1678.401490 466.542500 1676.152954 466.711201 1674.447876 C467.102315 1670.495484 465.905781 1666.324341 465.011769 1662.317994 C462.374287 1650.498047 457.592152 1639.952149 447.757863 1632.104981 C440.050984 1625.955323 431.677998 1625.421265 423.030110 1628.650025 C413.295674 1632.284302 406.942647 1639.102539 406.020039 1650.016480 C405.962697 1650.694825 405.506642 1651.339600 405.236104 1652.000000 C404.697529 1651.357544 403.985890 1650.794678 403.647786 1650.060059 C401.054127 1644.424317 400.429524 1638.711060 401.970204 1632.533448 C405.139424 1619.826050 414.923451 1611.894165 425.580250 1611.083863 C443.761342 1609.701416 456.877797 1618.111573 466.654011 1633.011109 C475.158253 1645.972290 478.379597 1660.418091 480.131398 1675.466309 C480.547383 1679.039917 480.892781 1683.854126 483.198964 1685.742432 C489.894856 1691.224732 498.777852 1688.868286 504.098256 1682.624024 C511.200001 1674.289429 508.122426 1664.896241 505.650685 1656.686524 C502.995320 1647.867310 500.777760 1639.330567 501.016682 1630.137818 C501.138051 1625.467408 502.284962 1621.506592 505.989552 1618.230103 C509.763661 1614.892212 512.693959 1615.687744 515.166737 1619.978516 C519.561085 1627.603638 514.946705 1634.380249 513.996022 1641.473267 C513.352833 1646.271851 511.416371 1650.952027 511.187855 1655.739136 C510.782277 1664.231079 514.613453 1671.500122 519.654713 1678.074463 C529.994618 1691.558716 544.183766 1697.952515 560.724171 1698.848999 C570.040455 1699.353882 579.448475 1698.489624 588.798207 1697.948975 C595.870106 1697.539917 602.936085 1696.823731 609.957692 1695.891114 C611.745961 1695.653687 614.766896 1694.145142 614.819508 1693.099732 C615.168812 1686.160035 615.565358 1679.087036 614.586659 1672.252198 C613.490040 1664.593384 611.121571 1657.093384 609.006703 1649.609131 C606.258656 1639.883911 601.198842 1631.276001 594.918568 1623.472901 C589.319752 1616.516480 581.023244 1621.410523 579.107838 1627.308106 C578.002003 1630.712891 577.489552 1634.311158 576.724354 1637.825562 C575.492543 1643.483277 574.075917 1649.109619 573.097889 1654.811158 C571.888600 1661.860840 571.079884 1668.978760 569.997120 1676.051636 C569.891347 1676.742188 569.077015 1677.323975 568.591542 1677.956177 C568.238026 1677.298462 567.857960 1676.653687 567.535023 1675.981202 C563.313893 1667.191529 561.345631 1657.782227 561.170643 1648.166993 C561.000416 1638.813477 562.817555 1629.600342 566.683827 1621.007935 C567.857960 1618.398682 569.770375 1615.648682 572.101674 1614.111084 C585.463246 1605.299073 602.650014 1610.457886 611.078114 1623.039063 C619.728016 1635.951294 620.636952 1650.904663 621.824391 1665.520142 C622.910573 1678.889283 624.846058 1691.788208 631.170094 1703.708008 C631.680958 1704.670899 634.375477 1705.532837 635.278676 1705.034546 C638.172963 1703.437622 640.487660 1700.756836 643.418690 1699.266724 C648.877369 1696.491578 648.285878 1692.288697 647.063893 1687.608277 C645.333729 1680.981934 643.607655 1674.351319 642.075795 1667.677491 C640.289540 1659.895508 638.371266 1652.118409 637.147877 1644.240113 C636.011586 1636.922608 635.311513 1629.478638 635.243580 1622.082764 C635.215993 1619.073609 636.575856 1615.262818 638.659596 1613.159424 C647.809620 1603.923706 664.758107 1602.245362 675.467518 1610.239380 C683.234242 1616.036744 689.786549 1623.476441 696.737721 1630.328369 C697.486317 1631.066529 697.798634 1632.948853 697.436146 1633.996949 C695.372914 1639.963379 693.656361 1646.174561 690.645741 1651.656494 C687.065114 1658.176148 689.357533 1663.810791 692.009999 1669.279908 C695.249745 1675.959839 699.935841 1681.617554 705.829945 1686.454468 C716.093983 1694.877686 727.974537 1699.531494 740.783009 1700.717163 C749.536610 1701.527466 758.643910 1700.313721 767.406727 1698.872071 C788.991932 1695.321411 808.813954 1686.428833 828.224354 1676.819825 C833.857838 1674.030884 837.042653 1668.041748 837.950062 1661.655884 C838.749867 1656.026978 838.817921 1650.283326 839.025685 1644.583496 C839.433766 1633.391236 839.751942 1622.195313 840.038380 1610.999024 C840.410023 1596.471802 840.691029 1581.942139 841.055104 1567.414795 C841.352467 1555.552124 841.736134 1543.691773 842.042164 1531.829346 C842.399708 1517.968384 842.709218 1504.106079 843.048878 1490.244629 C843.711842 1463.187989 844.444508 1436.132813 845.027089 1409.074463 C845.465382 1388.715332 845.672230 1368.351075 846.062855 1347.990723 C846.316029 1334.794312 846.719349 1321.600708 847.046437 1308.405640 C847.385853 1294.710816 847.723866 1281.015992 848.045216 1267.320679 C848.389882 1252.626099 848.726185 1237.931153 849.044606 1223.235840 C849.391896 1207.208008 849.706349 1191.179322 850.050160 1175.151245 C850.372487 1160.122803 850.756215 1145.095459 851.037526 1130.066285 C851.412404 1110.038941 851.686085 1090.009766 852.056935 1069.982178 C852.344533 1054.453125 852.800892 1038.926758 853.028737 1023.397095 C853.430104 996.036744 853.826283 968.675476 854.024464 941.313172 C854.435170 884.619751 854.950734 827.925476 854.974965 771.231324 C854.995350 723.537293 854.414601 675.842774 854.036610 628.148865 C853.760243 593.287293 853.543141 558.423951 852.990101 523.566285 C852.629506 500.838074 851.740285 478.117859 851.033619 455.395722 C850.789052 447.531220 850.343739 439.673188 850.057057 431.809723 C849.685597 421.616059 849.430714 411.418061 849.028309 401.225739 C848.803273 395.526337 848.442982 389.830262 848.035389 384.140442 C847.073964 370.718872 846.040211 357.302491 845.050404 343.882935 C844.370106 334.660309 843.644032 325.440247 843.063160 316.211213 C842.008961 299.462555 841.114430 282.703705 840.017079 265.958008 C839.532033 258.555756 838.893666 251.153733 838.007924 243.789719 C836.485280 231.129715 834.792958 218.488541 833.020314 205.860749 C831.831593 197.392914 831.122731 188.757233 828.862355 180.565506 C825.958241 170.040802 822.427601 159.554612 817.837208 149.669266 C813.663685 140.681656 808.548451 131.845841 802.350697 124.149125 C792.485524 111.898102 779.397572 103.904976 763.858143 100.294411 C752.249440 97.597130 740.554677 98.456856 729.385548 101.469803 C717.984913 104.545189 707.499806 110.295372 698.417286 118.144303 C690.346547 125.118851 683.631581 133.515519 680.332081 143.452698 C676.840016 153.969880 669.834279 159.327851 660.298817 163.042908 C647.205617 168.144059 633.247487 167.964905 619.659962 169.835953 C606.846425 171.600418 593.850941 172.087967 580.924306 172.973755 C569.375905 173.765122 557.819874 174.564637 546.253468 174.944947 C529.565663 175.493653 512.865468 175.929383 496.170643 175.926834 C479.142384 175.924225 462.113026 175.381745 445.086842 174.965577 C440.886036 174.862900 436.699879 174.262574 432.499714 174.013443 C420.611744 173.308335 408.720601 172.655747 396.829487 172.004334 C390.302388 171.646775 383.770833 171.368073 377.245076 170.988327 C372.546437 170.714920 367.832783 170.513947 363.163289 169.963074 C352.868458 168.748566 342.603627 167.282044 332.314595 166.015702 C323.571675 164.939652 314.666951 164.677018 306.094105 162.839737 C293.546712 160.150696 281.233998 156.588791 270.067097 149.662430 C257.662312 141.968232 248.418080 132.651169 250.098012 116.738480 C251.470967 103.733590 241.358784 97.394760 232.001332 95.185646 C222.754429 93.002640 213.169056 91.394966 203.698552 91.204300 C186.424519 90.856530 169.129674 90.235649 151.910542 93.827668 C135.045353 97.345848 119.986668 104.009926 107.825673 116.094277 C95.647099 128.196091 88.072308 142.386795 89.899418 160.580750 C91.032338 171.862137 90.729611 183.288788 91.043736 194.650986 C91.394696 207.345475 91.705891 220.041062 92.049611 232.735764 C92.709996 257.125916 93.479046 281.513581 94.019742 305.906342 C94.542019 329.467896 93.942990 353.005280 95.744290 376.598877 C97.738614 402.720795 97.412007 429.021515 98.036549 455.245789 C98.430134 471.772583 98.672185 488.302948 99.062901 504.829804 C99.315793 515.526734 99.766263 526.218933 100.035367 536.915528 C100.417599 552.109253 100.714444 567.305054 101.047780 583.500000 M336.547780 1668.000000 C340.377064 1668.000000 344.219349 1668.198609 348.032246 1667.948609 C352.588399 1667.649903 356.453023 1665.901001 359.071370 1661.820435 C363.334767 1655.176148 361.993336 1647.894654 360.452778 1641.189942 C358.592518 1633.093994 353.901021 1626.110840 348.085774 1619.949707 C339.651204 1611.013916 328.983662 1605.737183 317.435780 1603.277466 C306.993062 1601.053223 296.155354 1599.938233 285.253773 1601.890503 C277.678883 1603.246949 271.332264 1607.489258 271.942830 1616.150635 C272.989430 1630.998047 273.321217 1645.894898 274.074544 1660.764771 C274.420765 1667.598633 277.129139 1670.107788 283.931874 1669.976929 C297.114430 1669.723267 310.296040 1669.386475 323.474354 1668.968140 C327.504994 1668.840210 331.523640 1668.333374 336.547780 1668.000000 M655.547780 1623.000000 C648.179921 1625.770020 645.926198 1632.029541 646.196644 1638.853760 C646.657948 1650.496094 649.117116 1661.803467 652.876088 1672.958496 C656.493947 1683.694703 660.861500 1693.660645 670.178273 1700.539185 C677.482838 1705.932007 685.316212 1708.930054 694.645497 1705.082154 C703.165577 1701.568238 704.905018 1695.357300 698.568043 1689.020264 C695.744191 1686.196411 692.920338 1683.372437 690.096425 1680.548584 C683.036671 1673.488892 675.854054 1666.545044 669.009389 1659.282715 C667.428395 1657.604981 665.967335 1654.620362 666.381154 1652.640625 C666.702809 1651.101807 669.900441 1649.808228 672.048756 1649.102539 C674.425892 1648.321411 677.144703 1648.615967 679.565419 1647.921631 C682.053639 1647.208008 685.635792 1646.427002 686.416371 1644.653199 C687.331349 1642.573853 686.533070 1638.840088 685.101002 1636.781983 C678.255971 1626.944580 668.593251 1622.359253 655.547780 1623.000000 z"/><path class="selected"  fill="#000000" opacity="1.000000" stroke="none" 
 	d="
M779.297780 832.250000 C774.760731 839.393616 774.986867 838.733155 782.276600 841.229004 C787.250722 842.932129 791.640309 846.590454 795.959401 849.818543 C797.397023 850.892945 797.089528 852.884949 794.384327 853.022339 C789.351857 853.277832 784.330739 853.825074 779.296803 853.970032 C764.770985 854.388245 750.239918 854.623047 735.713246 855.015808 C726.515858 855.264466 717.321827 855.644287 708.127797 856.004822 C691.570302 856.654175 675.014210 857.338868 658.457081 857.997803 C649.762501 858.343811 641.066456 858.653992 632.371998 859.002625 C615.981495 859.659912 599.590870 860.317505 583.201588 861.004639 C567.810475 861.649781 552.422902 862.380555 537.030324 862.987793 C518.808949 863.706482 500.582295 864.293457 482.360890 865.012268 C466.968342 865.619507 451.580617 866.347351 436.189686 866.996155 C419.966878 867.680054 403.743245 868.343628 387.519154 868.995911 C378.658345 869.352234 369.766347 869.316834 360.939229 870.060669 C323.251027 873.236695 285.490529 871.937989 247.765706 871.794983 C234.480092 871.744629 221.168446 869.605713 207.934620 867.906739 C198.729619 866.724915 189.412388 865.428467 180.549214 862.814026 C168.501957 859.260254 161.266270 850.866089 160.020985 837.870240 C158.811116 825.244263 157.559315 812.617432 156.001011 800.031128 C154.202153 785.501648 151.959172 771.027527 150.096486 756.505371 C149.456563 751.516175 149.558995 746.435181 149.011525 741.430115 C147.794453 730.303284 146.310155 719.205750 145.073140 708.080933 C144.271611 700.872193 143.788579 693.628540 143.031148 686.414429 C141.758580 674.293885 140.387547 662.183716 139.042836 650.070862 C138.743214 647.371949 138.300801 644.686951 138.062871 641.983338 C137.354130 633.930054 136.913472 625.847962 135.996861 617.819458 C134.877415 608.014222 133.287404 598.263428 132.088627 588.466126 C131.517705 583.800049 131.384907 579.080567 131.046971 574.385743 C130.383030 565.161927 128.804570 555.887390 129.317265 546.729798 C129.780736 538.451355 130.386281 529.845154 135.866108 522.506165 C140.937825 515.713623 146.759312 511.214722 155.581669 510.948365 C171.644002 510.463440 187.696171 509.647797 203.753972 509.005127 C220.976567 508.315735 238.200627 507.663514 255.424306 507.001282 C264.285725 506.660584 273.147572 506.329377 282.009480 506.000855 C300.066182 505.331452 318.122792 504.659546 336.179921 504.002045 C354.736409 503.326386 373.293446 502.666718 391.850239 502.000031 C410.407033 501.333344 428.964711 500.689820 447.520344 499.993042 C464.411732 499.358796 481.301014 498.669220 498.191060 497.999237 C514.914723 497.335907 531.637074 496.641053 548.361928 496.009522 C558.555043 495.624604 568.752247 495.351593 578.946583 494.996155 C597.670521 494.343262 616.394703 493.696503 635.116688 492.991028 C651.675160 492.367066 668.230275 491.653595 684.787709 491.003601 C702.177235 490.320893 719.566701 489.218232 736.958546 489.169770 C747.241627 489.141083 756.899281 492.483063 762.980458 501.615906 C766.036061 506.204865 768.151845 511.267090 769.272694 517.030884 C771.908558 530.585205 772.281422 544.243164 773.075917 557.915284 C773.952931 573.007874 774.996754 588.091431 776.063283 603.172181 C776.989003 616.262940 778.051014 629.344056 779.046071 642.429932 C779.390370 646.957581 779.771107 651.483399 780.037770 656.015869 C781.062489 673.433167 782.036427 690.853394 783.051930 708.271241 C783.696583 719.329468 784.575917 730.377869 785.005971 741.444031 C785.817616 762.328431 786.844349 783.222962 786.825184 804.112427 C786.817250 812.755371 784.593251 821.457520 780.277882 829.311402 C779.843190 830.102539 779.782216 831.098877 779.297780 832.250000 M696.547780 715.000000 C701.381093 720.778992 706.204701 726.566224 711.049855 732.335328 C721.884083 745.235535 732.726979 758.128479 743.570241 771.021180 C752.059681 781.115235 760.548146 791.210266 769.059315 801.286072 C769.847462 802.219178 770.796620 803.016419 771.671132 803.876709 C772.129994 802.566834 773.007557 801.248780 772.982167 799.948365 C772.763173 788.751099 772.333119 777.558228 772.059376 766.361756 C771.679738 750.834656 771.534901 735.300232 770.998768 719.778992 C770.576283 707.546997 769.710866 695.330262 769.048756 683.106446 C768.377614 670.716431 767.765736 658.322998 767.031605 645.936768 C766.445180 636.041687 765.621571 626.160401 765.067616 616.263794 C763.999623 597.182190 763.043568 578.094422 762.056691 559.008301 C761.987965 557.678589 762.186146 556.325379 762.025990 555.011597 C760.731618 544.392701 759.576466 533.750183 757.931325 523.184571 C757.423390 519.922058 756.271535 516.210022 754.143971 513.848267 C746.497914 505.360688 735.796620 503.841797 725.211842 503.143738 C718.567555 502.705536 711.833424 503.726899 705.135426 503.985840 C695.109120 504.373536 685.078419 504.643341 675.051137 505.007294 C666.854786 505.304779 658.661488 505.687561 650.465443 505.994507 C640.937916 506.351349 631.408681 506.662140 621.880543 507.001313 C612.685231 507.328644 603.490101 507.659577 594.295338 508.002015 C585.599904 508.325837 576.905446 508.674622 568.210011 508.998352 C550.153431 509.670533 532.097096 510.350129 514.039540 510.995453 C494.816853 511.682434 475.591969 512.308655 456.369710 513.007264 C438.978291 513.639283 421.590230 514.362732 404.198628 514.989197 C393.339039 515.380432 382.474629 515.637635 371.614247 516.009339 C363.250905 516.295594 354.891133 516.684693 346.528523 516.995240 C337.000905 517.349121 327.470875 517.638855 317.943806 518.006165 C301.219472 518.650879 284.497853 519.366822 267.772786 519.991150 C248.884114 520.696350 229.995625 521.427613 211.101979 521.971497 C194.744374 522.442322 178.379368 522.653260 162.018223 523.006531 C155.330952 523.150940 150.274220 526.480469 147.136006 532.058106 C142.651066 540.029236 141.952534 548.975891 142.093510 557.936036 C142.159581 562.135437 142.672932 566.330872 143.057164 570.521424 C143.689213 577.414978 144.288380 584.313477 145.067158 591.191162 C146.669377 605.341126 148.426182 619.473572 150.028401 633.623536 C150.807164 640.501221 151.265843 647.415589 152.074635 654.289246 C153.305363 664.748841 154.790196 675.178467 156.020924 685.638062 C156.829701 692.511719 157.355061 699.418274 158.062077 706.304505 C158.305516 708.675599 158.743062 711.026123 159.042851 713.392212 C160.387501 724.004944 161.851369 734.605042 163.003560 745.238770 C163.892003 753.438477 164.209248 761.699829 165.090321 769.900452 C166.250615 780.699890 167.785969 791.458496 169.014485 802.251221 C169.546330 806.923767 169.494969 811.665955 170.094380 816.326905 C171.269124 825.461487 173.052449 834.530640 173.881077 843.690491 C174.211506 847.343140 175.655263 848.756104 178.661992 850.058777 C190.104451 855.016419 199.571263 849.906372 208.476597 843.900086 C220.008183 836.122559 227.939427 824.802918 236.068806 813.753724 C245.998372 800.257691 256.055623 786.855286 266.109395 773.451172 C278.274159 757.232544 290.213032 740.832093 302.819630 724.963196 C308.243062 718.136292 314.644673 711.888672 321.416524 706.379273 C330.583058 698.921753 341.217793 698.458985 352.463704 701.796814 C366.601002 705.992737 378.164937 714.776490 390.571766 722.068543 C399.995778 727.607605 409.685414 732.659302 420.644642 733.903809 C438.287800 735.907471 454.772969 730.555359 469.781392 722.369629 C489.470173 711.631287 508.184315 699.100037 527.265736 687.256226 C539.056447 679.937806 550.741994 672.450074 562.490285 665.063111 C577.693776 655.503418 592.912526 645.967896 608.126210 636.424439 C608.712269 636.056824 609.314931 635.715638 609.909840 635.362061 C609.264577 634.908020 608.659291 634.140869 607.967396 634.052796 C604.453480 633.605042 600.923573 633.183899 597.387257 633.028809 C587.862599 632.611145 578.331959 632.328858 568.803334 632.001343 C558.941823 631.662415 549.079945 631.333435 539.218251 631.000000 C529.356556 630.666626 519.494435 630.344239 509.633229 629.996765 C500.604298 629.678650 491.574452 629.376587 482.548359 628.990235 C467.823292 628.359925 453.080311 627.946167 438.387288 626.865357 C432.325917 626.419434 426.923543 622.965271 423.158375 618.346436 C414.475728 607.695191 414.844075 595.003235 419.659871 583.506714 C422.757313 576.112366 429.172535 569.326233 435.673207 564.302124 C449.095357 553.928711 464.825703 547.410706 480.874806 542.081787 C495.841603 537.112244 510.949574 532.592591 526.782765 530.929200 C539.295765 529.614624 551.699086 527.026551 564.230519 526.181458 C576.564625 525.349671 589.005665 525.742737 601.386830 526.078553 C611.954091 526.365235 622.503346 527.326294 633.059743 528.001892 C644.493275 528.733704 655.050160 532.177491 664.933522 537.971619 C676.061513 544.495423 681.387868 554.672486 681.759877 566.956787 C681.931019 572.609314 679.817372 578.763916 677.213795 583.920411 C675.374501 587.563355 671.045582 590.004395 667.646229 592.757569 C666.975697 593.300660 665.475026 592.818665 664.357167 592.809388 C664.740162 591.886841 665.184071 590.984314 665.495350 590.038147 C666.702382 586.369324 668.672535 582.737000 668.906361 579.000122 C669.847889 563.955078 662.700612 550.426636 646.517262 544.885498 C631.802662 539.847229 616.495656 539.583191 601.361867 538.181092 C591.116688 537.231995 580.712452 538.000000 570.379323 538.000000 C566.546071 538.000000 562.674122 537.649536 558.887013 538.067444 C548.584523 539.204590 538.268971 540.374207 528.051381 542.085144 C518.480153 543.687744 509.070729 546.251892 499.503285 547.883850 C495.299550 548.601014 496.447804 549.944458 498.357655 551.759095 C500.948536 554.220703 503.715443 556.496827 506.403004 558.856873 C507.873646 560.148316 509.336476 561.448670 510.802785 562.744995 C508.947499 562.830017 507.091969 562.909424 505.236989 563.001038 C498.541737 563.331787 491.804890 563.312134 485.162953 564.095887 C477.973256 564.944214 470.688954 565.923462 463.777119 567.966309 C454.338063 570.756165 445.157094 574.463990 435.968007 578.041626 C427.601399 581.299134 421.975422 590.077149 424.088643 596.475281 C427.092518 605.570008 433.625477 611.536560 442.884541 612.808899 C455.698811 614.569764 468.682759 615.252259 481.618519 615.928284 C494.296284 616.590760 507.004078 616.691956 519.699879 616.993470 C534.894154 617.354432 550.090809 617.619690 565.284047 618.017762 C574.314992 618.254273 583.340504 618.690430 592.369862 618.993897 C603.064015 619.353333 613.759205 619.686707 624.454884 619.994751 C636.815907 620.350708 649.176320 620.813477 661.540211 620.961182 C675.595082 621.129151 689.654652 621.109803 703.709950 620.960511 C712.705617 620.864930 720.928273 617.975037 728.388966 612.989441 C735.583363 608.181702 740.758778 593.078980 737.714528 585.224427 C734.705983 577.461670 728.254384 574.286011 720.490101 572.969788 C715.543690 572.131226 710.591481 571.205933 705.754506 569.901795 C703.732472 569.356629 702.002492 567.727967 700.139760 566.591980 C701.943776 565.059937 703.527150 563.072632 705.589284 562.073120 C715.647572 557.197815 724.490712 559.811768 733.541859 565.764710 C750.359791 576.825928 750.797780 598.483338 738.677723 613.100769 C726.570546 627.702820 710.600453 633.950928 692.731679 635.760620 C682.838490 636.762574 672.693654 635.442505 662.673878 634.937867 C659.386159 634.772278 656.153859 633.701172 652.863514 633.354370 C644.528370 632.475769 636.181813 631.679016 627.825062 631.043763 C624.204945 630.768555 627.022267 632.328308 627.493458 632.904053 C633.782582 640.588745 640.035389 648.305786 646.463246 655.873719 C653.156788 663.754395 660.134144 671.394776 666.800404 679.297852 C676.636342 690.958680 686.306813 702.759034 696.547780 715.000000 M571.047780 723.500061 C562.509327 722.000061 553.940236 720.652771 545.443959 718.942994 C540.315907 717.911072 539.673146 715.350464 543.164174 711.387268 C547.651295 706.293091 554.312428 705.134827 559.992604 705.400635 C567.073170 705.731995 574.024281 708.973023 581.016591 711.007935 C587.677357 712.946228 594.102467 715.169861 601.393849 713.137940 C609.533070 710.869690 617.909962 708.765320 626.290211 708.214478 C638.396290 707.418824 650.645741 707.352112 662.536061 710.953919 C665.268178 711.781433 668.175648 712.030274 671.002431 712.545349 C669.736989 709.916321 668.464589 707.290650 667.216542 704.653382 C667.086537 704.378540 667.155751 704.013245 667.039845 703.727417 C662.202809 691.789673 655.078663 681.278321 646.363392 671.917420 C637.884083 662.809937 627.288563 656.768799 614.973195 655.219910 C606.962086 654.212220 598.281483 653.655884 591.033009 658.633789 C581.007557 665.518738 571.335072 672.916565 561.482777 680.055298 C549.976735 688.392334 538.735524 697.140198 526.847035 704.893433 C509.198659 716.403077 490.756489 726.592713 471.117787 734.405762 C450.141072 742.751038 428.554951 748.344727 405.770588 747.964844 C399.739979 747.864319 393.605244 746.446411 387.713185 747.186097 C375.735585 748.689637 365.055073 754.305970 354.608662 760.034119 C345.218739 765.182923 332.814992 768.283936 323.008931 758.995911 C319.850148 756.003846 313.514943 754.878907 308.840108 755.285035 C299.280110 756.115723 290.727345 760.849182 284.153279 767.665223 C275.276021 776.868958 266.385762 786.347107 259.280415 796.905030 C248.838429 812.420838 239.928532 828.971619 230.546757 845.186036 C230.068532 846.012574 230.885960 848.251221 231.787739 849.112488 C242.326359 859.178101 256.126240 859.936829 269.332448 860.713745 C281.139180 861.408265 293.088490 859.652344 304.976369 859.005555 C311.667866 858.641419 318.362721 858.338745 325.055562 857.998902 C338.108906 857.336121 351.161915 856.666687 364.215046 856.000000 C377.268178 855.333313 390.322224 854.683228 403.374226 853.995240 C415.595479 853.351014 427.812825 852.632569 440.035237 852.012329 C447.891438 851.613648 455.755238 851.367432 463.612752 850.992432 C477.000447 850.353455 490.387013 849.689209 503.771901 848.993348 C515.993580 848.357972 528.211842 847.656128 540.432606 847.002930 C553.151784 846.323182 565.871876 845.659851 578.592274 845.001892 C591.644887 844.326722 604.697743 843.653260 617.751698 843.003479 C631.470509 842.320618 645.191212 841.676148 658.910206 840.997315 C672.130604 840.343201 685.346608 839.591431 698.570668 839.023804 C709.090931 838.572144 719.628407 838.490052 730.143056 837.948670 C738.044484 837.541809 745.948842 836.889344 753.801625 835.932679 C760.651967 835.098145 764.582264 830.842591 765.432728 824.099732 C766.133473 818.543824 762.883900 814.243714 759.821034 810.480408 C747.433522 795.260254 734.969227 780.071473 721.841603 765.493958 C709.719227 752.032837 697.137257 738.938721 681.228627 729.604309 C666.370595 720.886292 650.696583 717.224915 633.536366 719.953553 C621.437916 721.877320 609.306935 723.881897 597.111317 724.812012 C588.659962 725.456604 580.073720 724.333374 571.047780 723.500061 M325.547780 750.000000 C332.241810 749.666687 338.967030 749.630738 345.622853 748.933045 C356.693074 747.772644 366.664265 743.541199 375.650044 736.995789 C380.177052 733.698243 380.625996 727.995118 376.052449 725.077942 C362.166920 716.221436 346.969502 713.188782 331.025715 717.702637 C319.844563 720.868225 312.274220 728.466919 309.450734 740.117981 C308.503926 744.024842 307.937245 747.754517 313.777058 748.282410 C317.389515 748.608887 320.959004 749.411194 325.547780 750.000000 z"/><path class="selected"  fill="#000000" opacity="1.000000" stroke="none" 
 	d="
M370.297780 1239.750000 C367.341542 1233.460450 364.343068 1227.531861 361.997395 1221.355469 C358.442494 1211.994995 355.086690 1202.540772 352.133809 1192.975830 C350.024281 1186.142823 348.468434 1179.110352 347.115071 1172.080323 C345.683644 1164.644654 345.677296 1157.382691 347.556172 1149.693238 C351.646046 1132.955811 364.376240 1123.167847 375.602894 1112.125000 C379.252766 1108.534912 383.779774 1105.725830 388.205952 1103.057984 C398.117573 1097.083985 407.337727 1099.803833 415.765523 1106.315308 C421.941334 1111.086914 425.907277 1117.450196 428.117146 1125.063355 C430.826192 1134.396119 434.746205 1143.420655 436.902760 1152.861573 C441.427296 1172.668946 442.405171 1192.953125 440.726491 1213.091431 C439.931080 1222.633667 435.673543 1231.879517 433.059437 1241.280518 C430.487874 1250.528321 425.755696 1258.625000 419.063130 1265.326294 C411.984608 1272.413941 403.547719 1276.006104 393.689534 1270.908203 C391.032399 1269.534180 388.330006 1267.448487 386.724019 1264.987549 C381.401021 1256.830933 376.572529 1248.351929 371.517659 1240.018921 C371.427937 1239.870850 370.881245 1240.000122 370.297780 1239.750000 M363.047810 1143.500000 C361.714467 1148.773194 359.621937 1153.989014 359.218403 1159.332520 C358.543965 1168.263672 361.145527 1176.907593 362.784535 1185.673218 C364.640278 1195.597779 368.072041 1204.707886 371.944874 1213.895264 C377.989491 1228.234742 386.909504 1240.512207 397.388478 1251.769532 C401.812581 1256.522339 407.489796 1256.576416 411.607930 1251.770752 C414.101246 1248.861206 415.870900 1245.273804 417.666859 1241.834717 C424.996449 1227.799683 429.649800 1212.980713 430.017140 1197.034668 C430.194722 1189.326050 430.343922 1181.594117 429.937611 1173.902832 C429.690632 1169.227906 428.849293 1164.451050 427.404591 1160.002686 C424.985066 1152.552613 422.346974 1145.094483 418.905324 1138.079102 C415.842213 1131.835328 411.999531 1125.846070 407.701680 1120.371827 C403.395100 1114.886475 391.761006 1115.264283 389.060261 1122.476807 C386.971058 1128.056153 381.916188 1130.493775 377.160023 1132.905762 C371.991719 1135.526734 366.793995 1137.881104 363.047810 1143.500000 z"/><path class="selected"  fill="#000000" opacity="1.000000" stroke="none" 
 	d="
M565.797780 1275.250000 C566.038746 1280.214600 567.004689 1285.275757 561.502431 1288.002686 C556.274220 1290.593872 552.267689 1288.305786 551.066517 1281.817627 C548.248890 1266.597657 542.754689 1252.459717 535.556630 1238.729248 C530.221974 1228.553345 524.193898 1218.956055 516.945973 1210.180542 C512.060292 1204.265381 507.393483 1197.973877 500.070820 1194.424683 C491.832295 1190.431641 484.337269 1191.903565 479.769520 1199.221070 C477.959004 1202.121338 478.246571 1207.178101 479.215169 1210.817505 C483.065571 1225.284668 482.146107 1239.986939 481.776600 1254.601929 C481.685902 1258.188843 478.367604 1261.780762 476.205891 1265.161011 C475.733510 1265.899659 473.631611 1266.261597 472.703358 1265.847657 C471.854024 1265.468994 471.378621 1263.855835 471.091908 1262.698975 C470.599049 1260.710450 470.238759 1258.665406 470.072377 1256.623780 C469.348378 1247.740113 468.887868 1238.831787 468.004811 1229.964966 C466.846669 1218.335938 465.273732 1206.748536 464.092976 1195.121460 C463.500477 1189.287354 463.551411 1183.389405 463.013325 1177.547852 C461.789326 1164.259888 460.693867 1150.948120 458.959889 1137.722779 C457.224934 1124.490601 466.719624 1113.027466 480.063740 1112.992554 C494.406331 1112.955078 506.796437 1118.234986 517.652638 1127.196167 C525.809987 1133.929566 528.035634 1143.447022 525.732960 1153.017212 C524.007008 1160.190308 519.624745 1166.789673 516.026356 1173.428467 C512.331715 1180.244629 513.191517 1186.068970 518.288869 1192.078003 C522.732289 1197.316162 526.538624 1203.123291 530.346974 1208.864380 C535.064808 1215.976563 539.882252 1223.068726 543.959035 1230.549683 C550.297719 1242.181153 556.103505 1254.105591 562.007802 1265.969239 C563.442799 1268.852539 564.381093 1271.983155 565.797780 1275.250000 M489.547810 1180.000000 C494.255818 1177.291993 499.332051 1175.060547 503.590138 1171.770264 C510.952382 1166.081421 513.999013 1151.358033 510.245106 1142.698975 C503.962514 1128.207154 494.581105 1124.777222 481.119832 1128.015992 C473.123799 1129.939942 471.695790 1131.423218 472.127614 1139.552369 C472.831959 1152.812134 473.965382 1166.052246 475.180134 1179.276490 C475.296712 1180.545655 477.404683 1182.746827 478.345540 1182.625977 C481.801686 1182.182007 485.155446 1180.940918 489.547810 1180.000000 z"/><path class="selected"  fill="#000000" opacity="1.000000" stroke="none" 
 	d="
M731.297719 1245.750000 C732.381093 1253.817627 733.734181 1261.626221 733.871144 1269.455933 C733.967885 1274.986817 733.498097 1280.926514 729.002736 1285.240235 C728.109364 1286.097657 726.663563 1286.592896 725.415028 1286.729370 C725.064381 1286.767701 724.245717 1284.974854 724.087636 1283.952881 C722.027455 1270.630738 719.810841 1257.325928 718.131459 1243.954102 C717.022450 1235.123413 716.585621 1226.199463 716.084035 1217.303955 C715.585011 1208.455689 714.845082 1199.569703 715.187977 1190.738404 C715.586842 1180.467530 717.178700 1170.248413 717.981801 1159.985596 C718.293629 1156.000122 719.217702 1151.383423 714.468068 1149.053223 C710.923695 1147.314209 706.157155 1149.927857 704.031666 1155.671143 C700.016713 1166.519410 696.666066 1177.613770 693.050587 1188.609497 C691.700184 1192.716187 691.148732 1197.402222 688.708241 1200.693482 C687.570851 1202.227417 681.707387 1202.395630 679.873524 1200.887574 C673.492421 1195.640381 667.230519 1189.926148 662.252003 1183.379151 C656.454335 1175.754761 651.853871 1167.179688 647.152394 1158.782959 C645.419301 1155.687867 643.432240 1153.952515 640.060658 1154.557373 C635.876820 1155.307862 632.576222 1157.510865 633.119984 1162.325928 C633.847340 1168.766846 634.762074 1175.223267 636.191762 1181.538330 C637.797719 1188.632325 640.009938 1195.592896 642.061696 1202.581299 C644.850758 1212.080811 648.159962 1221.450562 650.463795 1231.063355 C652.762990 1240.656739 655.343983 1250.548828 649.045094 1259.840332 C648.513295 1260.624878 648.024342 1261.460328 647.376698 1262.139893 C645.863392 1263.727539 644.598622 1266.005249 643.808766 1261.391236 C642.225575 1252.142701 640.007619 1243.002686 638.047047 1233.818848 C636.478749 1226.473145 634.895253 1219.130371 633.334950 1211.782959 C632.553700 1208.104370 631.682728 1204.438843 631.073170 1200.731079 C629.659962 1192.134156 628.175160 1183.540772 627.097218 1174.898926 C625.569081 1162.648194 624.304738 1150.362671 623.097828 1138.075318 C622.768178 1134.718872 623.135853 1131.299805 623.027150 1127.914429 C622.862965 1122.798828 626.491139 1124.675537 628.073781 1125.755127 C632.291554 1128.632325 637.124501 1131.476197 639.804982 1135.579712 C648.823964 1149.385987 659.009572 1162.119263 671.007863 1173.390259 C674.496205 1176.667115 678.407460 1179.491700 682.094533 1182.559937 C684.244740 1184.349244 685.348805 1183.340088 686.044362 1181.170044 C690.051503 1168.669190 693.291188 1155.853638 698.270192 1143.753296 C702.837269 1132.654053 709.266469 1122.319825 714.904164 1111.663941 C715.576649 1110.393067 716.431813 1109.218994 717.202260 1108.000000 C717.817433 1109.843384 718.813466 1111.651734 718.985951 1113.535645 C720.106373 1125.771119 720.935414 1138.033448 722.078602 1150.266480 C723.273610 1163.054200 724.821889 1175.808960 726.016896 1188.596680 C727.160084 1200.829712 728.008656 1213.090088 729.063344 1225.331787 C729.643117 1232.061524 730.381093 1238.777710 731.297719 1245.750000 z"/><path class="selected"  fill="#000000" opacity="1.000000" stroke="none" 
 	d="
M660.047780 1468.000000 C660.871632 1472.990479 661.653248 1477.489380 662.528981 1481.969727 C664.003712 1489.515259 665.727101 1497.018311 666.966298 1504.601319 C667.566639 1508.274292 664.517933 1509.053833 662.330372 1507.514161 C659.486073 1505.512085 656.246327 1502.760132 655.255360 1499.665284 C651.097035 1486.679566 647.361439 1473.529908 644.186390 1460.269043 C642.415028 1452.870484 641.632069 1445.162842 641.136098 1437.546753 C640.168080 1422.680786 639.587269 1407.785157 639.122548 1392.893189 C638.976491 1388.214356 639.664235 1383.503418 640.093190 1378.818482 C640.172352 1377.954224 640.841847 1377.143921 641.238942 1376.308716 C641.891285 1376.872437 642.635609 1377.359131 643.182057 1378.011475 C652.717152 1389.394287 662.301320 1400.737183 671.707020 1412.226197 C675.367421 1416.697388 678.592335 1421.523804 682.064320 1426.151978 C682.814564 1427.151978 683.774586 1427.994629 684.637868 1428.909790 C685.441151 1427.742920 686.696278 1426.676026 686.979420 1425.394287 C690.732716 1408.406372 699.236561 1393.469117 706.942250 1378.158448 C708.481190 1375.100464 709.740346 1376.369019 710.329884 1377.923706 C712.462391 1383.547486 714.553700 1389.239991 715.944203 1395.077271 C717.406910 1401.217408 718.044606 1407.553711 719.048695 1413.803467 C720.378651 1422.082154 721.610646 1430.378418 723.073659 1438.633545 C724.967579 1449.320191 727.284474 1459.936524 728.980153 1470.652588 C730.625050 1481.047486 731.718922 1491.529663 733.036976 1501.975830 C733.119801 1502.631958 733.247975 1503.391236 733.010365 1503.958130 C732.296132 1505.662232 731.411183 1507.294678 730.592824 1508.954956 C729.411122 1507.641724 727.829152 1506.514893 727.115712 1504.983521 C723.670582 1497.587769 719.946278 1490.257813 717.324879 1482.562744 C715.168873 1476.233643 713.765248 1469.479615 713.213551 1462.815796 C712.523915 1454.485108 713.298634 1446.043702 712.956105 1437.670044 C712.742116 1432.438477 711.196522 1427.236084 707.093434 1423.686158 C701.919911 1419.210083 695.943104 1420.166993 693.542714 1426.141846 C692.971608 1427.563477 693.132008 1429.708619 693.802601 1431.118042 C695.743519 1435.197022 695.399891 1439.632447 692.479359 1442.000000 C688.773488 1445.004273 682.854176 1445.364258 679.536976 1443.028077 C673.231190 1438.587281 670.469349 1431.707032 667.059865 1425.272095 C663.891224 1419.291626 660.590138 1413.474976 653.279408 1411.784302 C652.606801 1411.628785 651.136281 1412.114136 651.143483 1412.237427 C651.359181 1415.938355 651.473561 1419.673462 652.111500 1423.314087 C652.835621 1427.446778 654.294362 1431.451783 654.999623 1435.586426 C656.810536 1446.202515 658.381154 1456.859375 660.047780 1468.000000 z"/><path class="selected"  fill="#000000" opacity="1.000000" stroke="none" 
 	d="
M341.047780 1444.000000 C342.381093 1450.779663 343.575245 1457.092896 345.080830 1463.331055 C347.269673 1472.400025 349.703999 1481.409668 351.991353 1490.455201 C353.061268 1494.686524 354.077199 1498.933228 354.988514 1503.200562 C355.097615 1503.711426 354.345967 1504.938233 354.075184 1504.914185 C351.873128 1504.718140 348.781972 1505.093506 347.666279 1503.811524 C343.757893 1499.320069 339.774281 1494.597657 337.230153 1489.286988 C333.651906 1481.817871 330.738606 1473.901245 328.632771 1465.889038 C326.160267 1456.481568 325.091878 1446.714966 322.988728 1437.198243 C320.339894 1425.212525 320.615040 1413.074585 321.233937 1401.030762 C321.721058 1391.551880 322.351979 1381.939331 327.892232 1373.326783 C331.409871 1367.858521 336.302723 1365.187744 341.925068 1365.176148 C362.520436 1365.133911 379.909535 1372.556397 390.919850 1390.628662 C397.841450 1401.989624 397.967549 1415.420777 391.527516 1426.347412 C383.954732 1439.195801 368.730733 1442.963135 355.440510 1435.971680 C354.222798 1435.331055 353.214131 1434.292847 352.108388 1433.439331 C353.409352 1432.959595 354.687977 1432.404175 356.014882 1432.012207 C364.710469 1429.443238 372.699757 1425.359742 378.705922 1418.604737 C383.241078 1413.504029 384.001240 1403.448609 378.142415 1396.696045 C370.331654 1387.693848 359.952046 1382.752564 348.576405 1380.102661 C342.110676 1378.596680 337.115529 1382.926636 337.182637 1390.164307 C337.255818 1398.058594 338.381337 1405.943238 339.046010 1413.832154 C339.059956 1413.997681 339.037861 1414.166138 339.049183 1414.331910 C339.714284 1424.054688 340.381093 1433.777344 341.047780 1444.000000 z"/><path class="selected"  fill="#000000" opacity="1.000000" stroke="none" 
 	d="
M471.047780 1487.000000 C477.297352 1486.000000 483.213673 1485.546509 488.752614 1483.856324 C495.114949 1481.914917 501.312031 1479.704590 504.464955 1472.372437 C507.267018 1465.856202 506.671803 1460.078858 503.140553 1454.764038 C495.667439 1443.516602 484.110524 1439.572632 471.272786 1437.926026 C458.577107 1436.297730 445.519307 1435.563355 434.752278 1427.207520 C423.189046 1418.233765 418.211293 1399.216187 425.428853 1385.964844 C432.646657 1372.713135 443.538045 1366.760987 458.287465 1366.989991 C462.957112 1367.062622 465.354909 1370.489136 467.946522 1373.527710 C468.442250 1374.109009 468.438527 1375.927369 467.952900 1376.343018 C467.239003 1376.954590 465.728840 1377.255371 464.826039 1376.934327 C451.407124 1372.162110 435.944752 1386.378662 436.950520 1398.726807 C437.629475 1407.062622 446.247914 1417.058594 454.976948 1419.049927 C465.747914 1421.507447 476.524037 1424.023072 487.136098 1427.076050 C501.445942 1431.192505 511.163380 1441.292969 516.633229 1454.441895 C522.491627 1468.525025 519.356618 1481.586182 505.257496 1491.934937 C495.568776 1499.046387 484.157948 1501.738160 472.379201 1503.000122 C466.158375 1503.666504 459.911305 1505.020508 453.725026 1504.784058 C448.706746 1504.592286 443.554402 1502.991700 438.859334 1501.052613 C435.922078 1499.839356 433.436787 1497.085694 431.278157 1494.569092 C429.421528 1492.404541 430.058949 1490.291626 433.307301 1490.018189 C445.717518 1488.973145 458.133778 1488.000000 471.047780 1487.000000 z"/><path class="selected"  fill="#000000" opacity="1.000000" stroke="none" 
 	d="
M256.797780 1109.250000 C258.381123 1118.781006 259.360432 1128.130616 261.137776 1137.325806 C263.336567 1148.701538 264.837788 1160.080933 265.118336 1171.684571 C265.502705 1187.581910 266.353291 1203.468506 267.063649 1219.357056 C267.296101 1224.556885 266.777058 1230.036499 268.265278 1234.876709 C270.554188 1242.321167 276.326802 1247.530762 283.264790 1250.924683 C290.074330 1254.255860 297.455342 1255.007080 305.069081 1255.126587 C316.133992 1255.300049 327.251851 1255.803833 338.220204 1257.179200 C346.031483 1258.158570 352.964070 1261.996949 357.963429 1268.479248 C358.873433 1269.659058 359.316456 1271.198975 359.974965 1272.572754 C358.700612 1272.715088 357.422749 1273.006836 356.152455 1272.976929 C343.622944 1272.682007 331.094014 1272.358765 318.566395 1271.992066 C308.536641 1271.698365 298.470540 1271.760254 288.492726 1270.862549 C280.761799 1270.166748 272.668324 1269.925049 265.978413 1264.982666 C261.683064 1261.809449 259.136708 1258.088623 258.830159 1252.121460 C258.248707 1240.801758 256.311696 1229.555664 255.080311 1218.263550 C254.552449 1213.422852 254.578480 1208.520020 254.006795 1203.686280 C252.808644 1193.555909 251.251332 1183.467408 250.099660 1173.332398 C249.475148 1167.836914 249.486134 1162.272217 249.025685 1156.754273 C248.100026 1145.662232 247.094029 1134.576538 246.033940 1123.496460 C245.100270 1113.737671 243.920033 1104.000000 243.161366 1094.228882 C243.018864 1092.393555 244.153981 1090.340943 245.074315 1088.585205 C245.628773 1087.527344 246.907216 1086.848877 247.860295 1086.000000 C248.589436 1087.063721 249.596821 1088.031617 250.001607 1089.207032 C252.264210 1095.776978 254.381123 1102.397095 256.797780 1109.250000 z"/><path class="selected"  fill="#000000" opacity="1.000000" stroke="none" 
 	d="
M483.047780 350.000000 C485.381123 342.142487 487.432362 334.678284 490.158681 327.469391 C491.675557 323.458527 493.924611 319.570221 496.547474 316.169464 C500.142811 311.507813 502.161000 311.896057 506.914723 315.248871 C515.228383 321.112580 520.608449 329.407776 525.971669 337.629181 C535.071583 351.578553 543.957936 365.683838 552.413991 380.030182 C557.163869 388.088807 561.137623 396.643189 564.953541 405.200531 C567.477711 410.861176 566.647084 416.875092 563.902760 422.322113 C563.197072 423.722779 561.314015 424.680329 559.801381 421.464875 C553.951283 409.029602 543.565175 401.037018 530.740956 397.591675 C521.838246 395.199890 512.105763 396.045899 502.819905 394.854218 C499.269185 394.398529 495.452473 392.917664 492.640858 390.754914 C490.279591 388.938568 489.270222 389.690949 488.307087 391.322052 C484.447224 397.858918 480.848042 404.550934 476.901661 411.032929 C476.641408 411.460389 473.625691 411.103516 473.012623 410.278504 C468.948079 404.808472 469.747304 398.556061 471.128499 392.499115 C472.852376 384.939576 474.955281 377.460968 477.077199 369.999359 C478.936238 363.462281 481.047810 356.997010 483.047780 350.000000 M503.547749 327.000000 C500.612965 334.268128 497.052998 341.357026 494.904530 348.850556 C492.324330 357.849671 490.842671 367.174958 489.196004 376.414399 C489.016316 377.422638 490.786061 379.743073 491.819508 379.851288 C500.665394 380.777344 509.549367 381.805024 518.423329 381.817688 C523.497243 381.824921 528.559010 379.914673 533.655629 379.038697 C535.947133 378.644867 536.026784 377.723877 535.068776 375.932648 C533.105946 372.262726 531.313710 368.501648 529.358082 364.827759 C525.958546 358.441559 522.570302 352.046875 519.025258 345.741272 C515.301564 339.117707 511.479725 332.545472 507.520497 326.060852 C506.491200 324.375092 504.729481 322.654053 503.547749 327.000000 z"/><path class="selected"  fill="#000000" opacity="1.000000" stroke="none" 
 	d="
M387.047780 418.000000 C377.122456 414.844910 373.785908 407.785584 374.052205 398.448639 C374.366627 387.425171 374.839772 376.404602 375.007588 365.379181 C375.138783 356.756592 373.952656 348.344422 370.088521 340.444672 C368.537709 337.274170 367.484334 333.863617 366.126851 330.594574 C364.435841 326.522431 368.289448 321.311036 373.711232 319.965882 C382.864094 317.695069 391.157124 320.784851 398.961201 324.602204 C412.702595 331.323761 426.073994 338.803742 439.577992 346.007935 C447.789876 350.388855 454.005604 357.260590 456.657826 365.722138 C458.568989 371.819489 457.281788 378.894898 454.291859 385.453308 C446.596943 402.332093 431.610921 408.308045 415.470692 413.029847 C406.327778 415.704621 397.235280 418.470368 387.047780 418.000000 M403.547780 342.000000 C400.683583 340.469147 397.967305 338.478577 394.925526 337.499482 C387.757680 335.192292 384.335255 335.340821 382.497456 343.288178 C381.864003 346.027497 382.618367 349.852295 384.195088 352.205384 C390.901539 362.213807 389.386830 372.800049 387.054860 383.405487 C384.989888 392.796601 392.594136 403.069458 402.400746 402.945191 C418.606068 402.739838 432.012745 396.088044 443.115285 384.451294 C449.543141 377.714173 448.535512 365.786621 440.575612 361.162262 C431.628865 355.964508 422.299916 351.424805 413.141743 346.590363 C410.269673 345.074280 407.412007 343.530915 403.547780 342.000000 z"/><path class="selected"  fill="#000000" opacity="1.000000" stroke="none" 
 	d="
M306.047780 313.000000 C322.063496 314.329865 334.413258 321.638916 342.629292 334.521790 C345.973439 339.765534 346.767445 346.836579 347.897633 353.222107 C348.678883 357.636017 347.803517 362.315796 348.098713 366.848755 C348.709981 376.235749 344.917561 384.598847 340.717763 392.241730 C337.538319 398.027802 331.892537 402.906464 326.394093 406.871216 C316.815144 413.778321 306.122700 412.088562 295.963307 407.923645 C281.221943 401.880371 270.781544 391.124695 265.844410 376.029206 C263.187672 367.906159 262.256459 359.627289 264.494771 350.389710 C266.785054 340.937775 270.860097 332.920197 276.787037 326.202576 C284.089894 317.925446 293.854756 312.807282 306.047780 313.000000 M292.047780 328.500000 C290.439778 329.441346 288.620228 330.145478 287.256764 331.361084 C275.070393 342.226319 271.932057 356.061005 276.808369 370.939667 C280.967885 383.631195 291.116017 390.953308 304.163411 394.003662 C315.269307 396.600098 324.731801 394.658081 331.214345 384.335022 C338.801991 372.252045 342.150319 359.590546 336.295949 345.763184 C329.474568 329.651856 309.528035 320.275269 292.047780 328.500000 z"/><path class="selected"  fill="#000000" opacity="1.000000" stroke="none" 
 	d="
M530.047780 1440.000000 C529.023244 1432.447876 526.876210 1425.558594 528.926381 1418.212159 C530.240529 1413.503296 530.053395 1408.391602 531.150868 1403.600586 C532.037709 1399.729493 533.838917 1396.067871 535.234547 1392.313233 C536.505665 1392.853760 538.293507 1393.035523 538.960011 1393.995850 C542.154164 1398.597901 541.524647 1403.870362 540.561879 1408.915894 C537.929860 1422.709961 538.297474 1435.980347 543.599660 1449.379151 C547.071461 1458.152344 551.379811 1466.271729 557.748341 1472.826783 C563.065663 1478.299927 569.773366 1482.608765 576.380543 1486.574952 C580.621510 1489.120972 587.064869 1485.578003 588.923207 1480.602906 C594.309620 1466.182618 598.480031 1451.502442 598.047963 1435.889405 C597.713612 1423.805542 597.521046 1411.715332 596.972157 1399.641236 C596.779164 1395.396607 595.645314 1391.200928 595.066884 1386.965821 C594.463185 1382.545533 598.251942 1381.908936 601.047413 1380.818482 C601.429005 1380.669678 603.198292 1383.524659 604.019642 1385.143799 C611.580189 1400.047242 611.656788 1416.191040 610.844960 1432.211914 C610.385487 1441.278077 607.944630 1450.252686 606.277333 1459.246338 C604.961659 1466.343750 603.765370 1473.485840 601.950123 1480.460816 C600.558644 1485.807984 598.960133 1491.310303 596.255238 1496.061158 C591.354115 1504.669678 583.305714 1504.725708 575.079213 1501.400635 C560.185719 1495.380738 549.595936 1484.242920 541.414479 1470.777588 C535.746693 1461.449341 531.372059 1451.516602 530.047780 1440.000000 z"/><path class="selected"  fill="#000000" opacity="1.000000" stroke="none" 
 	d="
M604.297780 1251.250000 C597.042531 1257.449707 586.794056 1257.553223 578.306569 1252.665284 C570.629689 1248.244141 567.026600 1240.715332 563.985646 1232.729737 C559.848134 1221.864136 558.822011 1210.447510 556.904530 1199.134766 C554.499501 1184.945313 550.715809 1170.993409 548.145619 1156.826905 C545.799489 1143.895020 552.505299 1134.769165 562.672535 1128.100586 C569.764821 1123.448975 576.874135 1118.250611 585.844166 1117.796631 C588.607716 1117.656983 591.693165 1118.016846 594.120473 1119.197754 C595.690053 1119.961548 597.787587 1122.239258 593.684559 1124.134400 C586.810719 1127.309449 579.834889 1130.669190 573.799794 1135.158081 C565.103566 1141.626587 559.096364 1150.364258 559.139332 1161.768799 C559.173329 1170.796021 562.251637 1179.053223 570.877858 1183.024170 C576.713551 1185.710572 583.483754 1186.335083 589.797352 1188.025879 C594.280018 1189.226197 598.782399 1190.451050 603.094349 1192.131226 C604.392201 1192.637085 605.080311 1194.707642 606.047780 1196.061402 C604.568043 1196.707642 603.145070 1197.676270 601.599476 1197.948487 C589.858143 1200.016724 578.377675 1202.643799 572.201832 1214.410767 C566.517750 1225.240479 572.663380 1236.516846 584.778370 1238.004151 C590.004506 1238.645752 595.359486 1238.835450 600.395558 1240.194947 C603.220936 1240.957520 605.753651 1243.471070 607.828297 1245.736084 C608.203358 1246.145630 605.714467 1249.178345 604.297780 1251.250000 z"/><path class="selected"  fill="#000000" opacity="1.000000" stroke="none" 
 	d="
M519.797780 981.250000 C525.047780 989.564759 530.901356 997.248536 534.733204 1005.834595 C537.097706 1011.132630 536.978932 1017.813721 536.898549 1023.859619 C536.794667 1031.673218 527.023060 1040.696656 519.040211 1040.951294 C511.825306 1041.181519 504.575673 1041.349366 497.381123 1040.903077 C489.990712 1040.444458 486.796071 1034.340332 484.176259 1028.707032 C480.027363 1019.785645 476.290730 1010.615601 473.206166 1001.277771 C471.345357 995.644349 471.041035 989.495728 470.050038 983.576538 C469.371266 979.522278 468.500081 975.481507 468.174061 971.398072 C468.071950 970.118470 469.162037 968.384583 470.221089 967.429139 C477.647847 960.728821 495.432667 961.040833 505.990285 968.623291 C510.926259 972.168457 515.053822 976.839356 519.797780 981.250000 M518.547780 1026.000000 C520.602833 1025.333374 522.627308 1024.543702 524.719044 1024.024781 C529.637868 1022.804566 531.594288 1019.482605 528.980458 1015.671448 C524.367055 1008.944641 519.725941 1002.165406 514.382619 996.029786 C508.585499 989.373108 502.049000 983.346863 495.644551 977.245545 C494.549458 976.202271 491.367634 975.359681 491.070241 975.780701 C488.480855 979.447144 485.391682 983.179932 484.304768 987.373413 C483.158558 991.795655 483.751362 996.768555 484.116353 1001.459473 C484.682026 1008.729615 488.223103 1014.474732 493.948659 1019.028504 C500.915059 1024.569214 508.899281 1026.326416 518.547780 1026.000000 z"/><path class="selected"  fill="#000000" opacity="1.000000" stroke="none" 
 	d="
M554.797780 333.250000 C551.720875 328.173096 548.853444 323.368866 546.123097 318.487946 C545.813893 317.935181 546.276600 316.950684 546.381398 316.166382 C546.950245 316.290985 547.650746 316.244873 548.067860 316.566376 C552.751515 320.176850 557.687794 323.530304 561.968983 327.574494 C567.399647 332.704560 571.725392 339.115967 577.520375 343.727112 C593.066762 356.097535 604.191823 352.032715 613.026295 335.774842 C616.781666 328.863892 620.887990 322.358246 628.880116 319.750763 C630.205922 319.318238 632.131276 319.213227 633.161305 319.893311 C633.897511 320.379303 633.968373 322.507599 633.705983 323.772431 C631.270741 335.512177 623.644948 344.417237 616.771535 353.616303 C611.710255 360.390076 607.334584 367.435273 604.315480 375.304078 C603.870473 376.464020 604.060841 377.890137 604.057484 379.193390 C604.037770 386.857239 604.352101 394.536988 603.955067 402.180268 C603.614552 408.734375 600.520314 414.088532 594.393300 417.020722 C592.656727 417.851807 590.397206 417.590241 588.377553 417.829804 C588.510792 416.143372 588.380238 414.384583 588.819935 412.782257 C591.714650 402.234345 591.742665 391.383728 590.770924 380.748200 C590.149220 373.944031 586.341237 367.866883 580.878712 362.912995 C571.179982 354.117310 561.589223 345.116425 554.797780 333.250000 z"/><path class="selected"  fill="#000000" opacity="1.000000" stroke="none" 
 	d="
M661.797780 989.750000 C655.488942 995.750611 653.095204 1002.775147 655.122059 1010.867127 C656.779591 1017.484864 666.008290 1019.556153 670.863514 1014.687073 C675.528981 1010.008362 679.733815 1004.702088 684.988881 1000.819031 C692.889638 994.981140 702.869313 995.218567 709.808522 1002.973023 C713.219594 1006.784851 714.033253 1013.964783 710.743458 1018.721314 C705.864125 1025.776001 699.723805 1031.194825 691.086232 1033.535645 C677.614369 1037.186646 661.227833 1032.598633 653.058095 1021.337220 C645.797963 1011.329651 644.738453 1000.200684 648.124989 988.692444 C651.481740 977.285401 658.656727 968.613160 668.953908 962.601502 C676.142140 958.404786 684.082570 958.715027 691.947316 959.125550 C693.358021 959.199219 694.683156 960.912537 696.047780 961.868836 C694.940968 962.519410 693.896657 963.327210 692.717640 963.796326 C679.658986 968.992676 669.684987 977.846680 661.797780 989.750000 M706.047780 1014.500000 C706.047780 1008.112610 702.435353 1003.771851 697.512562 1005.136536 C692.526112 1006.518677 687.831288 1008.970215 683.051442 1011.051331 C682.627186 1011.236023 682.134511 1012.372498 682.318715 1012.678467 C684.836049 1016.859253 687.995289 1020.354187 693.184926 1020.974060 C698.515492 1021.610657 703.161976 1020.578247 706.047780 1014.500000 z"/><path class="selected"  fill="#000000" opacity="1.000000" stroke="none" 
 	d="
M272.047780 1409.000000 C272.047780 1404.834717 272.175465 1401.164063 272.021443 1397.505249 C271.693654 1389.720459 275.072804 1383.498902 281.320393 1379.618531 C284.315541 1377.758301 288.897603 1378.407837 292.775868 1378.126099 C293.012105 1378.108887 293.949208 1380.346192 293.602498 1380.795655 C287.356953 1388.892334 285.401326 1398.292481 285.059926 1408.185059 C284.557789 1422.734619 286.868275 1436.927491 289.889058 1451.130371 C291.746541 1459.863526 292.372212 1468.906250 292.963307 1477.848877 C293.657368 1488.349488 293.825368 1498.891114 293.956990 1509.418091 C293.984364 1511.604615 292.852559 1513.805664 292.254994 1516.000000 C290.223683 1514.537720 287.265828 1513.506958 286.344441 1511.527832 C284.079701 1506.663697 282.574391 1501.413208 281.110188 1496.220337 C280.131733 1492.750367 279.623158 1489.129883 279.126301 1485.546021 C278.336110 1479.846070 277.673848 1474.126709 277.058766 1468.404663 C275.360402 1452.604737 273.639058 1436.806397 272.102559 1420.990357 C271.733754 1417.194336 272.047780 1413.331910 272.047780 1409.000000 z"/><path class="selected"  fill="#000000" opacity="1.000000" stroke="none" 
 	d="
M247.047780 297.000000 C236.136845 295.589051 225.630589 294.659668 215.343541 292.623047 C206.232182 290.819214 197.553807 290.836365 188.701512 293.741822 C182.218175 295.869812 175.581044 297.832611 168.858265 298.841553 C162.234395 299.835724 155.977025 297.822602 150.969578 292.992127 C147.960927 290.089783 148.339284 287.963929 152.402073 287.068756 C160.991368 285.176300 169.616276 283.322327 178.316945 282.091187 C188.175786 280.696137 198.113408 279.536316 208.052830 279.104493 C224.557728 278.387421 241.090397 278.244172 257.613637 278.058380 C262.135914 278.007538 266.671376 278.609375 271.191365 279.016388 C275.563740 279.410126 276.364918 281.143311 274.054371 284.781037 C269.860371 291.384064 263.195515 294.077820 256.113118 295.936188 C253.354878 296.659943 250.408467 296.666657 247.047780 297.000000 z"/><path class="selected"  fill="#000000" opacity="1.000000" stroke="none" 
 	d="
M292.047780 1023.000000 C289.467183 1020.374573 290.707570 1017.859070 291.190114 1015.320862 C292.626515 1007.764893 294.050343 1000.051087 286.830952 994.413819 C284.572041 992.650025 281.743306 991.427430 278.990132 990.517945 C267.491475 986.719788 252.949727 991.150940 246.992817 1000.875061 C245.345524 1003.563965 246.088414 1007.727173 245.774708 1011.217469 C245.664296 1012.445984 246.127919 1014.349488 245.521855 1014.764038 C244.609913 1015.387818 242.593632 1015.512879 241.745152 1014.893494 C239.635731 1013.353516 237.020817 1011.583924 236.245839 1009.340943 C234.872960 1005.367615 234.440816 1000.995240 234.122792 996.751770 C233.787907 992.283387 233.539067 987.696778 234.176396 983.295594 C234.975224 977.779175 236.703557 972.395996 238.173665 966.994202 C238.191853 966.927430 240.465123 967.018616 241.077107 967.637757 C249.559407 976.218628 259.849476 980.289002 271.747151 978.853394 C278.974660 977.981385 286.003560 975.541993 293.185383 974.130799 C294.297474 973.912293 296.750722 975.276307 296.894490 976.177857 C298.472157 986.071411 300.318074 995.986512 300.844594 1005.961609 C301.222371 1013.119507 299.501851 1020.366272 299.142567 1027.594605 C298.976826 1030.927735 297.642293 1030.398682 296.145985 1028.939820 C294.539326 1027.373291 293.394276 1025.333374 292.047780 1023.000000 z"/><path class="selected"  fill="#000000" opacity="1.000000" stroke="none" 
 	d="
M440.297780 1013.750000 C432.982930 1009.578064 425.456196 1006.603577 417.370625 1008.178528 C411.544423 1009.313416 406.036305 1012.091614 400.397603 1014.167481 C399.539937 1014.483277 398.743702 1014.965821 397.919056 1015.371338 C397.628621 1014.158753 396.772175 1012.731629 397.137654 1011.767823 C399.974873 1004.285523 402.713826 996.734253 406.135335 989.513428 C410.092305 981.162598 414.668202 973.101258 419.161427 965.017701 C419.433858 964.527710 421.990834 964.468811 422.396992 965.016236 C429.713734 974.879883 437.127492 984.691101 443.946034 994.897339 C447.881764 1000.788514 451.342091 1007.136963 454.033436 1013.683655 C457.252919 1021.515015 459.548421 1029.741089 461.927968 1037.888672 C462.338154 1039.293213 461.363270 1041.245606 460.649769 1042.767578 C460.346730 1043.413941 459.069142 1043.876831 458.232655 1043.879639 C457.839924 1043.880860 457.339100 1042.633911 457.064046 1041.887574 C454.667286 1035.383545 454.076741 1028.109619 449.172902 1022.677857 C446.443135 1019.654114 443.432057 1016.884278 440.297780 1013.750000 M417.547780 994.000000 C425.417653 996.962525 426.047780 996.528443 426.047780 988.144959 C426.047780 987.486206 425.936940 986.804688 426.066487 986.172486 C426.713765 983.013733 424.963154 982.640442 422.499928 982.996704 C418.063740 983.638428 415.247273 989.051209 417.547780 994.000000 z"/><path class="selected"  fill="#000000" opacity="1.000000" stroke="none" 
 	d="
M336.797780 1017.250000 C344.519551 1022.194092 352.413441 1020.378113 360.000722 1018.371033 C366.093220 1016.759400 371.899678 1016.663453 377.487721 1019.166138 C379.423909 1020.033326 380.551106 1022.706665 382.047780 1024.555054 C380.543721 1025.703369 379.199971 1027.245240 377.508778 1027.934204 C368.561970 1031.578858 359.513264 1034.133057 349.558095 1034.230225 C338.872273 1034.334229 325.893056 1026.304200 323.262105 1013.579041 C322.776417 1011.229920 323.727498 1008.576661 324.051381 1006.068482 C325.495381 994.884888 327.297749 983.847657 333.479237 974.007813 C339.254139 964.815186 347.916951 959.607788 358.176289 959.414551 C364.287312 959.299378 371.805501 960.510926 375.456990 967.814576 C377.005696 970.912354 376.373219 973.074280 372.937581 972.893372 C369.525624 972.713623 366.023610 972.052918 362.800892 970.920655 C355.795186 968.459290 350.336995 971.685486 346.458485 976.381958 C338.867940 985.573365 333.889454 996.232300 334.161488 1008.543457 C334.224110 1011.378479 335.714467 1014.182007 336.797780 1017.250000 z"/><path class="selected"  fill="#000000" opacity="1.000000" stroke="none" 
 	d="
M228.047780 424.000000 C227.930104 424.617646 227.773747 424.715241 227.700734 424.856079 C226.868916 426.460083 226.049809 428.070679 225.227315 429.679535 C223.167470 427.732849 219.980000 426.120575 219.282826 423.769776 C217.837285 418.895508 217.263035 413.639893 217.138753 408.521485 C216.852086 396.714173 217.695241 384.849915 216.874440 373.092957 C215.966343 360.085663 213.821171 347.157135 211.989293 334.226227 C211.356968 329.762787 209.562672 325.437043 209.177983 320.972657 C208.754475 316.057892 209.568165 311.034577 213.342808 307.323273 C215.025441 305.668854 217.132649 303.939118 218.131672 308.475312 C220.539570 319.408417 223.882145 330.152222 225.939000 341.142487 C229.720906 361.350006 230.788716 381.826264 229.985707 402.361390 C229.709614 409.422058 228.714436 416.454621 228.047780 424.000000 z"/><path class="selected"  fill="#000000" opacity="1.000000" stroke="none" 
 	d="
M628.797780 992.750000 C626.439137 1001.775330 624.097462 1010.504273 622.333485 1019.348328 C621.601918 1023.016236 622.034230 1026.931275 622.072804 1030.732544 C622.098500 1033.262085 621.768666 1033.320069 619.389149 1032.111206 C611.314747 1028.008789 607.185414 1020.909241 604.238820 1012.967835 C603.848866 1011.916870 601.701100 1008.227051 606.285634 1007.945008 C615.684559 1007.366700 620.110280 1002.711975 620.008107 993.410157 C619.858998 979.838379 625.170582 968.702820 634.988270 959.726380 C638.043080 956.933289 642.019398 955.135132 645.628834 952.973511 C646.288991 952.578186 647.215321 952.627137 648.018727 952.470948 C647.921315 953.254395 648.052846 954.168274 647.691823 954.801453 C643.161488 962.748352 638.294362 970.516724 634.083790 978.626892 C631.836293 982.955933 630.690785 987.857117 628.797780 992.750000 z"/><path class="selected"  fill="#000000" opacity="1.000000" stroke="none" 
 	d="
M560.297780 984.750000 C561.714467 988.169495 563.802418 991.318970 563.871571 994.512268 C564.063832 1003.383362 565.240346 1012.411194 562.028859 1021.068482 C561.925770 1021.346436 561.386708 1021.752320 561.317128 1021.705262 C560.912221 1021.431031 560.413807 1021.101441 560.261036 1020.677369 C558.490773 1015.763306 556.783375 1010.826599 555.046010 1005.900574 C553.053517 1000.251038 550.901417 994.652466 549.097767 988.943543 C547.838246 984.956910 546.540455 980.854126 546.279530 976.738587 C546.163441 974.907898 548.185292 972.067505 549.944813 971.291748 C551.165700 970.753601 554.338490 972.483826 555.329945 974.036560 C557.367543 977.227478 558.526906 980.979126 560.297780 984.750000 z"/><path class="selected"  fill="#000000" opacity="1.000000" stroke="none" 
 	d="
M585.047780 981.000000 C585.897938 980.316407 586.141347 979.545960 586.615529 978.963257 C590.002492 974.801453 594.717702 974.761170 596.787282 979.495057 C598.374623 983.125855 598.466115 987.446473 598.947194 991.493103 C599.037037 992.249085 598.002186 993.548462 597.176747 993.933594 C593.433522 995.679871 589.651967 997.439087 585.706959 998.581726 C584.867116 998.825074 582.258595 996.527832 582.240956 995.373841 C582.188283 991.937439 582.976491 988.480530 583.526234 985.046021 C583.745228 983.677918 584.200245 982.347535 585.047780 981.000000 z"/><path class="selected"  fill="#000000" opacity="1.000000" stroke="none" 
 	d="
M375.047780 996.000000 C372.846364 997.999939 370.514302 1000.905823 368.469990 1000.715760 C363.791524 1000.280945 359.240254 998.373719 354.701771 996.869812 C354.494862 996.801270 354.558430 994.582337 355.108113 993.789002 C357.958333 989.675171 368.178670 987.677735 373.271107 989.612488 C376.872944 990.980835 376.267720 992.997193 375.047780 996.000000 z"/><path class="selected"  fill="#000000" opacity="1.000000" stroke="none" 
 	d="
M243.047780 541.000000 C261.774190 541.559754 276.530934 549.314270 287.153096 563.828614 C296.808980 577.022522 299.986043 592.454285 295.818532 608.209229 C291.563374 624.295716 280.893727 635.744080 264.051503 638.708069 C254.782429 640.339234 244.817769 640.136597 235.477452 638.716675 C223.378346 636.877442 211.484288 633.355469 199.701314 629.881653 C191.089223 627.342591 182.709950 623.182862 179.338811 614.275025 C177.664860 609.851929 177.934880 603.957459 179.258092 599.274720 C183.105961 585.657532 190.461796 573.508362 199.267857 562.683228 C206.336278 553.994019 214.931904 546.253296 226.791020 543.999695 C232.043599 543.001587 237.295552 542.000000 243.047780 541.000000 M285.047780 604.500000 C285.164692 603.383118 285.064900 602.188965 285.431325 601.161011 C290.118855 588.011719 285.110829 571.663453 272.690754 563.870606 C260.361928 556.134949 247.632512 554.123963 233.803380 558.008118 C218.203679 562.389588 206.231755 571.356690 197.908299 585.465088 C194.247273 591.670594 192.192494 598.246277 191.177647 605.135926 C190.488759 609.812806 190.999318 614.676087 194.238118 618.692139 C197.035496 622.160889 200.521992 620.488709 203.857380 620.009705 C204.346699 619.939453 204.859868 619.953553 205.353489 620.007019 C211.404576 620.662842 217.477879 621.169007 223.498005 622.041321 C231.150044 623.150147 238.718358 624.949952 246.396016 625.740967 C256.408101 626.772644 266.323567 625.827637 273.981495 618.370789 C278.017018 614.441162 281.057850 609.489930 285.047780 604.500000 z"/><path class="selected"  fill="#000000" opacity="1.000000" stroke="none" 
 	d="
M208.047780 674.000000 C205.841435 686.520142 203.011723 698.225220 191.899174 705.605347 C191.110524 706.129151 189.582341 706.805909 189.256718 706.499451 C188.556630 705.840332 187.941716 704.488953 188.124959 703.591004 C189.307469 697.795838 190.802189 692.064942 192.025395 686.277283 C193.533665 679.140869 198.248631 674.046692 202.747319 668.762696 C205.104085 665.994568 206.785740 665.050293 207.360631 669.798828 C207.511128 671.042054 207.814564 672.266785 208.047780 674.000000 z"/><path class="selected"  fill="#000000" opacity="1.000000" stroke="none" 
 	d="
M247.797780 679.250000 C246.268834 674.893006 249.921467 674.331787 252.107472 673.709778 C253.738209 673.245728 256.380269 674.173645 257.764424 675.396057 C262.607899 679.673584 264.052998 689.160157 260.785603 694.560608 C260.326954 695.318665 257.656788 695.734436 256.893666 695.151795 C251.773579 691.242310 248.416035 686.172791 247.797780 679.250000 z"/><path class="selected"  fill="#000000" opacity="1.000000" stroke="none" 
 	d="
M339.297780 614.750000 C344.167439 616.103028 347.397969 619.029847 349.550252 623.084595 C350.600483 625.063111 351.119160 626.760376 347.405446 627.130371 C339.256398 627.942566 333.830556 622.780823 327.732014 619.058472 C326.843007 618.515869 325.863759 616.457215 326.207020 615.922791 C326.828785 614.954895 328.399251 614.133118 329.602345 614.092163 C332.742573 613.985291 335.898244 614.333374 339.297780 614.750000 z"/><path class="selected"  fill="#000000" opacity="1.000000" stroke="none" 
 	d="
M324.047780 577.000000 C324.316426 574.898011 324.149525 573.028870 324.936909 571.744995 C327.134938 568.161133 329.640034 564.750244 332.241963 561.442627 C332.744435 560.803894 335.088887 560.619080 335.146870 560.771424 C336.565236 564.499756 339.051808 568.398438 338.771290 572.069947 C338.267811 578.660645 329.987813 581.338990 324.047780 577.000000 z"/><path class="selected"  fill="#000000" opacity="1.000000" stroke="none" 
 	d="
M297.047780 660.000000 C293.902882 657.688416 291.095540 655.525635 288.737996 652.950989 C288.210103 652.374451 288.826802 649.620972 289.658314 649.132752 C292.574635 647.419983 300.540272 650.032898 301.601979 653.213257 C302.700520 656.503968 300.720845 658.813904 297.047780 660.000000 z"/></svg>