<?xml version="1.0" encoding="utf-8"?><!DOCTYPE svg PUBLIC "-//W3C//DTD SVG 1.1//EN" "http://www.w3.org/Graphics/SVG/1.1/DTD/svg11.dtd"><svg version="1.1" id="Contours" xmlns="http://www.w3.org/2000/svg" xmlns:xlink="http://www.w3.org/1999/xlink" x="0px" y="0px" width="595.458069px" height="595.458069px" viewBox="-0.000000 -0.000003 595.458069 412.675568" enable-background="new 0 0 595.458069 595.458069" xml:space="preserve" stroke="black" fill="none" stroke-linecap='round' stroke-linejoin='round'><path class="selected"  fill="#000000" opacity="1.000000" stroke="none" 
 	d="
M472.287455 291.299363 C472.844767 290.171639 473.402078 289.043916 473.959390 287.916193 C477.011160 289.661075 477.725359 294.422958 475.319755 296.986353 C473.401473 295.976336 472.289240 293.631671 472.720562 291.507080 z"/><path class="selected"  fill="#000000" opacity="1.000000" stroke="none" 
 	d="
M49.014309 339.620063 C45.896242 344.558756 42.778175 349.497449 39.660108 354.436142 C29.738784 352.538385 21.834380 343.032400 21.778480 332.931359 C21.772445 331.840769 21.864561 330.695305 22.454501 329.778029 C23.562242 328.055645 25.988769 327.764497 28.001154 328.143970 C30.013539 328.523444 31.962549 329.391233 34.009285 329.323649 C39.401931 329.145582 44.053714 322.641954 49.025368 324.738379 C51.644577 325.842833 52.820273 329.075609 52.453386 331.894381 C52.086500 334.713152 50.531826 337.216476 49.014311 339.620062 M31.957235 346.110099 C33.226165 347.262899 35.025035 348.338190 36.557219 347.569072 C37.181583 347.255653 37.629464 346.684250 38.055923 346.130905 C40.965787 342.355249 43.875653 338.579595 46.785519 334.803940 C47.543333 333.820651 48.340698 332.714105 48.253456 331.475747 C48.166214 330.237390 46.626946 329.134092 45.661940 329.915055 C39.766696 334.685982 31.162229 335.836560 24.220593 332.782163 C25.352210 337.876681 28.094551 342.600920 31.957236 346.110098 z"/><path class="selected"  fill="#000000" opacity="1.000000" stroke="none" 
 	d="
M570.242437 395.075873 C578.658113 397.499076 589.724538 391.659623 595.458064 398.279457 C589.658553 399.379559 583.859041 400.479662 578.059529 401.579764 C575.304027 402.102452 572.453140 402.624250 569.719709 401.996281 C566.149713 401.176122 563.323727 398.534664 560.682784 395.996367 C543.466582 379.449303 526.038094 362.638846 513.785161 342.143272 C507.218542 331.159239 497.050824 322.368482 485.233201 317.457957 C478.983069 314.860867 472.055563 313.324368 465.424682 314.681000 C450.764471 317.680375 442.659151 332.886486 435.043619 345.767546 C422.376782 367.192488 403.056128 387.761073 378.233169 389.577010 C405.365373 376.073893 427.779109 353.304284 440.853174 325.962749 C448.150829 310.701305 468.883654 305.793943 484.825805 311.452142 C500.767957 317.110341 512.599066 330.574425 522.280893 344.446326 C533.505392 360.528534 546.436135 375.419083 560.785966 388.787298 C563.582825 391.392836 566.569209 394.018207 570.242435 395.075876 z"/><path class="selected"  fill="#000000" opacity="1.000000" stroke="none" 
 	d="
M158.111535 400.030217 C167.344329 394.176786 175.543303 386.697696 182.218199 378.040162 C187.557104 371.115445 192.952746 362.762803 201.591495 361.410905 C212.198740 359.750953 220.729194 369.467360 227.483542 377.812891 C234.237891 386.158422 244.490306 394.922397 254.441447 390.892025 C251.370390 377.383000 248.299333 363.873975 245.228277 350.364951 C243.762560 343.917528 242.204483 337.263754 238.266919 331.952146 C233.949798 326.128532 227.273029 322.592021 220.711260 319.510591 C210.148066 314.550077 198.396906 310.180325 187.032620 312.833767 C174.841160 315.680345 165.657887 326.296465 161.152000 337.976862 C156.646114 349.657260 156.046670 362.422312 155.498986 374.929699 C155.107350 383.873442 154.715713 392.817185 154.324077 401.760928 C149.668666 393.921653 149.458683 384.296706 149.736939 375.183547 C150.160109 361.324313 151.481382 347.201918 157.025202 334.492728 C162.569021 321.783538 172.967181 310.553698 186.382148 307.047114 C168.895068 301.766894 155.405414 286.833179 148.689567 269.845652 C141.973721 252.858124 141.343855 234.010883 143.341526 215.853571 C143.725595 212.362668 138.903348 211.190450 135.412295 210.807744 C131.921242 210.425038 127.559769 206.966408 129.915453 204.361668 C168.131799 202.833443 206.348146 201.305219 244.564493 199.776994 C248.769717 199.608832 253.883593 199.932380 255.844599 203.656175 C252.476596 204.901768 249.108594 206.147360 245.740591 207.392953 C246.170930 227.018746 246.423351 247.061280 240.443530 265.758838 C234.463709 284.456396 221.068029 301.896814 202.265075 307.536482 C214.604036 310.656230 227.552292 314.106901 236.677105 322.979362 C247.062390 333.077432 250.465550 348.165514 253.391248 362.352318 C256.060926 375.297667 258.730603 388.243016 261.400280 401.188364 C264.942211 398.419059 271.080966 400.634498 272.038074 405.027478 C227.653582 409.166303 183.098841 411.479021 138.524367 411.957820 C137.635677 408.025527 143.119460 406.093724 147.146810 405.911654 C183.931335 404.248706 220.715859 402.585756 257.500384 400.922807 C251.549359 393.680888 239.692489 395.782508 231.754163 390.798227 C222.663725 385.090565 220.254388 371.104675 210.074346 367.701703 C199.701543 364.234295 190.088679 374.236496 183.865685 383.230511 C177.642690 392.224527 168.748542 402.574244 158.111535 400.030217 M205.353374 294.953768 C197.247144 298.334957 187.649589 295.898816 180.418255 290.913717 C173.186921 285.928619 167.843427 278.717820 162.638225 271.643268 C160.775671 269.111813 158.869573 266.488435 158.149330 263.429248 C157.429086 260.370061 158.199490 256.732073 160.806238 254.976442 C172.510268 247.093848 188.578103 256.452913 202.305421 253.184842 C208.804517 251.637599 214.308596 247.339254 220.619542 245.147414 C226.930488 242.955573 235.393299 243.807363 238.307806 249.818840 C239.012846 239.310656 239.717887 228.802470 240.422927 218.294284 C240.710699 214.005230 240.373838 208.624999 236.422320 206.932575 C234.966328 206.308982 233.320220 206.376885 231.738265 206.455578 C203.855140 207.842624 175.972014 209.229667 148.088889 210.616710 C147.729635 227.409053 148.842370 244.232626 151.410155 260.831371 C152.055390 265.002310 152.805484 269.204333 154.480334 273.078341 C158.209248 281.703499 166.035838 287.743059 173.579682 293.345610 C179.880167 298.024762 186.779667 302.873581 194.627342 302.941172 C199.075790 302.979486 203.399511 301.441881 207.380289 299.456041 C219.330031 293.494827 229.056909 283.196251 234.326674 270.925882 C234.936789 269.505262 235.032010 267.219762 233.494898 267.053367 C228.268466 274.008293 222.542913 280.588064 216.376841 286.725336 C213.105628 289.981272 209.613076 293.177003 205.353374 294.953768 M211.766568 255.923085 C200.131468 262.967625 185.167806 255.857134 171.647123 257.337746 C167.542658 257.787214 162.597937 260.412189 163.242675 264.490543 C163.498116 266.106358 164.620953 267.429260 165.698957 268.659714 C169.482183 272.977961 173.265409 277.296207 177.048635 281.614454 C179.834427 284.794211 182.743461 288.067137 186.598551 289.802009 C195.225846 293.684473 205.201395 288.644243 212.569552 282.710103 C218.136439 278.226661 223.220256 273.143814 227.704761 267.577783 C229.964577 264.772971 232.133058 261.708814 232.761782 258.162204 C233.390506 254.615593 232.052172 250.483002 228.815553 248.902485 C225.903486 247.480455 222.348678 248.461728 219.592930 250.167055 C216.837183 251.872382 214.538770 254.244638 211.766567 255.923084 z"/><path class="selected"  fill="#000000" opacity="1.000000" stroke="none" 
 	d="
M12.768212 402.110834 C12.456167 385.273020 23.003388 368.730345 38.400423 361.908271 C30.951542 362.517484 23.297861 358.941348 18.985878 352.836943 C16.325532 349.070735 14.942047 344.567139 13.774218 340.106429 C12.382756 334.791517 11.237879 329.412056 10.344500 323.991140 C9.564991 319.261169 9.194099 313.780476 12.506332 310.315022 C12.040107 308.033418 8.734581 311.393962 6.432299 311.043842 C4.691135 310.779053 4.408320 308.089713 5.654157 306.844862 C6.899994 305.600011 8.831974 305.439280 10.590975 305.351647 C27.660330 304.501260 44.729685 303.650872 61.799040 302.800484 C64.981953 302.641913 69.190564 303.253277 69.706976 306.398018 C66.098273 307.611080 63.882864 311.375569 63.199221 315.120818 C62.515579 318.866066 63.041563 322.709760 63.161198 326.515012 C63.477473 336.574811 60.859526 346.709606 55.710759 355.357715 C54.473906 357.435190 55.582764 360.198711 57.324993 361.875121 C59.067222 363.551530 61.344281 364.561524 63.205498 366.104760 C73.635957 374.753213 65.619363 392.747160 72.084766 404.654668 C72.667893 405.728629 73.393128 406.868682 73.183803 408.072680 C72.839044 410.055674 70.366639 410.716603 68.365863 410.935740 C46.631743 413.316192 24.630974 413.253684 2.910731 410.749771 C2.092543 410.655450 1.216795 410.532180 0.609169 409.976195 C-0.867904 408.624657 0.569467 405.980427 2.485541 405.399857 C4.401615 404.819288 6.457944 405.412928 8.459476 405.365283 C10.461008 405.317638 12.805309 404.112591 12.768212 402.110836 M16.828090 331.947856 C17.628183 336.918337 18.469994 342.010569 20.961478 346.385308 C25.275408 353.960040 34.641508 358.290129 43.206570 356.669548 C45.049023 356.320941 46.860977 355.717375 48.446320 354.715954 C53.014076 351.830618 54.975080 346.224455 56.166116 340.954636 C58.347738 331.301893 59.014612 321.308382 58.134890 311.451353 C58.081403 310.852047 58.004789 310.210911 57.609794 309.757030 C57.030007 309.090809 56.015977 309.084001 55.133992 309.129879 C43.661504 309.726651 32.189017 310.323420 20.716529 310.920190 C19.229167 310.997559 17.646323 311.107670 16.448722 311.993100 C14.208348 313.649489 14.422772 317.005103 14.865563 319.755892 C15.519740 323.819880 16.173915 327.883868 16.828090 331.947856 M23.408396 402.938341 C25.700924 399.041291 27.993452 395.144240 30.285980 391.247190 C32.422794 387.614837 35.160114 383.577948 39.352591 383.150048 C42.684592 382.809971 45.485836 379.663937 45.438587 376.314959 C46.790075 375.581789 48.301832 377.346247 48.224919 378.881872 C48.148005 380.417497 47.236931 381.795676 47.011286 383.316578 C46.632789 385.867729 48.203055 388.257454 49.698465 390.358735 C52.191866 393.862347 54.685267 397.365960 57.178668 400.869572 C58.656649 402.946364 61.442036 405.230925 63.361498 403.553678 C64.254040 402.773763 64.404619 401.464812 64.494485 400.282940 C64.948940 394.306166 65.400529 388.258233 64.398106 382.348622 C63.395683 376.439011 60.773970 370.587490 56.079513 366.860503 C53.982562 365.195707 51.438378 363.976225 48.762053 363.898560 C45.538667 363.805020 42.504977 365.345115 39.761294 367.039570 C26.479097 375.242440 15.644521 390.268973 18.535338 405.609997 C20.248026 406.818720 22.345499 404.745152 23.408398 402.938343 M38.568453 389.256143 C37.214333 389.686705 36.277776 390.894242 35.455459 392.053042 C31.939082 397.008287 28.877211 402.285923 26.320810 407.798106 C35.103870 407.042070 43.886931 406.286034 52.669992 405.529999 C51.217820 400.265755 48.341991 395.401562 44.429471 391.591936 C42.843684 390.047851 40.677745 388.585463 38.568454 389.256141 z"/><path class="selected"  fill="#000000" opacity="1.000000" stroke="none" 
 	d="
M398.438792 245.141453 C414.601794 222.291953 442.388521 211.284063 468.595557 201.458915 C453.041695 195.871582 437.895044 189.151029 423.315351 181.368134 C409.195029 173.830460 395.105766 164.806657 386.735511 151.163386 C382.352647 144.019445 379.755594 135.936882 377.551796 127.850556 C368.828547 95.842614 365.671886 62.325599 368.265680 29.251808 C368.645456 24.409237 370.131751 18.418581 374.896211 17.472730 C370.293764 52.557744 372.520199 88.525659 381.414495 122.775217 C383.791303 131.927665 386.695892 141.082988 391.799328 149.043607 C401.184429 163.683001 416.984522 172.824649 432.634816 180.404905 C446.259426 187.004016 460.246401 192.854900 474.511697 197.922403 C474.503976 187.515500 464.750269 180.126836 456.004781 174.485903 C449.165072 170.074218 442.325364 165.662534 435.485656 161.250849 C417.086726 149.383343 396.928177 134.883762 393.882346 113.202405 C392.824612 105.673067 394.822511 96.751266 401.585767 93.277348 C407.968136 89.999072 415.608986 92.839975 422.394180 95.172971 C438.067217 100.561932 454.949018 103.046182 471.338556 100.582843 C480.297463 99.236324 488.967071 96.447287 497.590190 93.669345 C505.693720 91.058789 513.797250 88.448233 521.900780 85.837676 C530.353550 83.114612 539.449685 90.510179 541.550306 99.138724 C543.650926 107.767269 540.632515 116.788205 536.906616 124.849350 C528.642508 142.729114 516.646473 158.873612 501.912078 171.945683 C494.102810 178.873916 484.578006 187.490642 487.063930 197.629936 C532.429808 163.464245 559.634625 106.462858 557.663529 49.704844 C557.157273 35.127148 558.884852 20.473948 562.767457 6.413689 C493.736253 7.327767 424.726518 9.862791 355.814300 14.015968 C354.747590 9.868306 360.623358 7.768022 364.903388 7.618632 C437.623388 5.080408 510.343388 2.542185 583.063388 0.003961 C585.396537 -0.077475 588.740510 1.099433 587.945080 3.294315 C587.229192 5.269705 584.344678 4.566309 582.308195 4.049204 C575.479731 2.315311 568.489483 7.656919 565.762909 14.153078 C563.036335 20.649237 563.446928 27.965721 563.655460 35.007795 C564.612594 67.329356 560.201896 100.127208 547.689124 129.943811 C535.176351 159.760415 514.211677 186.477821 486.480350 203.108300 C505.632407 208.449116 522.072836 221.479218 533.938502 237.433265 C545.804167 253.387313 553.396599 272.156831 558.746628 291.306318 C567.755798 323.553049 570.696528 357.484176 567.369514 390.800055 C563.172841 380.795831 562.948412 369.647064 562.534707 358.806149 C561.348572 327.724141 557.945206 296.108204 545.330016 267.676617 C532.714825 239.245029 509.613048 214.133863 479.716398 205.549662 C481.859401 219.591287 480.989195 233.897276 480.113858 248.074493 C479.372702 260.078484 478.631546 272.082474 477.890390 284.086464 C472.347506 271.536739 471.757430 256.877035 476.273723 243.922412 C478.593640 237.267920 475.953471 230.056188 474.434138 223.174626 C472.914805 216.293064 473.182831 207.749857 479.077105 203.886982 C456.774633 210.387312 434.572344 219.329057 417.359715 234.929697 C396.600189 253.745058 384.830322 280.853058 379.610585 308.379955 C374.390847 335.906852 375.164200 364.172723 375.956913 392.178925 C432.261141 396.101089 488.761250 397.209981 545.176016 395.500082 C551.392469 395.311665 559.191281 396.084450 561.348074 401.917805 C524.559470 401.369831 487.770865 400.821857 450.982260 400.273883 C439.294665 400.099794 427.607071 399.925704 415.919476 399.751615 C393.967456 399.424635 372.008075 399.097689 350.061072 399.669629 C349.644384 401.549436 349.227697 403.429242 348.811009 405.309048 C345.590687 405.559193 343.998437 400.773652 345.894067 398.158382 C347.789697 395.543113 351.382905 394.872146 354.612604 394.826427 C357.842303 394.780707 361.227743 395.120878 364.162667 393.772075 C370.949304 390.653140 371.103905 381.258206 370.557446 373.809207 C367.940566 338.137496 373.417836 301.895519 386.459245 268.590254 C389.667562 260.396827 393.357334 252.325067 398.438792 245.141453 M475.875610 106.061895 C457.259394 110.110448 437.747050 106.394488 419.774892 100.073425 C416.121292 98.788401 412.368323 97.375070 408.503613 97.628249 C404.638903 97.881427 400.607161 100.338452 399.923317 104.150596 C398.005561 114.841330 402.596898 125.872731 409.625643 134.153206 C416.654387 142.433681 425.921218 148.446507 435.046569 154.336964 C445.113883 160.835462 455.181196 167.333960 465.248509 173.832458 C472.190512 178.313553 481.654496 182.726607 488.038321 177.480808 C503.231207 164.996313 516.343348 149.985757 526.672699 133.252828 C533.383710 122.381394 539.054092 109.167709 534.760370 97.134850 C534.161267 95.455907 533.285369 93.742297 531.729163 92.872816 C530.623173 92.254879 529.311828 92.143838 528.045592 92.102516 C509.955237 91.512160 493.562182 102.215516 475.875610 106.061895 M474.330565 183.633468 C476.661012 186.895451 479.908017 189.495182 483.600756 191.055693 C484.096160 186.375719 478.788851 182.126395 474.330565 183.633467 z"/></svg>