<svg id="Layer_1" data-name="Layer 1" xmlns="http://www.w3.org/2000/svg" xmlns:xlink="http://www.w3.org/1999/xlink" viewBox="0 0 1152 648"><defs><style>.cls-1{fill:none;}.cls-2{clip-path:url(#clip-path);}.cls-3{fill:#292929;}.cls-4{fill:#2d2d2c;}</style><clipPath id="clip-path"><rect class="cls-1" x="-246.58" y="-744.61" width="2100" height="2100"/></clipPath></defs><title>reduce-size</title><g class="cls-2"><path class="cls-3" d="M425.12,156.47l-1.95.34-.75.12a7.15,7.15,0,0,0-1.78.66,3.21,3.21,0,0,0-1.62,2.82,3.29,3.29,0,0,0,.45,1.65,3.61,3.61,0,0,0,2,1.5,11.84,11.84,0,0,0,3.67.67l2.44.18c1,.07,2,.13,3.05.19-.23-1.72-.5-3.44-.84-5.14q-.29-1.09-.52-2.18l-1,0a3.35,3.35,0,0,0-.67-.52,3,3,0,0,0-1.56-.41,5.32,5.32,0,0,0-.9.09"/><path class="cls-3" d="M805.63,168.69q.18,1,.27,2.07l3.42.21c.07-1,.24-2.22.41-3.34,0-.85-.06-1.69-.14-2.54q-.4-2.94-.79-5.89c0-.25-.07-.49-.1-.74l-1.45,0c-2.07,0-4.13-.13-6.19-.21a24.73,24.73,0,0,1,4.57,10.47"/><path class="cls-3" d="M810.19,164.84v0"/><path class="cls-3" d="M418.82,158.09l-1,1.36a6.7,6.7,0,0,0-.91,3.38c-1.36,10.62-1.59,21.31-2,32s-.65,21.3-.84,32-.58,21.44.45,32.09c.5,5.11.94,10.21,1.22,15.34.29,5.34.4,10.71.5,16.06s.14,10.56.18,15.83c0,5.49.23,11,.36,16.45.25,10.61.21,21.22,0,31.82s-.49,21.51-.9,32.26-.45,21.76-.78,32.64c-.32,10.53-.73,21-.36,31.58.36,10.17.57,20.34.58,30.51,0,4.85.15,9.73-.13,14.58a6.76,6.76,0,0,0,10.16,5.83,9.54,9.54,0,0,0,2.75-2.68,12.2,12.2,0,0,0,1.27-2.92c0-.32.09-.63.14-.95a15.69,15.69,0,0,0,.27-2.09l.06-.94c.09-1.34,0-2.7.05-4q0-3.8,0-7.6c0-5.18,0-10.36,0-15.54s-.23-10.36-.41-15.55-.1-10.34,0-15.51c.21-10.58.56-21.16.79-31.74.24-10.86.75-21.71,1-32.58s.51-21.64.47-32.46c0-10.51-.5-21-.5-31.53,0-10.72.07-21.44-.37-32.15-.22-5.25-.62-10.48-1.11-15.71-.46-5-.62-10.09-.7-15.14-.16-10.84-.3-21.68-.34-32.51,0-10.62,0-21.27.35-31.89.17-5.17.57-10.29,1.23-15.42a3.19,3.19,0,0,0,0-.35q-.13-.81-.27-1.61a7.45,7.45,0,0,0-1.72-2.78,6.71,6.71,0,0,0-9.48,0"/><path class="cls-3" d="M424.91,498.13a4.77,4.77,0,0,0,1.39,3.36,5,5,0,0,0,3.36,1.39c5.73.38,11.47.74,17.22.89q8.33.23,16.67.38c10.78.18,21.56.42,32.34.82q8.67.32,17.31.85c5.15.32,10.31.64,15.46.84,11.27.45,22.55.88,33.82,1.23,10.85.34,21.71.43,32.57.6s21.56.34,32.35.42q16.44.12,32.89.22,8,.06,16,.17c5.17.07,10.31.39,15.46.82,10.82.91,21.66,1.32,32.51,1.45,5.37.06,10.75.06,16.12.19,5.57.14,11.13.32,16.7.5,10.49.35,21,.69,31.47.8q9.42.1,18.82,0c.26-.67.52-1.31.78-1.94.18-1.25.38-2.49.57-3.69,0-.21.07-.41.11-.61-.19-1.38-.38-2.76-.51-4.14a17.62,17.62,0,0,1,0-3.09c-2.33,0-4.66.06-7,.05-10.61,0-21.23-.06-31.83-.32s-21.34-.72-32-.8c-3.3,0-6.59,0-9.89,0-7.45,0-14.91,0-22.35-.3-5.56-.23-11.11-.59-16.66-1s-10.89-.45-16.34-.49c-13.42-.11-26.85-.09-40.27-.07q-12.67,0-25.34,0c-21.32-.05-42.63,0-63.95-.5q-17.06-.36-34.1-1c-10.73-.41-21.48-.43-32.22-.54-7.53-.08-15.07-.07-22.6-.14-8-.08-16.08-.48-24.1-1h-.25a4.81,4.81,0,0,0-4.5,4.76"/><path class="cls-3" d="M805.63,168.69a25.19,25.19,0,0,1-1.22,13.24,22.38,22.38,0,0,1-4.68,7.83c.17,4.88.28,9.77.29,14.65s-.05,10-.15,15c-.1,5.26-.14,10.52-.39,15.78q-.74,16.2-1,32.4c-.18,10.61-.2,21.22-.34,31.82s-.07,21-.29,31.55-.78,20.8-1,31.2c-.27,10.88-.18,21.75-.64,32.63s-1.88,21.55-2.77,32.32c-.42,5.1-.65,10.26-.7,15.38,0,5.43.27,10.84.44,16.27.17,5.2.25,10.39.19,15.59s-.18,10.25-.24,15.37q0,3.53-.07,7a32.85,32.85,0,0,0,.66,9,7.55,7.55,0,0,0,7.21,5.49,7.43,7.43,0,0,0,3.77-1,7.16,7.16,0,0,0,3.44-4.47c.11-.77.23-1.53.32-2.29,0-.28-.06-.56-.09-.84a18.32,18.32,0,0,1,.37-5.72v-.5q0-3.65.05-7.31c0-5.37.13-10.74.11-16.12,0-5.11-.23-10.22-.46-15.32-.23-5.28-.59-10.55-.65-15.84-.12-10.85,1-21.68,1.81-32.49.39-5.22.66-10.47.74-15.7.08-5.41,0-10.82-.15-16.23q-.37-15.94.07-31.87c.29-10.38.29-20.75.29-31.14,0-10.77.12-21.54.07-32.31,0-10.45,0-20.9.18-31.35.1-5.29.32-10.58.4-15.87s.08-10.55.06-15.83c0-10.51-.24-21-.71-31.52q-.2-4.51-.38-9a25.64,25.64,0,0,1-.86-6.56,20.85,20.85,0,0,1,.21-2.61,5.39,5.39,0,0,0-4.6-3.68,24.66,24.66,0,0,1,.74,3"/><path class="cls-3" d="M356.53,440.32c-10.62.08-21.23.43-31.85.61-5.33.09-10.67.19-16,.47-5.8.31-11.6.7-17.39,1.09-10.74.71-21.47,1.56-32.21,2.34s-21.2,1.34-31.81,1.71c-5.44.19-10.89.41-16.34.44s-11,0-16.55,0q-16-.1-32,0c-9.66,0-19.32.36-29,0a5.13,5.13,0,1,0,0,10.26c5.7.2,11.39.18,17.09.17q7.83,0,15.66,0,16.54.09,33.07.31c21.51.25,43.06-.24,64.52-1.84q16.63-1.24,33.28-2.36c5.27-.36,10.54-.69,15.83-.89s10.51-.27,15.77-.36c10.66-.18,21.32-.57,32-.6,10.86,0,21.72.38,32.58.57,4.5.08,9,.05,13.52,0s8.92-.16,13.34.22a5.57,5.57,0,0,0,2.85-.77,5.71,5.71,0,0,0,2.6-3.38c.78-2.84-.94-6.32-4-7a38.15,38.15,0,0,0-9.21-.51c-2.53.08-5.06.15-7.59.21-5.28.12-10.58,0-15.87-.15-9.86-.29-19.71-.68-29.58-.68h-2.76"/><path class="cls-3" d="M415.8,368.76c-2.52.06-5,.11-7.56.13-5.26,0-10.52,0-15.78.1q-8.33.08-16.65.35c-5.4.18-10.79.47-16.18.69-10.45.43-20.91.51-31.36.85q-8.38.28-16.75.62c-5.45.23-10.89.64-16.33,1q-8.39.57-16.77,1.11c-5.29.35-10.58.83-15.87,1.26-5.44.45-10.88.87-16.34,1.19s-11.07.6-16.6.88c-5.29.27-10.58.6-15.87.85q-8.27.39-16.55.57c-11.14.25-22.28.59-33.43.7a273.69,273.69,0,0,1-30.37-1.18,4.29,4.29,0,0,0-3.16,1.31,4.47,4.47,0,0,0,0,6.32,4.76,4.76,0,0,0,3.16,1.31,334.86,334.86,0,0,0,33.55,1.38h12.82q10.07,0,20.14,0c11,0,21.92-.5,32.88-.81,5.4-.15,10.79-.3,16.19-.5s10.84-.58,16.26-.91c10.89-.66,21.78-1.11,32.67-1.67,10.72-.55,21.44-.83,32.17-1.1s21.54-.45,32.3-1c10.5-.5,21-1.07,31.51-1.19,5-.05,9.95-.13,14.93-.09q3.7,0,7.41.11c2.38.05,4.78,0,7.14.23a6,6,0,0,0,3.06-.83A6.06,6.06,0,0,0,425,369.42a30,30,0,0,0-5.18-.72c-.33,0-.66,0-1,0-1,0-2,.07-3,.09"/><path class="cls-3" d="M179.65,395.21a4.76,4.76,0,0,0-2.82,2.17,4.49,4.49,0,0,0-.34.74,23.19,23.19,0,0,0-3.17.46,18.42,18.42,0,0,0-3.49,1.27,22,22,0,0,0-5.86,4,23.28,23.28,0,0,0-4.46,5.5,19.88,19.88,0,0,0-1.7,3.86,8.77,8.77,0,0,0-.29,1.45,21.44,21.44,0,0,0-.24,2.6,14,14,0,0,0,.58,4,13.13,13.13,0,0,0,1.78,3.59,19.48,19.48,0,0,0,6.37,5.9,25.57,25.57,0,0,0,3.66,1.73,25.27,25.27,0,0,0,3.6,1.17,19.94,19.94,0,0,0,8.39.2,16.65,16.65,0,0,0,3.8-1.31,16.29,16.29,0,0,0,3.35-2.32,12.63,12.63,0,0,0,2.51-3,9.16,9.16,0,0,0,.56-1.15,23.9,23.9,0,0,0,1-2.5,19.8,19.8,0,0,0,.65-3.23,22.73,22.73,0,0,0,.25-4.34c-.07-1.46-.32-2.91-.52-4.35a28.93,28.93,0,0,0-.78-3.61c-.33-1.2-.74-2.37-1.16-3.53a19.25,19.25,0,0,0-1.8-3.81,12.33,12.33,0,0,0-3.09-3.32,18.12,18.12,0,0,0-4.22-2.09,4.79,4.79,0,0,0-2.51,0m.18,9.72.6.13a14.61,14.61,0,0,1,.73,1.3,42,42,0,0,1,2,7.91,22.77,22.77,0,0,1,.11,4.2,20.17,20.17,0,0,1-.71,2.94c-.15.28-.3.55-.47.82s-.45.45-.69.67-.78.49-1.18.71a12.81,12.81,0,0,1-1.37.36,20,20,0,0,1-3,0,25,25,0,0,1-4.39-1.25,20.05,20.05,0,0,1-2.71-1.51,17.36,17.36,0,0,1-1.91-1.9c-.23-.35-.43-.69-.62-1s-.23-.77-.32-1.17a15.1,15.1,0,0,1,0-1.74,14.38,14.38,0,0,1,.55-1.92,20.1,20.1,0,0,1,1.86-3.18,22.94,22.94,0,0,1,3-3,19.79,19.79,0,0,1,2.88-1.66,16,16,0,0,1,2.58-.68,17.83,17.83,0,0,1,3.08,0m.92.47.1.14-.1-.14"/><path class="cls-3" d="M231.76,398.06a19,19,0,0,0-5.85,3,31.39,31.39,0,0,0-2.48,2.05c-.77.71-1.45,1.52-2.15,2.3a15.1,15.1,0,0,0-2,2.67,13.4,13.4,0,0,0-.79,2,10.2,10.2,0,0,0-.42,2.16,11.71,11.71,0,0,0,.21,3.39,15.32,15.32,0,0,0,1.18,3.32,15.94,15.94,0,0,0,4.4,5.5c3.37,2.95,7.75,5.27,12.34,5.13a17.94,17.94,0,0,0,6.86-1.88,13.65,13.65,0,0,0,2.61-1.69,20.5,20.5,0,0,0,3.13-2.83,11.4,11.4,0,0,0,2.11-3.58,13.83,13.83,0,0,0,.74-3.39,12.43,12.43,0,0,0-.18-3.64,18,18,0,0,0-1.4-4.19A12.89,12.89,0,0,0,248.6,406a21.69,21.69,0,0,0-2.23-2.56l-.15-.14a2.34,2.34,0,0,0,1-1.37,2.41,2.41,0,0,0-1.67-2.95,68.44,68.44,0,0,0-7.58-1.68,11,11,0,0,0-1.35-.08,17.26,17.26,0,0,0-4.88.82m2.81,4.58a4.37,4.37,0,0,0,.12,1.72,4.69,4.69,0,0,0,2,2.62l.37.26a26.93,26.93,0,0,1,3.24,3.34,19.17,19.17,0,0,1,1.26,2.09,15.49,15.49,0,0,1,.49,1.77c0,.38,0,.75,0,1.12s-.15.62-.24.92q-.12.22-.25.43a19.33,19.33,0,0,1-1.79,1.72,15.2,15.2,0,0,1-2,1.2,14.19,14.19,0,0,1-2,.57,11.37,11.37,0,0,1-1.17,0,17.65,17.65,0,0,1-2.47-.71,21.85,21.85,0,0,1-3.27-2,17.12,17.12,0,0,1-1.9-1.8,14.83,14.83,0,0,1-1-1.75,11.7,11.7,0,0,1-.4-1.36c0-.3,0-.6,0-.91a11.55,11.55,0,0,1,.32-1.27,22.46,22.46,0,0,1,2-3.22,21.92,21.92,0,0,1,2.71-2.72,17.68,17.68,0,0,1,2.87-1.68q.54-.2,1.08-.37m-6.27,4.25-.14.19.14-.19"/><path class="cls-3" d="M292,395a4.45,4.45,0,0,0-2.58,1.93c-.5.21-1,.44-1.47.67a14.8,14.8,0,0,0-2.76,1.8,18.39,18.39,0,0,0-4.64,5.47,14.93,14.93,0,0,0-1.76,6.61,14.29,14.29,0,0,0,.34,3.41,9.29,9.29,0,0,0,.75,2,14.41,14.41,0,0,0,.9,1.62,19,19,0,0,0,4.95,5.11,25.74,25.74,0,0,0,6.88,3.37,13.93,13.93,0,0,0,11.12-1.33,13.18,13.18,0,0,0,2-1.45,12.62,12.62,0,0,0,1.38-1.33,13.18,13.18,0,0,0,3.21-6.69,17.2,17.2,0,0,0-.59-8.05c-1.45-4.44-5.23-7.36-9-9.77a42.89,42.89,0,0,0-5.3-3l-1.05-.45a4.44,4.44,0,0,0-2.35,0m-.66,8.27a51.34,51.34,0,0,1,6.52,4.29,20.67,20.67,0,0,1,2.18,2.16,11.11,11.11,0,0,1,.6,1,13.65,13.65,0,0,1,.45,1.7,15.89,15.89,0,0,1,0,2.1c-.08.39-.18.76-.29,1.14a12.6,12.6,0,0,1-.64,1.09,12.1,12.1,0,0,1-.95.94,12.57,12.57,0,0,1-1.2.68,13.21,13.21,0,0,1-1.45.39c-.36,0-.72,0-1.08,0a20.19,20.19,0,0,1-3.24-1,18.18,18.18,0,0,1-2.85-1.62,19.92,19.92,0,0,1-2.11-2.07,11.39,11.39,0,0,1-.69-1.14c-.1-.33-.19-.65-.26-1a14.14,14.14,0,0,1,0-2,11.72,11.72,0,0,1,.51-1.82,18.14,18.14,0,0,1,1.29-2.2,16.71,16.71,0,0,1,1.94-1.94c.41-.29.83-.55,1.27-.79"/><path class="cls-3" d="M365.11,393.79a6.17,6.17,0,0,0-2,1.83l-.08,0a12.76,12.76,0,0,0-3-.72,18.15,18.15,0,0,0-10.7,1.7,18.35,18.35,0,0,0-7.68,6.68,15.17,15.17,0,0,0-1.53,3.27,13.71,13.71,0,0,0-.78,3.8,11.68,11.68,0,0,0,.22,3.81,21.43,21.43,0,0,0,1.31,3.43,18.53,18.53,0,0,0,2.63,3.78A16.77,16.77,0,0,0,349,425.5a23.91,23.91,0,0,0,6.74,2.24,22.44,22.44,0,0,0,8.1,0,18.42,18.42,0,0,0,7.33-3.2,15.11,15.11,0,0,0,2.86-2.6,20.21,20.21,0,0,0,2.22-3.23,22.4,22.4,0,0,0,1.49-3.62,15.45,15.45,0,0,0,.54-4.2,23.42,23.42,0,0,0-1.34-7.91,26.17,26.17,0,0,0-3.22-6.94,6.63,6.63,0,0,0-3.77-2.9,6.24,6.24,0,0,0-1.66-.22,6.35,6.35,0,0,0-3.2.86m-5.74,9a16,16,0,0,1,1.94.49,13.36,13.36,0,0,1,1.38.82c.15.13.29.27.42.42.55.79,1.06,1.61,1.54,2.44q.27,1,.46,2a20.58,20.58,0,0,1,.05,2.39c-.09.35-.19.69-.3,1a14.54,14.54,0,0,1-.78,1.35c-.23.24-.46.46-.7.68-.49.32-1,.61-1.52.88a15.86,15.86,0,0,1-1.94.52,21,21,0,0,1-2.81,0,22.55,22.55,0,0,1-3.57-1,17.37,17.37,0,0,1-1.7-1,16.64,16.64,0,0,1-1.5-1.51c-.23-.35-.44-.7-.63-1.06s-.12-.43-.17-.65c0-.44,0-.87,0-1.3s.21-.89.35-1.33a15.53,15.53,0,0,1,1-1.62,16.1,16.1,0,0,1,1.47-1.51,18.41,18.41,0,0,1,2.31-1.38,18.93,18.93,0,0,1,2.53-.71,14.92,14.92,0,0,1,2.18,0m2.79.88.27.2-.27-.2"/><path class="cls-3" d="M158.76,198.95a4.2,4.2,0,0,0-1.28,3.08c.29,3,.54,6.07.71,9.11.15,2.65.23,5.29.31,7.93.17,5.18.4,10.35.74,15.52.38,5.62.7,11.24.93,16.87.2,5.11.19,10.23.2,15.34,0,10.85-.14,21.7-.37,32.55-.22,10.59-.22,21.19-.25,31.78q0,12.62-.09,25.23c0,4.29-.1,8.57,0,12.86,0,2.3.12,4.6.23,6.89,0,.93.09,1.86.17,2.78s.18,2,.34,3a6,6,0,0,0,3,4.63,5.32,5.32,0,0,0,2.7.73,5.37,5.37,0,0,0,3.79-1.57,5.31,5.31,0,0,0,1.38-2.36,5.5,5.5,0,0,0-.24-3.61,141.76,141.76,0,0,1-.66-14.26q0-7.87-.07-15.74-.09-16.2-.31-32.39c-.13-10.24.08-20.48,0-30.71,0-11.1-.13-22.19-.48-33.28-.26-8.31-1.14-16.59-1.69-24.88-.29-4.26-.47-8.52-.66-12.78-.2-4.56-.54-9.11-1-13.65a4.64,4.64,0,0,0-1.27-3.08,4.35,4.35,0,0,0-6.15,0"/><path class="cls-3" d="M343.71,180c-1.23.06-2.46.21-3.68.32-2.51.22-5,.42-7.55.66-5.27.51-10.52,1.13-15.78,1.71-10.52,1.15-21.07,2.15-31.64,2.82-5.25.33-10.52.48-15.76.88-5.52.43-11,1-16.51,1.68s-10.78,1.24-16.19,1.73-10.75.76-16.14.84c-9.54.13-19.07.14-28.6.38-4.73.12-9.47.31-14.2.27-5.28,0-10.55-.22-15.83-.44a4.63,4.63,0,1,0,0,9.26q8.43.36,16.86.46c5.39.06,10.8-.19,16.19-.31,11-.23,21.92-.18,32.87-.51,5.25-.16,10.5-.67,15.73-1.12,5.43-.47,10.84-1.08,16.26-1.54s10.58-.72,15.89-.83,10.41-.31,15.61-.53c9.68-.41,19.35-1.1,29-1.89,4.37-.36,8.73-.78,13.11-1,2.28-.09,4.55-.16,6.82-.14,1.12,0,2.24.06,3.36.1,1.28,0,2.54,0,3.81-.11a6.23,6.23,0,0,0,3.16-.86,6.26,6.26,0,0,0,2.24-8.56,6,6,0,0,0-3.74-2.88,26.49,26.49,0,0,0-4.47-.45l-.83,0"/><path class="cls-3" d="M342.18,194.73c.09,5.53.07,11.06.19,16.59s.3,11.23.53,16.84c.47,11.27,1.1,22.53,1.51,33.8.39,11,.52,21.93.7,32.89.17,10.42.45,20.84.55,31.27.08,8.29,0,16.58.2,24.87.08,4,.16,8,.2,12.05s.11,7.75-.19,11.62a6.15,6.15,0,0,0,1.86,4.49,6.34,6.34,0,0,0,9,0l1-1.29a6.3,6.3,0,0,0,.87-3.2,63.72,63.72,0,0,0,.4-7.89c0-2.68-.16-5.36-.25-8-.18-5.3-.4-10.61-.5-15.92-.1-5.57-.14-11.13-.23-16.7-.09-5.13-.25-10.27-.38-15.39-.54-21.8-.69-43.61-1.83-65.4-.45-8.54-.87-17.08-1.2-25.63-.32-8.32-.34-16.64-.48-25a6,6,0,1,0-11.9,0"/><path class="cls-3" d="M226.54,199.52a5.2,5.2,0,0,0-1.59,3.83c.9,8.9,1.63,17.85,1.82,26.81.19,9.25.15,18.49.21,27.74a5.6,5.6,0,0,0,9.56,4,5.8,5.8,0,0,0,1.64-4,265.78,265.78,0,0,0-.25-27.55c-.4-9-1.23-18-2.15-27a5.8,5.8,0,0,0-1.59-3.83,5.42,5.42,0,0,0-7.66,0"/><path class="cls-3" d="M269.32,253.87c-3.15.72-6.35,1.17-9.55,1.6a83.66,83.66,0,0,1-10.92.55c-1.85,0-3.69-.07-5.55-.11-4.19-.1-8.37-.35-12.56-.58-3.27-.18-6,2.87-6,6a6,6,0,0,0,1.75,4.24,6.22,6.22,0,0,0,4.24,1.76c6,.33,12.07.66,18.1.62a59.22,59.22,0,0,0,8.28-.57c2.38-.36,4.69-.87,7-1.45a79.38,79.38,0,0,0,7.84-2.39,5.31,5.31,0,0,0,3-2.3,5.06,5.06,0,0,0,.5-3.86,5,5,0,0,0-4.92-3.65,5.6,5.6,0,0,0-1.24.14m-9.73,1.63-1.28.17,1.28-.17"/><path class="cls-3" d="M265.6,188.15a6.63,6.63,0,0,0-1.87,4.52c-.19,3.2-.29,6.41-.41,9.61-.1,2.65,0,5.32,0,8,0,4.8.25,9.6.43,14.39.41,10.45.56,20.9,1.23,31.34a6.64,6.64,0,0,0,1.87,4.5,6.37,6.37,0,0,0,10.88-4.5c.2-10.46-.41-20.9-1-31.34-.25-4.68-.54-9.37-.59-14,0-2.7-.17-5.43-.07-8.13.12-3.27.2-6.54.39-9.8.2-3.48-3.06-6.39-6.39-6.39a6.43,6.43,0,0,0-4.52,1.87"/><path class="cls-3" d="M242.51,197.24l-.72.84c-1.86,1.43-3.7,2.89-5.55,4.34a2.49,2.49,0,0,0,1,4.14L237,207a5.18,5.18,0,0,0-.77,3l.12.85a5,5,0,0,0,.48,1.05,3,3,0,0,0,1.9,1.46c.42.07.84.13,1.26.18a5.38,5.38,0,0,0,1.63-.31c0,.1,0,.19,0,.29a3.62,3.62,0,0,0,.84,2.25l-.14.16c-.63.68-1.25,1.38-1.87,2.07-.45.5-.91,1-1.37,1.48a15,15,0,0,0-1.27,1.62l-.31.65c-.21.48-.4,1-.58,1.44a2.8,2.8,0,0,0,.09,2,4.47,4.47,0,0,0-.26.7,5.44,5.44,0,0,0,.13,2.75,3.54,3.54,0,0,0,.83,1.51,18.92,18.92,0,0,0-1.66,2.34,9.76,9.76,0,0,0-.88,2.72,4.45,4.45,0,0,0,.84,3.9l-.24.3c-.65.83-1.29,1.67-1.86,2.57a14,14,0,0,0-1.18,2.67,4.31,4.31,0,0,0,.45,3.44l.7.9a4.43,4.43,0,0,0,1.08.8l-.17.46a5.09,5.09,0,0,0,.53,4.06,5.19,5.19,0,0,0,3.15,2.42,12.45,12.45,0,0,0,2.08.34,7.18,7.18,0,0,0,1.35,0,7.39,7.39,0,0,0,1.15,1.4,6.77,6.77,0,0,0,2.76,1.59,7.77,7.77,0,0,0,5.39-.73,53.12,53.12,0,0,0,8-4.91l1-.73a5.64,5.64,0,0,0,.77.54,6,6,0,0,0,8-2.08,9.69,9.69,0,0,0,1.19-3.57,34.84,34.84,0,0,0,.48-3.83q.19-2,.28-4.09c.12-2.44.15-4.89.18-7.33.06-3.24.1-6.48.09-9.72a60.72,60.72,0,0,0-.32-9,8.13,8.13,0,0,0-1-2.78l-1.12-1.45a13.61,13.61,0,0,0-1.84-1.46l-.28-.12a16.79,16.79,0,0,0,1.49-2.08,3.68,3.68,0,0,0-1.32-5,3.75,3.75,0,0,0-2.53-.46l-.23-.15a3.3,3.3,0,0,0-1.36-.42,2.81,2.81,0,0,0-3.76-.85,36.86,36.86,0,0,0-3.58,2.84,4,4,0,0,0-.65-1.89,3.21,3.21,0,0,0-4.34-1.14l-.4.25a4.34,4.34,0,0,0-1.24-2.57,4.41,4.41,0,0,0-3.11-1.29,4.23,4.23,0,0,0-3.1,1.29"/><path class="cls-3" d="M219,298.67a4.63,4.63,0,0,0-1.34.56l0,0a2.72,2.72,0,0,0-.81.31,3,3,0,0,0-1.26,1.63l-.52,1.27-.55,1a62.11,62.11,0,0,0-2.76,5.77,49.36,49.36,0,0,0-2.87,8,2.7,2.7,0,0,0,1.22,3,2.65,2.65,0,0,0,3.21-.42,9.6,9.6,0,0,0,1.14-1.63c.36-.68.61-1.43.91-2.14l.78-1.86,1.42-3.46,1.63-4c.17.81.31,1.63.43,2.46a66,66,0,0,1,.52,7.26q0,2.5.07,5c0,1.39-.09,2.79-.14,4.18,0,1.15-.08,2.29-.15,3.44-.34,5.83-.7,11.67-1.17,17.49a3.54,3.54,0,0,0,1.07,2.59,3.66,3.66,0,0,0,5.19,0l.57-.74a3.62,3.62,0,0,0,.5-1.85,173.63,173.63,0,0,0,1.25-20.93c0-1.64,0-3.29-.06-4.94-.11-2-.16-4.09-.36-6.12a71.44,71.44,0,0,0-1-7.21,27.3,27.3,0,0,0-.86-3.25,11.63,11.63,0,0,0-1.52-3.26,5.25,5.25,0,0,0-2.65-2.07,4.42,4.42,0,0,0-1.12-.16,3.32,3.32,0,0,0-.74.08"/><path class="cls-3" d="M256.37,195.61q-1.37.08-2.72.21l-5,.48c-1.44.14-2.87.34-4.3.52l-1.64.21-1.35.17c-.79.1-1.57.25-2.36.42a2.12,2.12,0,0,0-1.5,1.42l-.17,0a.84.84,0,0,0-.37.17l-.48-.53a2.39,2.39,0,0,0-4,1.3l-1.36.22a1.84,1.84,0,0,0,0,3.56,5.76,5.76,0,0,0,1.67.17v0l.11.65s0,.06,0,.09a2.24,2.24,0,0,0,.14.77l.07.44c.16,1,.33,2,.49,3l-.51.15a2.43,2.43,0,0,0-1.77,2.32,2.37,2.37,0,0,0,.33,1.21,2.6,2.6,0,0,0,1.44,1.11l.49.19a3.76,3.76,0,0,0,.89.15h0l.26,1.47c.13.77.32,1.52.49,2.28l.83,3.68c.06.26.15.52.23.77l.65,2.13.53,1.72c.26.85.64,1.66.85,2.52l.06.34a2.11,2.11,0,0,0,.55.94,2.13,2.13,0,0,0,1.41.62q.84,1.53,1.8,3c.72,1.1,1.49,2.19,2.31,3.23l-2.42.93-2,.77-1.76.66c-.91.34-1.8.76-2.69,1.15a2.18,2.18,0,0,0-1.05,1.37,2.44,2.44,0,0,0,.23,1.77l.24.52a7.8,7.8,0,0,0,.53.66,3.65,3.65,0,0,0,1.48.84,9.47,9.47,0,0,0,2.63.38c.89,0,1.77.1,2.66.17,1.15.09,2.31.11,3.47.16,1.8.07,3.6.19,5.4.29,1.16.06,2.31.12,3.45.23.48.41.94.83,1.39,1.27.67.66,1.37,1.29,2,2l-.78.24-3.94,1.17-2.71.81-1.71.51c-.55.16-1.11.28-1.65.47a5.73,5.73,0,0,0-1.14.53,9.94,9.94,0,0,0-.95.73,2.61,2.61,0,0,0-.68,1.16,2.61,2.61,0,0,0,.68,2.55l.53.41a2.6,2.6,0,0,0,1.32.36c.67.1,1.34.19,2,.23a18.34,18.34,0,0,0,2.54-.12l1.67-.16a2.92,2.92,0,0,0,.66.28,5,5,0,0,0,2.15,0l-.34,0c2.71-.38,5.38-1,8.07-1.48a17.33,17.33,0,0,0,3.26-.49,2.79,2.79,0,0,0,1.23-4.66,3,3,0,0,0-1-.66l.05,0a9.4,9.4,0,0,0,2.2-1.37c.56-.48,1-1,1.54-1.56a2.43,2.43,0,0,0,0-3.42c-.23-.2-.45-.41-.68-.6A4.13,4.13,0,0,0,269,244a7.22,7.22,0,0,0-1.75-.36c-1-.16-2-.35-2.93-.53s-2-.3-3-.45-1.91-.26-2.86-.36l-.52-.43c-1.21-1-2.41-2-3.57-3l-1-.89c1.32-.59,2.61-1.25,3.9-1.92a18.94,18.94,0,0,0,6.91-5.22,5.48,5.48,0,0,0,.88-1.76,3.42,3.42,0,0,0-.31-2.48,5.74,5.74,0,0,0-1.25-1.58,8.49,8.49,0,0,0-1.86-1.12c-.88-.45-1.76-.93-2.66-1.33l-3.32-1.47c-1.55-.69-3.12-1.33-4.68-2a2,2,0,0,0,.08-.25,2,2,0,0,0-.65-2.12l2.56-.6c1-.25,2.05-.55,3.09-.8a14.83,14.83,0,0,0,3-.94,4.93,4.93,0,0,0,1.26-.81,7.57,7.57,0,0,0,1-1.27,2.4,2.4,0,0,0,0-2.43,2.47,2.47,0,0,0-.86-.86,2.37,2.37,0,0,0-1.21-.33,29.87,29.87,0,0,0-3.21-.12l5-1.17c1.21-.29,2.39-.76,3.57-1.14a2.33,2.33,0,0,0,1.63-2.87,2.5,2.5,0,0,0-1.07-1.39h0c.18-.09.35-.19.52-.3a3.72,3.72,0,0,0,1.23-1.46,2.32,2.32,0,0,0-2-3.48c-.48,0-1-.06-1.44-.08a1.7,1.7,0,0,0-1-.69,25,25,0,0,0-3.05-.44l-.74,0c-.73,0-1.47,0-2.2.09M251,219.1l.08,0Zm-9.51.79a10.25,10.25,0,0,0,2.3,1.31c1,.49,2,1,3.09,1.39.79.32,1.59.61,2.38.94l4.46,1.84,3.12,1.35c.52.22,1,.49,1.52.74s1.33.6,2,1a13.65,13.65,0,0,1-1.55,1.51,30.7,30.7,0,0,1-4.08,2.38c-1.57.8-3.14,1.57-4.76,2.26-.59-.67-1.15-1.35-1.7-2.05a48.85,48.85,0,0,1-3.28-4.94,50.93,50.93,0,0,1-2.52-5.12q-.5-1.21-.94-2.45v-.09m.69,1.94.24.55-.24-.55M260.6,228v0h0v0m-10.31,6.42-.33.14h0l.33-.14m-5.1,6.89,2.42-.93q.62.63,1.27,1.23l-2.37-.12-1.64-.07.32-.12m18.4,6.48.35.07-.27.1-.08-.17m-14.85,10.28-.06,0,.06,0m-1.66.77.21,0-.21,0"/><path class="cls-3" d="M253.78,319.54a10.44,10.44,0,0,0-2.75.62,19.68,19.68,0,0,0-2.89,1.18,9.76,9.76,0,0,0-1.15.76c-.4.29-.79.61-1.17.93a18,18,0,0,0-2.26,2.28,22,22,0,0,0-1.81,2.52c-.27.44-.52.9-.78,1.35s-.58,1-.84,1.54a12.41,12.41,0,0,0-1,2.9,26.24,26.24,0,0,0-.52,3.39,18.88,18.88,0,0,0,0,3.15c0,.59.13,1.17.22,1.75a8.78,8.78,0,0,0,4.62,6.54,12,12,0,0,0,3,1,12.34,12.34,0,0,0,1.77.2,11.28,11.28,0,0,0,2.08-.16,8.13,8.13,0,0,0,2.15-.75,12.16,12.16,0,0,0,1.7-1,20.69,20.69,0,0,0,3.4-2.94A20.28,20.28,0,0,0,259,343.1a9.76,9.76,0,0,0,1-1.58,9.5,9.5,0,0,0,.79-2.16,11.74,11.74,0,0,0,.18-1.27c0-.15,0-.3,0-.45a4.75,4.75,0,0,0-.12-1,5.71,5.71,0,0,0-.44-1.12,5.14,5.14,0,0,0-.74-1,4.32,4.32,0,0,0-.93-.75,2.34,2.34,0,0,0-.39-.19,6.81,6.81,0,0,0-.74-.3,5.46,5.46,0,0,0-.87-.2,8.18,8.18,0,0,0-1.34-.12,13.84,13.84,0,0,0-2.59.3q-.88.16-1.76.39a13.4,13.4,0,0,0-1.95.69,2,2,0,0,0-.72.72,2,2,0,0,0,.72,2.73,2.09,2.09,0,0,0,1.54.2l.2,0,.34,0-.27,0,.77-.11-.32,0c.92-.13,1.83-.31,2.75-.45a10.07,10.07,0,0,1,1.6-.06,5.81,5.81,0,0,1,.66.17l.05,0,0,0,0,.06c0,.09,0,.18,0,.27a8.08,8.08,0,0,1-.34,1.24,10.89,10.89,0,0,1-1.12,1.81,20.08,20.08,0,0,1-2.95,2.92,12.9,12.9,0,0,1-2,1.24,6.92,6.92,0,0,1-1,.29,9.73,9.73,0,0,1-1.68,0,11.52,11.52,0,0,1-2-.54,4.89,4.89,0,0,1-1.92-1.47,8.76,8.76,0,0,1-.7-1.22,12.92,12.92,0,0,1-.59-2.45,20.94,20.94,0,0,1,.07-4.83,14.06,14.06,0,0,1,.76-3.11,25.65,25.65,0,0,1,3-5.37,20.68,20.68,0,0,1,3.05-3.06,14.91,14.91,0,0,1,3.13-1.78,9.28,9.28,0,0,1,2-.58,6.42,6.42,0,0,1,1.13,0,4.08,4.08,0,0,1,.74.2l.26.15a1.33,1.33,0,0,1,.18.17l.08.14a1.83,1.83,0,0,1,.08.33V322a.52.52,0,0,0,.51.52.51.51,0,0,0,.51-.52,2.74,2.74,0,0,0-.19-.88,2.14,2.14,0,0,0-.74-.91,4.3,4.3,0,0,0-2.49-.67h-.38m.44,1.4-.1,0,.1,0m1.95.33,0,0,0,0m.05,0,0,0,0,0m.18.18,0,.06h0l0-.06m0,.06h0Zm.11.43v0m-13.69,9.82-.07.17.07-.17m-.69,2.7,0,.32,0-.32"/><path class="cls-3" d="M265.84,322.14a2.07,2.07,0,0,0-.57,1.39c-.22,2.39-.47,4.77-.75,7.16s-.76,5-1.18,7.5c-.2,1.2-.4,2.4-.58,3.61-.11.74-.21,1.48-.3,2.21a7.46,7.46,0,0,0,0,2.6,2,2,0,0,0,3.39.89,2.22,2.22,0,0,0,.59-1.43c0-.16,0-.31.05-.46.19-1.42.31-2.84.47-4.26.28-2,.6-4,.87-6l-.07.53c.26-1.88.55-3.77.76-5.66q.37-3.32.67-6.65a1.91,1.91,0,0,0-.58-1.39,2,2,0,0,0-2.78,0m.62,23.79,0,.18,0-.18"/><path class="cls-3" d="M268.54,319.06a5.3,5.3,0,0,0-1.9,1.64,4.15,4.15,0,0,0-.5,1,2.25,2.25,0,0,0,0,1.08.82.82,0,0,0,1,.57.83.83,0,0,0,.58-1c0-.07,0-.14,0-.21l0-.09a4.38,4.38,0,0,1,.28-.46,5.62,5.62,0,0,1,.64-.62,6.68,6.68,0,0,1,.91-.53,8.45,8.45,0,0,1,1.8-.49,10.73,10.73,0,0,1,2.16,0,11.27,11.27,0,0,1,2.47.65,8.59,8.59,0,0,1,1.49.85,6,6,0,0,1,.64.6,3.63,3.63,0,0,1,.25.43,5.12,5.12,0,0,1,.17.6,3.49,3.49,0,0,1,0,.45,4.82,4.82,0,0,1-.17.57,7.64,7.64,0,0,1-.62,1.05,13.93,13.93,0,0,1-1.25,1.27c-.45.41-.91.81-1.39,1.19a60.76,60.76,0,0,1-5.18,3.41c-.39.24-.79.48-1.19.71l-.67.4-.32.16a2.58,2.58,0,0,0-.42.34,1.69,1.69,0,0,0-.46,1.29,1.65,1.65,0,0,0,.46,1.11,1.57,1.57,0,0,0,1.11.46,13.46,13.46,0,0,0,1.58-.13l1.22-.21a12.52,12.52,0,0,1,2.67-.09,7,7,0,0,1,1,.27,5.34,5.34,0,0,1,.61.36,5.12,5.12,0,0,1,.5.5,3.68,3.68,0,0,1,.68,1.71,6,6,0,0,1,0,.93,6.85,6.85,0,0,1-.27,1,8.53,8.53,0,0,1-.79,1.31,11.24,11.24,0,0,1-1.56,1.53,19,19,0,0,1-3.6,2.07,20,20,0,0,1-4.41,1.25c-.53.06-1.07.1-1.6.11h-.69A2.06,2.06,0,0,0,261,348.6a2,2,0,0,0,.95,1.23,3,3,0,0,0,1.29.38c.25,0,.48,0,.73-.05l1.3-.14a22.07,22.07,0,0,0,5-1.16,21.64,21.64,0,0,0,4.57-2.25,20.89,20.89,0,0,0,2-1.49,12,12,0,0,0,1.78-2,9.5,9.5,0,0,0,1.13-2.12,7.17,7.17,0,0,0,.43-2.37,6.65,6.65,0,0,0-.37-2.31,7.36,7.36,0,0,0-1.41-2.44,4.29,4.29,0,0,0-.68-.62,6.84,6.84,0,0,0-1.12-.73,7.71,7.71,0,0,0-2.66-.7h-.09a38.4,38.4,0,0,0,3.75-2.87,16.8,16.8,0,0,0,1.92-2,7.17,7.17,0,0,0,1.28-2.46,4,4,0,0,0-.1-2.34,4.33,4.33,0,0,0-1.44-2,10,10,0,0,0-5.11-2,11,11,0,0,0-1.27-.07,9.41,9.41,0,0,0-4.31,1m.21,1.84-.06.05.06-.05m-1,1,0,.11,0-.11m1.94,12.71-.13.1.13-.1"/><path class="cls-3" d="M1025.88,437.75c-11,.31-21.94.63-32.91.91s-21.75.57-32.62,1.12c-11.35.58-22.7,1.16-34.07,1.63-10.61.44-21.22,1.06-31.84,1.46-10.8.41-21.59.25-32.38.32q-17.06.11-34.12.17c-2.47,0-4.95.08-7.42.12-2.12,0-4.29.15-6.39.38-3,.32-5.94.64-8.9,1.13s-5.57,1.07-8.32,1.78A5.78,5.78,0,1,0,800,457.91c1.88-.48,3.76-.9,5.65-1.33,1.24-.28,2.52-.44,3.79-.62,2.45-.25,4.88-.49,7.33-.61,3-.15,6-.18,9-.19,5.41,0,10.83.08,16.23.14q15.94.16,31.87.51c5.36.12,10.73.27,16.09.18q9.1-.15,18.19-.39c10.57-.28,21.15-.31,31.73-.5,10.84-.2,21.68-.61,32.52-.6s21.65.07,32.47.11c11.17,0,22.34.14,33.51.08,5.43,0,10.84,0,16.26.16s10.76.54,16.13.85c3,.17,6,.38,9,.51A89.59,89.59,0,0,0,1090,456a9.41,9.41,0,0,0,6.38-2.64,9,9,0,0,0,0-12.76A9.47,9.47,0,0,0,1090,438c-2.76-.21-5.5-.41-8.26-.48s-5.23-.07-7.84-.12c-5.33-.11-10.66-.29-16-.36l-3.57,0c-9.5,0-19,.47-28.49.74"/><path class="cls-3" d="M1088.76,366.32c-1.42.08-2.83.19-4.25.3-2.41.18-4.82.25-7.23.32-5.5.17-11,.34-16.49.61-10.6.52-21.19,1.2-31.8,1.6-10.87.4-21.76.36-32.64.5-10.43.13-20.83.62-31.24,1.18-11.08.6-22.16.87-33.25,1.12-5.38.12-10.77.39-16.15.55q-8.51.25-17,.44c-5.19.11-10.38.22-15.57.49-5.37.28-10.74.61-16.11.92-5.76.33-11.5.61-17.26.8-5.28.19-10.58,0-15.86.24-3.44.13-6.87.34-10.31.56-1.78.11-3.56.28-5.32.5a39.9,39.9,0,0,0-7.08,1.29l-3.59,1.12a5.9,5.9,0,1,0,3.13,11.37,53.76,53.76,0,0,1,7.41-1.93,143.16,143.16,0,0,1,16.21-.66c5.17,0,10.34.36,15.51.33,11.1-.07,22.2-.49,33.31-.62,5.23-.06,10.47.08,15.7.14q8.45.1,16.89.1c10.95,0,21.89-.05,32.84,0s22.06-.68,33.09-.92c10.62-.23,21.25-.09,31.87,0,5.31,0,10.61,0,15.91-.06s10.69-.35,16-.51,10.52-.43,15.79-.6c5.44-.18,10.89-.24,16.34-.22,2.14,0,4.27,0,6.41-.09,1.17,0,2.34-.14,3.5-.24,1.59-.14,3.12-.46,4.67-.74.58,0,1.17,0,1.75,0a8.68,8.68,0,0,0,8.29-6.31c1.2-4.34-1.43-9.57-6-10.58a30.75,30.75,0,0,0-6.56-.89l-.91,0"/><path class="cls-3" d="M839,399.4a5.37,5.37,0,0,0-2.45,3.18,5.2,5.2,0,0,0-.13,2.16c-.45.4-.87.81-1.27,1.23a21.08,21.08,0,0,0-2.11,2.76,17.44,17.44,0,0,0-2,4,16.23,16.23,0,0,0,2.29,15.2,18.54,18.54,0,0,0,2.55,2.78,16.51,16.51,0,0,0,3.65,2.39,18,18,0,0,0,7.82,1.77,18.43,18.43,0,0,0,3.73-.48,8.14,8.14,0,0,0,1.45-.5,17.93,17.93,0,0,0,2.07-.93,18.62,18.62,0,0,0,3.22-2.32,15.59,15.59,0,0,0,2.92-3.52,16.3,16.3,0,0,0,1.62-3.43,16.6,16.6,0,0,0,1-4.48,16.36,16.36,0,0,0-.09-3.27,22.41,22.41,0,0,0-.36-2.34,13.55,13.55,0,0,0-1.06-2.93,15.83,15.83,0,0,0-5.46-6.57,29.7,29.7,0,0,0-6.84-3.3,44.39,44.39,0,0,0-6.49-1.91,7.88,7.88,0,0,0-1.49-.16,5,5,0,0,0-2.61.69m4.13,10.67,1.77.75c.84.36,1.67.72,2.5,1.11a18.11,18.11,0,0,1,2.43,1.47c.29.27.57.55.83.84a5.86,5.86,0,0,1,1.22,3c0,.51,0,1,0,1.52a15.08,15.08,0,0,1-.51,1.84,14.8,14.8,0,0,1-.78,1.35c-.31.34-.64.66-1,1a13.93,13.93,0,0,1-1.29.78c-.34.11-.68.2-1,.27a15.71,15.71,0,0,1-1.74,0,14.51,14.51,0,0,1-1.86-.51,15.3,15.3,0,0,1-1.54-.9,16.33,16.33,0,0,1-1.34-1.36,14.89,14.89,0,0,1-.85-1.5c-.16-.48-.29-1-.4-1.46a16,16,0,0,1,0-2.06,16.38,16.38,0,0,1,.62-2.16,18.12,18.12,0,0,1,1.38-2.4,15.38,15.38,0,0,1,1.51-1.51l0,0,.26.09-.25-.1Z"/><path class="cls-3" d="M903,400.75a17.58,17.58,0,0,0-8.74,9,21.67,21.67,0,0,0-1.25,3.4,19,19,0,0,0-.48,3.64,17.82,17.82,0,0,0,.32,3.73,8.12,8.12,0,0,0,.4,1.42,20.33,20.33,0,0,0,1.1,2.5,17,17,0,0,0,2,2.82A14.29,14.29,0,0,0,899,429.5a13.73,13.73,0,0,0,3.27,1.67,11.76,11.76,0,0,0,2.87.78,17.34,17.34,0,0,0,7.44-.37,21.14,21.14,0,0,0,7-3.78,21.87,21.87,0,0,0,2.12-1.87,19.51,19.51,0,0,0,2.38-2.9,12.3,12.3,0,0,0,2-7.15,11,11,0,0,0-.84-3.72,30.32,30.32,0,0,0-1.59-3.51,28.52,28.52,0,0,0-1.93-3,5.52,5.52,0,0,0-3.09-2.38,5.29,5.29,0,0,0-.88-.16,17.46,17.46,0,0,0-1.81-1.47,12.4,12.4,0,0,0-3-1.38,11.93,11.93,0,0,0-3-.59q-.66-.06-1.31-.06a14.33,14.33,0,0,0-5.66,1.18M910.3,407a11.7,11.7,0,0,1,1.74.48l.07,0a5.62,5.62,0,0,0,.66,3.32c.43.86.84,1.73,1.23,2.62a23,23,0,0,1,.81,2.52c0,.14,0,.28,0,.42l0,.15-.17.28a23.05,23.05,0,0,1-2.4,2.45,21.61,21.61,0,0,1-2.5,1.49,14.66,14.66,0,0,1-1.58.42,15.18,15.18,0,0,1-1.62,0,13.25,13.25,0,0,1-1.38-.38,13.73,13.73,0,0,1-1.24-.73c-.27-.25-.52-.51-.77-.79s-.49-.78-.7-1.18-.23-.81-.32-1.22a16.8,16.8,0,0,1,0-2.05,11.39,11.39,0,0,1,2.16-5.11,16,16,0,0,1,1.41-1.41,13.47,13.47,0,0,1,1.47-.88,13.62,13.62,0,0,1,1.74-.46c.48,0,1,0,1.44,0"/><path class="cls-3" d="M961.81,402.53a23.23,23.23,0,0,0-4.77,4.55,24.53,24.53,0,0,0-1.77,2.56,27.24,27.24,0,0,0-1.6,3.42,12.65,12.65,0,0,0-.56,6.88,11.11,11.11,0,0,0,.72,2.6,9.66,9.66,0,0,0,.76,1.65,11.72,11.72,0,0,0,1.44,1.88,12.56,12.56,0,0,0,2.35,2,15.94,15.94,0,0,0,2.69,1.57,19.29,19.29,0,0,0,7.54,1.65,20.3,20.3,0,0,0,3.47-.34,15.6,15.6,0,0,0,3.92-1.26,13.47,13.47,0,0,0,5.41-4.14,18.53,18.53,0,0,0,1.94-2.93,12.86,12.86,0,0,0,1.37-4.72,25.91,25.91,0,0,0,.14-3.64,22.47,22.47,0,0,0-.58-4,18.18,18.18,0,0,0-1.21-3.21c-.06-.13-.12-.26-.18-.39a2.92,2.92,0,0,0-.11-1,9.87,9.87,0,0,0-.8-2.27,7.42,7.42,0,0,0-2.1-2.39,12.14,12.14,0,0,0-5.66-2,15.25,15.25,0,0,0-1.81-.11,18.44,18.44,0,0,0-10.6,3.61m6.89,4,0,.08a5,5,0,0,0,1.79,1.79l.24.17a25.32,25.32,0,0,1,2.31,2.18c.16.27.32.55.46.83a16,16,0,0,1,.48,1.87,26.39,26.39,0,0,1,0,3.21,10.36,10.36,0,0,1-.28,1.05c-.23.45-.49.88-.77,1.3-.24.26-.48.51-.73.75a13,13,0,0,1-1.35.77,16.71,16.71,0,0,1-2.12.57,17.26,17.26,0,0,1-2.39,0,15.49,15.49,0,0,1-2.07-.57,15,15,0,0,1-1.62-.93c-.18-.16-.35-.33-.51-.5s-.24-.4-.35-.61a13.19,13.19,0,0,1-.38-1.45c0-.34,0-.67,0-1a17.88,17.88,0,0,1,.79-2.64,20.2,20.2,0,0,1,1.73-2.89,21.37,21.37,0,0,1,2.8-2.77,18.34,18.34,0,0,1,1.9-1.16m2.46,2.34.45.35-.45-.35"/><path class="cls-3" d="M1029.28,398.77a5.7,5.7,0,0,0-.34.69,18.3,18.3,0,0,0-5.53,3.09,17.74,17.74,0,0,0-3.86,4.34,16.72,16.72,0,0,0-1.49,3.25,14.16,14.16,0,0,0-.6,3.5,13.16,13.16,0,0,0,.32,3.6,8.83,8.83,0,0,0,1.49,3.2,15.84,15.84,0,0,0,5.49,4.89,17.73,17.73,0,0,0,6.41,1.92,16.62,16.62,0,0,0,12.85-4.08,17.25,17.25,0,0,0,2.71-3,18.8,18.8,0,0,0,1.84-3.67l.21-.81c.13-.8.24-1.62.34-2.43a12.71,12.71,0,0,0-.49-4,14.26,14.26,0,0,0-1.79-3.58,19.22,19.22,0,0,0-2.42-3c-1-1-2.07-1.83-3.11-2.72a31.5,31.5,0,0,0-4.35-3.17,5.46,5.46,0,0,0-2.79-.75,5.69,5.69,0,0,0-4.91,2.77m3.19,8.65c.48.43.94.88,1.41,1.33.85.81,1.71,1.61,2.51,2.47.31.46.6.93.87,1.42-.05.23-.11.45-.18.67s-.31.52-.48.77c-.32.35-.65.68-1,1a13.5,13.5,0,0,1-1.25.71,15.32,15.32,0,0,1-1.55.43,14.44,14.44,0,0,1-1.47,0,15.91,15.91,0,0,1-1.73-.47,15.4,15.4,0,0,1-1.39-.82c-.26-.24-.51-.49-.75-.75l-.06-.24c0-.4,0-.78,0-1.18s.19-.72.3-1.08a14.36,14.36,0,0,1,.87-1.52,16.51,16.51,0,0,1,1.43-1.42,15.64,15.64,0,0,1,2-1.17l.41-.14m4.7,4.12c0,.19.06.38.08.58l-.08-.58m-.3.07a6,6,0,0,1,.27.65l-.27-.65m-9.61,1.47,0,.2h0c0-.07,0-.14,0-.21m0,.22v0Zm-.21,0,.22.52a4.83,4.83,0,0,1-.22-.52"/><path class="cls-3" d="M898.13,300.42l-.73.94a4.65,4.65,0,0,0-.64,2.35c-.67,5.58-1.33,11.18-1.5,16.81q-.28,9-.42,18-.11,7.39-.19,14.78c-.06,5.8-.08,11.59.3,17.38a31.27,31.27,0,0,0,.6,4.33,11.23,11.23,0,0,0,1,2.6,17.38,17.38,0,0,0,.94,1.63,4.91,4.91,0,0,0,9-1.17,5.07,5.07,0,0,0-.5-3.78l-.27-.52a11.9,11.9,0,0,1-.44-1.61c-.17-1.75-.23-3.5-.32-5.25-.07-1.23-.13-2.45-.17-3.68-.09-2.83-.17-5.65-.21-8.48-.07-5-.13-10.09-.12-15.13q0-9,.18-18c.05-2.59.23-5.17.38-7.76s.46-4.9.72-7.35c.1-.91.22-1.82.32-2.72a4.44,4.44,0,0,0-1.36-3.29,4.64,4.64,0,0,0-6.57,0"/><path class="cls-3" d="M951,296.93c-2.34.13-4.66.34-7,.53l-7.16.59c-2.27.18-4.55.27-6.82.41-9.64.55-19.31.18-29-.1a4.61,4.61,0,1,0,0,9.23q7.74.22,15.47.38c2,0,4,0,5.93,0,1.81,0,3.63,0,5.44-.09l8-.44c2.21-.12,4.43-.35,6.63-.53l6.32-.53a49.85,49.85,0,0,1,8.2-.33,19.53,19.53,0,0,1,3.93,1.13,4,4,0,0,0,3.11-7.37,17.94,17.94,0,0,0-8-2.87c-.7-.06-1.39-.09-2.08-.09-1,0-2,.05-3.08.11"/><path class="cls-3" d="M965.27,299.43a4.49,4.49,0,0,0-1.94,2.52,51.82,51.82,0,0,0-2.35,8.11,48.37,48.37,0,0,0-.87,8.33c0,2.27-.09,4.54-.08,6.81,0,4.6.07,9.21,0,13.82q-.11,7.25-.33,14.49c-.16,4.86-.32,9.79,1.29,14.46a5.08,5.08,0,0,0,2.22,2.89,4.84,4.84,0,0,0,6.62-1.73,5.06,5.06,0,0,0,.49-3.73c-.09-.44-.17-.89-.24-1.33-.32-3.79-.43-7.6-.54-11.39-.12-4.2-.22-8.4-.33-12.61-.1-3.76-.23-7.52-.35-11.28a114,114,0,0,1,.15-15.54c.21-1.33.46-2.64.78-4a47.55,47.55,0,0,1,1.68-5.08,4.11,4.11,0,0,0-.43-3.25,4.23,4.23,0,0,0-5.77-1.51"/><path class="cls-3" d="M920.06,304.3a.94.94,0,0,0-.64,1.13c.13.58.23,1.17.35,1.76,0,.25.07.5.11.75l.12.85,0-.25.15,1.75c.05.57.06,1.16.09,1.73.05,1.05.06,2.11.06,3.17s0,2.2,0,3.3c0,.52,0,1,0,1.56,0,.2,0,.39,0,.58a4.81,4.81,0,0,0,.09.59,2.59,2.59,0,0,0,.2.52,1.88,1.88,0,0,0,.31.41,2.14,2.14,0,0,0,.4.32,2.25,2.25,0,0,0,.52.23,2.91,2.91,0,0,0,.66.15,15.05,15.05,0,0,0,3.11-.07l1.49-.1,3.3-.18,3.09-.17c1-.06,2-.09,3-.21a1.06,1.06,0,0,0,.68-.28,1,1,0,0,0,.28-.68,1,1,0,0,0-1-1,28.65,28.65,0,0,0-3,.13l-3.09.2-3.24.19-1.39.1a21.52,21.52,0,0,1-3,.14,3.33,3.33,0,0,1-.47-.12l0,0,0,0c0-.09,0-.18-.06-.28-.09-1.08,0-2.17,0-3.25s0-2.16,0-3.25-.09-2.41-.15-3.61-.23-2.29-.38-3.43c-.1-.69-.25-1.38-.39-2.06a.92.92,0,0,0-.9-.68.88.88,0,0,0-.23,0m2.1,16.36.06.13a.79.79,0,0,1-.06-.13m0,.1,0,0,0,0"/><path class="cls-3" d="M935.52,305.75a1,1,0,0,0-.72,1.26c.28,1.31.58,2.61.81,3.93.1.57.21,1.14.29,1.71s.16,1.1.23,1.66v-.05c.23,1.84.43,3.7.75,5.52a1,1,0,0,0,.93.71,1,1,0,0,0,.68-.29.93.93,0,0,0,.28-.68c-.21-2.11-.44-4.23-.73-6.33-.15-1.05-.33-2.1-.51-3.15-.08-.46-.19-.91-.28-1.37-.15-.73-.3-1.46-.46-2.2a1,1,0,0,0-1-.75,1,1,0,0,0-.26,0"/><path class="cls-3" d="M923.67,308.19a.67.67,0,1,0,.67-.67.68.68,0,0,0-.67.67"/><path class="cls-3" d="M925.12,302.11a6.62,6.62,0,0,0-1.39.61,6.45,6.45,0,0,0-3.14,4.07,7.33,7.33,0,0,0,0,3.77,1.92,1.92,0,0,0,.08.27,6.67,6.67,0,0,0,.15.71v0a6.35,6.35,0,0,0,5.88,4.68,5.49,5.49,0,0,0,5.68-1.3l.07-.07a5.51,5.51,0,0,0,1.1-1.67,17.93,17.93,0,0,0,.95-3.18c.23-1,.52-1.93.82-2.89a5.86,5.86,0,0,0-4.06-7.15,5.73,5.73,0,0,0-1.52-.21,5.85,5.85,0,0,0-4.63,2.34"/><path class="cls-3" d="M929.88,303.93a3,3,0,0,0-1.77,1.36,3.1,3.1,0,0,0-.3,2.28c.14.71.27,1.43.39,2.15a27.78,27.78,0,0,1,0,5.29,20.83,20.83,0,0,0-.32,2.21,3,3,0,0,0,1.48,2.59,3,3,0,0,0,1.52.41,3.13,3.13,0,0,0,.43,0v0a4,4,0,0,0,1,1.73,3.37,3.37,0,0,0,3.27.87,3.41,3.41,0,0,0,2.35-2.35,11.89,11.89,0,0,0,.33-2.73c0-1.08.11-2.16.14-3.25s.1-2.32.18-3.48c0-.56.08-1.12.1-1.67a7.76,7.76,0,0,0-.12-2,3.61,3.61,0,0,0-1.76-2.51,3.26,3.26,0,0,0-3.71.27,3.11,3.11,0,0,0-2.53-1.29,2.78,2.78,0,0,0-.74.1"/><path class="cls-3" d="M922.18,309.77a36.65,36.65,0,0,0-.94,3.7,42.5,42.5,0,0,0-.75,4.33,4.33,4.33,0,0,0,.24,2c.05.13.09.26.13.39a4.59,4.59,0,0,0,1.07,1.87,4.18,4.18,0,0,0,2.94,1.19,8.4,8.4,0,0,0,1.22-.06c.77-.09,1.55-.2,2.32-.32s1.43-.12,2.15-.16,1.53-.2,2.29-.33a5.2,5.2,0,0,0,2.66-.74,2.75,2.75,0,0,0,1.31-2.28,2.63,2.63,0,0,0-1.31-2.28,4.18,4.18,0,0,0-2-.52h-.85c-.63,0-1.27,0-1.9-.05-.88,0-1.73-.21-2.62-.2-.38,0-.76,0-1.14,0,0-.13,0-.26,0-.39.06-.7.15-1.41.24-2.12a18.21,18.21,0,0,1,.64-2.54,3,3,0,0,0-2.09-3.69,3,3,0,0,0-.79-.11,3.09,3.09,0,0,0-2.9,2.2"/><path class="cls-3" d="M926.65,312.44a2.1,2.1,0,0,0-1.12,1.79,2.24,2.24,0,0,0,.87,1.71,1.87,1.87,0,0,0,1.23.51,1.74,1.74,0,0,0,1.23-.51l.1-.11a1.67,1.67,0,0,0,.63,0,1.77,1.77,0,0,0,.42-3.24c-.25-.12-.5-.22-.75-.32a3.4,3.4,0,0,0-.95-.18h-.19a3.68,3.68,0,0,0-1.48.42"/><path class="cls-3" d="M951.53,303.16a1.11,1.11,0,1,0,1.1-1.1,1.12,1.12,0,0,0-1.1,1.1"/><path class="cls-3" d="M953.84,297.05a1.08,1.08,0,0,0-.54.14,1.09,1.09,0,0,0-.49.64,1,1,0,0,0,0,.35,1.23,1.23,0,0,0-.83.61,1.05,1.05,0,0,0-.1.79,1,1,0,0,0,.71.71,12.36,12.36,0,0,0,1.85.14H955a.73.73,0,0,0-.14.41.69.69,0,0,0,.2.48.71.71,0,0,0,.48.2l.17,0-.47,0q-2.27.17-4.55.37a.43.43,0,0,0-.42.42.42.42,0,0,0,.42.42c2.46-.21,4.91-.4,7.38-.54q2.76-.15,5.53-.14c1.6.07,3.19.12,4.79.11a.57.57,0,0,0,.4-1,.54.54,0,0,0-.4-.16h-.29l0-.08a1.19,1.19,0,0,0,1-.95,1,1,0,0,0,.42-.8,1.23,1.23,0,0,0-.41-1l-.22-.17-.38-.16a2.21,2.21,0,0,0-.48-.07l-.72-.05h0l-.23-.18a1.19,1.19,0,0,0-.59-.16,7.48,7.48,0,0,0-.89,0h-2.54l-.73-.07c-1.09-.11-2.19-.2-3.29-.28s-2.19-.09-3.28-.1h-.7c-.45,0-.89,0-1.34,0m.26.08.18,0h0l-.18,0"/><path class="cls-3" d="M965.71,297.35a5.65,5.65,0,0,0-1.43.52c-.27.1-.55.17-.82.27s-.74.32-1.11.48l-.1,0a1.4,1.4,0,0,0-.77.59,1.28,1.28,0,0,0,.46,1.76,1.23,1.23,0,0,0,1,.13,6.41,6.41,0,0,1,1.44-.5,6.07,6.07,0,0,0,1-.28,4.16,4.16,0,0,1,.55-.14,4,4,0,0,1,.49,0l.56.12c.21,0,.41.08.62.13l0,0a6,6,0,0,1,.52.48l.08.15a5.72,5.72,0,0,1,.2.81,20.59,20.59,0,0,1,0,3.87c-.12,1.43-.3,2.85-.37,4.28,0,.7,0,1.41-.07,2.11s-.1,1.44-.17,2.16q-.19,2-.4,4c-.25,1.76-.55,3.51-.71,5.29-.08.89-.14,1.79-.23,2.68s-.21,1.7-.3,2.55c-.17,1.73-.19,3.47-.38,5.2-.1.91-.21,1.82-.29,2.73s-.12,1.68-.15,2.52c-.16,3.58-.37,7.15-.64,10.72-.16,2.14-.24,4.29-.27,6.43a1.86,1.86,0,0,0-.5.06,2.57,2.57,0,0,0-.93.55,2.64,2.64,0,0,0-.62,1.21,10.1,10.1,0,0,0-.24,1.75c0,.2,0,.4,0,.59a1.94,1.94,0,0,0-1.74,1.41,5.93,5.93,0,0,0-.11,2.09c0,.42,0,.84.07,1.26,0,.71.09,1.42.13,2.14.06,1,.12,2,.13,3a9.25,9.25,0,0,0,0,1.34s0,0,0,.05h0a5.27,5.27,0,0,0,.07.54,2.07,2.07,0,0,0,.53.91,2.14,2.14,0,0,0,.24.21c0,.09.05.19.08.28a1.92,1.92,0,0,0,1.82,1.38,1.84,1.84,0,0,0,.95-.26,1.8,1.8,0,0,0,.87-1.12c0-.22.06-.45.08-.67l0,.18a5.48,5.48,0,0,0,.13.75,2.18,2.18,0,0,0,.57,1l.45.35a2.23,2.23,0,0,0,1.11.3h0a2.18,2.18,0,0,0,1.11-.3l.24-.16a2,2,0,0,0,.93-.28,2.7,2.7,0,0,0,.5-.37l.33-.42a2.12,2.12,0,0,0,.29-1.05,3.8,3.8,0,0,0,0-.59c0-.35,0-.69,0-1,0-.75-.08-1.5-.14-2.24s-.14-1.47-.23-2.2c-.12-1-.2-1.94-.41-2.87a1.93,1.93,0,0,0-1.25-1.34q0-.61-.06-1.23c-.07-1.78,0-3.57,0-5.36s.11-3.61.23-5.42.27-3.48.37-5.22c.05-.91.07-1.82.1-2.73s.1-1.75.15-2.62c.09-1.76.19-3.51.4-5.26s.26-3.54.39-5.31.4-3.54.5-5.32.29-3.45.51-5.16c.11-.83.14-1.67.2-2.5s.1-1.78.14-2.68.07-1.75,0-2.62-.07-1.75-.07-2.63c0-1.21.08-2.41.11-3.61a18.86,18.86,0,0,0-.33-4.06,4.4,4.4,0,0,0-.69-1.75,3.66,3.66,0,0,0-.61-.68l-.33-.27a3.69,3.69,0,0,0-1.49-.91,10.61,10.61,0,0,0-1.23-.17l-.52-.07h-.19a5.41,5.41,0,0,0-.76.08"/><path class="cls-3" d="M920.75,319.09c0,.34,0,.68,0,1a5.45,5.45,0,0,1-.24.93c0,.1-.09.21-.13.32a3,3,0,0,0-.14.78,2,2,0,0,0,.11.78,3.05,3.05,0,0,0,.68,1.17,3.29,3.29,0,0,0,1.41.81,3.36,3.36,0,0,0,1.26.13c.41,0,.83,0,1.24-.09.89-.09,1.79-.19,2.68-.21a14.82,14.82,0,0,1,2.12.13,13.13,13.13,0,0,0,3.46.24,14.75,14.75,0,0,0,3.33-.72,4,4,0,0,0,2.29-1.75,4.81,4.81,0,0,0,.56-1.95,2.33,2.33,0,0,0-.32-1.4,2.37,2.37,0,0,0-.86-.86,2.45,2.45,0,0,0-2.9.4,2.72,2.72,0,0,0-.4.51l-.08.12-.53.1-1.1.2a13.66,13.66,0,0,1-1.4,0c-.59,0-1.17,0-1.76,0h-1.8a15.3,15.3,0,0,0-1.91.19l-1.59.19c-.32,0-.66.1-1,.13a2.44,2.44,0,0,0-.17-.3l-.2-.33c0-.08-.05-.17-.07-.25s0-.22,0-.34a1.25,1.25,0,1,0-2.51,0m5.4.93-.25,0,.25,0"/><path class="cls-3" d="M920.53,343.49a3.43,3.43,0,0,0-.89,1.3c-.61,1.24-1.19,2.49-1.76,3.75s-1.2,2.83-1.72,4.27a1.91,1.91,0,1,0,3.62,1.21l.43-1.14c0,1.13,0,2.26,0,3.38,0,3.11,0,6.33.91,9.33a1.74,1.74,0,0,0,1.56,1.33,1.71,1.71,0,0,0,1.78-1.6,33.37,33.37,0,0,0-.28-4.54c-.11-2.3-.18-4.6-.23-6.91,0-1.28,0-2.55,0-3.84,0-.6,0-1.2,0-1.8s0-1.21,0-1.82c0-.44-.06-.88-.11-1.32a3.21,3.21,0,0,0-.4-1.08,1.88,1.88,0,0,0-1.66-1,1.91,1.91,0,0,0-1.24.46"/><path class="cls-3" d="M931.16,351.5a1.3,1.3,0,0,0-1,1.53c.17,1,.36,2,.46,3.08a88.89,88.89,0,0,1-.22,9,1.24,1.24,0,1,0,2.48.14c.17-1.58.27-3.16.36-4.75,0-.8,0-1.61,0-2.41a30.68,30.68,0,0,0-.6-5.64,1.28,1.28,0,0,0-1.27-1l-.26,0"/><path class="cls-3" d="M935.47,354.4c-.51.57-1,1.14-1.59,1.66s-1,.86-1.55,1.27a2.37,2.37,0,0,0-.38.28.93.93,0,0,0-.21.26,1.5,1.5,0,0,0-.17.56,1.07,1.07,0,0,0,.49.93c.15.1.3.22.44.33a7.27,7.27,0,0,1,1,1.2c.59.89,1.1,1.84,1.69,2.74a1.24,1.24,0,0,0,.67.58,1.17,1.17,0,0,0,.91-.07,1.16,1.16,0,0,0,.57-.67,1.2,1.2,0,0,0,0-.62,1.17,1.17,0,0,0-.27-.54l-1.3-1.81a12.75,12.75,0,0,0-1.8-2.1l.08-.06c.31-.24.6-.49.89-.75.61-.56,1.18-1.18,1.74-1.79a1,1,0,0,0,.31-.65.94.94,0,0,0-.24-.68,1,1,0,0,0-.74-.32.78.78,0,0,0-.59.24m-2,6.36,0,.06,0-.06"/><path class="cls-3" d="M938.95,355.67a.65.65,0,0,0-.23.47c0,.41,0,.81.07,1.21s0,.53,0,.79c0,.63,0,1.25,0,1.87,0,1.29-.06,2.58,0,3.86a.62.62,0,0,0,1.23.07c.12-1.29.16-2.57.18-3.85s0-2.59-.12-3.88a.76.76,0,0,0-.17-.49.71.71,0,0,0-.47-.23h0a.69.69,0,0,0-.46.18"/><path class="cls-3" d="M942,353.34a2.32,2.32,0,0,0-.5.07,4.8,4.8,0,0,0-.49.17l-.43.17a5.41,5.41,0,0,0-1,.53,4.27,4.27,0,0,0-.42.32,3.24,3.24,0,0,0-.37.41,1.82,1.82,0,0,0-.36.84.92.92,0,0,0,.05.66.85.85,0,0,0,1.15.37.8.8,0,0,0,.42-.49c0-.1,0-.19.08-.29l.11-.16a4.32,4.32,0,0,1,.36-.3,8.21,8.21,0,0,1,1.31-.63l.09,0,.06.12,0,.1a2.22,2.22,0,0,1,0,.3,4,4,0,0,1-.21.57,14.08,14.08,0,0,1-1.5,2c-.28.34-.58.66-.84,1a.71.71,0,0,0,.36,1.05,1.08,1.08,0,0,0,.47,0,2.41,2.41,0,0,0,.46-.15,9.9,9.9,0,0,1,1.7-.42h.13a1.64,1.64,0,0,1,0,.17c0,.13-.09.25-.14.38a6.82,6.82,0,0,1-.81,1.14c-.39.43-.8.83-1.22,1.23a10.75,10.75,0,0,1-1,.87l-.11.05h0a.83.83,0,0,0-.56.2.77.77,0,0,0-.06,1.09.74.74,0,0,0,.53.25,4,4,0,0,0,.44,0,1.32,1.32,0,0,0,.41-.17,3.2,3.2,0,0,0,.7-.59l.6-.61.7-.74a9.63,9.63,0,0,0,1.43-1.85,3.22,3.22,0,0,0,.38-1,1.8,1.8,0,0,0,0-.48,1.67,1.67,0,0,0-.15-.55,1,1,0,0,0-.32-.36,1.62,1.62,0,0,0-.55-.25,2.21,2.21,0,0,0-.83,0,6.51,6.51,0,0,0,1.51-2.48,2.23,2.23,0,0,0-.34-2,1.87,1.87,0,0,0-.81-.57,1.08,1.08,0,0,0-.38-.06H942m0,1.64h0m0,0h0m.06,0,.09.08-.09-.08m.06.31s0,0,0,0v0m-.26.8,0,.1,0-.1m.67,3.51h0m0,0h0m.26,0,0,0,0,0m-3.24,3.77-.08,0h0l.08,0m-.09,0Zm-.07,0h0"/><path class="cls-3" d="M422.24,80.46A1.82,1.82,0,0,0,422,83a1.75,1.75,0,0,0,1.23.64,1.93,1.93,0,0,0,1.32-.41,1.82,1.82,0,0,0,.24-2.56,1.76,1.76,0,0,0-1.23-.64,1.93,1.93,0,0,0-1.32.41"/><path class="cls-3" d="M418.66,62A5,5,0,0,0,416,64.85a52.22,52.22,0,0,0-1.55,8.27c-.12,1.2-.26,2.41-.34,3.61-.18,2.59-.41,5.2-.39,7.8,0,5.28.35,10.55.61,15.82.15,4.55.22,9.1.35,13.66.08,3,.15,5.93.25,8.9q-.13,4.43-.24,8.86c-.12,4.71-.38,9.41-.4,14.12q0,7.39.15,14.79c.11,4.82.29,9.63.44,14.44s0,9.41-.16,14.11c-.1,3.66-.08,7.32-.13,11,0,3.87-.15,7.73-.2,11.6,0,3.37,0,6.75-.12,10.12,0,1.77-.09,3.53-.14,5.29a47.5,47.5,0,0,0,.1,7.57,4.48,4.48,0,0,0,8,1.81,7.87,7.87,0,0,0,.89-1.91,12.62,12.62,0,0,0,.39-2.46c.05-.53.12-1.06.18-1.59.13-1.1.25-2.2.36-3.31.24-2.43.48-4.87.7-7.31.43-4.87.92-9.76,1.14-14.65s.38-9.75.44-14.64q.05-4.6.16-9.19a5,5,0,0,0,1.5-.86,4.84,4.84,0,0,0,1.8-3.42c-.1-4.7,0-9.4-.38-14.09q-.1-1.16-.2-2.31-.18-3.7-.4-7.4c-.41-7-.93-13.93-1.26-20.9q-.15-4.35-.23-8.69c-.05-3.07.07-6.15.17-9.21.08-2.74.19-5.47.25-8.21.06-3-.16-6-.31-9q-.1-2.33-.2-4.67c0,.38,0,.77,0,1.14-.22-5.33-.55-10.65-.79-16q0-.9-.06-1.81c0-.48,0-1,0-1.45a7,7,0,0,0-.58-3,4,4,0,0,0-.68-1q.09-.55.2-1.09t.29-1.16q.16-.67.31-1.35a5.12,5.12,0,0,0-.46-2.65A5.16,5.16,0,0,0,418.66,62m8.9,69.78v.31c0-.1,0-.2,0-.31"/><path class="cls-3" d="M797.13,69c-.25,2.73-.57,5.46-.65,8.2s-.12,5.69-.15,8.54c0,5.15,0,10.31,0,15.46q0,8.16.15,16.31c.08,5.55.14,11.12.48,16.66.22,3.72.51,7.43.73,11.15.17,4.51.33,9,.55,13.52.13,5,0,10-.1,15-.1,5.34-.31,10.67-.58,16-.25,5.08-.52,10.19-.44,15.28,0,3,.13,6.05.31,9.07.14,2.33.42,4.65.66,7,.26,2.48.56,4.95.72,7.43.23,7.58.13,15.17.14,22.74,0,3.84.15,7.68.05,11.52-.1,4.09-.25,8.19-.53,12.27a4.66,4.66,0,0,0,6.61,4.65,4.49,4.49,0,0,0,2.39-2.58,32.66,32.66,0,0,0,1-4.36c.14-1.1.23-2.21.31-3.32.16-2.22.29-4.45.33-6.68.09-4.53,0-9.06,0-13.59.06-9.27.05-18.54-.4-27.79,0,.47,0,.94.06,1.41q-.23-5.55-.49-11.09-.23-6.88,0-13.75c.16-4.8.5-9.58.67-14.38.18-5,.26-10,.36-15,.05-2.6.09-5.2,0-7.79s-.23-5.45-.37-8.18c-.12-3-.23-6-.36-9s-.43-5.71-.68-8.56c-.5-5.92-.7-11.87-1-17.8l.06,1.42q-.15-3.63-.31-7.26c-.26-6.82-.48-13.64-.6-20.47-.06-3.38,0-6.77,0-10.15,0-3.69.34-7.36.67-11a4.89,4.89,0,0,0-4.38-5.27l-.43,0a4.89,4.89,0,0,0-4.83,4.4"/><path class="cls-3" d="M532,59.71c-4.24,0-8.48,0-12.72.14q-6.68.18-13.35.5c-14.49.71-29,1.53-43.45,2.31-3.46.12-6.92.22-10.38.26-3.19,0-6.37,0-9.56,0-3.35,0-6.7-.1-10-.26-1.76-.08-3.51-.19-5.27-.34s-3.78-.41-5.66-.67a2.42,2.42,0,0,0-.72,4.78,3.08,3.08,0,0,0-1,1,9.41,9.41,0,0,0-.61,1.09A4,4,0,0,0,419,70a3.47,3.47,0,0,0,5.17,3.34l.75,0c.91,0,1.82,0,2.73,0,2.13,0,4.25-.12,6.37-.27,1.88-.14,3.75-.37,5.61-.57q3.09-.33,6.18-.6c4-.36,8-.6,12-.91s7.95-.67,11.93-1q4-.29,8-.53c3.95-.14,7.88-.14,11.83-.14,4.18,0,8.36,0,12.53.05q12.29.15,24.57,0c3.93-.06,7.85-.26,11.77-.33s8.14-.14,12.22-.09c8.49.13,17,.3,25.46.4,8.23.1,16.49.13,24.72-.22l-1,0,1.7-.07h.39l.92,0h0l.51,0h.31l.5,0c.34,0,.69,0,1.1,0l.4,0,1.46-.08,4.42-.26,7-.38,2.47,0c8.14.08,16.27.2,24.4.42,8.44.23,16.88.44,25.3.8,8,.34,16,1,24,1.21,8.5.19,17,0,25.52-.11,5.39,0,10.76-.25,16.14-.49,5.08-.2,10.16-.35,15.24-.49H752c7.7.33,15.37,1.06,23.07,1.43,4.36.21,8.71.34,13.07.46q3.39.09,6.78.15c1,0,2,0,3,0a21.34,21.34,0,0,0,3.14-.25,10.56,10.56,0,0,0,1.75-.55,5.42,5.42,0,0,0,2-1.6,3.45,3.45,0,0,0,.63-1.71,3.49,3.49,0,0,0-.31-1.79c-.79-2.08-3.11-2.52-5-2.87-1-.18-2-.3-2.94-.42-2-.23-4.06-.43-6.09-.62-3.84-.35-7.71-.56-11.56-.66-8.15-.22-16.3.26-24.45.39-4.33.07-8.66.13-13,.22l-3.61.1-1.21,0c-4.15-.14-8.3-.25-12.45-.28-2,0-4,0-6,.07-1.81,0-3.62.09-5.44.08-4.28,0-8.56,0-12.83-.18Q687.72,61,675,60.49c-3.84-.16-7.68-.41-11.52-.56q-6.19-.23-12.37-.18c-8.16.06-16.32.33-24.48.68a3.61,3.61,0,0,0-.64,0c-6.58,0-13.15,0-19.73-.16-8-.22-16.07-.47-24.11-.48q-13.1,0-26.19-.16-3.13,0-6.27,0c-5.88,0-11.75.06-17.63.1m92.08,8.23-.7,0,.45,0h.24m-23.23,1.17h.21l-.5,0h.29"/></g><g class="cls-2"><path class="cls-4" d="M490,182.72,489,184a6.12,6.12,0,0,0-.84,3.1c-.38,3.69-.69,7.39-1,11.09-.22,2.58-.21,5.19-.29,7.79-.07,2.21-.15,4.41-.12,6.62q.07,5.17.15,10.35c0,2.55.29,5.11.43,7.65.29,4.88.72,9.71,1.41,14.55a50.63,50.63,0,0,0,2.34,10.21c.63,1.76,1.45,3.44,2.18,5.15a9.74,9.74,0,0,0,4.61,4.7,10,10,0,0,0,6.88,1,13.45,13.45,0,0,0,5.44-3A23,23,0,0,0,514,259a29.76,29.76,0,0,0,3-5.77,49.21,49.21,0,0,0,2-5.62,48.35,48.35,0,0,0,1.21-6.41,117,117,0,0,0,1.15-14.64c.05-4.48-.15-9-.31-13.44-.1-2.7-.31-5.39-.52-8.08-.26-3.36-.44-6.75-.88-10.1a6.31,6.31,0,0,0-1.55-6.24,6.17,6.17,0,0,0-2.74-1.6,6,6,0,0,0-4.79.63,9.21,9.21,0,0,0-2.73,2.62,7.71,7.71,0,0,0-.87,2.39,11,11,0,0,0-.13,3.21c0,.44.1.88.15,1.31.15,1.33.32,2.66.44,4,.31,3.14.56,6.28.81,9.43s.29,6.08.41,9.12a119.85,119.85,0,0,1-.74,19c-.28,1.85-.62,3.67-1.07,5.48a36.42,36.42,0,0,1-1.52,4.55,25.28,25.28,0,0,1-1.86,3.36l-.07.08A52.38,52.38,0,0,1,500.67,241c-.67-5.5-1-11-1.32-16.53-.26-4.07-.2-8.17-.27-12.25s.16-8,.28-12c0-1.5.19-3,.32-4.47.25-2.88.5-5.76.8-8.64a5.91,5.91,0,0,0-1.8-4.34,6.14,6.14,0,0,0-8.68,0M504.1,254h0Z"/><path class="cls-4" d="M538.26,180a7.27,7.27,0,0,0-2.07,5c-.26,5.81-.2,11.6-.11,17.41.09,5.5.07,11-.1,16.48-.34,10.64-2,21.2-2.11,31.85a14,14,0,0,0,.65,5.63,7.56,7.56,0,0,0,1.94,3.33,5.72,5.72,0,0,0,2,1.71,22,22,0,0,0,2.29,1,15.72,15.72,0,0,0,2.57.39,15.43,15.43,0,0,0,4.08-.3c1.13-.18,2.23-.41,3.34-.68.88-.22,1.75-.47,2.62-.71a96.72,96.72,0,0,0,9.9-3.6l1.66-.7a6.93,6.93,0,0,0,0-12l-1.66-.7a7,7,0,0,0-3.69,0,55.64,55.64,0,0,0-7.48,1.64l-3,.89c.1-3.49.28-7,.47-10.47.28-5.08.83-10.16.91-15.24.09-5.45.11-10.89,0-16.34-.16-5.8-.29-11.59-.15-17.39,0-.73.05-1.46.08-2.2.17-3.84-3.34-7.05-7.05-7.05a7.09,7.09,0,0,0-5,2.07"/><path class="cls-4" d="M595.54,185.1a4.53,4.53,0,0,0-2.16,2.82c-.53,3.46-.94,6.93-1.38,10.4-.12,1-.15,1.95-.22,2.92q-.19,2.66-.38,5.31c-.35,4.88-.44,9.79-.57,14.69-.15,5.31-.28,10.62-.36,15.93a137.26,137.26,0,0,0,.23,16.33c.06.46.13.92.18,1.38a5.19,5.19,0,0,0,8.68,2.29,5.37,5.37,0,0,0,1.52-3.67c.29-5.12-.07-10.23-.23-15.35s-.22-10.28-.2-15.43c0-2.32,0-4.64.05-7,.07-2.81,0-5.64.21-8.44s.35-5.68.52-8.51c.06-1,.23-2,.35-3q.22-1.83.45-3.66.12-.84.25-1.69c.06-.42.11-.84.17-1.25a4.67,4.67,0,0,0-.64-2.38,4.73,4.73,0,0,0-6.45-1.69"/><path class="cls-4" d="M628.39,180.19a83.29,83.29,0,0,0-13.23,2.48c-2,.54-4,1-6,1.65l-7.34,2.29c-2,.62-4,1.39-5.95,2.08-1.7.6-3.41,1.15-5.09,1.8-4,1.55-8.09,3-12.08,4.66s-8.14,3.35-12.18,5.1a3.53,3.53,0,0,0-1.69,2.2A3.68,3.68,0,0,0,567.4,207l1,.13a3.7,3.7,0,0,0,1.86-.5l1.92-.82c3.54-1.45,7.05-3,10.63-4.3,4.11-1.54,8.2-3.16,12.37-4.54l8.07-2.67c1.84-.61,3.73-1.07,5.59-1.59s3.91-1.06,5.89-1.52c2.27-.52,4.53-1,6.8-1.47s4.35-.84,6.53-1.17l.35,0,1.1-.15a4.1,4.1,0,0,0,1.83-1.07,4.17,4.17,0,0,0-2.69-7.09h-.24"/><path class="cls-4" d="M627.57,194a4.38,4.38,0,0,0-2.09,2.72c-.57,3.19-1.06,6.38-1.54,9.58-.34,2.29-.73,4.58-.91,6.89q-.35,4.42-.7,8.83c-.2,2.52-.2,5.07-.3,7.6-.17,4.36-.28,8.72-.53,13.08-.3,5.07-.7,10.13-.83,15.2a4.46,4.46,0,0,0,8.76,1.18,80.89,80.89,0,0,0,1.4-12.57c.18-4.07.32-8.13.39-12.2.08-3.92.2-7.85.3-11.77,0-1.57.21-3.14.32-4.7q.22-3,.42-5.94c.62-4.26,1.23-8.52,2-12.77a4.87,4.87,0,0,0-.46-3.5,4.55,4.55,0,0,0-6.22-1.63"/><path class="cls-4" d="M648.27,184.92c-.93.14-1.86.31-2.78.48l-3.35.63c-1,.19-2,.4-3,.61a42.25,42.25,0,0,0-6.83,2.12,14,14,0,0,0-6.19,4.41,8.66,8.66,0,0,0-1.45,2.89c-.09.56-.15,1.13-.21,1.69a8.44,8.44,0,0,0,.2,2.16,3.67,3.67,0,0,0,1.75,2.28,3.78,3.78,0,0,0,5.66-3.86c0-.14,0-.27,0-.41l0-.07a10.68,10.68,0,0,1,.79-.8,15.17,15.17,0,0,1,1.79-1,44.27,44.27,0,0,1,8.79-2.26c1.73-.27,3.46-.54,5.19-.79a21.51,21.51,0,0,1,2.9-.13l.13.13h0a12.6,12.6,0,0,1,0,1.6,17.5,17.5,0,0,1-.73,2.71c-.8,1.74-1.76,3.4-2.71,5.07a53.45,53.45,0,0,1-3.83,5.67,102.6,102.6,0,0,1-11.28,11.41c-.84.77-1.73,1.52-2.52,2.34a8.65,8.65,0,0,0-1.8,3.22,3.92,3.92,0,0,0-.11,1.85,7.75,7.75,0,0,0,.88,3c1.21,2.33,3.23,3.91,5.27,5.47a64,64,0,0,0,6.12,3.88c3,1.81,6,3.66,9,5.52a49.5,49.5,0,0,0,4.84,2.72,66,66,0,0,0,6.32,2.64,5.43,5.43,0,0,0,4.29-.56,5.57,5.57,0,0,0,2-7.62l-.87-1.13a5.55,5.55,0,0,0-2.46-1.43l-.31-.12c-1.39-.61-2.79-1.24-4.12-2-1.8-1-3.59-2-5.39-3s-3.6-2-5.42-2.9a83.37,83.37,0,0,1-9.4-5.18c.74-.76,1.5-1.5,2.24-2.25,1.72-1.74,3.46-3.45,5.15-5.23a65.36,65.36,0,0,0,8.49-11.31,52.38,52.38,0,0,0,3.48-6.8,19.65,19.65,0,0,0,1.45-6.89,12.27,12.27,0,0,0-.39-3.11,7.19,7.19,0,0,0-1.64-3,12,12,0,0,0-2.45-2.06,7.86,7.86,0,0,0-4.1-1.07h-.33a20.83,20.83,0,0,0-3.12.34m3.62,8.17.29.22-.29-.22m.15.27q.14.16.26.33l-.26-.33m-19.86,3.73,0,.27c0-.09,0-.18,0-.27m5.65,27.38.12.29-.12-.29"/><path class="cls-4" d="M689,187.09q-1.38,5.44-2.82,10.87c-.49,1.83-.93,3.67-1.44,5.49l-.33.95c-1.84,5.34-3.65,10.68-5.37,16.05s-3.56,10.85-5.41,16.25-3.95,10.7-6,16a5.23,5.23,0,0,0,.54,4.16,5.41,5.41,0,0,0,7.4,1.94,5.84,5.84,0,0,0,2.48-3.23c2-5.14,3.86-10.35,5.71-15.55,2-5.62,3.93-11.25,5.83-16.9,2.35-7,4.38-14.1,6.28-21.24.54-1.46,1.11-2.92,1.69-4.37.92,2.67,1.73,5.38,2.59,8.07.75,2.33,1.53,4.66,2.23,7l2.45,8.16c.63,2.09,1.1,4.22,1.63,6.34,1.1,4.42,2,8.87,2.75,13.38.76,4.84,1.45,9.7,2.23,14.54a6.38,6.38,0,0,0,10.66,2.82,6.06,6.06,0,0,0,1.87-4.51c-.67-5.1-1.69-10.1-2.85-15.12-1-4.43-2.16-8.84-3.47-13.19-.65-2.15-1.22-4.34-2-6.46l-2.93-8.34c-.71-2-1.49-4-2.24-6.06-1.44-3.88-2.8-7.79-4.39-11.61l.08.18a31.64,31.64,0,0,0-2.09-4.46,11.09,11.09,0,0,0-1.66-2,21.38,21.38,0,0,0-2.69-2,4.72,4.72,0,0,0-2.39-.65,4.39,4.39,0,0,0-1.21.16,5.21,5.21,0,0,0-.79-.29,5,5,0,0,0-1.33-.18,5.22,5.22,0,0,0-5.06,3.8"/><path class="cls-4" d="M715.39,222.45c-6.23.43-12.43,1.1-18.63,1.79-6.63.74-13.26,1.63-19.84,2.78a4.58,4.58,0,0,0-2.83,2.17,4.72,4.72,0,0,0,1.7,6.47,5,5,0,0,0,3.64.48c3-.51,5.92-.93,8.88-1.37,4.56-.52,9.12-1,13.69-1.43s8.92-.53,13.38-.56A5.16,5.16,0,0,0,719,224a5.13,5.13,0,0,0-3.42-1.52h-.23"/><path class="cls-4" d="M470.8,300.82a9.1,9.1,0,0,0-2.85,1.44,14.5,14.5,0,0,0-2.45,2.2,25.92,25.92,0,0,0-3.54,5.41,47.2,47.2,0,0,0-2.54,6.06c-.8,2.25-1.49,4.55-2.09,6.86a62.14,62.14,0,0,0-2.13,14.82,25,25,0,0,0,.79,6.34,21.54,21.54,0,0,0,1.2,3.26,10.58,10.58,0,0,0,1.94,2.75,13.92,13.92,0,0,0,6,3.57,10.82,10.82,0,0,0,1.78.29,12.17,12.17,0,0,0,1.85.09,28,28,0,0,0,3.75-.46,26.81,26.81,0,0,0,6.8-2.25,34.21,34.21,0,0,0,5.42-3.27c1.75-1.21,3.44-2.5,5.08-3.84a4.27,4.27,0,0,0,.67-5.18,4.32,4.32,0,0,0-2.55-2,4.16,4.16,0,0,0-3.3.43c-1.12.78-2.26,1.52-3.41,2.24a59,59,0,0,1-6.16,3.49c-1,.4-2,.77-3.05,1.09a22.76,22.76,0,0,1-3,.62,13.07,13.07,0,0,1-1.52,0c-.31-.07-.61-.16-.9-.27a13.11,13.11,0,0,1-1.14-.68c-.18-.17-.35-.33-.51-.51a12.09,12.09,0,0,1-.6-1.08,20.39,20.39,0,0,1-.92-3.33,40.6,40.6,0,0,1,.19-9.11,68.31,68.31,0,0,1,4-15.65,29.09,29.09,0,0,1,2.85-5.18A14.5,14.5,0,0,1,472,307.5l.53-.32.38,1a3.3,3.3,0,0,0,1.44,1.88,3.14,3.14,0,0,0,4.6-3.54c-.56-1.56-1.06-3.41-2.27-4.62a5.35,5.35,0,0,0-2.55-1.31,5.19,5.19,0,0,0-1.13-.12,8.86,8.86,0,0,0-2.19.32m2.28,6.14.16.07Z"/><path class="cls-4" d="M506.72,308.94a4.41,4.41,0,0,0-3.14,3.63,9.3,9.3,0,0,0-1.46-.27,7.08,7.08,0,0,0-3.5.38,13.18,13.18,0,0,0-5.4,4.31,34.8,34.8,0,0,0-5.89,12.41,36.47,36.47,0,0,0-1.25,7.19,22,22,0,0,0,.77,7,20.07,20.07,0,0,0,1.34,3.38,15.82,15.82,0,0,0,2.07,3,13.84,13.84,0,0,0,2.61,2.33,7.93,7.93,0,0,0,4.33,1.21,7.36,7.36,0,0,0,1.25-.11,15.67,15.67,0,0,0,2.39-.45,12.5,12.5,0,0,0,3.25-1.51,21,21,0,0,0,5.26-5.25,23.6,23.6,0,0,0,3.19-6.35,29.64,29.64,0,0,0,1.52-7.12,54.31,54.31,0,0,0-.18-11.24c-.09-.91-.17-1.82-.27-2.73-.15-1.3-.37-2.6-.63-3.88a20.61,20.61,0,0,0-1.39-3.93,4.31,4.31,0,0,0-4.85-2m-5.08,9.81-.28,0,.28,0m-.22.12a20.43,20.43,0,0,1,2.19.74,2.46,2.46,0,0,0,1,.13c.07.94.13,1.87.2,2.8.13,1.76.26,3.52.28,5.29a45.2,45.2,0,0,1-.26,5.46,28.3,28.3,0,0,1-1.48,5.3,21.75,21.75,0,0,1-1.91,3.27,18.82,18.82,0,0,1-1.91,2,12.62,12.62,0,0,1-1.14.69,11.31,11.31,0,0,1-1.16.33H497l-.3-.19a14.26,14.26,0,0,1-1.12-1.13,15.25,15.25,0,0,1-1.1-1.9,19.54,19.54,0,0,1-.79-3,21.83,21.83,0,0,1,0-4.39,39.74,39.74,0,0,1,2.26-8.42,28.33,28.33,0,0,1,2.71-4.83,15.28,15.28,0,0,1,1.75-1.75,7.33,7.33,0,0,1,.64-.38h.39m.35,0,.36,0-.36,0m-.86,0-.2.08,0,0,.17-.06m-.17.06,0,0-.3.13.33-.15"/><path class="cls-4" d="M520.54,309.37a4.44,4.44,0,0,0-1.23,3c-.58,6.58-1.29,13.14-2.07,19.7-.83,6.16-1.7,12.31-2.31,18.5a4.07,4.07,0,0,0,6.12,3.51,3.9,3.9,0,0,0,1.87-2.43c2.13-13,3.66-26.13,4.8-39.28a4.06,4.06,0,0,0-1.23-3,4.21,4.21,0,0,0-6,0m-3.17,21.75-.08.56.08-.56"/><path class="cls-4" d="M549.41,293.59a3.8,3.8,0,0,0-2.16,1.45l-.66.85c-.23.51-.44,1-.63,1.56-.36,1-.73,1.92-1.09,2.89-.89,2.41-1.71,4.86-2.55,7.29-1.71,5-3.12,10.13-5.12,15-.43,1-.87,2-1.36,2.94a21,21,0,0,1-1.24,2.14c-.32-1-.62-2-.91-3-.47-1.59-.95-3.18-1.41-4.78l-1.62-5.66a45.38,45.38,0,0,0-2.27-6.22,30.66,30.66,0,0,0-3.54-5.83l-.74-1a4.71,4.71,0,0,0-7.87,2.08,4.51,4.51,0,0,0,.48,3.63,30.55,30.55,0,0,1,3.38,5.48c1,2.69,1.8,5.46,2.59,8.23.56,2,1.14,3.95,1.71,5.92a59.49,59.49,0,0,0,2.49,7.32,16.62,16.62,0,0,0,.73,1.54l.31.56c.36.49.73,1,1.11,1.45s.91.74,1.38,1.09a6.23,6.23,0,0,0,2.84.82c3.23,0,5.84-2.47,7.68-4.86a29.6,29.6,0,0,0,3.71-6.53,79.93,79.93,0,0,0,2.84-7.67q1-3.06,1.88-6.14l.09,1.38q.4,6.1.81,12.21c.24,3.59.49,7.19.71,10.78a96.24,96.24,0,0,0,1.2,12.72,4.66,4.66,0,0,0,2.2,2.85,4.78,4.78,0,0,0,6.54-1.72,5,5,0,0,0,.48-3.68c-.12-.63-.22-1.25-.32-1.88-1.13-9.27-2-18.57-2.74-27.87q-.27-3.34-.55-6.69c-.32-3.91-.58-7.83-1.21-11.7-.11-.66-.25-1.32-.35-2a7.94,7.94,0,0,0-.68-2.19,7,7,0,0,0-1.18-1.71,4.71,4.71,0,0,0-2.28-1.22,3,3,0,0,0-1-.15,12.2,12.2,0,0,0-1.71.21"/><path class="cls-4" d="M566.23,306.32a4,4,0,0,0-1.22,2.93q.77,6.38,1.48,12.76c.32,2.86.46,5.74.64,8.62.08,1.28,0,2.58,0,3.87s0,2.76-.09,4.14c-.13,2.73-.24,5.46-.53,8.18l-.09.52a4,4,0,0,0,.38,2.88,3.73,3.73,0,0,0,5.11,1.34,3.92,3.92,0,0,0,1.71-2.23,35.81,35.81,0,0,0,1.6-9.56c.1-1.39.19-2.76.21-4.15s.13-3.08,0-4.6c-.18-2.8-.29-5.6-.61-8.39q-.77-6.69-1.56-13.36c-.05-.37-.1-.73-.15-1.11a4.15,4.15,0,0,0-6.94-1.83"/><path class="cls-4" d="M579.42,296.29a14.69,14.69,0,0,0-4.79,1.59,11.88,11.88,0,0,0-3.86,3.32,9.45,9.45,0,0,0-1.35,2.35,16.35,16.35,0,0,0-.61,2.09,2.22,2.22,0,0,0,4.28,1.18,16.78,16.78,0,0,1,.51-1.8,9.68,9.68,0,0,1,.78-1.25,10.64,10.64,0,0,1,1.2-1.17,13.32,13.32,0,0,1,1.91-1.12,13.58,13.58,0,0,1,2.41-.65,12.26,12.26,0,0,1,2.34,0,12.11,12.11,0,0,1,2,.53,9.7,9.7,0,0,1,1.25.75,12.45,12.45,0,0,1,1.41,1.43,9.89,9.89,0,0,1,.77,1.34,13.23,13.23,0,0,1,.58,2.23,13.86,13.86,0,0,1,0,2.66,19.21,19.21,0,0,1-1,3.49,21.9,21.9,0,0,1-2.44,4.08,30.57,30.57,0,0,1-2.52,2.81c-.93.9-1.92,1.75-2.94,2.56-1.55,1.16-3.18,2.19-4.78,3.29a47,47,0,0,1-4.31,2.57,3,3,0,0,0,.71,5.46,3.17,3.17,0,0,0,2.3-.31,37.84,37.84,0,0,0,4-2.18c1-.61,1.93-1.32,2.9-2a42.66,42.66,0,0,0,4.21-3.39,33.14,33.14,0,0,0,3.57-3.68,33.73,33.73,0,0,0,3.07-4.38,21.88,21.88,0,0,0,2.1-5.34,14.93,14.93,0,0,0,.43-5.09,18.21,18.21,0,0,0-.38-2.38,14.38,14.38,0,0,0-.93-2.62,8.38,8.38,0,0,0-1.1-1.79,12.89,12.89,0,0,0-2-2.08,11.16,11.16,0,0,0-4.51-2.3,12.71,12.71,0,0,0-3.1-.37,14.61,14.61,0,0,0-2.06.15"/><path class="cls-4" d="M602.75,300.79a4.32,4.32,0,0,0-2.05,2.66q-.8,4.48-1.55,9c-.37,2.26-.84,4.53-1.09,6.81-.43,4-.87,8-1.24,12s-.73,8.15-1.25,12.2-1,8.18-1.45,12.29a4.12,4.12,0,0,0,3,4,4.18,4.18,0,0,0,5.07-2.88,49,49,0,0,0,1.72-8.4c.51-3.7,1-7.41,1.36-11.12.33-3,.52-6,.77-9,.24-2.81.57-5.62.87-8.43.76-4.66,1.53-9.32,2.36-14a4.75,4.75,0,0,0-.45-3.44,4.48,4.48,0,0,0-2.67-2,4.4,4.4,0,0,0-1.18-.16,4.47,4.47,0,0,0-2.25.61"/><path class="cls-4" d="M606.69,301.27a17.15,17.15,0,0,0-7.42,2.75,11.18,11.18,0,0,0-2.66,2.75,9.62,9.62,0,0,0-.72,1.47c-.21.45-.4.91-.58,1.38a2.78,2.78,0,0,0,.29,2.24,2.9,2.9,0,0,0,4,1,3.1,3.1,0,0,0,1.32-1.69,12.49,12.49,0,0,1,.83-1.6c.25-.26.5-.5.77-.73a11.42,11.42,0,0,1,1.46-.83,21.69,21.69,0,0,1,3.42-.88,19.86,19.86,0,0,1,3.6-.05,9.68,9.68,0,0,1,1.09.3,9.45,9.45,0,0,1,.87.51l.13.13a5.88,5.88,0,0,1,.3.51c.1.28.18.56.26.84a9.53,9.53,0,0,1,0,1.29,14.16,14.16,0,0,1-.61,2.2,32.84,32.84,0,0,1-3.06,5.11c-.64.89-1.27,1.77-1.91,2.65l-.94,1.29c-.4.55-.8,1.09-1.16,1.68a13.8,13.8,0,0,0-1.07,2.47,10,10,0,0,0-.37,2.3,12.66,12.66,0,0,0,.27,3.18,9.07,9.07,0,0,0,.57,1.88,24.12,24.12,0,0,0,1.27,2.78,23.83,23.83,0,0,0,2.07,3c.85,1.13,1.74,2.25,2.69,3.3.71.79,1.4,1.6,2.13,2.36,1.69,1.77,3.4,3.5,5.21,5.15a4.74,4.74,0,0,0,3.25,1.35,4.6,4.6,0,0,0,3.25-7.86c-1.62-1.64-3.21-3.31-4.82-5-1.94-2-3.92-3.95-5.68-6.11a18.27,18.27,0,0,1-1.45-2.44,11.11,11.11,0,0,1-.36-1.36c0-.16,0-.32,0-.49a9.74,9.74,0,0,1,.28-.94c.58-1.17,1.28-2.28,1.93-3.4.5-.85,1-1.7,1.51-2.54,2.43-4.11,4.77-9.1,3.29-14A9.09,9.09,0,0,0,618,304a8.62,8.62,0,0,0-3.28-2.2,12.18,12.18,0,0,0-4.56-.8,22.05,22.05,0,0,0-3.44.3m6.51,6.93,0,.05h0l0-.06m.05.06.19.25-.18-.23h0"/><path class="cls-4" d="M629.66,307.59a5.33,5.33,0,0,0-2.53,3.3c-.63,3.45-1.21,6.9-1.79,10.36-1,6-1.5,12.32,0,18.29a12.68,12.68,0,0,0,.58,1.52,24.57,24.57,0,0,0,1.31,2.74,12.44,12.44,0,0,0,4.08,4,14.29,14.29,0,0,0,2.62,1.22,16.6,16.6,0,0,0,2.07.67,15.29,15.29,0,0,0,5.41.3,20.47,20.47,0,0,0,5.49-1.43c1.21-.5,2.4-1,3.58-1.57s2.59-1.24,3.84-2a5.15,5.15,0,0,0-1.23-9.4,5.49,5.49,0,0,0-4,.52l-.69.32A42,42,0,0,1,641,339a16.45,16.45,0,0,1-1.72,0,15.31,15.31,0,0,1-1.55-.45c-.26-.14-.52-.28-.77-.43-.24-.38-.45-.76-.65-1.16a19,19,0,0,1-.66-2.79,46.35,46.35,0,0,1,.32-9.69c.59-3.54,1.17-7.08,1.82-10.61a5.84,5.84,0,0,0-.56-4.25,5.52,5.52,0,0,0-7.54-2m7.72,30.9.19.15-.19-.15"/><path class="cls-4" d="M645.28,323.09c-5.9,2.4-11.86,4.63-17.74,7.06l-1,.42a4.11,4.11,0,0,0,0,7.09,3.92,3.92,0,0,0,3.16.41c6.21-2.57,12.42-5.12,18.52-8a3.84,3.84,0,0,0,0-6.64,4.2,4.2,0,0,0-2-.55,2.5,2.5,0,0,0-.94.17"/><path class="cls-4" d="M651.76,300.23c-1.87.31-3.73.71-5.59,1.12-1.45.32-2.91.66-4.34,1.1s-3.13.91-4.64,1.51c-2.56,1-5.11,2.06-7.64,3.16a4.31,4.31,0,0,0-2.07,2.69,4.52,4.52,0,0,0,3.15,5.55l1.2.16a4.48,4.48,0,0,0,2.27-.62l1.11-.48c1.55-.64,3.11-1.26,4.67-1.89s3.08-1,4.62-1.55c1.32-.43,2.68-.77,4-1.11,1.84-.47,3.67-.93,5.53-1.31a4.32,4.32,0,0,0,1-7.9,4,4,0,0,0-2.09-.55,7.76,7.76,0,0,0-1.24.12"/><path class="cls-4" d="M678.89,299a50.49,50.49,0,0,0-5.89.72,12.61,12.61,0,0,0-5.71,2.57,12.06,12.06,0,0,0-1.86,2,9.91,9.91,0,0,0-1.37,3.1,16.87,16.87,0,0,0-.27,6.64,83,83,0,0,0,1.62,8.84c.54,2.5,1.08,5,1.45,7.52a30.68,30.68,0,0,1,.11,6.75,18.71,18.71,0,0,1-.87,3.41,21.68,21.68,0,0,1-2.11,3.51,16.85,16.85,0,0,1-1.62,1.74,4.46,4.46,0,0,0-1.09.15,4.3,4.3,0,0,0-3,5.28l.43,1a4.29,4.29,0,0,0,1.54,1.54,5.12,5.12,0,0,0,4.32.72,8.19,8.19,0,0,0,3.5-2.3,14,14,0,0,0,1.3-1.63c.39-.53.74-1.09,1.07-1.66a27.4,27.4,0,0,0,1.83-3.77,20.28,20.28,0,0,0,1-3.3,24.81,24.81,0,0,0,.48-4.12,34.51,34.51,0,0,0-.83-8c-1.21-6.26-3.94-12.14-4.88-18.46a14.63,14.63,0,0,1,0-2.66,11.17,11.17,0,0,1,.54-2.07,9.35,9.35,0,0,1,.71-1.16,10.11,10.11,0,0,1,1-1,13.47,13.47,0,0,1,1.8-1,18.1,18.1,0,0,1,3.66-.94q1.54-.18,3.09-.31A1.57,1.57,0,0,0,679,299h-.1m-3.25,3.46-.16,0,.16,0m-6.89,3.75,0,.12,0-.12"/><path class="cls-4" d="M689,300.27c-4,2.8-5.6,7.64-5.51,12.35,0,1,.14,2,.25,2.93.15,1.34.33,2.68.56,4,.26,1.52.59,3,.89,4.53.48,2.45,1,4.89,1.35,7.36a44.06,44.06,0,0,1,.11,9.67,24,24,0,0,1-1.16,4.47,16.3,16.3,0,0,1-1.07,1.81,25,25,0,0,1-3,2.94c-.3.2-.59.39-.9.57l-.6.14a4.86,4.86,0,0,0-2.14,8.12,4.67,4.67,0,0,0,3.44,1.43c.63-.06,1.25-.14,1.87-.24a8.35,8.35,0,0,0,2.23-.77,15.67,15.67,0,0,0,3.08-2.12,19.58,19.58,0,0,0,5.26-6.7,23.64,23.64,0,0,0,2-7.77,41.84,41.84,0,0,0,0-8.34,71.72,71.72,0,0,0-2.07-10.95q-.33-1.31-.66-2.61c-.64-2.55-1.24-5.08-1.65-7.68a18.67,18.67,0,0,1-.07-3.65,14.82,14.82,0,0,1,.52-1.91c.2-.38.4-.74.64-1.1a10.7,10.7,0,0,1,1-1.06l.29-.18.33.45a3.58,3.58,0,0,0,2,1.53,3.34,3.34,0,0,0,3.77-4.9c-.4-.56-.79-1.11-1.2-1.66a5.9,5.9,0,0,0-2.8-2.2,5.23,5.23,0,0,0-1.78-.3,9.08,9.08,0,0,0-5,1.82m4.65,5.21h0l-.21.09.2-.09m-2.33,8.41,0,.2,0-.2"/><path class="cls-4" d="M713.81,303.23a4.48,4.48,0,0,0,0,6.28l.24.24a2.41,2.41,0,0,0-.7.17c-.8.34-1.61.66-2.39,1a13.79,13.79,0,0,0-2.64,1.69,19.6,19.6,0,0,0-4,4.38,28.89,28.89,0,0,0-2.84,5.94,28.06,28.06,0,0,0-1.67,6.42,30.4,30.4,0,0,0-.3,3.42,19.56,19.56,0,0,0,.29,3.44,18.54,18.54,0,0,0,1.84,5.58,9.23,9.23,0,0,0,4,4.22,10.25,10.25,0,0,0,6.59.84,14.31,14.31,0,0,0,5.53-2.61,18.63,18.63,0,0,0,2.48-2.2,23.85,23.85,0,0,0,2.08-2.71,23.33,23.33,0,0,0,2.75-5.85,32.7,32.7,0,0,0,1.2-6.66,44.4,44.4,0,0,0-.73-13c-.18-1-.43-2-.68-3a22,22,0,0,0-1.24-3.28,12.51,12.51,0,0,0-3.53-4.34,4.68,4.68,0,0,0-3.14-1.3,4.46,4.46,0,0,0-3.14,1.3m2.75,14.31.21-.13,0,.26c.19,1.74.35,3.48.41,5.24a31.65,31.65,0,0,1-.29,4.78,24.9,24.9,0,0,1-1.12,4.47,22,22,0,0,1-1.87,3.25A16,16,0,0,1,712.3,337a14.62,14.62,0,0,1-1.57.9l-.42.12h-.63a16.63,16.63,0,0,1-.84-1.47,15.85,15.85,0,0,1-.63-2.26,21.22,21.22,0,0,1,0-4,32.37,32.37,0,0,1,1.76-6.08,22.38,22.38,0,0,1,2-3.62,17.12,17.12,0,0,1,1.65-1.63,20,20,0,0,1,2.11-1.14l.8-.34m-1.32.56-.43.18.43-.18m1.66.17,0,.35,0-.35m-7.66,19.26.3.39a4.77,4.77,0,0,1-.3-.39m-.09.21.21.16-.21-.16m.66.43.35.15-.35-.15"/><path class="cls-4" d="M735.94,307.1a3.06,3.06,0,0,0-.92,2.23,94.87,94.87,0,0,1-.43,20.81c-1.14,8.14-2.87,16.18-4,24.31l-.13,1a3.65,3.65,0,0,0,.5,1.87,3.7,3.7,0,0,0,5.06,1.33,3.69,3.69,0,0,0,1.83-3.2c.3-3,.68-6.07,1.07-9.1q.72-5.25,1.47-10.5c.54-3.77,1-7.55,1.23-11.34a97.62,97.62,0,0,0-.27-15.16,3.35,3.35,0,0,0-.92-2.23,3.15,3.15,0,0,0-4.45,0"/><path class="cls-4" d="M743.7,302.49a13.77,13.77,0,0,0-6.87,4.1,8.06,8.06,0,0,0-1.69,3.2,8.41,8.41,0,0,0,.17,3.78,2.6,2.6,0,0,0,4.75.62,2.81,2.81,0,0,0,.26-2c0-.27-.09-.55-.14-.82,0-.07,0-.15,0-.22s0-.19.08-.29a6.27,6.27,0,0,1,.43-.73,8.31,8.31,0,0,1,.66-.64,13,13,0,0,1,1.74-1.06,15.18,15.18,0,0,1,2.89-.79,16.46,16.46,0,0,1,2.68,0,12.09,12.09,0,0,1,1.66.41,9.86,9.86,0,0,1,.88.54,6.32,6.32,0,0,1,.47.46l.08.14,0,.16a10.52,10.52,0,0,1,0,1.11,9.7,9.7,0,0,1-.34,1.27,25,25,0,0,1-1.83,2.91,42.54,42.54,0,0,1-4.82,4.9c-1.3,1.14-2.67,2.2-3.93,3.37a6,6,0,0,0-1.57,4.48,8.46,8.46,0,0,0,.44,2.35,13.23,13.23,0,0,0,1.37,2.79,42.22,42.22,0,0,0,6.13,7.63A95.82,95.82,0,0,0,755,347c2.24,1.83,4.5,3.65,6.84,5.34a5.05,5.05,0,0,0,4,.53,5.23,5.23,0,0,0,1.25-9.56c-3.92-2.39-7.78-4.93-11.45-7.7a45.35,45.35,0,0,1-6.91-6.67c-.43-.59-.86-1.18-1.23-1.8.65-.69,1.32-1.36,2-2.05,1.42-1.49,2.8-3,4.13-4.58a21.58,21.58,0,0,0,4-6.53,10.72,10.72,0,0,0,.38-5.87l-.14-.54-.52-1.24a8.91,8.91,0,0,0-2.25-2.42,10.56,10.56,0,0,0-3.37-1.65,10.76,10.76,0,0,0-2-.31c-.63-.05-1.26-.08-1.89-.09h-.11a16.62,16.62,0,0,0-4,.59m7.58,6.09.2.25h0l-.18-.23m.18.24h0l.08.12Zm.39,1v0m-11.78,1.78,0,.16,0-.16m7.38,15.71.14.33c-.05-.11-.1-.22-.14-.33Zm-.13.14h0"/><path class="cls-3" d="M128.74,377.66c-2,0-4.05.12-6.07.18s-3.84,0-5.76,0c-2.82,0-5.64-.08-8.47,0-1.25,0-2.5.08-3.75.17s-2.38.21-3.57.24a37,37,0,0,0-5.32-.07c-.68.07-1.36.18-2,.22l-.6,0a3.73,3.73,0,0,0-2.06.77,3.57,3.57,0,0,0-1.17,4.18A3.76,3.76,0,0,0,92,385.51a5.51,5.51,0,0,0,1.32.29,3.2,3.2,0,0,0,1.79.74c2.48.06,5-.16,7.43-.32,1.93-.13,3.85-.24,5.78-.28,3.43-.07,6.86-.1,10.29-.07,2,0,3.94.09,5.91.2,2.18.13,4.36.34,6.54.54s4.11.29,6.16.52a18.22,18.22,0,0,0,3,.19,7.74,7.74,0,0,0,1.45-.35,4.18,4.18,0,0,0,2.79-3.37,4.07,4.07,0,0,0-.25-2.12,4.34,4.34,0,0,0-2.14-2.21,8.25,8.25,0,0,0-2.19-.66l-1.43-.3c-1-.2-2-.33-3-.45a36.32,36.32,0,0,0-4.41-.21h-2.21"/><path class="cls-3" d="M124.53,446.9c-2.73,0-5.45.17-8.17.36s-5.26.45-7.9.5h-.9c-1.05,0-2.11-.1-3.16-.09a6.07,6.07,0,0,0-1.7.37,3.16,3.16,0,0,0-2.28,1.79,3.53,3.53,0,0,0-.18.7,3,3,0,0,0-.8,2.36,2.79,2.79,0,0,0,.12.54v0a3.32,3.32,0,0,0-.25,1.72v.07a3.29,3.29,0,0,0,.62,1.54,3.16,3.16,0,0,0,2.14,1.28,49.66,49.66,0,0,0,5.9-.14c1.67-.08,3.33-.15,5-.15h.17l3,0,3.88.1c1.62,0,3.22,0,4.83-.14,1.28-.09,2.56-.09,3.84-.13s2.62-.1,3.92-.17a50,50,0,0,0,7.63-1.15c.74-.16,1.48-.35,2.2-.56a4.38,4.38,0,0,0,2.27-1.37,3.55,3.55,0,0,0,.57-1,1.84,1.84,0,0,0,.65-1.1,1.71,1.71,0,0,0-.32-1.27,1.6,1.6,0,0,0-.17-.2,3.41,3.41,0,0,0-.62-1.46l-.61-.62a3.4,3.4,0,0,0-1.64-.71,14,14,0,0,0-2.62-.22c-.71,0-1.41-.09-2.12-.16-1.46-.15-2.91-.34-4.36-.5a52.78,52.78,0,0,0-5.85-.27l-3,0m-11.41,10.89h0"/><path class="cls-3" d="M100.84,447.76c-.57.1-1.12.28-1.68.43a5,5,0,0,0-.9.3,5.27,5.27,0,0,0-1.51,1.15,4.87,4.87,0,0,0-.6.94,5.14,5.14,0,0,0-.38,1.13,4.89,4.89,0,0,0-.05,1.78,7,7,0,0,0,1.08,2.57,4.9,4.9,0,0,0,1,1.1,8.3,8.3,0,0,0,1.55.94,3.44,3.44,0,0,0,4.15-5.21,11.69,11.69,0,0,0-.91-1l.49-.17a8.79,8.79,0,0,1,1.21-.21l.06,0a1.67,1.67,0,0,0,2.09-2.6,4.06,4.06,0,0,0-.71-.5,4.9,4.9,0,0,0-1.43-.45,14.64,14.64,0,0,0-1.49-.22,9.7,9.7,0,0,0-1.12-.08,4.9,4.9,0,0,0-.84.07m3.35,3.72h0m.31,0,.13,0-.13,0"/><path class="cls-3" d="M92,380.91a3,3,0,0,0-.76,5.19,3.53,3.53,0,0,0,3.44.48,4.42,4.42,0,0,0,1-.62l.19-.07c.44-.1.88-.22,1.32-.35a2.28,2.28,0,0,0,1.29-1.24,2.37,2.37,0,0,0-1.21-3.13,2.53,2.53,0,0,0-1.84,0l-.17.05h-.06l-.25,0,0,0L94.6,381a2.92,2.92,0,0,0-1.33-.3,3.12,3.12,0,0,0-1.23.24"/><path class="cls-3" d="M95.34,378.06l-1.21,0-1.66.06-4.25.2c-2.51.12-5,.23-7.53.37s-5.17.3-7.75.47l-3.48.23c-.54,0-1.08,0-1.62,0-.34,0-.68,0-1,0a6.41,6.41,0,0,0-2.7,1,3,3,0,0,0-1.21,3.47,3,3,0,0,0,3.8,1.91l.11,0a8.21,8.21,0,0,0,.82.11A3.39,3.39,0,0,0,70.25,387c5.57-.25,11.15-.46,16.73-.57,1.39,0,2.79,0,4.19,0s3,0,4.47,0c1.24,0,2.49-.1,3.73-.18a45.92,45.92,0,0,0,4.75-.42l.83-.15a3.13,3.13,0,0,0,2.14-3.12,3.12,3.12,0,0,0-2.44-2.89,3.2,3.2,0,0,0-.84-.07h0c-1.38,0-2.77.05-4.14.11a3.84,3.84,0,0,0-2.14-1.41A5.37,5.37,0,0,0,96,378h-.71"/><path class="cls-3" d="M106,448.33l-2.84.09c-1.2,0-2.39.1-3.59.16-1.8,0-3.59,0-5.39.09s-3.32.25-5,.44q-8.49.47-17,1.08a3.51,3.51,0,0,0-3.29,3.64,3.43,3.43,0,0,0,1.16,2.4,3.22,3.22,0,0,0,1.69,1.54,6.93,6.93,0,0,0,2.73.55c.53,0,1.05.07,1.59.09l.81,0a3.56,3.56,0,0,0,1.73.35,19.72,19.72,0,0,0,3.41-.29h.07c1.23,0,2.46-.05,3.68-.11s2.69-.17,4-.31c2.25-.06,4.51-.12,6.76-.15h.14l2.71.05a21.51,21.51,0,0,0,3.21,0,4.23,4.23,0,0,0,2.12-.69,4.31,4.31,0,0,0,1.57-1.85c.86,0,1.72-.07,2.57-.08a3.45,3.45,0,0,0,1.42-6.51,6.57,6.57,0,0,0-1.12-.44,10.39,10.39,0,0,0-2.07-.12l-1.12,0"/><path class="cls-3" d="M78.73,401a17.85,17.85,0,0,0-4.17.89,11.33,11.33,0,0,0-4,2.8,18.69,18.69,0,0,0-2.75,3.88,25.13,25.13,0,0,0-2,5,22.32,22.32,0,0,0-.8,5,14,14,0,0,0,.83,5.6,11.48,11.48,0,0,0,6.65,6.84,13.09,13.09,0,0,0,5.4.94,12.28,12.28,0,0,0,2.53-.47,11.43,11.43,0,0,0,2.81-1.27,11.64,11.64,0,0,0,2-1.68,11.3,11.3,0,0,0,1.43-1.76,17.54,17.54,0,0,0,1.37-2.21,22,22,0,0,0,1.13-3,23.66,23.66,0,0,0,1-4.59,18.83,18.83,0,0,0-.09-5.74,16.39,16.39,0,0,0-.64-2.59,11,11,0,0,0-1.28-2.37,17.07,17.07,0,0,0-3.54-3.74,3.64,3.64,0,0,0-2.54-.9,3.53,3.53,0,0,0-1.15.26A2.67,2.67,0,0,0,79,401l-.28,0m.29,5.77.14,0a4.82,4.82,0,0,0,.76,1l.75.82a15.86,15.86,0,0,1,1.5,2.21,11.6,11.6,0,0,1,.4,1.31,19,19,0,0,1,.12,3.16,25.47,25.47,0,0,1-1.1,5,14.93,14.93,0,0,1-1.11,2.16,12.23,12.23,0,0,1-1.16,1.3c-.23.16-.46.31-.7.45a10.75,10.75,0,0,1-1.12.37,9.65,9.65,0,0,1-1.17.05,12.51,12.51,0,0,1-1.47-.33,12.38,12.38,0,0,1-1.21-.61,9.12,9.12,0,0,1-.79-.7,11.58,11.58,0,0,1-.81-1.25,12.43,12.43,0,0,1-.51-1.6,15.5,15.5,0,0,1-.13-2.81,21.12,21.12,0,0,1,.94-4.18,20.8,20.8,0,0,1,1.76-3.47A15,15,0,0,1,75.52,408a9.94,9.94,0,0,1,1.1-.72,11.45,11.45,0,0,1,1.32-.38l1.08-.15"/><path class="cls-3" d="M1078.55,399.29a15,15,0,0,0-2.3.49,12.83,12.83,0,0,0-2.58,1.09,17.16,17.16,0,0,0-4.63,3.52,15.67,15.67,0,0,0-1.54,2.15,10.82,10.82,0,0,0-1,2.13,17.3,17.3,0,0,0-.79,2.75,15.06,15.06,0,0,0-.2,2.88,15.54,15.54,0,0,0,.42,2.9,9.75,9.75,0,0,0,1.11,2.59,12.94,12.94,0,0,0,1.75,2.23,11.06,11.06,0,0,0,2.68,2.06,12,12,0,0,0,2.64,1.08,12.24,12.24,0,0,0,2.24.47,14.58,14.58,0,0,0,5.76-.57,11.94,11.94,0,0,0,2.57-1.22,14.24,14.24,0,0,0,2.26-1.87,13.9,13.9,0,0,0,3.3-5.48,16.87,16.87,0,0,0-.09-10.78,9.16,9.16,0,0,0-3.85-4.66,11.41,11.41,0,0,0-2.71-1.16,17.41,17.41,0,0,0-3-.7,6.11,6.11,0,0,0-.86-.07,4.11,4.11,0,0,0-1.19.17m-1.1,7a4.67,4.67,0,0,0,1.44.66l.66.19c.39.15.78.31,1.16.49a3.08,3.08,0,0,0,.87.48l0,0,.13.19c.07.22.13.43.18.65a17.39,17.39,0,0,1,.17,2.58,16.81,16.81,0,0,1-.52,2.33A11.8,11.8,0,0,1,1081,415a13.23,13.23,0,0,1-.89,1c-.25.18-.5.35-.77.51s-.68.23-1,.32a11.76,11.76,0,0,1-1.24.06,11.18,11.18,0,0,1-1.4-.31c-.29-.14-.56-.28-.84-.44a10.28,10.28,0,0,1-.81-.73c-.14-.19-.27-.39-.39-.59s-.21-.62-.29-.94a12.25,12.25,0,0,1-.1-1.45,14.79,14.79,0,0,1,.4-2,6.47,6.47,0,0,1,2-2.91,15.43,15.43,0,0,1,1.79-1.22"/><path class="cls-3" d="M124.58,400.27a19.82,19.82,0,0,0-4,1,4,4,0,0,0-2.72,3.74c-.55.42-1.08.86-1.61,1.34a13.53,13.53,0,0,0-3.42,5.39A14.93,14.93,0,0,0,117.16,428a11,11,0,0,0,2.75,1.66,10.67,10.67,0,0,0,3.11.87,9.73,9.73,0,0,0,2.78,0,14.86,14.86,0,0,0,3.29-.9,15.81,15.81,0,0,0,5.63-4,16.33,16.33,0,0,0,1.71-2.45,18.39,18.39,0,0,0,1.44-3.41,13,13,0,0,0,.6-3.67,16.45,16.45,0,0,0-.12-3.14,19.57,19.57,0,0,0-.62-2.93,19.07,19.07,0,0,0-1.39-3.15,13.33,13.33,0,0,0-2.08-2.73,13,13,0,0,0-2.75-2.18,14.94,14.94,0,0,0-3.36-1.49,9.39,9.39,0,0,0-1.79-.21l-.7,0a8.08,8.08,0,0,0-1.08.07M122.06,409a18.69,18.69,0,0,1,2.86-.25l.61.14.37.2a14.52,14.52,0,0,1,1.51,1.35,12.42,12.42,0,0,1,.67,1,13.89,13.89,0,0,1,.61,1.91,16.3,16.3,0,0,1,.13,2.38,14.28,14.28,0,0,1-.4,1.81,14,14,0,0,1-.84,1.61,13.49,13.49,0,0,1-1.1,1.22,13.94,13.94,0,0,1-1.39.91c-.35.14-.7.27-1.07.38l-.57,0c-.32-.06-.62-.13-.93-.22s-.52-.25-.77-.4a14.16,14.16,0,0,1-1.3-1.18,13.56,13.56,0,0,1-1-1.58,14,14,0,0,1-.64-1.91,13.32,13.32,0,0,1-.09-2.06,14.34,14.34,0,0,1,.49-2.25,13.27,13.27,0,0,1,1-1.93,14.89,14.89,0,0,1,1-1.22,2.73,2.73,0,0,0,.51,0l.36,0"/></g></svg>