<svg xmlns="http://www.w3.org/2000/svg" viewBox="0 0 1077.54 1446.05"><title>Asset 1</title><g id="Layer_2" data-name="Layer 2"><g id="Layer_1-2" data-name="Layer 1"><path d="M590.83,1211a170,170,0,0,0-17.73,2.06c-5,.79-9.93,1.65-14.85,2.7a104.68,104.68,0,0,0-17.09,2.12,146.8,146.8,0,0,0-16.9,4.7,124.58,124.58,0,0,0-30.07,15.07,105,105,0,0,0-10.91,8.5c-1.13.92-2.22,1.9-3.29,2.87q-.73.67-1.44,1.36l-1.67,1.29a112.47,112.47,0,0,0-23.28,24,113.84,113.84,0,0,0-8.63,14.8,101.39,101.39,0,0,0-6.13,15.59,109.26,109.26,0,0,0-3.55,16.57,96.51,96.51,0,0,0-.81,17.24,73.74,73.74,0,0,0,2.39,15.95,91.72,91.72,0,0,0,5.79,15.68q1.52,3.21,3.3,6.29a55.36,55.36,0,0,0,5.16,8.78,70.18,70.18,0,0,0,11.25,12.16,59.17,59.17,0,0,0,4.74,3.75,140.12,140.12,0,0,0,21.32,14.2,134.16,134.16,0,0,0,15.94,7.5,159.11,159.11,0,0,0,16.6,5.4c5.75,1.55,11.58,2.82,17.43,3.92a160.3,160.3,0,0,0,17.18,2.35,91.76,91.76,0,0,0,17.74-.27,85.8,85.8,0,0,0,14.83-3.17,61,61,0,0,0,14.38-6.13,42.19,42.19,0,0,0,6.07-4.41,55,55,0,0,0,5.63-5.94q.83-1,1.6-2a32,32,0,0,0,10.33-6.39,50.71,50.71,0,0,0,9.47-12.63q1.59-2.94,2.93-6a76.57,76.57,0,0,0,4.82-10.77,120.15,120.15,0,0,0,4.39-16c1.09-5.06,1.9-10.18,2.51-15.32a120.05,120.05,0,0,0,.61-17.77q-.13-4.32-.45-8.63a174.38,174.38,0,0,0,2.31-33.42c-.17-11.8-.81-23.7-3.27-35.27a110,110,0,0,0-4.79-15.85,47.52,47.52,0,0,0-2.95-6.43,37.13,37.13,0,0,0-2.13-3.35,21.15,21.15,0,0,0-3-3.26,38.47,38.47,0,0,0-12.9-7.42,78.21,78.21,0,0,0-15-3.75l-1.49-.22a88.66,88.66,0,0,0-16.38-.41m12.92,8.68a72.33,72.33,0,0,1,9.18,1.53,58.16,58.16,0,0,1,12.72,4.57,31.23,31.23,0,0,1,5.07,3.54,21.39,21.39,0,0,1,2.39,3,62.21,62.21,0,0,1,5.4,13.23,115.64,115.64,0,0,1,4.23,23.34q-1.26-5.43-2.88-10.76a162.28,162.28,0,0,0-5.84-15.79,55.32,55.32,0,0,0-3.15-6.34c-.72-1.23-1.5-2.43-2.34-3.59a24.28,24.28,0,0,0-3.2-3.45,27.56,27.56,0,0,0-6.19-4.15,41.36,41.36,0,0,0-7.08-2.87,70.45,70.45,0,0,0-11.51-2.45q1.61.08,3.22.23m7.16,13.64c1.18.46,2.34,1,3.47,1.55a25,25,0,0,1,3.48,2.41,22.43,22.43,0,0,1,2,2.39,38.86,38.86,0,0,0-4.29-2.72q-1-.54-1.94-1-1.3-1.35-2.7-2.6m-71.73-3.84q-3.12,1.14-6.2,2.4l-.64-.08q3.4-1.21,6.84-2.33m56.48,14.59q-1.73-.95-3.51-1.79a38.14,38.14,0,0,1,5.93,2.3,33.9,33.9,0,0,1,4.65,3.32l-1.66-.63-.48-.17a51.48,51.48,0,0,0-4.93-3m-69.56-9.19q-4.32,1.71-8.51,3.73a140.12,140.12,0,0,0-14.94,8.43,112.62,112.62,0,0,0-13.3,9.95,98.08,98.08,0,0,0-11.8,12.25q-3.57,3.88-6.84,8c-1,1.28-2,2.58-3,3.89a109,109,0,0,1,15.18-20.58,114,114,0,0,1,9.88-9.19c2.29-1.89,4.68-3.65,7.13-5.33,5.34-2.93,10.86-5.55,16.45-8q3.71-1.6,7.47-3.09,1.06-.08,2.11-.13h.17m-.37,0h0m36.59,25.88c-2.83.39-5.65.91-8.42,1.57a116.75,116.75,0,0,0-17.47,6c-5.49,2.27-10.81,4.85-16,7.64a121.24,121.24,0,0,0-15.58,9.58,149.81,149.81,0,0,0-13.13,11.3q-3.15,3-6.13,6.13,2.5-3,5.17-5.93,4.07-4.25,8.53-8.09a89.32,89.32,0,0,1,10.41-7.7c5.5-3.41,11.14-6.59,16.92-9.49a139,139,0,0,1,19.19-8.28c3-.89,6-1.61,9.11-2.23,2-.23,4.07-.38,6.12-.47l1.34,0m20,9.55a70.27,70.27,0,0,1,9.13,1.21,30.5,30.5,0,0,1,4.31,1.49c.54,1.64,1.08,3.27,1.6,4.91,1.18,3.86,2.24,7.76,3.16,11.7,1,4.43,1.87,8.92,2.7,13.4a183,183,0,0,1,3.22,25.57c.16,6,0,12-.34,18a110.5,110.5,0,0,1-2.29,17.78,56.57,56.57,0,0,1-4.5,12.28,51.26,51.26,0,0,1-6.5,8.95l-.52.52q-1.65.46-3.31.84c.19-.36.36-.73.53-1.09a9.89,9.89,0,0,0,.55-1.76,28.52,28.52,0,0,0,.66-3.4,54,54,0,0,0,.21-8.84c-.08-1.91-.19-3.83-.28-5.74a128.59,128.59,0,0,0-1.17-13.68,5.84,5.84,0,1,0-11.5,2c.46,2.9.67,5.8.9,8.73.1,1.34.13,2.68.19,4,.09,1.85.19,3.71.28,5.56,0,1.42,0,2.83-.1,4.25a34,34,0,0,1-.36,3.75c-.1.33-.22.65-.35,1a15.2,15.2,0,0,1-1.14,1.51,22.76,22.76,0,0,1-2.92,2.34,50.92,50.92,0,0,1-7.37,3.46,121.9,121.9,0,0,1-23.7-3,107.65,107.65,0,0,1-24.91-9.22,83.37,83.37,0,0,1-16-11.65,82.17,82.17,0,0,1-12.19-14.68,63.19,63.19,0,0,1-6-13.14,78.23,78.23,0,0,1-2.79-13.91q1.21-1.79,2.54-3.51c2.55-3.3,5.35-6.42,8.2-9.48,3.65-3.85,7.48-7.51,11.44-11a101.6,101.6,0,0,1,12.34-9.55,176.6,176.6,0,0,1,16.77-9,147.66,147.66,0,0,1,18.49-7.4,91.43,91.43,0,0,1,22.06-3.43c3-.07,5.95,0,8.92.24m-98.79-10.41-.34.36.34-.36m7,37.37-.37.39.37-.39m126.62,71.94c3.16-11.61,4-23.63,4.59-35.6q.08-1.62.15-3.24l0,.14q.53,3.69,1,7.39a118.41,118.41,0,0,1-2.24,26.38,74.44,74.44,0,0,1-2.66,8.45q-1.24,1-2.54,2,.93-2.74,1.7-5.52m-138.69-19.64a73.74,73.74,0,0,0,6.92,11.34,90.31,90.31,0,0,0,11.34,12.54,81.94,81.94,0,0,0,12.58,9.7,96.34,96.34,0,0,0,15.14,7.63c2.75,1.11,5.55,2.09,8.38,3q-3.27-.43-6.53-1l-2.91-.65q-3.14-.76-6.26-1.61l-.86-.45a109,109,0,0,1-10.89-6.85,101.31,101.31,0,0,1-21.75-21.7,88.47,88.47,0,0,1-5.16-12m77.33,43.14-.48.15Zm27.8,30.5a83,83,0,0,1-18.16,3,118.17,118.17,0,0,1-18.56-1.18q-4.78-.64-9.54-1.53c7.59.41,15.21.36,22.8.1,3.18-.11,6.36-.25,9.53-.44a82.14,82.14,0,0,0,13.94,0"/><path d="M492.73,1269.58c-.34.44-.69.87-1,1.31a9.26,9.26,0,0,0-1.17,1.9,17.55,17.55,0,0,0-1.11,3.3,45.67,45.67,0,0,0-1.24,8.37c-.16,2.46-.2,4.93-.33,7.39,0,.1,0,.2,0,.3a3.82,3.82,0,0,0-3.1.82l-.21.14c-.58.35-1.16.7-1.73,1.08a4.78,4.78,0,0,0-.57.44l.13-3c.07-1.61.26-3.22.44-4.83a2,2,0,0,0-3.89-.38c-.4,2.49-.86,5-1.21,7.46-.4,2.78-.6,5.6-.84,8.4q-.68,8.13-.78,16.29a234.08,234.08,0,0,0,1.76,32.56,150.18,150.18,0,0,0,2.86,15.55c.41,1.74.44,3.55.89,5.28a8.23,8.23,0,0,0,1.3,2.9,6.93,6.93,0,0,0,2.75,2.08,5.66,5.66,0,0,0,.77.29,4.15,4.15,0,0,0,1.51,1,4.44,4.44,0,0,0,4.42-.71c.72-.63,1.49-1.2,2.26-1.78.12.65.23,1.3.33,2a24.24,24.24,0,0,0,1.54,5.93,13.29,13.29,0,0,0,3.68,4.5l.15.15a4.89,4.89,0,0,0,4.62,1.72,4.7,4.7,0,0,0,2.23-1c.09.21.19.42.29.62a11.11,11.11,0,0,0,1.09,1.68,7.22,7.22,0,0,0,2.62,2,7.09,7.09,0,0,0,3.19.64,11.82,11.82,0,0,0,4.4-.77,7.64,7.64,0,0,0,2.65-1.75,18.42,18.42,0,0,0,1.41-1.57,14.45,14.45,0,0,0,1.29-2.2,24.52,24.52,0,0,0,1.94-6c.48-2.1.73-4.25,1-6.38s.63-4.31.9-6.47c.34-2.79.51-5.6.61-8.41.21-5.42.07-10.86-.06-16.29-.32-13.26-2.18-26.4-3.89-39.52-.46-3.52-1.05-7-1.58-10.53-.17-1.14-.36-2.28-.54-3.42a27,27,0,0,0-.71-3.33,24.18,24.18,0,0,0-1.39-3.89,8.26,8.26,0,0,0-1.14-1.72,6,6,0,0,0-2.3-1.67,7.55,7.55,0,0,0-2.16-.4l-1.28,0a7.43,7.43,0,0,0-1.69.46,8.41,8.41,0,0,0-3.15,2.05l-.43.42q-.27-1.92-.56-3.84a5,5,0,0,0-6.46-3.86c-.16-1.13-.33-2.25-.5-3.38a4.41,4.41,0,0,0-2.76-3.37,4.32,4.32,0,0,0-1-.25,4.52,4.52,0,0,0-4.17,1.78m17.3,23.09a4.49,4.49,0,0,0,2.5-1.37c.07.49.14,1,.2,1.47.12.9.25,1.81.38,2.71q.4,2.88.8,5.77c.34,2.49.68,5,1,7.47,1.35,11.07,2.79,22.15,3.24,33.31.22,6.82.29,13.67-.13,20.47-.1,1.72-.27,3.44-.47,5.16s-.49,3.35-.72,5c-.35,2.54-.63,5.08-1.15,7.59l-.05.18-.12-.45c-.72-2.6-1.39-5.2-2-7.82l.05-.42a127.8,127.8,0,0,0,.47-16c0-2.58,0-5.15-.06-7.74-.08-3-.21-6.07-.38-9.1-.14-2.59-.31-5.17-.49-7.76-.12-1.78-.21-3.57-.37-5.34q-.57-6.43-1.14-12.87c-.26-2.92-.49-5.83-.82-8.74-.42-3.74-.8-7.48-1.26-11.22l0-.25a4.51,4.51,0,0,0,.56-.06m-24.14,20.66c.1-1.46.16-2.92.23-4.39l.49,2.82q.51,2.94,1,5.88c.05,1.59.13,3.17.24,4.76l1.07,14.85q.23,3.15.45,6.3c0,.68.08,1.35.18,2l1.44,10.14.76,5.35c.1.7.17,1.41.31,2.1l.14.68a26.77,26.77,0,0,1-1.15,2.75l-.27.43c-.46-2-.67-4-1-6-.1-.65-.22-1.31-.32-2q-.64-4-1.28-8c-.43-2.65-.79-5.3-1.12-8q-.55-4.4-.88-8.8l.24-.09a1.46,1.46,0,0,0,.72-1.93c-.46-.88-.89-1.74-1.27-2.65q-.08-1.49-.14-3a128.93,128.93,0,0,1,.15-13.28m13.67,74.26.31.3-.31-.3"/><path d="M593.6,1198.42c-3.69.11-7.37.31-11.05.53q-8,.48-15.95,1.13-9.1.73-18.17,1.64c-7.72.78-15.13,3-22.5,5.37a120.1,120.1,0,0,0-14.59,5.69l-9.88,4.6a161.27,161.27,0,0,0-16.05,8.78,148.86,148.86,0,0,0-22.27,16.08c-3.74,3.36-7.17,7.05-10.58,10.75a107.47,107.47,0,0,0-7.67,9.41,96.93,96.93,0,0,0-6.12,9.56,115.82,115.82,0,0,0-7.11,14.35,106.62,106.62,0,0,0-4.14,14.83,82.88,82.88,0,0,0-1.75,12.42c-.3,3.82-.35,7.66-.3,11.49a156.69,156.69,0,0,0,1,16.68,126.11,126.11,0,0,0,6.43,25.84,86.77,86.77,0,0,0,12.43,23.1,115,115,0,0,0,9.14,10.55c3,3.21,6.38,6.13,9.62,9.13,2,1.85,4.15,3.52,6.25,5.23s4.36,3.3,6.55,4.92A156.38,156.38,0,0,0,495.74,1432a99.3,99.3,0,0,0,22.57,8.52,173.9,173.9,0,0,0,19.07,3.8,151.08,151.08,0,0,0,15.37,1.46c13,.46,26,.52,38.73-2.53a144.52,144.52,0,0,0,14.86-4.5c5.06-1.8,9.36-4.54,13.89-7.4s8.27-6.7,12-10.46a139,139,0,0,0,13.69-15.82,152.43,152.43,0,0,0,10.92-17.94,99,99,0,0,0,6.9-14.81c1.8-5.3,3.42-10.64,4.9-16,.76-2.77,1.32-5.58,1.91-8.39.26-1.21.55-2.42.72-3.66.41-3,.72-6,.92-9.08.37-5.52.22-11.08.1-16.6a107.91,107.91,0,0,0-2.08-20.46,187.36,187.36,0,0,0-5.71-19.83,160.58,160.58,0,0,0-5.91-15c-2.2-4.89-4.61-9.67-7.06-14.44-1.3-2.53-2.71-5-4.26-7.46q-.26-.64-.54-1.28a72.47,72.47,0,0,0-7.69-13,105.29,105.29,0,0,0-6.76-8.29,111.85,111.85,0,0,0-10.85-10.58,35.77,35.77,0,0,0-4.23-3.05,44.81,44.81,0,0,0-9.14-4.59,38.89,38.89,0,0,0-7.71-1.84,41,41,0,0,0-6.76-.33m-1.39,54.85c4.08.21,8.2.37,12.26.95q4.61,5.77,9.14,11.6c1.07,1.38,2.12,2.78,3.18,4.17q.75,2.23,1.48,4.48c.23.78.45,1.56.65,2.35l1.38,4.46a18.07,18.07,0,0,0,5.79,7.05,17.8,17.8,0,0,0,3.63,2q.91,3.51,1.71,7.06a112.51,112.51,0,0,1,2.1,14.73c0,1.13,0,2.25,0,3.37-.09,3.18-.24,6.35-.44,9.52-.16,2.49-.41,5-.72,7.45s-.71,4.76-1.14,7.14c-.36,1.38-.75,2.76-1.18,4.12-.91,2.88-1.87,5.72-2.86,8.57-.84,2.42-1.79,4.81-2.79,7.17-.92,2.16-1.94,4.26-3,6.36-.81,1.43-1.64,2.86-2.49,4.27-1.56,2.58-3.21,5.08-4.88,7.6a85.25,85.25,0,0,1-5.45,7.06c-1.32,1.6-2.69,3.16-4.07,4.7a82.66,82.66,0,0,1-9.61,8.52,59.15,59.15,0,0,1-8.53,3.67A96.49,96.49,0,0,1,567,1405c-5.52.05-11-.2-16.55-.64a148.3,148.3,0,0,1-18.28-2.52,102.56,102.56,0,0,1-19.83-7.42,118.64,118.64,0,0,1-10.86-7.09c-2-1.5-4.14-2.94-6.11-4.53s-4-3.07-5.87-4.76l-2.66-2.45a119.28,119.28,0,0,1-11.8-13.8,81.46,81.46,0,0,1-6-13.61q-1-3.46-1.68-7a10.24,10.24,0,0,0,4.61,1.29l.91,0a28.26,28.26,0,0,0-.62,3.8,17.3,17.3,0,0,0,1.09,8.1,13.68,13.68,0,0,0,4.77,5.84c2.44,1.82,5.22,2.52,8.12,3.14,3.54.75,7.17.52,10.75.36,1,0,1.89-.13,2.83-.25l.92.48a11,11,0,0,0,2.2.71c1.3.34,2.6.63,3.93.85a34.71,34.71,0,0,0,7.51.16c15.88-.79,30.09-9,43-17.68a113.83,113.83,0,0,0,32.53-33.28,88.44,88.44,0,0,0,10.2-22c1.16-3.92,2.39-8,2.55-12.07a30.22,30.22,0,0,0-2.67-13,21.07,21.07,0,0,0-7.45-9,26,26,0,0,0-4.62-2.5,16.34,16.34,0,0,0-2.12-3c2.14,0,4.29,0,6.43.15m-109.1,35.92c-2.42,2-4.78,4.14-7,6.32l-7,6.78q-.66.64-1.33,1.25a78.26,78.26,0,0,1,4.57-11.12q.43-.74.88-1.47a12.62,12.62,0,0,0,7.48-.77,12.87,12.87,0,0,0,2-1l.43,0"/><path d="M623.06,1285.7a35.44,35.44,0,0,0-7.1.16,30,30,0,0,0-3.93-.78,33,33,0,0,0-5.27.11,22.92,22.92,0,0,0-4.4.76,76.88,76.88,0,0,0-8.14,2.68,88.23,88.23,0,0,0-19.28,10.73l-2.38.68a114.38,114.38,0,0,0-21.64,8.87,123.85,123.85,0,0,0-36.14,29.52,129.61,129.61,0,0,0-13,18.66c-2.05,3.55-3.9,7.22-5.81,10.85a29.68,29.68,0,0,0-3.22,11.68,25,25,0,0,0,.29,6.11,17.8,17.8,0,0,0,3.1,6.91,15.56,15.56,0,0,0,2.92,3.11c1.91,5.14,7.25,9.07,12.45,10.35a27.88,27.88,0,0,0,7.55,1.13,52.75,52.75,0,0,0,8.15-.65,49.68,49.68,0,0,0,5.27-1.32c2.88-.85,5.76-1.76,8.59-2.79a93.16,93.16,0,0,0,14.39-6.84,72.71,72.71,0,0,0,13.08-4.55l.52-.24q1.74-.56,3.47-1.16a26,26,0,0,0,3.56,5.9,19.83,19.83,0,0,0,8.85,6.16,24.76,24.76,0,0,0,5.32,1.19,28.18,28.18,0,0,0,6.16-.24,11.45,11.45,0,0,0,1.42-.3c2-.5,4-1.19,5.94-1.86a64.5,64.5,0,0,0,8.37-3.55c2.68-1.36,5.23-3,7.79-4.55,4.08-2.48,8-5.1,11.93-7.87,2.47-1.77,4.88-3.59,7.23-5.51a34.07,34.07,0,0,0,5.71-5.59,23.67,23.67,0,0,0,3.74-7.61l1.11-4.71a18.29,18.29,0,0,0-.07-4.18,35.64,35.64,0,0,0,3.68-3.89,21.29,21.29,0,0,0,3.21-5.7,30.91,30.91,0,0,0,1.45-7.33,17.14,17.14,0,0,0-6.54-15.25c.68-1,1.34-2.08,2-3.15q1.22-2.19,2.39-4.39a24.74,24.74,0,0,0,1.66-5.73c.65-2.79.09-5.68-.41-8.46-1.23-6.71-6.93-12.45-13.91-12.92-1.18-.08-2.35-.23-3.53-.37a27.22,27.22,0,0,0-5.83,0c-1.23-.74-2.47-1.47-3.76-2.13a19.26,19.26,0,0,0-6.31-1.85l-.58-.07"/><path d="M628.49,927.18l-12.3-1.28c-3.52-.37-7.08-.52-10.61-.77-3.12-.23-6.24-.52-9.36-.65-7.94-.34-15.84-.66-23.79-.72-7.7-.06-15.36.24-23.05.49-8.28.28-16.54.91-24.8,1.42-3.26.21-6.5.54-9.75.82-3.42.29-6.87.48-10.28.87-7,.78-13.94,1.41-20.86,2.48-7.61,1.17-15.2,2.36-22.77,3.76-15.1,2.79-30.15,5.8-45.13,9.17-7.22,1.62-14.31,3.67-21.44,5.66-4.26,1.19-8.4,2.76-12.56,4.24-3,1.06-6,2-8.9,3.23-6.71,2.86-13.46,5.63-20.1,8.66-7,3.17-13.93,6.32-20.86,9.56q-11,5.12-21.79,10.45c-2.73,1.35-5.43,2.71-8.11,4.16-3.28,1.77-6.71,3.4-9.88,5.37l-11.25,7c-4,2.51-7.8,5.24-11.64,8-2.43,1.76-4.83,3.49-7.14,5.39l-9.8,8a134.81,134.81,0,0,0-9.89,9.27A155.22,155.22,0,0,0,229.66,1046a97.29,97.29,0,0,0-9.58,15.56c-3,5.88-4.66,12.21-6.12,18.61a66.11,66.11,0,0,0-1.68,14.16,110.47,110.47,0,0,0,1.41,19.34,93.85,93.85,0,0,0,4.92,17.37,51.53,51.53,0,0,0,3.07,6.45,102.45,102.45,0,0,0,6.4,10.08c3.38,4.76,7.64,8.79,11.91,12.72a81.33,81.33,0,0,0,12.69,9.58,106.41,106.41,0,0,0,17,8.51,118.25,118.25,0,0,0,19.7,5.25c11.47,2.29,23.28,2,34.89,1.5a192.18,192.18,0,0,0,31.89-4.43c7.64-1.66,15.14-4,22.67-6s15.13-4.91,22.64-7.41c5.89-2,11.71-4.15,17.55-6.24,5.18-1.84,10.42-3.53,15.63-5.29,5.28-1.6,10.56-3.25,15.91-4.6,7.2-1.82,14.38-3.73,21.64-5.3,7.44-1.61,14.85-3.26,22.33-4.63l13.11-2.4c3.38-.62,6.82-1,10.22-1.5,3-.44,6.06-1,9.1-1.28l14.28-1.47c5.82-.6,11.7-.83,17.55-1.13l19.77-.28c3.83-.05,7.68.13,11.51.19,3,.05,6,0,9,.18,7.31.41,14.61.73,21.9,1.41,7.78.73,15.54,1.48,23.3,2.38,15.17,1.75,30.27,3.82,45.36,6.11,7.4,1.12,14.75,2.58,22.11,4,5.66,1.06,11.26,2.41,16.87,3.72,13.56,3.51,27.11,7.1,40.66,10.62q11.75,3.05,23.54,5.87c8.42,2,16.86,3.8,25.34,5.54a136.51,136.51,0,0,0,35.86,2.42,59.54,59.54,0,0,0,14.46-2.48,80.45,80.45,0,0,0,10.85-3.85,74.64,74.64,0,0,0,10.63-6.4,43.3,43.3,0,0,0,5.09-4.27A92.48,92.48,0,0,0,903,1150a103.5,103.5,0,0,0,7.55-10.62c4.2-6.64,8.57-13.28,11.4-20.64a73,73,0,0,0,2.89-11.28,43.89,43.89,0,0,0,.8-6.83,75.11,75.11,0,0,0-1.82-20.6,78,78,0,0,0-6.56-17.7c-1.21-2.36-2.55-4.66-3.88-7-4.42-7.67-9.21-15.12-14.15-22.45-2.82-4.19-5.9-8.23-8.91-12.28-.66-.89-1.34-1.77-2-2.66l-1.13-1.47a52.11,52.11,0,0,0-6.77-6.91,61,61,0,0,0-8.87-6.51,69.47,69.47,0,0,0-8.23-4.35c-3.08-1.36-6.83-2-10-2.71a78.74,78.74,0,0,0-11.45-1.72c-9.77-5.81-20-10.84-30.29-15.67-7-3.28-13.93-6.48-21-9.54-3.14-1.37-6.26-2.87-9.46-4.1l-11.57-4.47c-2.91-1.13-5.81-2.39-8.78-3.38l-12-4c-3.24-1.08-6.47-2.31-9.75-3.24l-11.05-3.15-10.45-3c-3.64-1-7.38-1.8-11.05-2.7-4-1-8-2.05-12-2.9l-13.09-2.74c-7.28-1.53-14.62-2.77-21.94-4.09-7.11-1.28-14.32-2.13-21.46-3.17l-.77-.11c-2.85-.38-5.74-.58-8.59-.88m-44.13,24.37c8.14.13,16.23.47,24.35.86,7.54.37,15.05,1.08,22.57,1.71s14.72,1.66,22.07,2.56c9.32,1.14,18.62,2.72,27.86,4.38,4.61.83,9.23,1.6,13.8,2.59L710.25,967l20.14,5.2c3.31.85,6.57,2,9.84,3l12.16,3.72c3,.92,5.93,2.11,8.87,3.16l11.67,4.18c3.23,1.15,6.38,2.58,9.56,3.87s6.42,2.48,9.55,3.88l6,2.66a20.55,20.55,0,0,0-10.43,21.28,20.34,20.34,0,0,0,8.06,12.92l4.6,2.5a20.35,20.35,0,0,0,10.67,1.05c3.4,0,6.8.17,10.17.51,7.19.7,14.45,1.09,21.56,2.41a41.17,41.17,0,0,1,4,1.4,62.37,62.37,0,0,1,5.74,4.29c1.84,2,3.54,4.18,5.28,6.26s3.54,4.22,5.21,6.41c3.37,4.4,6.55,8.89,9.61,13.5a107,107,0,0,1,9.21,17.9,58.85,58.85,0,0,1,1.3,8,50.24,50.24,0,0,1-.6,6.45,45.07,45.07,0,0,1-1.95,5c-1.4,2.31-2.9,4.57-4.35,6.84a114.65,114.65,0,0,1-8.71,12.1,49.16,49.16,0,0,1-4.47,3.74,48,48,0,0,1-5,2.3,66.32,66.32,0,0,1-10.86,1.67c-12.62,0-25-2.43-37.36-4.77-6.19-1.18-12.34-2.63-18.5-4q-19-4.55-38.08-9.12c-9.13-2.17-18.26-4.26-27.45-6.17-7.54-1.58-15.11-2.84-22.7-4.13-14.52-2.46-29.18-4.06-43.8-5.79-6.72-.79-13.45-1.42-20.18-2.12-3.9-.41-7.82-.67-11.73-1-2.85-.24-5.7-.54-8.55-.68-7.43-.37-14.84-.81-22.27-.9s-15-.15-22.49,0c-9.2.15-18.36.38-27.54.93-3.39.2-6.81.28-10.19.62l-13.64,1.37c-7.1.72-14.15,1.85-21.22,2.84-3.45.48-6.87,1.2-10.29,1.8-3.25.57-6.53,1-9.75,1.72-7,1.46-14.14,2.74-21.12,4.43-7.17,1.74-14.4,3.32-21.49,5.35-12.45,3.57-24.86,7.24-37.08,11.57q-15.7,5.57-31.46,10.87l-15.11,4.28a175.26,175.26,0,0,1-18.22,3.89,185.43,185.43,0,0,1-21.3,2.39,120.67,120.67,0,0,1-25.74-2.18,85.7,85.7,0,0,1-15.52-5.88,81.15,81.15,0,0,1-12-8.68A67.55,67.55,0,0,1,255,1121a59.37,59.37,0,0,1-4.09-9,83.55,83.55,0,0,1-2.64-15.91,65.57,65.57,0,0,1,1.15-11.69,66.9,66.9,0,0,1,4.23-11.26,105.75,105.75,0,0,1,12.53-16.45c4.23-4.33,8.69-8.35,13.28-12.32,2.91-2.51,5.77-5,8.83-7.38l6.86-5.25c1-.79,2-1.64,3.13-2.36l9.48-6.27c5.85-3.38,11.69-6.73,17.69-9.86,7.09-3.71,14.24-7.26,21.43-10.8C360,996,373.27,990,386.6,984c2.24-1,4.61-1.76,6.91-2.62l8.71-3.29c5.31-1.62,10.62-3.28,16-4.59,7.35-1.78,14.69-3.58,22.08-5.17s14.95-3.19,22.45-4.69c7.68-1.54,15.36-2.95,23.08-4.26,13.84-2.35,27.79-3.71,41.75-5.1,12.42-1.24,24.87-1.94,37.33-2.61,6.48-.12,13-.25,19.43-.15"/><path d="M567.5,939.65a14.89,14.89,0,0,0-12.59,5.11l-1-1.64a14.42,14.42,0,0,0-6-4.33c-1.63-.46-3.23-1-4.88-1.45a42.34,42.34,0,0,0-5.41-1.15c-.9-.11-1.83-.1-2.74-.13a94,94,0,0,0-14.93.93c-5.45.73-10.86,1.71-16.29,2.52l-19.13,2.86c-5.1.76-10.21,1.44-15.3,2.29l-18,3q-8,1.36-16,2.8l-11.05,2c-2.45.45-4.93.62-7.39,1a27.5,27.5,0,0,0-7.79,2.38,18,18,0,0,0-6.67,5.37c-.51.68-.9,1.43-1.35,2.15a14.22,14.22,0,0,0-2.62,6.74l-22.54,4.92-6.46,1.41c-1.85.4-3.68.89-5.5,1.41q-12.48,2.52-25,5.09A15,15,0,0,0,327,994c-1.76,1.16-3.49,2.36-5.26,3.51-5.45,3.39-10.81,6.92-16.22,10.38-3.8,2.44-7.53,4.92-11.25,7.49-4.49,3.11-9,6.14-13.45,9.38l-8.81,6.48c-2.24,1.65-4.54,3.24-6.79,4.89a214.16,214.16,0,0,0-20.91,12.25c-2.94,2-3.63,6.5-2.21,9.59a8.09,8.09,0,0,0,2.59,3.16,7.72,7.72,0,0,0,.65.42l-2.06,1.72c-1,.86-2.12,1.63-3.18,2.45a33.53,33.53,0,0,0-4.37,4.2,22.66,22.66,0,0,0-3.2,5.12,9.87,9.87,0,0,0-.47,1.63c-.24,1-.46,1.94-.67,2.91a11.62,11.62,0,0,0-.56,5.07c-.82.84-1.59,1.74-2.33,2.61-1.48,1.74-2.23,4.1-3.12,6.18a12.69,12.69,0,0,0,2,12.63,13,13,0,0,0,1.31,1.37l-2.59,1.83a13.32,13.32,0,0,0-1.84,18.76l2.48,2.34a13.27,13.27,0,0,0,6.52,2.47c1.9,0,3.81,0,5.71,0A13.23,13.23,0,0,0,243,1137l.73.52c.07.75.14,1.51.19,2.28l1.16,3.73a15.13,15.13,0,0,0,4.85,5.91,15,15,0,0,0,11.4,2.65c5.45-1.11,10.95-2,16.38-3.21a16.51,16.51,0,0,0,.21,1.9,17,17,0,0,0,3.61,7.87l3.15,3a16.87,16.87,0,0,0,8.29,3.14c3.71.66,7.33,1.71,11.09,2.1a66.36,66.36,0,0,0,9.11-.15c2.12-.08,4.24-.29,6.35-.54,7.65-.9,15.16-2.79,22.65-4.54,5.69-1.33,11.41-2.54,17.1-3.84l41.4-9.46c19.4-4.44,38.74-9.17,58.16-13.57,11.34-2.56,22.67-5.14,34-7.64q7.77-1.71,15.54-3.41l9.71-2.12q34.44-3.88,68.91-7.39c10.09-1,20.19-1.84,30.3-2.63,5.24-.41,10.47-.89,15.71-1.17l20.11-1.09c6.94-.38,13.9-.54,20.85-.8l9.77-.33,4.05-.14c2.45-.09,4.9,0,7.35-.11s4.66-.13,7-.33a26,26,0,0,0,4.22-.92,15.76,15.76,0,0,0,9.49-25.53,15.44,15.44,0,0,0-10.63-5.68h-.1c-.08-.23-.16-.47-.24-.7a14.13,14.13,0,0,0,.66-7.24,14.47,14.47,0,0,0-12.69-11.8c-8.23-.95-16.43-2.16-24.66-3.06s-16.39-1.27-24.6-1.53c-16.38-.54-32.78-.34-49.17-.16-11.2.12-22.38.42-33.57.72l-16,.41c4.74-.51,9.48-1,14.21-1.46q36.37-3.85,72.75-7.56l7.21-.73c6.84-.7,13.65-1.87,20.47-2.81a14.9,14.9,0,0,0,9.63-6c3-4.18,4-10.43,1.48-15.12-.44-.84-.8-1.7-1.18-2.58a33.76,33.76,0,0,0-3-5.06,13.41,13.41,0,0,0-4.27-3.85,58.64,58.64,0,0,0-5.93-3.15,26.66,26.66,0,0,0-3.75-1.38l-.25-.32c-2.38-2.9-6.33-5.34-10.19-5.44l-1,0q.28-.3.54-.62l3.54.89c11.8,2.89,23.79,5.4,35.92,6.35q2,.16,4,.26c2.69,6.37,9.67,10.6,16.72,9.25a82.68,82.68,0,0,1,11.81-1.22c2.14,0,4.28-.06,6.42,0,2.9.12,5.79.48,8.67.83,1.89.22,3.78.52,5.67.79l1.6.21c1.56.21,3.11.41,4.66.69a32.36,32.36,0,0,0,6.23.94c3.51,0,6.23-.1,9.48-1.6q1.92-1.17,3.81-2.4a24.17,24.17,0,0,0,3.46-3.74l1.92-3.54a15.6,15.6,0,0,0,.81-8.21,15.8,15.8,0,0,0-9.73-11.85c-3.26-1.37-6.46-2.83-9.79-4-2.65-1-5.34-1.84-8-2.75l-9.2-3.18q-5.58-1.93-11.19-3.73-.37-.28-.77-.55a17.76,17.76,0,0,0-5.49-2.58c-1.86-.47-3.7-.84-5.56-1.23q-3.17-.75-6.35-1.4l-.76-.21c-5.76-1.45-11.51-2.93-17.26-4.4l-10.83-2.76c-2.79-.71-5.62-1.54-8.45-2.08-4.75-.9-9.5-1.83-14.25-2.75-10.31-2-20.6-4.24-31-5.79l-24.33-3.64-8.64-1.29-1.42-.2c-5.21-.7-10.48-1-15.71-1.45"/><path d="M698.74,989.44q-6.29-.58-12.59-1a461.22,461.22,0,0,0-48.39-1.17c-5.19.17-10.37.39-15.55.83a115.75,115.75,0,0,0-11.65,2,14.84,14.84,0,0,0-8.94,24l2.76,2.6a15.54,15.54,0,0,0,1.47.94,131.45,131.45,0,0,0-13.39.35,12.35,12.35,0,0,0-10.19,11,12.73,12.73,0,0,0,2.89,9.17l-1.25.11c-3.4.29-6.8.61-10.15,1.24a33.2,33.2,0,0,0-10.27,3.5l-.92.55c-7,0-14,.22-21,.42a6,6,0,0,0-3.12.52,6.06,6.06,0,0,0,.36,11.16,88.31,88.31,0,0,0,11.36,4q2.92.67,5.86,1.21a8.75,8.75,0,0,0,6.79,4.46q19.24,1.6,38.51,2.8c10.73.68,21.46,1.45,32.2,2l41.28,2.19c10.12.54,20.25.78,30.37,1.14l17.55.63c9.47.34,19,.37,28.43.53a7.76,7.76,0,0,0,8.35-6.86c.38-3.94-2.69-8.22-6.86-8.35-9.87-.31-19.75-.55-29.62-1l-21.28-.93c-9.45-.41-18.91-.76-28.36-1.34l-8.4-.51,30.47,0q22.88,0,45.77-1c6.39-.27,12.78-.7,19.16-1.23l10.15,1,12.21,1.24c2.75.28,5.41,1.08,8.13,1.58a17,17,0,0,0,2.94.26,23.16,23.16,0,0,0,5.68-.43,40.81,40.81,0,0,0,4-1.29q1.77-1,3.43-2.18a15.11,15.11,0,0,0,3.49-4.08,14.2,14.2,0,0,0,2.46-10.54,4.94,4.94,0,0,0,.52-1.81,5.35,5.35,0,0,0-.46-2.75,5.79,5.79,0,0,0-2.93-2.75l-.1-.05c-.58-.33-1.16-.64-1.75-.93a14,14,0,0,0-4-2.41c-7.46-1.82-14.89-3.75-22.35-5.54q.31-.63.56-1.28a15.46,15.46,0,0,0-.38-11.92l-2.09-3.33a15.34,15.34,0,0,0-6.36-4.59c-4.79-1.2-9.56-2.46-14.38-3.54-4.19-.94-8.43-1.64-12.66-2.32-3.72-.6-7.45-1.17-11.18-1.67l-21.85-3-6.77-.92h-.08c-2.59-.35-5.21-.52-7.81-.76"/><path d="M740.69,957.89c-9.23-1.23-18.45-1-27.73-.68-3.77.15-7.53.44-11.29.81a103.49,103.49,0,0,0-10.31,1.32l-9.31,1.9c-6.38,1.3-12.66,3-18.91,4.8a228.83,228.83,0,0,0-24.36,8.22c-8.25,3.49-11.74,13.87-8.08,21.82a16.57,16.57,0,0,0,9,8.49l4.29,1a16.36,16.36,0,0,0,8.22-1.31c8.05-2.17,16.24-3.77,24.44-5.33q4-.77,8-1.42c.66.24,1.32.46,2,.66,2,.58,4,1,6,1.71l9.95,3.35,13.86,4.7,3.29,1.12q9.17,3.6,18.32,7.25a27.78,27.78,0,0,0,1.26,3.4c2.21,5,6.47,8.85,10.76,12q.67.49,1.36,1c-9.43-1.71-18.87-3.4-28.33-4.84l-5-.76c-6.19-1.48-12.4-2.85-18.62-4.21A13.31,13.31,0,0,0,685,1036a15,15,0,0,0-3,3.67c-5.15-.38-10.31-.65-15.46-1a9,9,0,0,0-7.84,14.66,8.75,8.75,0,0,0,6.08,3.25c5,.58,10,1.16,15,1.76q-.42.63-.77,1.3l-2.76-.35c-8.67-1.09-17.39-2.18-26.13-2.57a106.16,106.16,0,0,0-12.2.05,22.89,22.89,0,0,0-5.58,1,59,59,0,0,0-5.67,2.36,1.73,1.73,0,0,0,1.45,3.15c1.76-.8,3.53-1.61,5.36-2.24a33.42,33.42,0,0,1,6.57-.82,160.53,160.53,0,0,1,23.25,1.5c4.52.56,9,1.13,13.55,1.77l.72.1a15.78,15.78,0,0,0-.33,4.58,16.76,16.76,0,0,0-6,21l2.28,3.64a16.74,16.74,0,0,0,5.07,4.16,17.78,17.78,0,0,0,1.58,6.18c1.82,3.95,5.52,7.88,9.79,9.18,6.73,2.06,13.65,3.31,20.52,4.81l10,2.2,13.48,2.95q7.23,1.57,14.47,3.12l4.22,1.14.39.1a49.22,49.22,0,0,0,5,4.75,31.77,31.77,0,0,0,5.36,3,19.74,19.74,0,0,0,2.26.93l3.73,1.43c2,.77,4.07,1.58,6.12,2.3l8.69,3.06a175.44,175.44,0,0,0,17.12,4.94l-2.2-.52c4.86,1.18,9.53,3,14.54,3.61a38.74,38.74,0,0,0,6.16-.14,30.88,30.88,0,0,0,6.31-1.77c2.83-.93,5.55-3.86,7.4-6l.1-.12,6.88,1.35c2.37.46,4.74,1,7.14,1.31,3.25.48,6.82.11,10-.06a14.19,14.19,0,0,0,2.28-.35,32.59,32.59,0,0,0,6.75-2.25,45.72,45.72,0,0,0,5.42-3.32,19.94,19.94,0,0,0,2.41-1.93,47.68,47.68,0,0,0,4.42-4.82,45.46,45.46,0,0,0,3.73-6.56c2.61-4.93,3.86-10.35,5-15.78.72-3.46.45-6.8.24-10.34a8.55,8.55,0,0,0-.41-2,25.17,25.17,0,0,0-1.86-5.65l-.14-.24a22.49,22.49,0,0,0,.93-10.47,49.2,49.2,0,0,0-1.12-5.06c-.2-.81-.4-1.62-.59-2.42-.6-2.41-.51-3.77-1.82-6.58a21.42,21.42,0,0,0-6.65-8.26,20.09,20.09,0,0,0-2.64-1.61q-.38-.78-.77-1.56l-4.6-9q-1.44-2.83-3-5.58a29.73,29.73,0,0,0,4.21-1.7,18.07,18.07,0,0,0,10.32-14.49,17.87,17.87,0,0,0-7.3-16.22,84,84,0,0,0-7.8-4.27c-1.15-.53-2.38-.92-3.57-1.38-1.6-.62-3.19-1.25-4.79-1.88L849.16,998c-5.4-2.1-10.85-4.09-16.3-6.08-7.23-2.64-14.53-5.06-21.86-7.4-4.86-2.7-9.71-5.44-14.67-7.93L787,971.89a142,142,0,0,0-18.81-7.59c-3.68-1.23-7.41-2.25-11.18-3.16a159.69,159.69,0,0,0-16.15-3.23l-.13,0"/><path d="M724.92,673.48c-22.2-2.73-44.47-4.63-66.78-6.11-23-1.52-46-2.36-69-3.1-10.18-.33-20.36-.89-30.54-1.3q-18.94-.77-37.88-1.23c-10.77-.27-21.56-.26-32.34-.3l-17.66-.08c-2.07,0-4.14,0-6.21.08-4.1.09-8.23.05-12.33.31l-8.14.51c-2.73.17-5.5.19-8.22.51l-17.87,2.09c-2.23.26-4.46.73-6.68,1.09L401,667.63c-5.08.83-10.13,1.84-15.22,2.61-23.2,3.51-46.48,6.4-69.75,9.39-10.48,1.35-20.92,3-31.32,4.84-11,1.94-22,4-32.83,6.55-5.44,1.29-10.89,2.52-16.28,4s-11,3-16.41,4.59q-16.32,4.86-32.64,9.7c-6.38,1.88-12.77,3.73-19.12,5.75-5.46,1.73-11,3.28-16.41,5.26l-9.73,3.58c-2.32.85-4.76,1.57-7,2.59l-8.25,3.7c-2.47,1.11-5.07,2.08-7.46,3.35-4.77,2.55-9.67,4.91-14.3,7.71-5.77,3.49-11.6,6.9-17.21,10.65-4.69,3.13-9.37,6.21-13.87,9.61l-8.47,6.4c-1.67,1.26-3.21,2.68-4.8,4L52,778.75c-1.81,1.56-3.45,3.34-5.14,5-2.7,2.67-5.49,5.28-8,8.12l-6.61,7.44C23.17,809.59,15.95,821.4,10,833.71,2.51,849-.38,866.14,0,883.05a116.86,116.86,0,0,0,2.9,24.64,127.52,127.52,0,0,0,4,12.88,97.2,97.2,0,0,0,5.41,12c2,3.78,4.32,7.39,6.64,11a74.29,74.29,0,0,0,6.31,8.22,103.57,103.57,0,0,0,9.06,8.86,77.64,77.64,0,0,0,9.38,7.21C51,972.6,59.24,976,68,976.34c5.76.23,11.59-.4,17.33-.82,5.4-.39,10.79-1.08,16.16-1.74s10.54-1.84,15.74-3q8-1.82,16-3.81c6.47-1.61,12.91-3.33,19.26-5.35,5.66-1.8,11.28-3.69,16.9-5.6,10-3.42,20.21-6.52,30.2-10.08q16.46-5.86,32.61-12.44,15.49-6.32,30.85-12.94c10.28-4.44,20.33-9.39,30.46-14.14s20.57-8.53,31-12.48c5.5-2.09,11-4.06,16.57-6.07,3.93-1.42,7.93-2.65,11.92-3.9,21.92-6.07,43.95-11.82,66.1-17,11.21-2.6,22.5-4.72,33.83-6.7,11.17-2,22.44-3.18,33.71-4.43,5.69-.63,11.44-.84,17.16-1.21l15.67-.33c2.11,0,4.23.05,6.34.08l4.79.07.9.08c11.48,1.09,22.93,2.4,34.37,3.85,10.45,1.32,20.88,2.87,31.31,4.33,18.07,2.54,36.16,5.07,54.2,7.81,8.73,1.33,17.45,2.65,26.14,4.18,4.62.81,9.23,1.64,13.84,2.57,3.08.62,6.14,1.31,9.2,2q9.28,2.41,18.5,5c6.28,1.76,12.41,4,18.54,6.26,2.66,1,5.33,2.09,7.92,3.25,2.9,1.31,5.84,2.55,8.71,3.94,5.53,2.67,11,5.44,16.43,8.27,10.06,5.76,20,11.7,30.28,17.07,10,5.26,20.07,10.63,30.34,15.45,5,2.36,10.12,4.61,15.18,6.9s10,4.8,14.95,7.31c5.18,2.62,10.29,5.34,15.49,7.92,4.61,2.28,9.26,4.51,13.79,7l2.9,1.57q7.08,3.93,14.13,7.91c5.35,3,10.59,6.22,16,9.09,1.38.73,2.77,1.46,4.17,2.17a10.26,10.26,0,0,0,2.21,2.22,9.6,9.6,0,0,0,6.68,1.75l.68.24c2.69.95,5.4,1.71,8.16,2.41a97.81,97.81,0,0,0,12.67,2.47,59,59,0,0,0,10.12-.11c1.31-.08,2.61-.18,3.91-.31,2.78-.27,5.55-.67,8.3-1.15,6.25-1.08,12.28-3.21,18.26-5.28a84.14,84.14,0,0,0,25.07-13.88,136.75,136.75,0,0,0,12.33-11c7.94-8.11,15.77-16.72,21.44-26.62,3.34-5.83,6.43-11.73,9.32-17.8a103.89,103.89,0,0,0,7.92-26.17c.53-2.9,1-5.8,1.48-8.71a70.74,70.74,0,0,0,.75-19.92c-.49-4-2-7.94-3.17-11.75-.46-1.44-.95-2.87-1.43-4.3-.91-2.68-1.84-5.35-2.83-8-2.2-5.92-4.36-11.89-7.11-17.58a95,95,0,0,0-6.23-10.77,72.62,72.62,0,0,0-5.58-7.45c-1.93-2.25-3.78-4.6-5.81-6.77-8.34-8.91-16.87-17.74-26.59-25.18-8.82-6.75-18.07-12.94-27.48-18.84-10.42-6.53-20.81-13.07-31.68-18.82l-8-4.23c-2.89-1.53-5.94-2.82-8.89-4.23-5.27-2.5-10.62-4.81-15.95-7.17C916.3,717,906,713.13,895.7,709.22c-2.22-.84-4.53-1.48-6.79-2.22l-8.62-2.82c-2.44-.8-4.95-1.42-7.42-2.13l-10.09-2.9c-5.75-1.65-11.61-3-17.41-4.53-6.2-1.61-12.47-3-18.72-4.46q-15.83-3.72-31.82-6.71c-12.59-2.35-25.25-4.24-37.94-5.94-10.65-1.42-21.32-2.71-32-4M498.23,688.43q19.17,0,38.32.33c11.15.18,22.29.68,33.44,1.08s22.2.68,33.31,1c10.88.31,21.75.8,32.61,1.37,11.13.59,22.27,1.16,33.39,2s22.31,1.77,33.43,3q19,2.13,37.87,4.5c13.19,1.65,26.34,3.58,39.46,5.68,12.68,2,25.21,4.82,37.74,7.58l15.34,3.69c5.7,1.37,11.34,3,17,4.49,5.35,1.42,10.65,3,16,4.61s10.63,3.37,15.92,5.15c10.77,3.62,21.23,8.11,31.68,12.55,5.06,2.15,10,4.49,15.06,6.75,2.18,1,4.33,2.09,6.49,3.14,2.32,1.13,4.67,2.18,6.94,3.41L950,763c5,3,10,5.94,14.84,9.06,5.83,3.72,11.64,7.46,17.41,11.28,2.21,1.46,4.42,2.91,6.58,4.43,2.68,1.88,5.48,3.66,8.06,5.68l7.91,6.19c1.26,1,2.41,2.15,3.6,3.21l2.17,1.94c3.48,3.49,6.9,7,10.23,10.64a135.27,135.27,0,0,1,12.36,15.1,121.66,121.66,0,0,1,8.5,18.86c1.89,5.17,3.76,10.33,5.46,15.55a47.29,47.29,0,0,1,1.64,7.81,122.53,122.53,0,0,1-1.76,14.8c-.48,3.08-1,6.15-1.66,9.2-2.17,7.94-5.68,15.33-9.45,22.63-.79,1.39-1.58,2.78-2.43,4.13-1.54,2.43-3.12,4.77-4.83,7.1a93.42,93.42,0,0,1-7.25,8.5c-3.08,3.17-6.24,6.19-9.57,9.1a104.08,104.08,0,0,1-11,8.25,89.26,89.26,0,0,1-16.48,6.9,69.63,69.63,0,0,1-8.2,1.89c-3.35.5-6.69.88-10.06,1.15-1,0-2.08,0-3.13-.06a28.23,28.23,0,0,1-4.41-.66,66.55,66.55,0,0,1-7.87-2.47c-3-1.22-6-2.59-8.87-4.08-4.49-2.56-8.9-5.25-13.36-7.88q-3.16-1.86-6.37-3.65L915.24,942c-1.69-1.38-3.5-2.6-5.28-3.86l-8.44-6c-1.7-1.2-3.55-2.2-5.33-3.27-5.21-3.13-10.37-6.33-15.72-9.2q-16.68-9-33.47-17.68c-5.06-2.63-10.16-5.19-15.24-7.78-4.67-2.38-9.44-4.52-14.19-6.72-4.35-2-8.67-4-13.11-5.82l-19.31-7.76c-5.14-2.06-10.45-3.76-15.66-5.63-4.49-1.61-9-3.2-13.5-4.67-5.09-1.65-10.16-3.47-15.3-5-2.15-.71-4.31-1.39-6.46-2.07-5-1.57-10-3-15.09-4.34-6.79-1.75-13.61-3.38-20.44-5-5.38-1.25-10.86-2.14-16.3-3.08-22.29-3.85-44.72-6.8-67.14-9.76L603.1,832.8c-17.77-2.38-35.55-4.77-53.38-6.51-11.69-1.14-23.4-2.09-35.11-3-10.89-.86-21.76-1.6-32.69-1.89-2.21-.06-4.41,0-6.64,0-3.83.08-7.68.1-11.51.32-6,.35-12,.73-18,1.24-5.27.45-10.5,1.16-15.72,2a165.13,165.13,0,0,0-16.7,4,455.66,455.66,0,0,0-45.44,15.52c-6.23,2.49-12.45,5-18.8,7.15-7,2.36-14,4.62-21,6.84-9.72,3-19.47,5.93-29.3,8.58-11,3-22.08,5.84-33.11,8.8-22.41,6-44.43,13.24-66.22,21.18-5.42,2-10.79,4.12-16.16,6.24q-4.68,1.84-9.39,3.61c-2.24.84-4.54,1.53-6.83,2.23l2.33-.72c-6.41,1.65-12.81,3.14-19.31,4.34-6.3,1.17-12.71,1.75-19.08,2.4-12.27,1.24-24.54,2.85-36.86,3.49-4.39.06-8.75,0-13.14-.23-2.13-.13-4.24-.43-6.35-.71-.89-.14-1.78-.25-2.68-.34a38.85,38.85,0,0,0-6.63.19,18.25,18.25,0,0,0-3.9.9c-2.16.62-4.19,1.31-6.27,2.13a12.52,12.52,0,0,0-7.22,8.72,85.6,85.6,0,0,1-5.16-6.95,102.67,102.67,0,0,1-8.53-18.46,98.89,98.89,0,0,1-3.33-20.42,110.84,110.84,0,0,1,1.93-22.81,103.53,103.53,0,0,1,8.24-20.58c2.2-3.85,4.57-7.59,7.08-11.25A103.19,103.19,0,0,1,55.69,819l6.76-7.66,3.9-3.88c1.6-1.59,3.14-3.3,4.84-4.78l6.65-5.78c1.8-1.56,3.53-3.26,5.43-4.71l13.14-10c1.91-1.46,4-2.72,6-4.06l6-4.07,7.25-4.45c2.37-1.45,4.78-2.76,7.23-4.08,2.86-1.55,5.69-3.31,8.65-4.65l12.39-5.62c6.39-2.89,13.07-5.12,19.64-7.57,2.42-.9,4.91-1.63,7.37-2.43l9.81-3.17q14.78-4.47,29.56-9c5.45-1.66,10.88-3.44,16.36-5l17.63-5c2.19-.62,4.43-1.08,6.64-1.62l10.93-2.66c5.58-1.36,11.27-2.35,16.89-3.52,11.16-2.31,22.44-4,33.69-5.79,21.43-3.36,43.05-5.51,64.47-9,5.5-.89,11-1.72,16.5-2.72s11.22-2.05,16.84-3c5.39-.94,10.76-1.95,16.18-2.64s11.13-1.58,16.72-2c4.59-.34,9.21-.86,13.8-1l9.84-.37c10.47-.16,20.94-.35,31.42-.35M938.58,957.36l-.23-.13,2.59,1.41-2.35-1.28"/><path d="M706.12,698.87,669,694.82c-10.9-1.19-21.76-2.5-32.69-3.36-17.2-1.36-34.41-2.47-51.65-3.13l-19.29-2.62-11.9-1.62c-3.29-.45-6.61-.69-9.92-1l-29.15-3c-5.7-.58-11.42-.7-17.15-.93-6.82-.28-13.62-.66-20.45-.67l-14.26,0c-2.66,0-5.31-.07-8-.12a92.36,92.36,0,0,0-11.09.45,43.2,43.2,0,0,0-6.76,1.68A16.44,16.44,0,0,0,432,682l-13.82-.83c-5.79-.35-11.56-.48-17.37-.58l-4.2.15a15.67,15.67,0,0,0-12.92,13.91c0,.23,0,.46-.05.7l-13,1.34c-14.76,1.51-29.5,3.33-44.23,5.15-5.07.57-10.13,1.2-15.19,1.77l-20,2.26c-2.23.25-4.45.46-6.67.8l-29.89,4.66q-28.48,4.06-56.86,8.83a16.9,16.9,0,0,0-13.64,13.61l-.39.27c-2.49,1.69-4.68,3.84-7,5.73l-1,.79a7.08,7.08,0,0,0-3.94-.7,18.46,18.46,0,0,0-4.42.84c-1.57.53-3.07,1.12-4.59,1.78-3,1.32-5.91,3-8.84,4.53-1.71.89-3.36,1.91-5,2.86l-16.48,9.36c-1.56.89-3.09,1.84-4.6,2.83,0-.11,0-.23,0-.35a9.61,9.61,0,0,0-2.13-7c-3.24-3.94-9.55-4.76-13.49-1.33-17.18,15-34.54,29.79-51.79,44.71-8,6.91-16,13.84-23.72,21-1.65,1.52-3.2,3.14-4.72,4.79-1,1.06-1.91,2.15-2.87,3.22a14.11,14.11,0,0,0-2.68,4.71,10.93,10.93,0,0,0-.38,6.69L27,841.3l0,0-3.77,4.09-2.71,2.94c-1.58,1.71-3.17,3.4-4.72,5.14A67.67,67.67,0,0,0,11.6,859a12.94,12.94,0,0,0,9.21,20.46,12.16,12.16,0,0,0,5.37-.66,14,14,0,0,0,1.28,5.72,13.5,13.5,0,0,0,1.75,3.3c-.4,1.8-.76,3.61-1.06,5.42a22.6,22.6,0,0,0-.44,4.52,15.72,15.72,0,0,0,0,2.5c0,.27-.06.53-.08.8a48.67,48.67,0,0,0-.09,6.3c.09,2.77.18,5.47.47,8.22.24,2.19.73,4.35,1.15,6.51a19.34,19.34,0,0,0,1.66,7.18,16.59,16.59,0,0,0,5.31,6.47q2,1.08,3.89,2.11a16.46,16.46,0,0,0,16.38-2.65A16.22,16.22,0,0,0,59,932.43,14.83,14.83,0,0,0,64.1,939l3.35,1.82a14.77,14.77,0,0,0,7.78.76A48.32,48.32,0,0,0,85,939.82c3.92-1,7.79-2.29,11.63-3.55,6.85-2.25,13.56-4.88,20.42-7.08l52.54-16.32L165.93,914c2.45-.76,4.93-1.43,7.4-2.13l19.81-5.66c8.63-2.47,17.24-5.1,25.92-7.38l36.15-9.47c9.2-2.41,18.45-4.62,27.68-6.9q10.7-2.64,21.42-5.22l8.68-2.1c5.15-1.24,10.24-2.54,15.33-4l20.84-4.06c10.31-2,20.66-3.9,30.91-6.18,3.73-.83,7.45-1.71,11.18-2.56a16.71,16.71,0,0,0,10.28-6.41,16.19,16.19,0,0,0,2.95-11.28l5.43-1,40.62-7.53c3.3.82,6.62,1.6,10,2.27A204.56,204.56,0,0,0,481,837.08c7.54.73,15.1,1.4,22.66,1.94,21.41,1.54,42.91,1.52,64.34,2.69l70.14,3.85c1.47.08,2.94.23,4.41.37L683.32,852l39.84,6,23.56,3.55c4,.6,8,1.14,11.93,1.9a32.88,32.88,0,0,0,7.71,6,83.35,83.35,0,0,0,9.18,4.59l1,.43c1.34,1.22,2.77,2.35,4.2,3.41a47.87,47.87,0,0,0,5,3.09c2.65,1.49,5.34,2.91,8,4.33,8.85,4.86,17.71,9.74,26.62,14.49,4.54,2.42,9.09,4.85,13.65,7.22,4.19,2.18,8.38,4.39,12.71,6.27a18.64,18.64,0,0,0,14.69-.47,19,19,0,0,0,9.75-10.39,18.79,18.79,0,0,0,1.13-4.62l13,2.24q3.76.65,7.5,1.36c2.71.51,5.42,1,8.13,1.43,3,.47,6.11.68,9.18,1a18.2,18.2,0,0,0,18.58-11.46,17.07,17.07,0,0,0,.59-1.83l.31-.09q1.89.29,3.79.55c2,.28,4.06.52,6.09.79,7.39,1,14.73-3.89,17.35-10.7a17,17,0,0,0,.88-8.9q-.65-2.08-1.3-4.16a16.92,16.92,0,0,0-5.42-6.6,30.81,30.81,0,0,0-3.06-2.64,46.29,46.29,0,0,0-6.53-3.46,55.14,55.14,0,0,0-8.65-3c-.68-.34-1.36-.67-2.05-1a22.82,22.82,0,0,0-3.83-1.1l-3.8-1c-2.42-.61-4.84-1.22-7.27-1.81q-4-1-8-1.89a17.79,17.79,0,0,0,5.44-16.94,17.81,17.81,0,0,0,12.54-15.29c.75-7.67-3.88-15.77-11.32-18.35Q884,784.41,852.93,775.09l-.28-.08a17.08,17.08,0,0,0,1-2.2,17.48,17.48,0,0,0-.43-13.48l-2.36-3.76a17.33,17.33,0,0,0-7.19-5.19l-1.95-.49a14.86,14.86,0,0,0-.77-2.06l-2.06-3.3a15.21,15.21,0,0,0-6.3-4.55q-3.66-1-7.33-2a15.65,15.65,0,0,0-1.42-6.06,16.17,16.17,0,0,0-8.61-8.07c-1.47-.64-2.92-1.27-4.42-1.82a37.83,37.83,0,0,0-4.95-1.32,16.31,16.31,0,0,0-6.44-4.5c-4.88-1.34-9.74-2.67-14.7-3.68l-10.47-2.13c-4.08-.83-8.19-1.61-12.28-2.39-5-1-10-2.07-15-2.87L733.28,703l-20.61-3.23c-1.58-.25-3.16-.5-4.75-.71l-1.81-.22M117.33,929.08l-.2.06h0l.19-.06"/><path d="M707.54,681.22c-1.89-.18-3.79-.21-5.68-.33a7.39,7.39,0,0,0-3.37,14.25l1.72.71a336.23,336.23,0,0,0-33.7-1.63c-3.38,0-6.77.17-10.16.23-3.18.06-6.35.11-9.51.41A27.88,27.88,0,0,0,638.1,697a10.07,10.07,0,0,0-3.6,2.76,8.27,8.27,0,0,0-1.09,1.86,9,9,0,0,0-.44,2l-.65,2.64a3.57,3.57,0,0,0,.08,2.55,3.3,3.3,0,0,0,1.8,1.69c1.5.58,3.81-.15,4.23-1.88.18-.72.36-1.43.54-2.15a23.41,23.41,0,0,1,.66-2.46q.25-.23.52-.43a13.43,13.43,0,0,1,2-.89,38.63,38.63,0,0,1,8.75-1.26c3.69-.1,7.39-.11,11.08-.17,4.19-.07,8.38,0,12.56.14,8.72.28,17.41,1,26.08,1.9q13.85,1.45,27.59,3.8l6.69,2.65c4.66,1.85,9.39,3.54,14.09,5.31,4.86,1.83,9.71,3.77,14.61,5.49l21.58,7.6a9.58,9.58,0,0,0-.95,1.84A9.72,9.72,0,0,0,789,742.12a9.45,9.45,0,0,0-.08,8.05,9.14,9.14,0,0,0,5.2,4.88l22.7,6.51a10.49,10.49,0,0,0-4.55,5.3c-2,5.17.63,11.58,6,13.45,4.84,1.7,9.64,3.63,14.57,5l6.35,1.8,1.43.41a10.26,10.26,0,0,0,2,8.78,19.32,19.32,0,0,0,4.34,4.23,58.24,58.24,0,0,0,5.94,3.27,66.79,66.79,0,0,0,10.35,3.86c4.57,1.39,9.17,2.66,13.71,4.16l3,1a10.41,10.41,0,0,0-1.69,2.89,10.57,10.57,0,0,0,.26,8.16l1.43,2.27.37.42a18.92,18.92,0,0,0-2-.31,19.54,19.54,0,0,0-4.64.2,12.12,12.12,0,0,0-9.84,8.08,10.15,10.15,0,0,0-.69,4.8l-3.94-.85a11.14,11.14,0,0,0-5.76,1A11.17,11.17,0,0,0,847,851.5l.86,2.76a11.2,11.2,0,0,0,3.6,4.38c.6.51,1.2,1,1.81,1.53l-22.5-4.94-12.59-2.76c-5.15-1.13-10.35-1.93-15.54-2.82a11,11,0,0,0-5.19.73q-10.83-3-21.69-5.91l-12.47-3.36-9.76-2.62q-2.32-.62-4.62-1.27c-2.41-.68-4.82-1.29-7.26-1.85a54,54,0,0,0-5.44-.91,11.11,11.11,0,0,0-11.42,7,10.85,10.85,0,0,0-.7,3.15c-2-.35-4.1-.66-6.14-1q-5.24-.84-10.52-1.43c-3.49-.39-7-.48-10.46-.6a11.13,11.13,0,0,0-11.21,15.73,10.92,10.92,0,0,0,6.12,5.74c12.33,4,24.88,7.41,37.35,10.94,4.49,1.27,9,2.4,13.53,3.6l19.11,5.06,7.46,2a11.43,11.43,0,0,0,5.94,5.24c9.84,2.76,19.71,5.38,29.66,7.67l14.9,3.44c3.17.73,6.36,1.41,9.56,2a11,11,0,0,0-.52,1.15,11.41,11.41,0,0,0-.59,6l.87,2.8a11.39,11.39,0,0,0,3.65,4.44c3.77,2.14,7.46,4.4,11.3,6.42a111.29,111.29,0,0,0,11,4.91c5,1.95,10,3.76,15,5.53l19.87,7c4.49,1.59,9,3,13.57,4.49l8.93,2.88c2.07.67,4.2,1.2,6.3,1.8l8.23,2.34c2.49.71,5.05,1.22,7.57,1.81l-.25.46a9.63,9.63,0,0,0-.5,5.07c0,.48,0,1,.08,1.44q.42,1.51.94,3a9,9,0,0,0,1.7,2.53,11.56,11.56,0,0,0,2.84,2.4,36.79,36.79,0,0,0,10.63,3.81,101.8,101.8,0,0,0,15.12,2.19c2.21.17,4.42.37,6.63.5l4,.23q1.49.09,3,.09,1.77,0,3.53-.16a9.44,9.44,0,0,0,1.85-.49,9.76,9.76,0,0,0,7.45-6.11c.06-.16.12-.32.17-.48a84.74,84.74,0,0,0,12.83-8.75A126.45,126.45,0,0,0,1017,948.42a111.71,111.71,0,0,0,8.64-10.1c2.16-2.93,4.34-5.84,6.36-8.87a31.59,31.59,0,0,0,5.4-5.45c.88-1,1.76-2.08,2.59-3.16,1.84-2.37,3.62-4.79,5.4-7.22a88.86,88.86,0,0,0,6.47-10.54A84.3,84.3,0,0,0,1057,891.7a47.61,47.61,0,0,0,3-12.74c.33-4.79-.64-10-4.18-13.49a8.53,8.53,0,0,0-3.56-2.57,8.39,8.39,0,0,0-.91-.29q-1.54-2.89-3.07-5.79-2.05-3.9-4-7.83l-2.46-5c-.3-.61-.58-1.22-.85-1.84-.17-3.37-.69-6.77-3.11-9.31a9.51,9.51,0,0,0-3.36-2.6,9.68,9.68,0,0,0,1.06-3.54,10,10,0,0,0-2.15-7.09c-2.48-3.39-6.24-5.3-10.08-6.78-1.82-.7-3.66-1.34-5.44-2.15l-2-.91a10,10,0,0,0-1.9-1.71,13.83,13.83,0,0,0,2.51-1.86,9.23,9.23,0,0,0-2.55-15.75q-7.44-2.86-14.9-5.64a9.89,9.89,0,0,0-4.44-3.6c-10.69-4.67-21.38-9.35-32.17-13.81l-.34-.14a7.63,7.63,0,0,0,.46-2,7.88,7.88,0,0,0-5-8.07c-3.89-1.48-7.76-3-11.66-4.48a9,9,0,0,0-.45-6.29,8.65,8.65,0,0,0-4.94-4.63c-16.35-4.45-32.78-8.61-49.23-12.69-6-1.62-12.09-3.24-18.12-4.94q-33.4-9.43-66.83-18.81l-26.12-7.3-1.7-.48a99.84,99.84,0,0,1-11.31-4.28,58.21,58.21,0,0,0-12.61-3.87,22.3,22.3,0,0,0-6.57,0,11.22,11.22,0,0,0-1.87.44l-4.27-1.13c-6.65-1.73-13.3-3.46-20-5-3.18-.72-6.36-1.37-9.57-1.93-1.06-.19-2.13-.37-3.2-.51l-1.57-.18M989.06,781l-.17.07h0Z"/><path d="M775.71,969.26a11.4,11.4,0,0,0-1.93,1.14l-5.55-1.08c-2-.4-4.14-.64-6.2-1a29.51,29.51,0,0,0-17.95,2.7,51.22,51.22,0,0,0-7.6,4.24,9.67,9.67,0,0,0-2.65,11.52,9.76,9.76,0,0,0,12.83,4.75,43.52,43.52,0,0,1,5.35-2,22.48,22.48,0,0,1,3.4-.64,77.42,77.42,0,0,1,9.24,1.37c2.13.36,4.23.81,6.35,1.24,3.88.78,7.71,1.71,11.56,2.62l-1.95-.46,8.79,2.4c2.18.59,4.32,1.3,6.48,2,2.43.78,4.91,1.49,7.31,2.35l9.76,3.5q3.73,1.34,7.41,2.77c7.82,3.45,15.59,7,23.38,10.53q3.3,1.49,6.58,3l1.48,1.37c-3,.36-6.07.36-9.07.47l.62,0-2,.06a2.38,2.38,0,0,0-2.54,2.08,2.33,2.33,0,0,0,2.08,2.54q4.62-.13,9.24-.22c1.13,0,2.27,0,3.4,0,.6,0,1.19.06,1.79.11a10.15,10.15,0,0,0,3.07.08,4.25,4.25,0,0,0,3.05-2.88,4.06,4.06,0,0,0,.16-.57,12,12,0,0,0,5-2.38,10.3,10.3,0,0,0,3.84-7.19q0-.51.05-1l0-.31c0-.27,0-.54,0-.81a10.93,10.93,0,0,0-2.14-9.69,20.9,20.9,0,0,0-2.34-2.26c-1.22-.73-2.42-1.42-3.69-2.07l-2.25-1.14c-1.16-.59-2.35-1.13-3.52-1.69l-2.2-1a261.68,261.68,0,0,0-38.14-15.89q-4.7-1.77-9.47-3.31a13.18,13.18,0,0,0-3.2-.63l-3.66-1c-6.12-1.72-12.31-3.42-18.57-4.53a11,11,0,0,0-5.7,1"/><path d="M487.08,413.78a17.58,17.58,0,0,0-2.49,2.15,25,25,0,0,0-3.73,5.43,42,42,0,0,0-2.24,5.62c-.24.69-.44,1.39-.64,2.09-.37,1.25-.74,2.5-1,3.77-.7,2.91-1.32,5.82-1.9,8.76-.54,2.72-1,5.46-1.46,8.2-.36,2.11-.68,4.22-1,6.34-1.58,3.66-3.19,7.31-4.77,11-4.42,10.27-8.85,20.53-13.21,30.83-.9,2.11-1.8,4.23-2.68,6.35-.5,1.21-1,2.43-1.5,3.63a25.53,25.53,0,0,0-1.33,3.42q-5.27,9-10.6,18c-1.48,2.48-2.95,5-4.47,7.43l-1.19,1.88a6.18,6.18,0,0,0-1.33,1.68,6.05,6.05,0,0,0-.44,1q-1,1.5-2,3c-1.14,1.68-1.93,3.65-1.29,5.7a5.82,5.82,0,0,0,1.52,2.36,5.32,5.32,0,0,0,4,1.41,13.79,13.79,0,0,0,3.36-.67c.73-.32,1.44-.66,2.14-1a12.29,12.29,0,0,0,1.07-.82c.61-.5,1.23-1,1.82-1.54q1.79-1.61,3.59-3.18c1.3-.51,2.6-1,3.9-1.47l8.25-3.08c3.05-1.15,6.09-2.34,9.12-3.54,2.8-1.11,5.57-2.29,8.27-3.59,1.77-.86,3.55-1.73,5.26-2.7a15.6,15.6,0,0,0,3.16-2.37,22.59,22.59,0,0,0,1.88-2.28l.94-1.3a6.21,6.21,0,0,0,.74-2.66q.09-.31.17-.63a16.87,16.87,0,0,0,.32-3.32c.08-1.66-.06-3.35-.11-5-.08-2.46-.14-4.93-.21-7.4,0-1.3.07-2.63.1-3.94s0-2.34.09-3.49l.33-4.17c.59-1.07,1.18-2.14,1.81-3.2a6.87,6.87,0,0,0-.63-7.51c.31-2.44.75-4.87,1.14-7.3.54-3.46,1.17-6.91,1.82-10.35q1.93-8.14,3.76-16.29c1.2-5.37,2.45-10.74,3.57-16.13.14-.66.27-1.32.4-2a14.85,14.85,0,0,0,.42-3.21,9.64,9.64,0,0,0-.33-2.47l-.16-.37c.26-1.48.44-3,.56-4.48a13.72,13.72,0,0,0-.41-3.34,8,8,0,0,0-1.07-2.72,8.75,8.75,0,0,0-3-2.83,10.13,10.13,0,0,0-4.19-.91h-.19a9.27,9.27,0,0,0-4,1.29M453.38,525.45q.09.22.2.44l-.86.54.16-.26.49-.72"/><path d="M681.51.3a6.84,6.84,0,0,0-3.94,3.25,6.51,6.51,0,0,0-.5,5.24,18,18,0,0,1,.8,2.05,20.79,20.79,0,0,1,0,2.79,95.15,95.15,0,0,1-4.42,17.53C671.73,36.49,670,41.81,668,47.06a183.74,183.74,0,0,1-7.59,16.75,123.74,123.74,0,0,1-9.25,15.07C641.11,92.61,629,104.65,616,115.56q-10,8.2-20.45,15.73l-18.35,13.2c-9,6.48-18.19,12.75-27.31,19.11l-27,18.85c-9,6.31-18,12.81-26.9,19.26l-4.85,3.5c-2.53,1.83-4.95,3.84-7.4,5.77q-5,3.94-9.82,8.05a197.39,197.39,0,0,0-16.62,16,168.44,168.44,0,0,0-14.57,18.19,130.08,130.08,0,0,0-19.54,42,117.29,117.29,0,0,0-3.34,23.94,113.6,113.6,0,0,0,1.61,23.3c3.4,21,12.23,42.25,28.46,56.6a58.34,58.34,0,0,0,12.59,8.52,60,60,0,0,0,16.22,5.2,86.84,86.84,0,0,0,10.47,1l8.47.48a4.43,4.43,0,0,0,3.18-1.45,4.58,4.58,0,0,0-.23-6.46,4.87,4.87,0,0,0-3.28-1.23c-4.13-.23-8.27-.4-12.39-.77a58.33,58.33,0,0,1-13.45-3,55.56,55.56,0,0,1-10.74-5.74,66,66,0,0,1-10.53-9.9,85.3,85.3,0,0,1-10.39-16.6,109.8,109.8,0,0,1-8-25.86,134.68,134.68,0,0,1-1.55-14.2,104.92,104.92,0,0,1,.37-15.2,117,117,0,0,1,2.26-13.44,109.43,109.43,0,0,1,4.2-13.69,129.25,129.25,0,0,1,6.77-14.53,137.49,137.49,0,0,1,8.69-13.77,181.77,181.77,0,0,1,30.11-31.81c2.64-2.17,5.32-4.29,8-6.39,2.25-1.74,4.47-3.55,6.8-5.19l5.45-3.86,18.48-13.07c9-6.39,18.22-12.56,27.34-18.82L576,160.67c9.07-6.22,18-12.63,27-19q11.58-8.19,22.52-17.22c12.09-10,23.45-20.88,33.16-33.23a144.36,144.36,0,0,0,13.38-20.06,180.74,180.74,0,0,0,10.18-22.48c1.55-4.11,3-8.24,4.46-12.4,1.33-3.85,2.64-7.68,3.69-11.63a51.25,51.25,0,0,0,1.68-11A23.51,23.51,0,0,0,691.45,8a16.23,16.23,0,0,0-2.19-4.85A6.84,6.84,0,0,0,681.51.3M617.09,114.63l-.67.56.67-.56"/><path d="M682.53,21.16c-1.77.67-3.51,1.41-5.21,2.24a20.54,20.54,0,0,0-4.62,3.18,29.14,29.14,0,0,0-6.83,9.25,67,67,0,0,0-4,10.57,102.23,102.23,0,0,0-2.62,12.1c-2.63,16-1.84,32.17.12,48.16.31,2.5.76,5,1.15,7.47l1.81,11.43c.82,5.18,1.89,10.3,2.92,15.44,1,4.76,1.84,9.53,3,14.24l4.5,18.61c1.39,5.76,2.94,11.48,4.41,17.22,1.19,4.67,2.19,9.38,3.22,14.09q1.12,5.1,2.23,10.19l2.54,16.91c.77,5.1,1.06,10.27,1.51,15.41.2,2.32.53,4.66.61,7q.15,4.18.29,8.35.16,4.79.33,9.58c.09,2.62,0,5.27-.09,7.89-.09,3.74-.32,7.46-.66,11.19a172.53,172.53,0,0,1-3.81,22.11,183.08,183.08,0,0,1-6.43,20.8,170,170,0,0,1-18.71,35.63,122.72,122.72,0,0,1-19.08,20.57,119.76,119.76,0,0,1-23.39,15,166.88,166.88,0,0,1-39.09,11.91c-5.6.91-11.28,1.67-16.93,2.1l-10.34.8c-5.47.42-10.92.76-16.4,1-10.54.52-21.09.72-31.64,1.21q-4.37.2-8.73.45a9.12,9.12,0,0,0-5.9,15.79l1.89,1.36a9.06,9.06,0,0,0,4.65,1.09c11.32.63,22.68,0,34-.44s22.44-1.43,33.65-2.33c2.68-.22,5.35-.6,8-.93,4.72-.59,9.41-1.33,14.07-2.2a164.92,164.92,0,0,0,22.73-5.82,167.7,167.7,0,0,0,22.38-9.41,114.68,114.68,0,0,0,19.18-12.54A127.74,127.74,0,0,0,664.92,391,141.81,141.81,0,0,0,679,371.35a167.24,167.24,0,0,0,10.29-20.42,204.64,204.64,0,0,0,8.46-23.81A176,176,0,0,0,704.35,278c0-7.35-.62-14.68-1.06-22-.32-5.39-1.11-10.76-1.71-16.12-.29-2.59-.55-5.18-1-7.75l-1.46-8.33c-.87-4.95-1.58-9.94-2.77-14.82q-2.24-9.17-4.49-18.33c-.51-2.11-1.18-4.19-1.77-6.28l-3.15-11.15c-1.3-4.59-2.51-9.21-3.74-13.82-1-3.83-2.18-7.64-3-11.51l-3.82-17.07c-1.78-7.95-3.08-16-4.49-24-2-13.72-3.13-27.52-1.89-41.35a92,92,0,0,1,4.49-21.13,39.8,39.8,0,0,1,3.44-7,24.4,24.4,0,0,1,2.57-2.76,17.28,17.28,0,0,1,2.41-1.53c1-.43,2-.85,3-1.24a5.68,5.68,0,0,0,3.66-7,5.82,5.82,0,0,0-5.35-4,4.66,4.66,0,0,0-1.66.3"/><path d="M601.82,210.19a7.41,7.41,0,0,0-4.42,3.65,12.16,12.16,0,0,0-1.21,3.65c-.15,1.34-.19,2.61-.25,3.95,0,1.15-.1,2.29-.15,3.44-.2,1.93-.42,3.86-.74,5.78-.42,2.61-.85,5.21-1.37,7.8-.75,3.73-1.49,7.46-2.34,11.18a183.61,183.61,0,0,1-6.59,22.56,136.65,136.65,0,0,1-7.57,16,166.76,166.76,0,0,1-9.79,15.21l-10.08,13.33c-1.28,1.69-2.69,3.31-4,4.95l-7,8.52c-3.39,4.15-6.93,8.19-10.4,12.28q-4.89,5.75-9.84,11.43l-11.63,13.38a6.28,6.28,0,0,0,9.19,8.56q12.69-14.56,25.28-29.2,4.87-5.69,9.66-11.44c3.39-4.09,6.82-8.12,10.07-12.32l6.71-8.69c2.82-3.65,5.5-7.41,8.1-11.21a137.54,137.54,0,0,0,10.91-19.16A167.34,167.34,0,0,0,602.77,261c1.46-4.79,2.64-9.66,3.8-14.53.63-2.65,1.31-5.29,1.88-7.94,1.33-6.14,2.71-12.31,2.85-18.61.05-.21.12-.43.19-.66a7.61,7.61,0,0,0-7.41-9.37,7.58,7.58,0,0,0-2.27.34"/><path d="M220.28,424.13a25.35,25.35,0,0,0-5.27,1.29c-1.5.5-3,1.08-4.44,1.7q-4.48,1.91-8.94,3.84a2.39,2.39,0,0,0-1.29,1.07,2.22,2.22,0,0,0,.9,3,2.16,2.16,0,0,0,1.72.16q3.61-1.56,7.23-3.1c.84-.36,1.69-.72,2.54-1.06a40.09,40.09,0,0,1,7.12-2.32,14.74,14.74,0,0,1,3-.14,14.54,14.54,0,0,1,2.7.64c.72.32,1.41.69,2.1,1.07a2.16,2.16,0,0,0,3.08-2.55,2.29,2.29,0,0,0-1-1.25c-.6-.4-1.21-.78-1.84-1.12a12.1,12.1,0,0,0-2.3-.88,12.51,12.51,0,0,0-2.47-.41c-.38,0-.76,0-1.14,0a14.9,14.9,0,0,0-1.65.1"/><path d="M222.24,389.42a1.67,1.67,0,0,0-.53.56,2.22,2.22,0,0,0-.18.46l-.05.08c-.49.63-1,1.23-1.49,1.87l-.3.42-.29.4-.06.08c-.52.75-1,1.54-1.49,2.32-1,1.64-1.94,3.33-2.87,5-1.7,3.13-3.3,6.32-4.89,9.51l-2.51,5c-.68,1.35-1.42,2.67-2.13,4-1.68,3.14-3.54,6.18-5.37,9.24a2,2,0,1,0,3.46,1.86q2.06-3.44,4.09-6.91c.95-1.6,1.79-3.27,2.67-4.91s1.7-3.3,2.54-5,1.73-3.4,2.6-5.09c1.36-2.67,2.75-5.34,4.23-7.94l1.56-2.73q.06,1.86.13,3.73c.07,1.88.14,3.76.25,5.64.13,2.13.3,4.26.52,6.39a2,2,0,0,0,.62,1.37,2,2,0,0,0,1.41.53,2,2,0,0,0,1.89-2c-.21-3.88-.69-7.74-1-11.61-.14-1.61-.27-3.23-.38-4.84-.07-.95-.15-1.89-.18-2.83,0-1.13-.05-2.25,0-3.37,0,0,0-.07,0-.11a1.47,1.47,0,0,0-1.48-1.4,1.15,1.15,0,0,0-.72.24m-2.38,3.15.13-.17.15-.21Z"/><path d="M223.61,397a1.92,1.92,0,0,0-1,.31,1.49,1.49,0,0,0-.75.5c-.29.37-.58.72-.85,1.11a9.14,9.14,0,0,0-.8,1.39,10,10,0,0,0-.84,3.12c0,.4-.08.81-.1,1.21a1.66,1.66,0,0,0-2.21-.4,13.13,13.13,0,0,0-1.8,1.52,16.69,16.69,0,0,0-1.56,2.17c-.47.73-1,1.44-1.43,2.16-.76,1.14-1.53,2.29-2.28,3.43s-1.61,2.46-2.41,3.7c-.36.55-.7,1.1-1,1.66l-.7,1.12a10.67,10.67,0,0,0-1.06,2.47,1.78,1.78,0,0,0,.52,1.73,1.85,1.85,0,0,0,1.77.4,6.64,6.64,0,0,0,.94-.29,3.91,3.91,0,0,0,.46-.24c-.48.83-.92,1.67-1.37,2.51a8.92,8.92,0,0,0-.69,1.67,4,4,0,0,0,.25,2.4,2.18,2.18,0,0,0,1,1.26,2.11,2.11,0,0,0,1.68.16c.38-.16.77-.3,1.14-.47a7.23,7.23,0,0,0,1.54-.93c.25-.19.5-.4.74-.6a2.27,2.27,0,0,0,3.32,1.07c.33-.27.66-.54,1-.82a7.12,7.12,0,0,0,.78-.93l.59-.77c.36-.46.71-.93,1.06-1.4a20.44,20.44,0,0,1,2.65-3.06,8.83,8.83,0,0,1,1-.63,1.9,1.9,0,0,0,1.35.5,2,2,0,0,0,1.49-.79,1.88,1.88,0,0,0,1.57.78,1.81,1.81,0,0,0,1.27-.58,1.92,1.92,0,0,0,.49-1.31,15.45,15.45,0,0,0-.85-4.07l-.34-1.57c-.22-1-.46-2-.66-3.07q-.64-3.36-1.23-6.72c-.11-.66-.21-1.33-.32-2-.08-.49-.14-1-.21-1.48,0-.24-.07-.48-.11-.72q0-1.8.05-3.59a2,2,0,0,0-2-1.91h-.06m-5.76,22.08a2,2,0,0,0,.45-.74,6.85,6.85,0,0,0,.34-1.16,20.75,20.75,0,0,1,.7-2.2c.35-1.06.72-2.12,1.08-3.18l.11.39a3.06,3.06,0,0,0,.06,1.42c.09.27.17.54.24.82.13.46.25.91.35,1.38.18.84.34,1.69.5,2.54.05.34.1.68.13,1h0a13.26,13.26,0,0,0-1.3.63,6.76,6.76,0,0,0-.79.51,2.09,2.09,0,0,0-2.2-.59,4.47,4.47,0,0,0-1,.53l.28-.59.06-.14a2.55,2.55,0,0,0,1-.64"/><path d="M261.41,256.78a3,3,0,0,0-1.24,1.73q-2.34,6.87-4.84,13.69c-.88,2.24-1.72,4.5-2.67,6.71a93.09,93.09,0,0,1-4.69,9.5,102.73,102.73,0,0,1-5.58,8.68c-2.78,3.83-5.76,7.49-8.72,11.18-1.94,2.42-3.91,4.8-5.89,7.19s-4,4.83-5.92,7.3L217.76,328a90.64,90.64,0,0,0-5.64,8.24c-5.42,8.8-9.42,19-8.9,29.46a38.38,38.38,0,0,0,4,14.7,21.39,21.39,0,0,0,4.41,6.11,17,17,0,0,0,3.29,2.32,24,24,0,0,0,3.51,1.48,2.89,2.89,0,0,0,2.3-.38,3,3,0,0,0,.93-4.15,3,3,0,0,0-1.53-1.19h0l-.17-.07a18.79,18.79,0,0,1-3.37-1.7,14.33,14.33,0,0,1-1.81-1.67,24.21,24.21,0,0,1-2.59-4.19,37.91,37.91,0,0,1-2.54-8.2,34.51,34.51,0,0,1-.26-8,44.59,44.59,0,0,1,2.46-10,79.44,79.44,0,0,1,9.4-16.82c2.28-3.13,4.77-6.11,7.16-9.15,2.1-2.66,4.34-5.22,6.52-7.82,2-2.38,3.93-4.8,5.88-7.22l3.22-4c1.23-1.53,2.37-3.14,3.52-4.73,1.54-2.13,3-4.29,4.4-6.52a82.76,82.76,0,0,0,7.12-14.17c.86-2.24,1.78-4.47,2.56-6.74s1.56-4.54,2.27-6.84,1.25-4.64,1.75-7a2.86,2.86,0,0,0-2.09-3.41,2.79,2.79,0,0,0-.65-.08,2.87,2.87,0,0,0-1.52.43M209.72,369.09l0,.26,0-.26"/><path d="M262.71,259.77a55.6,55.6,0,0,0-1.63,6.09,26.57,26.57,0,0,0-.29,7.25,44.77,44.77,0,0,0,2.16,9.84c.48,1.48.92,3,1.47,4.43l2,5.21c1.06,2.78,2.19,5.53,3.24,8.32q1.88,5,3.64,10c1.09,3.12,2.08,6.27,3.09,9.42.36,1.13.67,2.28,1,3.43.44,1.55.93,3.1,1.32,4.67.75,3,1.53,6.08,2.2,9.14.31,1.43.66,2.85.92,4.29l.86,4.72a39.35,39.35,0,0,1,.6,8.46,26.06,26.06,0,0,1-1.28,5.23,52.77,52.77,0,0,1-3.4,6.7c-1.28,2.19-2.7,4.31-4.17,6.39a57.53,57.53,0,0,1-8.95,10,51.13,51.13,0,0,1-10.15,6.35,41.91,41.91,0,0,1-9.05,3,19.74,19.74,0,0,1-3.87.26,11.49,11.49,0,0,1-1.44-.34,14.4,14.4,0,0,1-1.77-1c-.48-.37-.94-.77-1.39-1.18a3.1,3.1,0,1,0-4.23,4.53,18.08,18.08,0,0,0,4.68,3.58,13.4,13.4,0,0,0,7.3,1,40.76,40.76,0,0,0,13.41-4.16,53.35,53.35,0,0,0,5.71-3.16,52.61,52.61,0,0,0,5.73-4.28,54.54,54.54,0,0,0,8.86-9.89,86.51,86.51,0,0,0,7.27-11.68,35.71,35.71,0,0,0,2.49-6.28,24.54,24.54,0,0,0,.9-7.05,53.23,53.23,0,0,0-1.28-9.62c-.29-1.48-.55-3-.89-4.45l-1.28-5.56c-.36-1.57-.82-3.14-1.23-4.7-.82-3.13-1.77-6.22-2.7-9.32-.43-1.46-1-2.89-1.45-4.34-.43-1.27-.83-2.56-1.29-3.82-1.16-3.15-2.3-6.31-3.54-9.43-.73-1.84-1.44-3.68-2.2-5.51s-1.66-3.94-2.46-5.91c-2.16-5.29-4.41-10.62-5.46-16.26a28.1,28.1,0,0,1-.26-6.28,42.75,42.75,0,0,1,1.71-6.94,2.5,2.5,0,0,0-2.43-3.07,2.59,2.59,0,0,0-2.42,1.92M274.3,373.56l-.14.2.14-.2"/><path d="M257,314.75a3.06,3.06,0,0,0-2.11,1,2.92,2.92,0,0,0-.81,2.17,12.92,12.92,0,0,1,.12,2,38.63,38.63,0,0,1-1.72,6c-.38,1.14-.84,2.25-1.27,3.37l.12-.32-2,4.5c-.19.43-.44.84-.66,1.26l-1.53,2.9c-.66,1.25-1.41,2.44-2.13,3.65s-1.44,2.45-2.14,3.68a82.85,82.85,0,0,0-4,7.71c-.74,1.69-1.52,3.36-2.21,5.07-.82,2.05-1.59,4.14-2.26,6.25s-1.2,4.26-1.73,6.41a2.93,2.93,0,0,0,5.71,1.36,91,91,0,0,1,3-10c.81-2,1.72-4,2.61-6,.66-1.47,1.41-2.89,2.15-4.32,1.48-2.91,3.23-5.67,4.95-8.45.82-1.32,1.57-2.66,2.31-4l1.27-2.33c.34-.62.59-1.3.88-1.94l1.17-2.61c.3-.68.54-1.4.81-2.1s.69-1.68,1-2.54l.93-2.82a17.33,17.33,0,0,0,.7-3,16.73,16.73,0,0,0,.16-2.27,13.8,13.8,0,0,0-.36-2.35,3,3,0,0,0-2.89-2.12H257"/><path d="M813.71,430.37a6.16,6.16,0,0,0-.69.32,2.67,2.67,0,0,0-.65.64c-.12.15-.23.31-.34.46a2.63,2.63,0,0,0-.72.09,1.6,1.6,0,0,0-1.19-.11,1.65,1.65,0,0,0-.9.74l-.44.66a1.35,1.35,0,0,0-2.26,1.05c0,1.06.08,2.11,0,3.16-.36.68-.72,1.36-1.09,2-1,1.94-2.15,3.84-3.24,5.74-2,3.54-4.22,7-6.35,10.49l-1,1.61c-.27.45-.56.9-.82,1.35a6.94,6.94,0,0,0-.76,2.06q-.83,1-1.68,1.89c-.43.48-.87.95-1.32,1.41l-.84.87c-.27.28-.52.57-.77.87a3.66,3.66,0,0,0-.43.63,2.59,2.59,0,0,0-.25,1.26,2,2,0,0,0,1.54,1.88,4,4,0,0,0,1,.14,10.6,10.6,0,0,0,1.56-.2c.7-.13,1.41-.3,2.09-.49l.36-.1a1.74,1.74,0,0,0,.85.11,18.73,18.73,0,0,0,2.88-.67c.68-.2,1.36-.39,2-.64a20.46,20.46,0,0,0,1.91-.82c.24-.12.48-.25.71-.39l2.09-.71c.38-.13.75-.29,1.13-.43a5.33,5.33,0,0,0,2.27-1.2,2.18,2.18,0,0,0,.24-2.61,2,2,0,0,0-.17-.23l.2-.31.36-.55a2.4,2.4,0,0,0,2.71.95,2.35,2.35,0,0,0,1.4-1.16c.22-.51.43-1,.6-1.55a8.11,8.11,0,0,0,.26-1.77,5.14,5.14,0,0,0-.06-1.12q-.08-.52-.19-1a5.27,5.27,0,0,0-.5-1.17,7.76,7.76,0,0,0-.55-.69,8,8,0,0,0-.7-.52,7.07,7.07,0,0,0-.7-.26,2.5,2.5,0,0,0,0-.39,2.68,2.68,0,0,0,.54,0,2.53,2.53,0,0,0,1.84-.84,12.7,12.7,0,0,0,.84-1.2c.12-.31.24-.62.35-.93a5.64,5.64,0,0,0,.13-.61c.15-.8.24-1.62.31-2.43s.12-1.35.16-2c.08-1.21.08-2.43.16-3.63a4,4,0,0,0,0-1.82,2.72,2.72,0,0,0-.79-1.34,7,7,0,0,0-.58-.42c0-.28.06-.57.09-.85s.31-.79.45-1.19.29-.81.41-1.22a8.45,8.45,0,0,0,.21-1.62,1.34,1.34,0,0,0-1.34-1.29,1,1,0,0,0-.38.07"/><path d="M839.38,303a2.48,2.48,0,0,0-1.73.79,2.39,2.39,0,0,0-.67,1.78,5.78,5.78,0,0,1,.06.63,14.8,14.8,0,0,1-.73,2.53l-.09.23,0-.08-.08.2,0,.08-.56,1.48.07-.19c-1,2.59-2.18,5.1-3.33,7.63-.62,1.36-1.31,2.7-2,4-.44.9-.88,1.79-1.35,2.68L826.29,330c-.39.73-.78,1.43-1.21,2.13l-4.94,8.07q-3.22,4.47-6.43,9c-.68.89-1.4,1.76-2.1,2.63l-3.77,4.72q-2.23,2.8-4.48,5.59c-2.72,3.38-5.44,6.75-8,10.27-4.77,6.57-9,13.72-11.13,21.63a35.84,35.84,0,0,0-1,12.32,35.34,35.34,0,0,0,1.1,5.95,40.7,40.7,0,0,0,2.08,5.63,37.6,37.6,0,0,0,2.69,5.06,28.12,28.12,0,0,0,3.76,4.63A32.17,32.17,0,0,0,803,434a2.56,2.56,0,0,0,1.89.18,2.44,2.44,0,0,0,.43-4.48c-1.11-.49-2.21-1-3.3-1.55a27.25,27.25,0,0,1-3.21-1.95,24.72,24.72,0,0,1-3.92-3.67,30.28,30.28,0,0,1-3.62-5.84,38.88,38.88,0,0,1-2.76-8.51,33.78,33.78,0,0,1-.26-8,38.4,38.4,0,0,1,2.14-8.74A73.22,73.22,0,0,1,799,376.14c4-5.48,8.36-10.64,12.59-15.92l6.06-7.56c.67-.84,1.27-1.76,1.89-2.63l3.51-4.87c.61-.85,1.29-1.68,1.84-2.57l2.42-3.94,2.77-4.5c.48-.78.89-1.6,1.32-2.41l2.65-5c.52-1,1-2,1.47-3,.57-1.17,1.16-2.32,1.69-3.51s1.22-2.61,1.77-3.94,1.13-2.66,1.61-4c.26-.74.52-1.48.79-2.21a14.31,14.31,0,0,0,.62-2.35,11.16,11.16,0,0,0,.14-1.57c0-.13,0-.26-.06-.39a9.46,9.46,0,0,0-.2-1,2.47,2.47,0,0,0-2.38-1.74h-.08m-18.86,36.6-.25.35.25-.35"/><path d="M845.47,302.36a3,3,0,0,0-1.23,1.73,56.26,56.26,0,0,0-1.79,6.52,19.49,19.49,0,0,0-.32,3.57,22.52,22.52,0,0,0,.48,4,69.25,69.25,0,0,0,2.19,8c.89,2.89,1.88,5.76,2.94,8.6q2,5.28,3.9,10.56c.46,1.25.89,2.51,1.31,3.78.53,1.59,1.11,3.16,1.6,4.77l2.23,7.31c.73,2.38,1.37,4.79,2.06,7.19s1.23,4.75,1.84,7.12c.29,1.14.47,2.33.71,3.48l.68,3.33q.45,3.2.88,6.41c.26,1.91.4,3.84.5,5.77a61.52,61.52,0,0,1,0,8.58c-.13,1.18-.29,2.36-.52,3.53a22.77,22.77,0,0,1-1,3.42,26.53,26.53,0,0,1-2.64,4.92,52.2,52.2,0,0,1-8.15,8.29,89.32,89.32,0,0,1-12,8.16c-2,1.12-3.95,2.19-6,3.23l-2.14,1a62,62,0,0,1-7.36,2.55,3,3,0,0,0-.53,5.58,3.29,3.29,0,0,0,2.35.23,31.56,31.56,0,0,0,5.32-1.36c.74-.29,1.52-.53,2.24-.86l2.66-1.21c1.49-.68,3-1.42,4.41-2.23,1.76-1,3.54-2,5.27-3a90.38,90.38,0,0,0,11.6-8.44,41.72,41.72,0,0,0,9.29-10.63,28.71,28.71,0,0,0,2.65-6.45,37.36,37.36,0,0,0,1.11-7.59,60.55,60.55,0,0,0,0-6.79,62.35,62.35,0,0,0-.5-6.3l-.84-5.91c-.21-1.49-.49-3-.79-4.43l-.71-3.4c-.13-.6-.23-1.22-.38-1.81L865.33,368q-1.17-4.39-2.54-8.74c-1-3.17-2-6.35-3.07-9.48-.92-2.62-1.83-5.23-2.82-7.81s-2.05-5.35-3.09-8c-1-2.5-1.87-5-2.79-7.55-.43-1.2-.79-2.42-1.19-3.63a52.6,52.6,0,0,1-1.78-6.4,17.94,17.94,0,0,1-.21-3.62,46.51,46.51,0,0,1,1.88-7.31,2.82,2.82,0,0,0-4.25-3m-11.6,131.91-.39.18.39-.18"/><path d="M835.43,352.84a2.42,2.42,0,0,0-1.67.76,2.52,2.52,0,0,0-.64,1.71c0,.88-.09,1.74-.17,2.6s-.29,2-.49,3c-.23,1.19-.48,2.38-.76,3.56-.54,2.3-1.09,4.61-1.73,6.88-.34,1.22-.7,2.44-1,3.66-.27.92-.5,1.86-.8,2.77q-1.2,3.61-2.41,7.23c-1.19,3-2.39,6.05-3.62,9.07-1,2.37-1.94,4.72-2.8,7.13a53.47,53.47,0,0,0-2,7.39c-.51,2.54-.78,5.13-1.12,7.7a2.3,2.3,0,0,0,.27,1.64,2.14,2.14,0,0,0,2.94.66,2,2,0,0,0,.93-1.31c.39-3,.74-6,1.39-9a58.05,58.05,0,0,1,2.54-8.13c.88-2.11,1.78-4.22,2.65-6.33l1.65-4.06c.5-1.22,1.05-2.44,1.48-3.69.86-2.47,1.7-4.94,2.56-7.41.37-1.08.66-2.2,1-3.3s.66-2.13,1-3.2q1.14-4.05,2.19-8.12a35.92,35.92,0,0,0,.73-3.59,39.61,39.61,0,0,0,.46-5.38,2.4,2.4,0,0,0-2.39-2.31h-.07"/></g></g></svg>