<?xml version="1.0" encoding="UTF-8" standalone="no"?>
<svg   xmlns:dc="http://purl.org/dc/elements/1.1/"
   xmlns:cc="http://creativecommons.org/ns#"
   xmlns:rdf="http://www.w3.org/1999/02/22-rdf-syntax-ns#"
   xmlns:svg="http://www.w3.org/2000/svg"
   xmlns="http://www.w3.org/2000/svg"
   xmlns:sodipodi="http://sodipodi.sourceforge.net/DTD/sodipodi-0.dtd"
   xmlns:inkscape="http://www.inkscape.org/namespaces/inkscape"
   version="1.1"
 id="visual" viewBox="0 0 1024 1024" preserveAspectRatio="xMinYMid" width="750" height="750">
<g transform="translate(512,512)"><g class="group"><path id="group0" d="M-282.49579016382165,205.24520553649492A349.184,349.184 0 0,1 -332.1642804729956,107.6863809116879L-301.9675277027232,97.89670991971627A317.44,317.44 0 0,0 -256.8143546943833,186.58655048772263Z" style="fill: rgb(3, 78, 123); stroke: rgb(3, 78, 123);"></path><text dy=".35em" transform="rotate(-206.98124729826785)translate(354.184)">Dark UI Colors</text></g><g class="group"><path id="group1" d="M-337.13123747604294,90.95050617710682A349.184,349.184 0 0,1 -345.7759679631328,48.66668095482344L-314.34178905739344,44.24243723165767A317.44,317.44 0 0,0 -306.48294316003904,82.68227834282438Z" style="fill: rgb(254, 178, 76); stroke: rgb(254, 178, 76);"></path><text dy=".35em" transform="rotate(-191.55462420234392)translate(354.184)">Dynamic Retry Delay</text></g><g class="group"><path id="group2" d="M-347.7761583267836,31.324264643626655A349.184,349.184 0 0,1 -303.4936427427402,-172.68779537286937L-275.9033115843092,-156.9889048844267A317.44,317.44 0 0,0 -316.1601439334396,28.476604221478777Z" style="fill: rgb(177, 0, 38); stroke: rgb(177, 0, 38);"></path><text dy=".35em" transform="rotate(-167.75344502624012)translate(354.184)">Avoid Extraneous Work</text></g><g class="group"><path id="group3" d="M-294.48356216160767,-187.6403407389002A349.184,349.184 0 0,1 -173.50834402950989,-303.02528014694957L-157.73485820864533,-275.4775274063178A317.44,317.44 0 0,0 -267.71232923782514,-170.5821279444547Z" style="fill: rgb(35, 132, 67); stroke: rgb(35, 132, 67);"></path><text dy=".35em" transform="rotate(-133.6451199052995)translate(354.184)">Race-to-idle</text></g><g class="group"><path id="group4" d="M-158.14655201041316,-311.3183803491495A349.184,349.184 0 0,1 -133.18045838805693,-322.78852420671194L-121.07314398914265,-293.44411291519265A317.44,317.44 0 0,0 -143.76959273673924,-283.0167094083177Z" style="fill: rgb(253, 187, 132); stroke: rgb(253, 187, 132);"></path><text dy=".35em" transform="rotate(-114.67541539083797)translate(354.184)">Open Only When Necessary</text></g><g class="group"><path id="group5" d="M-116.8813152046331,-329.04137127728364A349.184,349.184 0 0,1 -56.12146747478694,-344.6445222899625L-51.01951588616994,-313.3132020817841A317.44,317.44 0 0,0 -106.255741095121,-299.1285193429851Z" style="fill: rgb(255, 255, 178); stroke: rgb(255, 255, 178);"></path><text dy=".35em" transform="rotate(-104.40236526733241)translate(354.184)">Push Over Poll</text></g><g class="group"><path id="group6" d="M-38.82628333644904,-347.01871070344004A349.184,349.184 0 0,1 97.20195880534762,-335.38223724640443L88.36541709577055,-304.8929429512767A317.44,317.44 0 0,0 -35.29662121495367,-315.47155518494543Z" style="fill: rgb(254, 217, 118); stroke: rgb(254, 217, 118);"></path><text dy=".35em" transform="rotate(-85.11056244209469)translate(354.184)">Power Save Mode</text></g><g class="group"><path id="group7" d="M113.8426072734585,-330.1050236291188A349.184,349.184 0 0,1 248.79805129883772,-245.0081539988025L226.180046635307,-222.73468545345682A317.44,317.44 0 0,0 103.49327933950772,-300.09547602647166Z" style="fill: rgb(255, 102, 51); stroke: rgb(255, 102, 51);"></path><text dy=".35em" transform="rotate(-57.76630184745322)translate(354.184)">Power Awareness</text></g><g class="group"><path id="group8" d="M260.7324225218769,-232.26723768511457A349.184,349.184 0 0,1 263.327350025047,-229.32111238345763L239.38850002276996,-208.473738530416A317.44,317.44 0 0,0 237.02947501988805,-211.15203425919503Z" style="fill: rgb(255, 179, 153); stroke: rgb(255, 179, 153);"></path><text dy=".35em" transform="rotate(-41.37338381920085)translate(354.184)">Reduce Size</text></g><g class="group"><path id="group9" d="M274.45953809978516,-215.8736385065407A349.184,349.184 0 0,1 310.4719785461683,-159.80180347426503L282.24725322378936,-145.27436679478637A317.44,317.44 0 0,0 249.50867099980465,-196.24876227867335Z" style="fill: rgb(255, 51, 255); stroke: rgb(255, 51, 255);"></path><text dy=".35em" transform="rotate(-32.71082524957607)translate(354.184)">WiFi Over Cellular</text></g><g class="group"><path id="group10" d="M318.0707308039259,-144.08496126194612A349.184,349.184 0 0,1 327.0598734486033,-122.31641359925327L297.32715768054845,-111.19673963568478A317.44,317.44 0 0,0 289.1552098217508,-130.986328419951Z" style="fill: rgb(255, 255, 153); stroke: rgb(255, 255, 153);"></path><text dy=".35em" transform="rotate(-22.437775126070534)translate(354.184)">Suppress Logs</text></g><g class="group"><path id="group11" d="M332.76440651139666,-105.81736915609827A349.184,349.184 0 0,1 345.80486751728455,-48.4609064850556L314.36806137934957,-44.05536953186873A317.44,317.44 0 0,0 302.51309682854236,-96.19760832372569Z" style="fill: rgb(0, 179, 230); stroke: rgb(0, 179, 230);"></path><text dy=".35em" transform="rotate(-12.80892162411729)translate(354.184)">Batch Operations</text></g><g class="group"><path id="group12" d="M347.79473732696187,-31.11730296265459A349.184,349.184 0 0,1 349.09002529297686,8.100623244466394L317.35456844816076,7.364202949514904A317.44,317.44 0 0,0 316.17703393360165,-28.2884572387769Z" style="fill: rgb(230, 179, 51); stroke: rgb(230, 179, 51);"></path><text dy=".35em" transform="rotate(-1.8916748790594653)translate(354.184)">Cache</text></g><g class="group"><path id="group13" d="M348.2488912423128,25.537729039595337A349.184,349.184 0 0,1 298.52042329053273,181.1491726021435L271.3822029913934,164.68106600194864A317.44,317.44 0 0,0 316.5899011293753,23.21611730872303Z" style="fill: rgb(51, 102, 230); stroke: rgb(51, 102, 230);"></path><text dy=".35em" transform="rotate(17.72222625695443)translate(354.184)">Decrease Rate</text></g><g class="group"><path id="group14" d="M289.0936653339093,195.84258607311554A349.184,349.184 0 0,1 95.92394034007629,335.75000152737675L87.20358212734207,305.22727411579706A317.44,317.44 0 0,0 262.8124230308266,178.03871461192318Z" style="fill: rgb(153, 153, 102); stroke: rgb(153, 153, 102);"></path><text dy=".35em" transform="rotate(54.085239553328165)translate(354.184)">User Knows Best</text></g><g class="group"><path id="group15" d="M79.0235542337952,340.124600304445A349.184,349.184 0 0,1 55.91636499061992,344.6778582709307L50.83305908238174,313.34350751902787A317.44,317.44 0 0,0 71.83959475799563,309.20418209494994Z" style="fill: rgb(153, 255, 153); stroke: rgb(153, 255, 153);"></path><text dy=".35em" transform="rotate(78.85271366176039)translate(354.184)">Inform Users</text></g><g class="group"><path id="group16" d="M38.61977107234395,347.04175417133854A349.184,349.184 0 0,1 -43.632676475103544,346.44718991445L-39.6660695228214,314.95199083131814A317.44,317.44 0 0,0 35.10888279303995,315.4925037921259Z" style="fill: rgb(179, 77, 77); stroke: rgb(179, 77, 77);"></path><text dy=".35em" text-anchor="end" transform="rotate(90.41415702837051)translate(354.184)rotate(180)">Enough resolution</text></g><g class="group"><path id="group17" d="M-60.893289739324054,343.83349621687927A349.184,349.184 0 0,1 -91.532172865381,336.9737781883659L-83.21106624125545,306.3397983530599A317.44,317.44 0 0,0 -55.357536126658225,312.5759056517084Z" style="fill: rgb(255, 153, 230); stroke: rgb(255, 153, 230);"></path><text dy=".35em" text-anchor="end" transform="rotate(102.619797016533)translate(354.184)rotate(180)">Sensor Fusion</text></g><g class="group"><path id="group18" d="M-108.25945098367264,331.97794675055417A349.184,349.184 0 0,1 -148.38594325643788,316.0871362455252L-134.89631205130715,287.3519420413865A317.44,317.44 0 0,0 -98.41768271242967,301.7981334095947Z" style="fill: rgb(204, 255, 26); stroke: rgb(204, 255, 26);"></path><text dy=".35em" text-anchor="end" transform="rotate(111.60445389693388)translate(354.184)rotate(180)">Kill Abnormal Tasks</text></g><g class="group"><path id="group19" d="M-163.99827195301904,308.2759034573147A349.184,349.184 0 0,1 -197.55035369624008,287.9293726080937L-179.59123063294552,261.75397509826695A317.44,317.44 0 0,0 -149.0893381391082,280.2508213248315Z" style="fill: rgb(255, 26, 102); stroke: rgb(255, 26, 102);"></path><text dy=".35em" text-anchor="end" transform="rotate(121.23330739888715)translate(354.184)rotate(180)">No screen interaction</text></g><g class="group"><path id="group20" d="M-211.69393804681755,277.69613330082615A349.184,349.184 0 0,1 -241.51391776981293,252.19138244491236L-219.55810706346628,229.2648931317385A317.44,317.44 0 0,0 -192.44903458801593,252.45103027347827Z" style="fill: rgb(230, 51, 26); stroke: rgb(230, 51, 26);"></path><text dy=".35em" text-anchor="end" transform="rotate(130.54006259006425)translate(354.184)rotate(180)">Avoid Extra. Graph. &amp; Anim.</text></g><g class="group"><path id="group21" d="M-253.81640405342975,239.80554390878063A349.184,349.184 0 0,1 -271.88475911709503,219.10760738924435L-247.16796283372273,199.18873399022212A317.44,317.44 0 0,0 -230.74218550311792,218.00503991707328Z" style="fill: rgb(51, 255, 204); stroke: rgb(51, 255, 204);"></path><text dy=".35em" text-anchor="end" transform="rotate(138.88052284891285)translate(354.184)rotate(180)">Manual Sync - On Demand</text></g><g class="chord"><path d="M-256.8143546943833,186.58655048772263A317.44,317.44 0 0,1 -301.9675277027232,97.89670991971627Q 0,0 -256.8143546943833,186.58655048772263Z" style="fill: rgb(3, 78, 123); opacity: 1;"><title>28  Dark UI Colors shared with Dark UI Colors</title></path><path d="M-306.48294316003904,82.68227834282438A317.44,317.44 0 0,1 -313.8244980095231,47.7738217967838Q 0,0 -306.48294316003904,82.68227834282438Z" style="fill: rgb(254, 178, 76); opacity: 1;"><title>10  Dynamic Retry Delay shared with Dynamic Retry Delay</title></path><path d="M-313.8244980095231,47.7738217967838A317.44,317.44 0 0,1 -314.34178905739344,44.24243723165767Q 0,0 -247.16796283372273,199.18873399022212A317.44,317.44 0 0,1 -247.16796283372273,199.18873399022212Q 0,0 -313.8244980095231,47.7738217967838Z" style="fill: rgb(254, 178, 76); opacity: 1;"><title>1  Dynamic Retry Delay shared with Manual Sync - On Demand</title></path><path d="M-316.1601439334396,28.476604221478777A317.44,317.44 0 0,1 -310.2162916529087,-67.33502798037205Q 0,0 -316.1601439334396,28.476604221478777Z" style="fill: rgb(177, 0, 38); opacity: 1;"><title>27  Avoid Extraneous Work shared with Avoid Extraneous Work</title></path><path d="M-310.2162916529087,-67.33502798037205A317.44,317.44 0 0,1 -300.70281452396756,-101.71514605684031Q 0,0 -201.73638586023435,-245.0930113651767A317.44,317.44 0 0,1 -172.96397560445573,-266.1796700409354Q 0,0 -310.2162916529087,-67.33502798037205Z" style="fill: rgb(177, 0, 38); opacity: 1;"><title>10  Avoid Extraneous Work shared with Race-to-idle</title></path><path d="M-300.70281452396756,-101.71514605684031A317.44,317.44 0 0,1 -294.5126958363853,-118.45009747224694Q 0,0 -72.02358459470366,-309.1613767308743A317.44,317.44 0 0,1 -54.53890757864868,-312.71978057060545Q 0,0 -300.70281452396756,-101.71514605684031Z" style="fill: rgb(177, 0, 38); opacity: 1;"><title>5  Avoid Extraneous Work shared with Push Over Poll</title></path><path d="M-294.5126958363853,-118.45009747224694A317.44,317.44 0 0,1 -287.3920666626099,-134.81080676041515Q 0,0 296.46838235420705,113.46652309945726A317.44,317.44 0 0,1 289.6246765559369,129.94498962972347Q 0,0 -294.5126958363853,-118.45009747224694Z" style="fill: rgb(177, 0, 38); opacity: 1;"><title>5  Avoid Extraneous Work shared with Decrease Rate</title></path><path d="M-287.3920666626099,-134.81080676041515A317.44,317.44 0 0,1 -279.36342457306245,-150.74558239235682Q 0,0 143.60114847775975,283.1022143252652A317.44,317.44 0 0,1 127.46758727891235,290.72352466440145Q 0,0 -287.3920666626099,-134.81080676041515Z" style="fill: rgb(177, 0, 38); opacity: 1;"><title>5  Avoid Extraneous Work shared with User Knows Best</title></path><path d="M-279.36342457306245,-150.74558239235682A317.44,317.44 0 0,1 -275.9033115843092,-156.9889048844267Q 0,0 -247.16796283372273,199.18873399022212A317.44,317.44 0 0,1 -247.16796283372273,199.18873399022212Q 0,0 -279.36342457306245,-150.74558239235682Z" style="fill: rgb(177, 0, 38); opacity: 1;"><title>2  Avoid Extraneous Work shared with Manual Sync - On Demand</title></path><path d="M-267.71232923782514,-170.5821279444547A317.44,317.44 0 0,1 -201.73638586023435,-245.0930113651767Q 0,0 -267.71232923782514,-170.5821279444547Z" style="fill: rgb(35, 132, 67); opacity: 1;"><title>28  Race-to-idle shared with Race-to-idle</title></path><path d="M-172.96397560445573,-266.1796700409354A317.44,317.44 0 0,1 -157.73485820864533,-275.4775274063178Q 0,0 127.46758727891235,290.72352466440145A317.44,317.44 0 0,1 110.93129326654079,297.4262963730892Q 0,0 -172.96397560445573,-266.1796700409354Z" style="fill: rgb(35, 132, 67); opacity: 1;"><title>5  Race-to-idle shared with User Knows Best</title></path><path d="M-143.76959273673924,-283.0167094083177A317.44,317.44 0 0,1 -121.07314398914265,-293.44411291519265Q 0,0 -143.76959273673924,-283.0167094083177Z" style="fill: rgb(253, 187, 132); opacity: 1;"><title>7  Open Only When Necessary shared with Open Only When Necessary</title></path><path d="M-106.255741095121,-299.1285193429851A317.44,317.44 0 0,1 -72.02358459470366,-309.1613767308743Q 0,0 -106.255741095121,-299.1285193429851Z" style="fill: rgb(255, 255, 178); opacity: 1;"><title>10  Push Over Poll shared with Push Over Poll</title></path><path d="M-54.53890757864868,-312.71978057060545A317.44,317.44 0 0,1 -51.01951588616994,-313.3132020817841Q 0,0 -247.16796283372273,199.18873399022212A317.44,317.44 0 0,1 -247.16796283372273,199.18873399022212Q 0,0 -54.53890757864868,-312.71978057060545Z" style="fill: rgb(255, 255, 178); opacity: 1;"><title>1  Push Over Poll shared with Manual Sync - On Demand</title></path><path d="M-35.29662121495367,-315.47155518494543A317.44,317.44 0 0,1 35.93483795593303,-315.3994943259752Q 0,0 -35.29662121495367,-315.47155518494543Z" style="fill: rgb(254, 217, 118); opacity: 1;"><title>20  Power Save Mode shared with Power Save Mode</title></path><path d="M35.93483795593303,-315.3994943259752A317.44,317.44 0 0,1 60.62101520487389,-311.5978917058497Q 0,0 167.80202278341758,-269.46360561269387A317.44,317.44 0 0,1 188.46842022254705,-255.43650518048005Q 0,0 35.93483795593303,-315.3994943259752Z" style="fill: rgb(254, 217, 118); opacity: 1;"><title>7  Power Save Mode shared with Power Awareness</title></path><path d="M60.62101520487389,-311.5978917058497A317.44,317.44 0 0,1 84.93188540807303,-305.86717450721966Q 0,0 203.1110243585592,243.9550478756625A317.44,317.44 0 0,1 183.30199832902557,259.16892369376757Q 0,0 60.62101520487389,-311.5978917058497Z" style="fill: rgb(254, 217, 118); opacity: 1;"><title>7  Power Save Mode shared with User Knows Best</title></path><path d="M84.93188540807303,-305.86717450721966A317.44,317.44 0 0,1 88.36541709577055,-304.8929429512767Q 0,0 -247.16796283372273,199.18873399022212A317.44,317.44 0 0,1 -247.16796283372273,199.18873399022212Q 0,0 84.93188540807303,-305.86717450721966Z" style="fill: rgb(254, 217, 118); opacity: 1;"><title>1  Power Save Mode shared with Manual Sync - On Demand</title></path><path d="M103.49327933950772,-300.09547602647166A317.44,317.44 0 0,1 167.80202278341758,-269.46360561269387Q 0,0 103.49327933950772,-300.09547602647166Z" style="fill: rgb(255, 102, 51); opacity: 1;"><title>20  Power Awareness shared with Power Awareness</title></path><path d="M207.9680023952168,-239.82798748216A317.44,317.44 0 0,1 221.1147179755383,-227.7639898987506Q 0,0 269.95175550329435,-167.0155780180088A317.44,317.44 0 0,1 278.9094303974942,-151.58391483051673Q 0,0 207.9680023952168,-239.82798748216Z" style="fill: rgb(255, 102, 51); opacity: 1;"><title>5  Power Awareness shared with WiFi Over Cellular</title></path><path d="M188.46842022254705,-255.43650518048005A317.44,317.44 0 0,1 207.9680023952168,-239.82798748216Q 0,0 183.30199832902557,259.16892369376757A317.44,317.44 0 0,1 162.35814255045318,272.7782746986401Q 0,0 188.46842022254705,-255.43650518048005Z" style="fill: rgb(255, 102, 51); opacity: 1;"><title>7  Power Awareness shared with User Knows Best</title></path><path d="M221.1147179755383,-227.7639898987506A317.44,317.44 0 0,1 226.180046635307,-222.73468545345682Q 0,0 -247.16796283372273,199.18873399022212A317.44,317.44 0 0,1 -247.16796283372273,199.18873399022212Q 0,0 221.1147179755383,-227.7639898987506Z" style="fill: rgb(255, 102, 51); opacity: 1;"><title>2  Power Awareness shared with Manual Sync - On Demand</title></path><path d="M237.02947501988805,-211.15203425919503A317.44,317.44 0 0,1 239.38850002276996,-208.473738530416Q 0,0 -247.16796283372273,199.18873399022212A317.44,317.44 0 0,1 -247.16796283372273,199.18873399022212Q 0,0 237.02947501988805,-211.15203425919503Z" style="fill: rgb(255, 179, 153); opacity: 1;"><title>1  Reduce Size shared with Manual Sync - On Demand</title></path><path d="M249.50867099980465,-196.24876227867335A317.44,317.44 0 0,1 269.95175550329435,-167.0155780180088Q 0,0 249.50867099980465,-196.24876227867335Z" style="fill: rgb(255, 51, 255); opacity: 1;"><title>10  WiFi Over Cellular shared with WiFi Over Cellular</title></path><path d="M278.9094303974942,-151.58391483051673A317.44,317.44 0 0,1 282.24725322378936,-145.27436679478637Q 0,0 -247.16796283372273,199.18873399022212A317.44,317.44 0 0,1 -247.16796283372273,199.18873399022212Q 0,0 278.9094303974942,-151.58391483051673Z" style="fill: rgb(255, 51, 255); opacity: 1;"><title>2  WiFi Over Cellular shared with Manual Sync - On Demand</title></path><path d="M289.1552098217508,-130.986328419951A317.44,317.44 0 0,1 297.32715768054845,-111.19673963568478Q 0,0 289.1552098217508,-130.986328419951Z" style="fill: rgb(255, 255, 153); opacity: 1;"><title>6  Suppress Logs shared with Suppress Logs</title></path><path d="M302.51309682854236,-96.19760832372569A317.44,317.44 0 0,1 311.3960938469082,-61.64922008336795Q 0,0 302.51309682854236,-96.19760832372569Z" style="fill: rgb(0, 179, 230); opacity: 1;"><title>10  Batch Operations shared with Batch Operations</title></path><path d="M311.3960938469082,-61.64922008336795A317.44,317.44 0 0,1 314.36806137934957,-44.05536953186873Q 0,0 289.6246765559369,129.94498962972347A317.44,317.44 0 0,1 281.86590392895073,146.01289601372727Q 0,0 311.3960938469082,-61.64922008336795Z" style="fill: rgb(0, 179, 230); opacity: 1;"><title>5  Batch Operations shared with Decrease Rate</title></path><path d="M316.17703393360165,-28.2884572387769A317.44,317.44 0 0,1 317.35456844816076,7.364202949514904Q 0,0 316.17703393360165,-28.2884572387769Z" style="fill: rgb(230, 179, 51); opacity: 1;"><title>10  Cache shared with Cache</title></path><path d="M316.5899011293753,23.21611730872303A317.44,317.44 0 0,1 303.44270408059987,93.22381101549918Q 0,0 316.5899011293753,23.21611730872303Z" style="fill: rgb(51, 102, 230); opacity: 1;"><title>20  Decrease Rate shared with Decrease Rate</title></path><path d="M303.44270408059987,93.22381101549918A317.44,317.44 0 0,1 296.46838235420705,113.46652309945726Q 0,0 162.35814255045318,272.7782746986401A317.44,317.44 0 0,1 143.60114847775975,283.1022143252652Q 0,0 303.44270408059987,93.22381101549918Z" style="fill: rgb(51, 102, 230); opacity: 1;"><title>6  Decrease Rate shared with User Knows Best</title></path><path d="M281.86590392895073,146.01289601372727A317.44,317.44 0 0,1 273.21657825276117,161.61947583089375Q 0,0 -0.5100394302667516,317.4395902526646A317.44,317.44 0 0,1 -18.345261008765466,316.9094586763233Q 0,0 281.86590392895073,146.01289601372727Z" style="fill: rgb(51, 102, 230); opacity: 1;"><title>5  Decrease Rate shared with Enough resolution</title></path><path d="M273.21657825276117,161.61947583089375A317.44,317.44 0 0,1 271.3822029913934,164.68106600194864Q 0,0 -247.16796283372273,199.18873399022212A317.44,317.44 0 0,1 -247.16796283372273,199.18873399022212Q 0,0 273.21657825276117,161.61947583089375Z" style="fill: rgb(51, 102, 230); opacity: 1;"><title>1  Decrease Rate shared with Manual Sync - On Demand</title></path><path d="M262.8124230308266,178.03871461192318A317.44,317.44 0 0,1 203.1110243585592,243.9550478756625Q 0,0 262.8124230308266,178.03871461192318Z" style="fill: rgb(153, 153, 102); opacity: 1;"><title>25  User Knows Best shared with User Knows Best</title></path><path d="M110.93129326654079,297.4262963730892A317.44,317.44 0 0,1 94.04451272815263,303.18935209819676Q 0,0 -18.345261008765466,316.9094586763233A317.44,317.44 0 0,1 -36.12252088312736,315.3780542223064Q 0,0 110.93129326654079,297.4262963730892Z" style="fill: rgb(153, 153, 102); opacity: 1;"><title>5  User Knows Best shared with Enough resolution</title></path><path d="M94.04451272815263,303.18935209819676A317.44,317.44 0 0,1 87.20358212734207,305.22727411579706Q 0,0 -247.16796283372273,199.18873399022212A317.44,317.44 0 0,1 -247.16796283372273,199.18873399022212Q 0,0 94.04451272815263,303.18935209819676Z" style="fill: rgb(153, 153, 102); opacity: 1;"><title>2  User Knows Best shared with Manual Sync - On Demand</title></path><path d="M71.83959475799563,309.20418209494994A317.44,317.44 0 0,1 50.83305908238174,313.34350751902787Q 0,0 71.83959475799563,309.20418209494994Z" style="fill: rgb(153, 255, 153); opacity: 1;"><title>6  Inform Users shared with Inform Users</title></path><path d="M35.10888279303995,315.4925037921259A317.44,317.44 0 0,1 -0.5100394302667516,317.4395902526646Q 0,0 35.10888279303995,315.4925037921259Z" style="fill: rgb(179, 77, 77); opacity: 1;"><title>10  Enough resolution shared with Enough resolution</title></path><path d="M-36.12252088312736,315.3780542223064A317.44,317.44 0 0,1 -39.6660695228214,314.95199083131814Q 0,0 -247.16796283372273,199.18873399022212A317.44,317.44 0 0,1 -247.16796283372273,199.18873399022212Q 0,0 -36.12252088312736,315.3780542223064Z" style="fill: rgb(179, 77, 77); opacity: 1;"><title>1  Enough resolution shared with Manual Sync - On Demand</title></path><path d="M-55.357536126658225,312.5759056517084A317.44,317.44 0 0,1 -83.21106624125545,306.3397983530599Q 0,0 -55.357536126658225,312.5759056517084Z" style="fill: rgb(255, 153, 230); opacity: 1;"><title>8  Sensor Fusion shared with Sensor Fusion</title></path><path d="M-98.41768271242967,301.7981334095947A317.44,317.44 0 0,1 -131.6570548342131,288.8504345026696Q 0,0 -98.41768271242967,301.7981334095947Z" style="fill: rgb(204, 255, 26); opacity: 1;"><title>10  Kill Abnormal Tasks shared with Kill Abnormal Tasks</title></path><path d="M-131.6570548342131,288.8504345026696A317.44,317.44 0 0,1 -134.89631205130715,287.3519420413865Q 0,0 -247.16796283372273,199.18873399022212A317.44,317.44 0 0,1 -247.16796283372273,199.18873399022212Q 0,0 -131.6570548342131,288.8504345026696Z" style="fill: rgb(204, 255, 26); opacity: 1;"><title>1  Kill Abnormal Tasks shared with Manual Sync - On Demand</title></path><path d="M-149.0893381391082,280.2508213248315A317.44,317.44 0 0,1 -179.59123063294552,261.75397509826695Q 0,0 -149.0893381391082,280.2508213248315Z" style="fill: rgb(255, 26, 102); opacity: 1;"><title>10  No screen interaction shared with No screen interaction</title></path><path d="M-192.44903458801593,252.45103027347827A317.44,317.44 0 0,1 -219.55810706346628,229.2648931317385Q 0,0 -192.44903458801593,252.45103027347827Z" style="fill: rgb(230, 51, 26); opacity: 1;"><title>10  Avoid Extra. Graph. &amp; Anim. shared with Avoid Extra. Graph. &amp; Anim.</title></path><path d="M-230.74218550311792,218.00503991707328A317.44,317.44 0 0,1 -247.16796283372273,199.18873399022212Q 0,0 -230.74218550311792,218.00503991707328Z" style="fill: rgb(51, 255, 204); opacity: 1;"><title>7  Manual Sync - On Demand shared with Manual Sync - On Demand</title></path></g></g></svg>